<svg width="1440" height="4986" viewBox="0 0 1440 4986" fill="none" xmlns="http://www.w3.org/2000/svg">
<g filter="url(#filter0_f_1_1672)">
<circle cx="754" cy="2478" r="350" fill="black"/>
</g>
<g opacity="0.8" filter="url(#filter1_f_1_1672)">
<mask id="mask0_1_1672" style="mask-type:alpha" maskUnits="userSpaceOnUse" x="583" y="1548" width="2230" height="2023">
<path d="M2812.36 2356.28C2571.63 2686.07 2056.31 3669.86 1961.87 3562.76L583.806 2761.71L1346.61 1548.03L2812.36 2356.28Z" fill="url(#paint0_linear_1_1672)"/>
</mask>
<g mask="url(#mask0_1_1672)">
<path d="M1509.69 3045.72C1391.82 2959.93 1378.78 2769.57 1455.93 2663.58C1533.08 2557.58 1682.03 2453.21 1808.49 2545.25C1871.15 2590.86 1998.81 2575.38 2034.85 2682.35C2071.53 2791.25 1949.08 2923.27 1910.16 2976.74C1833.01 3082.74 1627.55 3131.5 1509.69 3045.72Z" fill="#FFA23F"/>
<g filter="url(#filter2_f_1_1672)">
<path d="M1517.71 3037.66C1391.3 2945.66 1374.81 2778.19 1441.12 2687.08C1507.43 2595.97 1642.15 2511.11 1768.56 2603.11C1831.2 2648.71 1953.31 2640.79 1994.71 2740.33C2036.85 2841.65 1929.18 2953.38 1895.73 2999.34C1829.42 3090.45 1644.12 3129.67 1517.71 3037.66Z" fill="#FFA23F"/>
</g>
<g filter="url(#filter3_f_1_1672)">
<path d="M1513.88 3034.88C1372.2 2931.76 1362 2732.66 1443.76 2620.34C1525.52 2508.01 1686.26 2399.5 1827.94 2502.62C1898.15 2553.72 2047.79 2527.29 2090.49 2643.94C2133.95 2762.68 1996.22 2911.33 1954.98 2968C1873.23 3080.33 1655.56 3137.99 1513.88 3034.88Z" fill="#FFA23F"/>
</g>
<g filter="url(#filter4_f_1_1672)">
<path d="M1507.21 3009.67C1352.35 2854.81 1313.5 2603.66 1409.18 2472.19C1504.87 2340.73 1697.09 2263.22 1867.01 2386.89C1951.21 2448.18 2163.73 2383.68 2216.12 2521.95C2269.45 2662.72 2115.79 2825.17 2067.52 2891.48C1971.84 3022.95 1686.62 3189.08 1507.21 3009.67Z" fill="#FFA23F"/>
</g>
<g filter="url(#filter5_f_1_1672)">
<path d="M1487 2913.57C1304.05 2780.41 1269.83 2496.4 1363.38 2367.86C1456.94 2239.32 1653.67 2169.95 1836.62 2303.11C1927.28 2369.1 2073.06 2400.16 2134.19 2542.57C2196.42 2687.53 2043.89 2844.69 1996.7 2909.53C1903.14 3038.07 1669.96 3046.73 1487 2913.57Z" fill="#FFA23F"/>
</g>
<g filter="url(#filter6_f_1_1672)">
<path d="M1453.14 2810.44C1264.07 2672.83 1227.4 2381.12 1323.09 2249.65C1418.78 2118.19 1621 2047.97 1810.07 2185.58C1903.76 2253.77 2054.04 2286.39 2117.7 2432.88C2182.5 2581.99 2026.24 2742.54 1977.97 2808.86C1882.28 2940.33 1642.2 2948.05 1453.14 2810.44Z" fill="#FFA23F"/>
</g>
<g filter="url(#filter7_f_1_1672)">
<path d="M1580.13 2934.84C1414.7 2814.43 1398.37 2537.53 1494.06 2406.07C1589.74 2274.6 1779.62 2195.39 1945.06 2315.8C2027.03 2375.47 2152.03 2412.94 2201.77 2549.3C2252.42 2688.11 2099.37 2851 2051.1 2917.32C1955.41 3048.79 1745.56 3055.25 1580.13 2934.84Z" fill="#FFA23F"/>
</g>
</g>
</g>
<g opacity="0.6">
<mask id="mask1_1_1672" style="mask-type:alpha" maskUnits="userSpaceOnUse" x="677" y="3600" width="1346" height="1350">
<rect x="677" y="4189.17" width="844.087" height="1061.32" transform="rotate(-44.2664 677 4189.17)" fill="url(#paint1_linear_1_1672)"/>
</mask>
<g mask="url(#mask1_1_1672)">
<path d="M1675.78 4167.58C1795.81 4290.72 1793.28 4487.85 1670.14 4607.87C1547 4727.9 1349.88 4725.38 1229.85 4602.24C1109.82 4479.09 1274.08 4447.9 1397.22 4327.87C1520.36 4207.84 1555.75 4044.44 1675.78 4167.58Z" fill="#FF8707"/>
<g filter="url(#filter8_f_1_1672)">
<path d="M1680.12 4172.02C1773.03 4267.34 1748.52 4441.91 1625.38 4561.94C1502.24 4681.97 1327.09 4702 1234.18 4606.67C1141.27 4511.35 1165.78 4336.78 1288.92 4216.75C1412.06 4096.72 1587.2 4076.7 1680.12 4172.02Z" fill="#FF8707"/>
</g>
<g filter="url(#filter9_f_1_1672)">
<ellipse cx="1448.49" cy="4380.46" rx="311.361" ry="241.02" transform="rotate(-44.2664 1448.49 4380.46)" fill="#FF8707"/>
</g>
<g filter="url(#filter10_f_1_1672)">
<ellipse cx="1424.66" cy="4356.02" rx="311.361" ry="242.054" transform="rotate(-44.2664 1424.66 4356.02)" fill="#FF8707"/>
</g>
<g filter="url(#filter11_f_1_1672)">
<ellipse cx="1353.18" cy="4282.68" rx="311.361" ry="241.02" transform="rotate(-44.2664 1353.18 4282.68)" fill="#FF8707"/>
</g>
<g filter="url(#filter12_f_1_1672)">
<ellipse cx="1256.43" cy="4183.42" rx="261.708" ry="241.02" transform="rotate(-44.2664 1256.43 4183.42)" fill="#FF8707"/>
</g>
</g>
</g>
<g opacity="0.6">
<mask id="mask2_1_1672" style="mask-type:alpha" maskUnits="userSpaceOnUse" x="-762" y="2857" width="1295" height="1353">
<rect x="-166.414" y="2857.63" width="844.087" height="1061.32" transform="rotate(34.1133 -166.414 2857.63)" fill="url(#paint2_linear_1_1672)"/>
</mask>
<g mask="url(#mask2_1_1672)">
<path d="M55.9136 3831.59C-40.5267 3973.96 -234.121 4011.19 -376.492 3914.75C-518.862 3818.31 -556.096 3624.72 -459.656 3482.34C-363.216 3339.97 -299.572 3494.58 -157.201 3591.02C-14.8302 3687.46 152.354 3689.22 55.9136 3831.59Z" fill="#FF8707"/>
<g filter="url(#filter13_f_1_1672)">
<path d="M52.4319 3836.72C-22.2212 3946.93 -198.154 3958.09 -340.524 3861.65C-482.895 3765.21 -537.791 3597.69 -463.138 3487.48C-388.485 3377.28 -212.552 3366.12 -70.1815 3462.56C72.1892 3559 127.085 3726.52 52.4319 3836.72Z" fill="#FF8707"/>
</g>
<g filter="url(#filter14_f_1_1672)">
<ellipse cx="-198.391" cy="3651.83" rx="311.361" ry="241.02" transform="rotate(34.1133 -198.391 3651.83)" fill="#FF8707"/>
</g>
<g filter="url(#filter15_f_1_1672)">
<ellipse cx="-179.247" cy="3623.56" rx="311.361" ry="242.054" transform="rotate(34.1133 -179.247 3623.56)" fill="#FF8707"/>
</g>
<g filter="url(#filter16_f_1_1672)">
<ellipse cx="-121.813" cy="3538.78" rx="311.361" ry="241.02" transform="rotate(34.1133 -121.813 3538.78)" fill="#FF8707"/>
</g>
<g filter="url(#filter17_f_1_1672)">
<ellipse cx="-44.0763" cy="3424.02" rx="261.708" ry="241.02" transform="rotate(34.1133 -44.0763 3424.02)" fill="#FF8707"/>
</g>
</g>
</g>
<g opacity="0.8">
<g opacity="0.24" filter="url(#filter18_f_1_1672)">
<circle cx="1238" cy="288" r="179" fill="#FF8707"/>
</g>
<g opacity="0.24" filter="url(#filter19_f_1_1672)">
<circle cx="311.5" cy="2294.5" r="293.5" fill="#FF8707"/>
</g>
<g opacity="0.51" filter="url(#filter20_f_1_1672)">
<circle cx="711.5" cy="3366.5" r="293.5" fill="#FF8707"/>
</g>
<g opacity="0.24" filter="url(#filter21_f_1_1672)">
<circle cx="111.5" cy="3916.5" r="293.5" fill="#FF8707"/>
</g>
<g opacity="0.24" filter="url(#filter22_f_1_1672)">
<circle cx="1406.5" cy="4612.5" r="293.5" fill="#FF8707"/>
</g>
</g>
<line opacity="0.2" x1="100.25" x2="100.25" y2="1131" stroke="url(#paint3_linear_1_1672)" stroke-width="0.5"/>
<line opacity="0.2" x1="348.25" x2="348.25" y2="1131" stroke="url(#paint4_linear_1_1672)" stroke-width="0.5"/>
<line opacity="0.2" x1="596.25" x2="596.25" y2="1131" stroke="url(#paint5_linear_1_1672)" stroke-width="0.5"/>
<line opacity="0.2" x1="844.25" x2="844.25" y2="1131" stroke="url(#paint6_linear_1_1672)" stroke-width="0.5"/>
<line opacity="0.2" x1="1092.25" x2="1092.25" y2="1131" stroke="url(#paint7_linear_1_1672)" stroke-width="0.5"/>
<line opacity="0.2" x1="1340.25" x2="1340.25" y2="1131" stroke="url(#paint8_linear_1_1672)" stroke-width="0.5"/>
<defs>
<filter id="filter0_f_1_1672" x="-96" y="1628" width="1700" height="1700" filterUnits="userSpaceOnUse" color-interpolation-filters="sRGB">
<feFlood flood-opacity="0" result="BackgroundImageFix"/>
<feBlend mode="normal" in="SourceGraphic" in2="BackgroundImageFix" result="shape"/>
<feGaussianBlur stdDeviation="250" result="effect1_foregroundBlur_1_1672"/>
</filter>
<filter id="filter1_f_1_1672" x="1151.12" y="1989.69" width="1197.1" height="1221.47" filterUnits="userSpaceOnUse" color-interpolation-filters="sRGB">
<feFlood flood-opacity="0" result="BackgroundImageFix"/>
<feBlend mode="normal" in="SourceGraphic" in2="BackgroundImageFix" result="shape"/>
<feGaussianBlur stdDeviation="60.5" result="effect1_foregroundBlur_1_1672"/>
</filter>
<filter id="filter2_f_1_1672" x="1398.88" y="2559.45" width="609.469" height="534.712" filterUnits="userSpaceOnUse" color-interpolation-filters="sRGB">
<feFlood flood-opacity="0" result="BackgroundImageFix"/>
<feBlend mode="normal" in="SourceGraphic" in2="BackgroundImageFix" result="shape"/>
<feGaussianBlur stdDeviation="2" result="effect1_foregroundBlur_1_1672"/>
</filter>
<filter id="filter3_f_1_1672" x="1378.3" y="2447.21" width="734.572" height="655.479" filterUnits="userSpaceOnUse" color-interpolation-filters="sRGB">
<feFlood flood-opacity="0" result="BackgroundImageFix"/>
<feBlend mode="normal" in="SourceGraphic" in2="BackgroundImageFix" result="shape"/>
<feGaussianBlur stdDeviation="7" result="effect1_foregroundBlur_1_1672"/>
</filter>
<filter id="filter4_f_1_1672" x="1337.28" y="2304.66" width="909.939" height="803.583" filterUnits="userSpaceOnUse" color-interpolation-filters="sRGB">
<feFlood flood-opacity="0" result="BackgroundImageFix"/>
<feBlend mode="normal" in="SourceGraphic" in2="BackgroundImageFix" result="shape"/>
<feGaussianBlur stdDeviation="10" result="effect1_foregroundBlur_1_1672"/>
</filter>
<filter id="filter5_f_1_1672" x="1259" y="2177.18" width="943.895" height="886.568" filterUnits="userSpaceOnUse" color-interpolation-filters="sRGB">
<feFlood flood-opacity="0" result="BackgroundImageFix"/>
<feBlend mode="normal" in="SourceGraphic" in2="BackgroundImageFix" result="shape"/>
<feGaussianBlur stdDeviation="27" result="effect1_foregroundBlur_1_1672"/>
</filter>
<filter id="filter6_f_1_1672" x="1138.12" y="1976.69" width="1129.08" height="1067.9" filterUnits="userSpaceOnUse" color-interpolation-filters="sRGB">
<feFlood flood-opacity="0" result="BackgroundImageFix"/>
<feBlend mode="normal" in="SourceGraphic" in2="BackgroundImageFix" result="shape"/>
<feGaussianBlur stdDeviation="67" result="effect1_foregroundBlur_1_1672"/>
</filter>
<filter id="filter7_f_1_1672" x="1373.37" y="2194.4" width="900.541" height="888.343" filterUnits="userSpaceOnUse" color-interpolation-filters="sRGB">
<feFlood flood-opacity="0" result="BackgroundImageFix"/>
<feBlend mode="normal" in="SourceGraphic" in2="BackgroundImageFix" result="shape"/>
<feGaussianBlur stdDeviation="31" result="effect1_foregroundBlur_1_1672"/>
</filter>
<filter id="filter8_f_1_1672" x="1171.2" y="4105.19" width="571.891" height="568.307" filterUnits="userSpaceOnUse" color-interpolation-filters="sRGB">
<feFlood flood-opacity="0" result="BackgroundImageFix"/>
<feBlend mode="normal" in="SourceGraphic" in2="BackgroundImageFix" result="shape"/>
<feGaussianBlur stdDeviation="3.30857" result="effect1_foregroundBlur_1_1672"/>
</filter>
<filter id="filter9_f_1_1672" x="1146" y="4079.76" width="604.976" height="601.393" filterUnits="userSpaceOnUse" color-interpolation-filters="sRGB">
<feFlood flood-opacity="0" result="BackgroundImageFix"/>
<feBlend mode="normal" in="SourceGraphic" in2="BackgroundImageFix" result="shape"/>
<feGaussianBlur stdDeviation="11.58" result="effect1_foregroundBlur_1_1672"/>
</filter>
<filter id="filter10_f_1_1672" x="1088.65" y="4021.77" width="672.018" height="668.486" filterUnits="userSpaceOnUse" color-interpolation-filters="sRGB">
<feFlood flood-opacity="0" result="BackgroundImageFix"/>
<feBlend mode="normal" in="SourceGraphic" in2="BackgroundImageFix" result="shape"/>
<feGaussianBlur stdDeviation="28.1228" result="effect1_foregroundBlur_1_1672"/>
</filter>
<filter id="filter11_f_1_1672" x="951.435" y="3882.73" width="803.49" height="799.907" filterUnits="userSpaceOnUse" color-interpolation-filters="sRGB">
<feFlood flood-opacity="0" result="BackgroundImageFix"/>
<feBlend mode="normal" in="SourceGraphic" in2="BackgroundImageFix" result="shape"/>
<feGaussianBlur stdDeviation="61.2085" result="effect1_foregroundBlur_1_1672"/>
</filter>
<filter id="filter12_f_1_1672" x="789.526" y="3717.05" width="933.801" height="932.739" filterUnits="userSpaceOnUse" color-interpolation-filters="sRGB">
<feFlood flood-opacity="0" result="BackgroundImageFix"/>
<feBlend mode="normal" in="SourceGraphic" in2="BackgroundImageFix" result="shape"/>
<feGaussianBlur stdDeviation="107.528" result="effect1_foregroundBlur_1_1672"/>
</filter>
<filter id="filter13_f_1_1672" x="-503.104" y="3390.32" width="595.502" height="543.568" filterUnits="userSpaceOnUse" color-interpolation-filters="sRGB">
<feFlood flood-opacity="0" result="BackgroundImageFix"/>
<feBlend mode="normal" in="SourceGraphic" in2="BackgroundImageFix" result="shape"/>
<feGaussianBlur stdDeviation="3.30857" result="effect1_foregroundBlur_1_1672"/>
</filter>
<filter id="filter14_f_1_1672" x="-512.685" y="3363.5" width="628.587" height="576.654" filterUnits="userSpaceOnUse" color-interpolation-filters="sRGB">
<feFlood flood-opacity="0" result="BackgroundImageFix"/>
<feBlend mode="normal" in="SourceGraphic" in2="BackgroundImageFix" result="shape"/>
<feGaussianBlur stdDeviation="11.58" result="effect1_foregroundBlur_1_1672"/>
</filter>
<filter id="filter15_f_1_1672" x="-526.896" y="3301.51" width="695.298" height="644.116" filterUnits="userSpaceOnUse" color-interpolation-filters="sRGB">
<feFlood flood-opacity="0" result="BackgroundImageFix"/>
<feBlend mode="normal" in="SourceGraphic" in2="BackgroundImageFix" result="shape"/>
<feGaussianBlur stdDeviation="28.1228" result="effect1_foregroundBlur_1_1672"/>
</filter>
<filter id="filter16_f_1_1672" x="-535.364" y="3151.2" width="827.101" height="775.168" filterUnits="userSpaceOnUse" color-interpolation-filters="sRGB">
<feFlood flood-opacity="0" result="BackgroundImageFix"/>
<feBlend mode="normal" in="SourceGraphic" in2="BackgroundImageFix" result="shape"/>
<feGaussianBlur stdDeviation="61.2085" result="effect1_foregroundBlur_1_1672"/>
</filter>
<filter id="filter17_f_1_1672" x="-514.549" y="2961.23" width="940.946" height="925.573" filterUnits="userSpaceOnUse" color-interpolation-filters="sRGB">
<feFlood flood-opacity="0" result="BackgroundImageFix"/>
<feBlend mode="normal" in="SourceGraphic" in2="BackgroundImageFix" result="shape"/>
<feGaussianBlur stdDeviation="107.528" result="effect1_foregroundBlur_1_1672"/>
</filter>
<filter id="filter18_f_1_1672" x="759" y="-191" width="958" height="958" filterUnits="userSpaceOnUse" color-interpolation-filters="sRGB">
<feFlood flood-opacity="0" result="BackgroundImageFix"/>
<feBlend mode="normal" in="SourceGraphic" in2="BackgroundImageFix" result="shape"/>
<feGaussianBlur stdDeviation="150" result="effect1_foregroundBlur_1_1672"/>
</filter>
<filter id="filter19_f_1_1672" x="-282" y="1701" width="1187" height="1187" filterUnits="userSpaceOnUse" color-interpolation-filters="sRGB">
<feFlood flood-opacity="0" result="BackgroundImageFix"/>
<feBlend mode="normal" in="SourceGraphic" in2="BackgroundImageFix" result="shape"/>
<feGaussianBlur stdDeviation="150" result="effect1_foregroundBlur_1_1672"/>
</filter>
<filter id="filter20_f_1_1672" x="-82" y="2573" width="1587" height="1587" filterUnits="userSpaceOnUse" color-interpolation-filters="sRGB">
<feFlood flood-opacity="0" result="BackgroundImageFix"/>
<feBlend mode="normal" in="SourceGraphic" in2="BackgroundImageFix" result="shape"/>
<feGaussianBlur stdDeviation="250" result="effect1_foregroundBlur_1_1672"/>
</filter>
<filter id="filter21_f_1_1672" x="-482" y="3323" width="1187" height="1187" filterUnits="userSpaceOnUse" color-interpolation-filters="sRGB">
<feFlood flood-opacity="0" result="BackgroundImageFix"/>
<feBlend mode="normal" in="SourceGraphic" in2="BackgroundImageFix" result="shape"/>
<feGaussianBlur stdDeviation="150" result="effect1_foregroundBlur_1_1672"/>
</filter>
<filter id="filter22_f_1_1672" x="813" y="4019" width="1187" height="1187" filterUnits="userSpaceOnUse" color-interpolation-filters="sRGB">
<feFlood flood-opacity="0" result="BackgroundImageFix"/>
<feBlend mode="normal" in="SourceGraphic" in2="BackgroundImageFix" result="shape"/>
<feGaussianBlur stdDeviation="150" result="effect1_foregroundBlur_1_1672"/>
</filter>
<linearGradient id="paint0_linear_1_1672" x1="1524.08" y1="3030.67" x2="1899.57" y2="2472.45" gradientUnits="userSpaceOnUse">
<stop stop-color="#C4C4C4"/>
<stop offset="1" stop-color="#C4C4C4" stop-opacity="0"/>
</linearGradient>
<linearGradient id="paint1_linear_1_1672" x1="1296.62" y1="5034.29" x2="1296.62" y2="4189.17" gradientUnits="userSpaceOnUse">
<stop stop-color="white"/>
<stop offset="1" stop-color="white" stop-opacity="0"/>
</linearGradient>
<linearGradient id="paint2_linear_1_1672" x1="453.204" y1="3702.75" x2="453.204" y2="2857.63" gradientUnits="userSpaceOnUse">
<stop stop-color="white"/>
<stop offset="1" stop-color="white" stop-opacity="0"/>
</linearGradient>
<linearGradient id="paint3_linear_1_1672" x1="100" y1="-106.647" x2="100" y2="1131" gradientUnits="userSpaceOnUse">
<stop stop-color="white"/>
<stop offset="1" stop-color="white" stop-opacity="0"/>
</linearGradient>
<linearGradient id="paint4_linear_1_1672" x1="348" y1="-106.647" x2="348" y2="1131" gradientUnits="userSpaceOnUse">
<stop stop-color="white"/>
<stop offset="1" stop-color="white" stop-opacity="0"/>
</linearGradient>
<linearGradient id="paint5_linear_1_1672" x1="596" y1="-106.647" x2="596" y2="1131" gradientUnits="userSpaceOnUse">
<stop stop-color="white"/>
<stop offset="1" stop-color="white" stop-opacity="0"/>
</linearGradient>
<linearGradient id="paint6_linear_1_1672" x1="844" y1="-106.647" x2="844" y2="1131" gradientUnits="userSpaceOnUse">
<stop stop-color="white"/>
<stop offset="1" stop-color="white" stop-opacity="0"/>
</linearGradient>
<linearGradient id="paint7_linear_1_1672" x1="1092" y1="-106.647" x2="1092" y2="1131" gradientUnits="userSpaceOnUse">
<stop stop-color="white"/>
<stop offset="1" stop-color="white" stop-opacity="0"/>
</linearGradient>
<linearGradient id="paint8_linear_1_1672" x1="1340" y1="-106.647" x2="1340" y2="1131" gradientUnits="userSpaceOnUse">
<stop stop-color="white"/>
<stop offset="1" stop-color="white" stop-opacity="0"/>
</linearGradient>
</defs>
</svg>
