<svg width="300" height="350" viewBox="0 0 300 350" fill="none" xmlns="http://www.w3.org/2000/svg">
<g clip-path="url(#clip0_2218_539)">
<path d="M299.348 107.788V337.491C299.348 342.777 287.094 345.926 276.617 349.013C278.095 348.58 270.334 114.093 270.334 114.093C270.334 104.336 268.389 98.9645 254.248 94.1446C254.248 94.1446 5.25135 6.71462 4.65266 6.58233C14.5161 0.296309 26.6239 -0.948516 33.3273 1.33709L276.466 84.2035C290.608 89.0237 299.348 98.0308 299.348 107.788Z" fill="white"/>
<path d="M276.618 349.286C276.449 349.286 276.287 349.23 276.207 349.133C276.143 349.053 276.148 348.964 276.208 348.891C277.498 344.853 269.954 116.409 269.878 114.098C269.878 104.004 267.674 99.0352 254.023 94.3821C251.543 93.5114 6.70581 7.54262 4.45813 6.82941C4.33301 6.79408 4.24076 6.72616 4.2088 6.64454C4.17364 6.55498 4.21565 6.46103 4.32068 6.39393C14.5636 -0.13366 26.7792 -1.21086 33.5529 1.09884L276.692 83.9653C290.948 88.8246 299.804 97.9525 299.804 107.787V337.491C299.804 342.558 289.311 345.615 279.164 348.572C278.382 348.801 277.603 349.027 276.834 349.254C276.829 349.255 276.823 349.257 276.818 349.259C276.754 349.277 276.685 349.286 276.618 349.286ZM276.406 348.77C276.404 348.77 276.402 348.771 276.401 348.771C276.402 348.771 276.404 348.77 276.406 348.77ZM276.417 348.766C276.413 348.767 276.409 348.769 276.406 348.77C276.409 348.769 276.412 348.767 276.416 348.767C276.416 348.766 276.416 348.766 276.417 348.766ZM5.38424 6.51965C17.4054 10.6682 214.109 79.7328 254.479 93.9077C268.435 98.6646 270.79 103.979 270.79 114.092C270.809 114.673 272.75 173.38 274.486 231.385C275.505 265.453 276.255 292.616 276.715 312.12C276.988 323.7 277.161 332.674 277.228 338.792C277.297 345.091 277.271 347.558 277.153 348.55C277.687 348.394 278.224 348.237 278.764 348.08C288.659 345.196 298.891 342.214 298.891 337.49V107.787C298.891 98.1491 290.211 89.2037 276.24 84.4416L33.1017 1.57486C24.8055 -1.25414 12.752 1.98131 5.38424 6.51965Z" fill="black"/>
<path d="M293.21 94.1443C297.163 98.2182 299.347 102.909 299.347 107.788V337.491C299.347 342.777 287.094 345.926 276.617 349.013C278.094 348.58 276.319 103.57 272.547 99.5665L293.21 94.1443Z" fill="black"/>
<path d="M276.618 349.287C276.449 349.287 276.287 349.23 276.207 349.133C276.142 349.053 276.148 348.964 276.209 348.89C276.884 346.885 276.823 286.68 276.082 224.564C275.182 149.188 273.675 101.343 272.15 99.701C272.087 99.6336 272.074 99.5526 272.116 99.4794C272.157 99.4063 272.247 99.3463 272.365 99.3154L293.027 93.8935C293.239 93.8376 293.488 93.8864 293.605 94.0066C297.661 98.1867 299.804 102.952 299.804 107.788V337.491C299.804 342.558 289.311 345.616 279.164 348.573C278.377 348.802 277.595 349.03 276.822 349.258C276.821 349.258 276.82 349.258 276.818 349.259C276.754 349.278 276.685 349.287 276.618 349.287ZM273.1 99.7205C275.34 105.72 276.568 188.703 276.997 224.728C277.653 279.756 277.845 342.068 277.169 348.546C277.697 348.391 278.23 348.236 278.764 348.08C288.659 345.197 298.891 342.215 298.891 337.491V107.788C298.891 103.13 296.861 98.5392 293.018 94.4936L273.1 99.7205Z" fill="black"/>
<path d="M264.697 348.662L25.1987 265.446C10.302 260.27 1.12268 250.73 1.10213 240.405L0.652322 11.8936C0.641819 6.48022 10.3805 3.0766 18.2278 5.75113L261.362 88.617C275.508 93.438 284.246 102.444 284.246 112.202V341.904C284.246 347.922 273.378 351.679 264.697 348.662Z" fill="white"/>
<path d="M271.224 350.001C268.903 350.001 266.583 349.634 264.468 348.9L24.9699 265.682C9.98645 260.476 0.666016 250.791 0.645467 240.405L0.195657 11.8939C0.190633 9.25277 2.45886 6.88226 6.2633 5.55253C10.0677 4.2228 14.6252 4.20801 18.4534 5.51282L261.588 88.3787C275.846 93.238 284.703 102.366 284.703 112.202V341.904C284.703 344.829 282.18 347.447 277.955 348.908C275.847 349.637 273.535 350.001 271.224 350.001ZM264.926 348.425C268.86 349.792 273.56 349.795 277.499 348.434C281.438 347.072 283.79 344.631 283.79 341.905V112.202C283.79 102.563 275.11 93.6174 261.137 88.8552L18.0022 5.98911C14.4599 4.78181 10.2435 4.7955 6.72315 6.02581C3.20276 7.25612 1.10441 9.44969 1.10898 11.8933L1.55879 240.404C1.57888 250.596 10.7249 260.1 25.4275 265.209L264.926 348.425Z" fill="black"/>
<path d="M189.397 177.738C215.314 168.763 215.211 139.555 189.166 112.499C163.121 85.4435 120.996 70.7862 95.0784 79.7612C69.1605 88.7362 69.2637 117.945 95.3089 145C121.354 172.056 163.479 186.713 189.397 177.738Z" fill="#ADC4CB"/>
<path d="M172.185 180.668C162.98 180.668 152.764 178.807 142.174 175.122C124.335 168.915 107.552 158.267 94.9161 145.141C82.2803 132.014 75.2975 117.973 75.2537 105.604C75.2098 93.1792 82.1707 83.9182 94.854 79.5264C107.537 75.1345 124.39 76.1496 142.308 82.3844C160.147 88.5918 176.93 99.2392 189.566 112.366C202.202 125.492 209.185 139.533 209.228 151.903C209.271 164.327 202.311 173.589 189.628 177.98C184.441 179.776 178.555 180.668 172.185 180.668ZM112.301 77.3862C106.087 77.3862 100.356 78.2533 95.3106 80.0005C82.9228 84.2901 76.1241 93.3824 76.167 105.602C76.2099 117.878 83.1493 131.822 95.7066 144.867C108.264 157.912 124.929 168.488 142.632 174.648C160.256 180.781 176.783 181.795 189.172 177.506C214.831 168.621 214.653 139.522 188.775 112.64C176.218 99.5947 159.553 89.018 141.85 82.8582C131.405 79.2232 121.343 77.3862 112.301 77.3862Z" fill="black"/>
<path d="M158.482 136.546C143.199 138.433 133.011 135.108 133.011 135.108L132.875 106.25C132.875 106.25 134.198 101.344 144.914 100.824C156.572 100.258 166.359 102.496 166.359 109.511L171.719 117.557C176.023 124.018 173.014 134.751 158.482 136.546Z" fill="white"/>
<path d="M149.219 137.393C139.205 137.393 132.873 135.375 132.792 135.348C132.646 135.301 132.554 135.209 132.554 135.109L132.418 106.251C132.418 106.236 132.42 106.221 132.424 106.206C132.438 106.153 132.793 104.895 134.515 103.564C136.095 102.342 139.176 100.828 144.877 100.551C152.737 100.169 158.878 101.065 162.632 103.142C165.39 104.668 166.797 106.793 166.815 109.458L172.143 117.456C174.983 121.719 174.508 127.238 170.961 131.189C168.257 134.202 163.974 136.147 158.574 136.814C155.199 137.231 152.06 137.393 149.219 137.393ZM133.466 134.939C135.078 135.409 144.727 137.965 158.39 136.277C163.516 135.645 167.585 133.795 170.157 130.93C173.583 127.113 174.04 121.78 171.295 117.659L165.934 109.613C165.913 109.58 165.902 109.546 165.902 109.511C165.902 106.98 164.593 104.973 162.013 103.545C157.513 101.056 150.251 100.84 144.951 101.097C134.983 101.581 133.449 105.89 133.332 106.273L133.466 134.939Z" fill="black"/>
<path d="M115.596 128.753L136.362 134.493L150.763 106.958C150.763 106.958 151.926 102.037 141.949 99.6342C131.095 97.0196 120.643 97.416 117.174 104.116L108.075 110.846C100.77 116.251 101.342 126.286 115.596 128.753Z" fill="white"/>
<path d="M136.362 134.767C136.297 134.767 136.231 134.758 136.171 134.742L115.437 129.01C109.698 128.01 105.595 125.66 103.883 122.39C101.879 118.563 103.421 113.854 107.721 110.674L116.764 103.984C118.1 101.441 120.495 99.6624 123.882 98.6961C128.495 97.3806 134.801 97.617 142.12 99.3797C147.428 100.658 149.62 102.653 150.525 104.101C151.511 105.678 151.228 106.943 151.215 106.996C151.212 107.011 151.206 107.025 151.199 107.04L136.798 134.575C136.758 134.65 136.667 134.712 136.547 134.744C136.489 134.759 136.426 134.767 136.362 134.767ZM130.62 98.4038C128.422 98.4038 126.252 98.6271 124.275 99.191C121.104 100.095 118.861 101.78 117.61 104.197C117.592 104.23 117.565 104.261 117.529 104.288L108.43 111.019C104.315 114.063 102.838 118.567 104.753 122.226C105.9 124.416 108.734 127.28 115.723 128.49C115.745 128.494 115.766 128.498 115.787 128.504L136.082 134.114L150.316 106.899C150.394 106.512 151.06 102.124 141.779 99.8883C138.61 99.125 134.57 98.4038 130.62 98.4038Z" fill="black"/>
<path d="M184.284 159.279V174.94C184.284 175.814 184.274 177.438 184.261 179.171C161.519 184.082 129.338 173.71 105.304 154.171C101.779 151.306 98.4314 148.244 95.3125 145.004C95.2531 144.944 95.1983 144.883 95.1389 144.823V141.367C95.1389 136.127 100.927 133.324 105.09 132.18C117.56 128.753 125.338 129.551 127.32 129.652C129.603 129.767 146.152 133.58 146.152 133.58C146.152 133.58 155.066 135.331 162.04 138.288C175.126 143.837 184.284 150.493 184.284 159.279Z" fill="#FF870A"/>
<path d="M172.161 180.667C163.796 180.667 154.62 179.127 145.053 176.082C130.684 171.509 116.812 163.988 104.937 154.334C101.369 151.434 97.9981 148.342 94.9165 145.141L94.7453 144.962C94.7037 144.92 94.6818 144.872 94.6818 144.823V141.366C94.6818 135.217 102.502 132.59 104.899 131.931C116.627 128.708 124.342 129.191 126.877 129.351C127.064 129.362 127.224 129.372 127.358 129.379C129.679 129.496 145.637 133.168 146.315 133.324C146.383 133.337 155.353 135.117 162.303 138.064C177.4 144.466 184.74 151.406 184.74 159.279V174.94C184.74 175.814 184.731 177.438 184.717 179.173C184.716 179.288 184.595 179.39 184.415 179.429C180.586 180.256 176.481 180.667 172.161 180.667ZM95.5956 144.75L95.7056 144.865C98.7721 148.05 102.124 151.126 105.672 154.008C117.467 163.597 131.232 171.063 145.481 175.598C159.626 180.1 172.869 181.267 183.805 178.978C183.818 177.317 183.827 175.781 183.827 174.94V159.279C183.827 151.597 176.614 144.804 161.776 138.512C154.941 135.613 146.099 133.858 146.01 133.84C140.286 132.522 129.036 130.014 127.282 129.925C127.143 129.918 126.976 129.908 126.783 129.896C124.309 129.741 116.781 129.269 105.28 132.43C103.008 133.054 95.5956 135.543 95.5956 141.367V144.75Z" fill="black"/>
<path d="M150.587 176.839C150.585 176.839 150.582 176.839 150.58 176.839C150.328 176.837 150.127 176.712 150.131 176.561L150.572 160.009C150.577 159.858 150.771 159.736 151.036 159.739C151.288 159.742 151.49 159.866 151.486 160.018L151.044 176.57C151.04 176.72 150.836 176.839 150.587 176.839Z" fill="black"/>
<path d="M151.111 138.65L151.743 127.481L123.693 133.695V140.322C123.693 141.687 124.705 142.988 126.483 143.84C129.845 145.451 135.982 147.399 143.426 145.241C149.546 143.467 150.997 140.669 151.111 138.65Z" fill="white"/>
<path d="M136.811 146.464C132.122 146.464 128.372 145.096 126.198 144.054C124.316 143.152 123.237 141.792 123.237 140.322V133.695C123.237 133.58 123.356 133.477 123.536 133.438L151.585 127.224C151.728 127.192 151.888 127.205 152.011 127.259C152.134 127.312 152.205 127.399 152.2 127.49L151.568 138.659C151.45 140.758 149.975 143.647 143.625 145.488C141.203 146.19 138.913 146.464 136.811 146.464ZM124.15 133.886V140.322C124.15 141.624 125.105 142.829 126.768 143.626C130.41 145.371 136.221 147.025 143.227 144.995C149.166 143.273 150.545 140.589 150.655 138.64L151.263 127.879L124.15 133.886Z" fill="black"/>
<path d="M109.308 106.699L108.699 123.052C108.512 128.073 113.093 132.722 120.516 135.044C132.603 138.827 147.797 135.811 152.597 128.157C152.597 128.157 155.83 121.05 156.995 119.322C158.727 116.754 157.191 94.7765 124.295 97.2749C115.204 97.9653 109.308 106.699 109.308 106.699Z" fill="white"/>
<path d="M131.562 136.948C127.697 136.948 123.829 136.39 120.305 135.287C112.672 132.899 108.051 128.208 108.242 123.046L108.851 106.693C108.852 106.66 108.863 106.627 108.884 106.597C108.899 106.574 110.407 104.359 113.016 102.091C116.558 99.0116 120.333 97.2998 124.238 97.0032C135.656 96.136 144.487 98.065 150.486 102.737C158.574 109.037 158.406 117.96 157.419 119.425C156.277 121.118 153.07 128.158 153.038 128.229C150.764 131.858 146.167 134.612 140.08 136.007C137.339 136.636 134.451 136.948 131.562 136.948ZM109.763 106.757L109.156 123.058C108.971 128.011 113.405 132.51 120.727 134.801C126.654 136.656 133.589 136.909 139.754 135.496C145.593 134.157 150.003 131.517 152.17 128.061C152.289 127.794 155.411 120.942 156.572 119.219C157.488 117.862 157.499 109.097 149.762 103.071C143.976 98.5643 135.425 96.7057 124.352 97.5465C115.964 98.1836 110.236 106.083 109.763 106.757Z" fill="black"/>
<path d="M166.359 108.731C166.368 102.236 157.819 95.9243 143.153 94.1309C142.366 94.0233 141.552 93.9236 140.691 93.8381C134.968 93.2709 122.059 93.5681 115.346 97.4113C108.266 101.464 109.183 110.026 109.183 110.026C109.183 110.026 112.137 110.312 117.336 108.027C123.946 105.123 126.805 101.464 126.805 101.464C126.805 101.464 127.411 105.848 132.365 109.451C138.52 113.926 149.47 116.844 149.47 116.844L149.662 123.496L151.739 127.79L151.72 129.425" fill="white"/>
<path d="M151.721 129.699C151.72 129.699 151.718 129.699 151.717 129.699C151.465 129.698 151.262 129.575 151.264 129.423L151.283 127.828L149.224 123.573C149.213 123.55 149.207 123.525 149.206 123.501L149.019 117.022C147.295 116.538 137.63 113.71 132.014 109.625C128.278 106.909 126.975 103.799 126.547 102.331C125.348 103.567 122.505 106.097 117.607 108.249C112.314 110.574 109.24 110.309 109.111 110.297C108.901 110.277 108.742 110.171 108.728 110.044C108.719 109.956 108.504 107.844 109.158 105.199C109.767 102.741 111.28 99.3608 115.031 97.2135C122.002 93.2227 135.379 93.0343 140.766 93.5681C141.567 93.6475 142.381 93.7445 143.254 93.8642C150.327 94.7291 156.328 96.6726 160.596 99.4838C164.611 102.128 166.82 105.412 166.815 108.731C166.815 108.883 166.61 109.005 166.358 109.005C166.106 109.005 165.901 108.882 165.902 108.731C165.911 101.938 156.519 96.0451 143.061 94.3993C142.195 94.2807 141.399 94.186 140.616 94.1085C135.378 93.5892 122.383 93.7614 115.661 97.6096C109.477 101.149 109.544 108.341 109.621 109.762C110.537 109.747 113.14 109.532 117.066 107.806C123.497 104.98 126.363 101.384 126.391 101.347C126.479 101.235 126.682 101.173 126.886 101.194C127.089 101.216 127.243 101.317 127.26 101.441C127.266 101.484 127.917 105.786 132.718 109.276C138.731 113.649 149.547 116.565 149.655 116.594C149.818 116.637 149.924 116.733 149.927 116.84L150.118 123.455L152.178 127.714C152.19 127.739 152.196 127.765 152.196 127.792L152.177 129.427C152.175 129.578 151.971 129.699 151.721 129.699Z" fill="black"/>
<path d="M123.693 124.692C123.071 124.935 122.328 125.077 121.529 125.077C119.337 125.077 117.56 124.011 117.56 122.697C117.56 121.382 119.337 120.317 121.529 120.317" fill="white"/>
<path d="M121.529 125.351C119.089 125.351 117.104 124.16 117.104 122.697C117.104 121.233 119.089 120.043 121.529 120.043C121.781 120.043 121.986 120.165 121.986 120.317C121.986 120.468 121.781 120.591 121.529 120.591C119.593 120.591 118.017 121.535 118.017 122.697C118.017 123.858 119.593 124.803 121.529 124.803C122.212 124.803 122.875 124.685 123.444 124.462C123.655 124.38 123.938 124.416 124.076 124.542C124.214 124.669 124.154 124.839 123.943 124.922C123.225 125.202 122.39 125.351 121.529 125.351Z" fill="black"/>
<path d="M116.967 127.864C116.967 127.864 120.879 130.93 127.363 129.659L116.967 127.864Z" fill="white"/>
<path d="M124.283 130.239C119.489 130.239 116.638 128.057 116.604 128.03C116.451 127.91 116.489 127.739 116.689 127.647C116.889 127.555 117.176 127.578 117.329 127.697C117.482 127.816 121.134 130.592 127.221 129.399C127.46 129.352 127.719 129.431 127.797 129.575C127.876 129.718 127.744 129.873 127.505 129.92C126.353 130.145 125.276 130.239 124.283 130.239Z" fill="black"/>
<path d="M116.454 119.322C117.065 119.322 117.561 118.519 117.561 117.529C117.561 116.538 117.065 115.736 116.454 115.736C115.842 115.736 115.346 116.538 115.346 117.529C115.346 118.519 115.842 119.322 116.454 119.322Z" fill="black"/>
<path d="M116.453 119.596C115.379 119.596 114.889 118.525 114.889 117.529C114.889 116.533 115.379 115.462 116.453 115.462C117.528 115.462 118.017 116.533 118.017 117.529C118.017 118.525 117.528 119.596 116.453 119.596ZM116.446 116.009C116.28 116.041 115.803 116.556 115.803 117.529C115.803 118.502 116.28 119.017 116.461 119.049C116.627 119.017 117.104 118.502 117.104 117.529C117.104 116.556 116.627 116.041 116.446 116.009Z" fill="black"/>
<path d="M130.919 122.909C131.53 122.909 132.026 122.106 132.026 121.116C132.026 120.125 131.53 119.322 130.919 119.322C130.307 119.322 129.811 120.125 129.811 121.116C129.811 122.106 130.307 122.909 130.919 122.909Z" fill="black"/>
<path d="M130.919 123.183C129.844 123.183 129.355 122.111 129.355 121.116C129.355 120.12 129.844 119.048 130.919 119.048C131.993 119.048 132.483 120.12 132.483 121.116C132.483 122.111 131.993 123.183 130.919 123.183ZM130.911 119.596C130.745 119.627 130.268 120.143 130.268 121.116C130.268 122.089 130.745 122.604 130.926 122.636C131.093 122.604 131.569 122.089 131.569 121.116C131.569 120.143 131.092 119.627 130.911 119.596Z" fill="black"/>
<path d="M113.068 113.721C113.068 113.721 117.359 112.269 121.211 115.228L113.068 113.721Z" fill="white"/>
<path d="M121.211 115.502C121.075 115.502 120.941 115.465 120.851 115.396C117.282 112.655 113.332 113.946 113.293 113.959C113.073 114.033 112.794 113.987 112.671 113.855C112.547 113.723 112.624 113.556 112.844 113.482C112.891 113.466 117.524 111.951 121.571 115.059C121.726 115.178 121.691 115.35 121.492 115.444C121.408 115.483 121.309 115.502 121.211 115.502Z" fill="black"/>
<path d="M129.139 116.954C129.139 116.954 133.43 115.502 137.281 118.46L129.139 116.954Z" fill="white"/>
<path d="M137.282 118.734C137.146 118.734 137.011 118.698 136.921 118.629C133.353 115.888 129.403 117.179 129.363 117.192C129.143 117.266 128.865 117.219 128.741 117.088C128.617 116.956 128.695 116.789 128.914 116.715C128.961 116.699 133.595 115.183 137.641 118.292C137.796 118.411 137.761 118.583 137.562 118.676C137.479 118.715 137.38 118.734 137.282 118.734Z" fill="black"/>
<path d="M149.471 124.198C150.11 120.92 153.511 119.855 156.554 120.299C159.596 120.744 161.327 122.916 160.42 125.153C159.512 127.389 154.163 129.816 151.121 129.372" fill="white"/>
<path d="M151.874 129.697C151.573 129.697 151.285 129.678 151.013 129.638C150.767 129.603 150.617 129.454 150.677 129.308C150.737 129.161 150.983 129.07 151.229 129.106C154.054 129.519 159.123 127.19 159.976 125.088C160.823 123.002 159.238 120.973 156.446 120.566C155.078 120.366 153.721 120.508 152.624 120.966C151.155 121.579 150.221 122.708 149.924 124.23C149.895 124.381 149.669 124.488 149.418 124.47C149.167 124.453 148.988 124.317 149.017 124.167C149.432 122.04 150.924 121.008 152.103 120.516C153.417 119.967 155.037 119.796 156.662 120.033C159.944 120.512 161.829 122.838 160.864 125.217C159.979 127.397 155.185 129.697 151.874 129.697Z" fill="black"/>
<path d="M105.304 154.445C105.302 154.445 105.299 154.445 105.297 154.445C105.045 154.442 104.843 154.318 104.848 154.166L105.071 145.854C105.075 145.703 105.268 145.578 105.535 145.584C105.787 145.587 105.989 145.712 105.985 145.863L105.761 154.175C105.757 154.325 105.553 154.445 105.304 154.445Z" fill="black"/>
<path d="M172.185 180.668C162.98 180.668 152.764 178.807 142.174 175.122C124.335 168.915 107.552 158.267 94.9161 145.141C82.2803 132.014 75.2975 117.973 75.2537 105.604C75.2098 93.1792 82.1707 83.9182 94.854 79.5264C107.537 75.1345 124.39 76.1496 142.308 82.3844C160.147 88.5918 176.93 99.2392 189.566 112.366C202.202 125.492 209.185 139.533 209.228 151.903C209.271 164.327 202.311 173.589 189.628 177.98C184.441 179.776 178.555 180.668 172.185 180.668ZM112.301 77.3862C106.087 77.3862 100.356 78.2533 95.3106 80.0005C82.9228 84.2901 76.1241 93.3824 76.167 105.602C76.2099 117.878 83.1493 131.822 95.7066 144.867C108.264 157.912 124.929 168.488 142.632 174.648C160.256 180.781 176.783 181.795 189.172 177.506C214.831 168.621 214.653 139.522 188.775 112.64C176.218 99.5947 159.553 89.018 141.85 82.8582C131.405 79.2232 121.343 77.3862 112.301 77.3862Z" fill="black"/>
<path d="M235.882 244.785L48.8688 180.025C46.9604 179.364 45.7836 178.143 45.7813 176.821L45.7607 166.467C45.7589 165.486 47.5276 164.872 48.9437 165.362L235.093 229.703C237.631 230.58 239.178 232.212 239.137 233.968L238.909 243.754C238.888 244.678 237.217 245.247 235.882 244.785Z" fill="#DD6B20"/>
<path d="M236.892 245.223C236.467 245.223 236.041 245.156 235.655 245.022L48.6404 180.262C46.5978 179.554 45.3274 178.236 45.3246 176.822L45.3041 166.467C45.3032 165.907 45.7845 165.406 46.5919 165.126C47.3992 164.846 48.3637 164.845 49.172 165.125L235.322 229.466C238 230.391 239.637 232.118 239.594 233.972L239.366 243.758C239.354 244.29 238.886 244.765 238.115 245.028C237.731 245.158 237.311 245.223 236.892 245.223ZM236.111 244.548C236.596 244.716 237.176 244.717 237.663 244.551C238.15 244.386 238.445 244.086 238.453 243.75L238.68 233.964C238.719 232.309 237.257 230.767 234.865 229.94L48.7158 165.599C48.1938 165.419 47.5709 165.419 47.049 165.6C46.5275 165.781 46.2165 166.105 46.2174 166.466L46.2379 176.821C46.2402 178.041 47.3362 179.178 49.0971 179.788L236.111 244.548Z" fill="black"/>
<path d="M235.21 295.237L49.6145 231.095C47.2321 230.272 45.7703 228.745 45.7859 227.096L46.1389 189.687C46.1462 188.901 47.5646 188.412 48.7007 188.804L235.066 253.038C237.581 253.905 239.117 255.519 239.084 257.258L238.372 294.155C238.353 295.122 236.607 295.72 235.21 295.237Z" fill="white"/>
<path d="M236.263 295.682C235.823 295.682 235.382 295.613 234.982 295.474L49.3866 231.333C46.8677 230.462 45.3128 228.838 45.3292 227.094L45.6822 189.686C45.6868 189.218 46.0927 188.8 46.769 188.567C47.4449 188.334 48.2523 188.334 48.9281 188.567L235.294 252.801C237.948 253.716 239.575 255.425 239.54 257.261L238.829 294.159C238.818 294.711 238.334 295.204 237.534 295.478C237.135 295.614 236.699 295.682 236.263 295.682ZM47.8486 188.941C47.634 188.941 47.4198 188.974 47.2239 189.042C46.833 189.177 46.5978 189.419 46.5955 189.689L46.2425 227.098C46.2279 228.645 47.6075 230.086 49.8424 230.858L235.438 295C235.951 295.178 236.566 295.178 237.082 295.002C237.597 294.826 237.909 294.508 237.915 294.152L238.627 257.255C238.658 255.617 237.207 254.092 234.839 253.276L48.4728 189.042C48.2774 188.974 48.0628 188.941 47.8486 188.941Z" fill="black"/>
</g>
<defs>
<clipPath id="clip0_2218_539">
<rect width="300" height="350" fill="white"/>
</clipPath>
</defs>
</svg>
