<svg width="47" height="46" viewBox="0 0 47 46" fill="none" xmlns="http://www.w3.org/2000/svg">
<path d="M1.5 22.614C1.5 16.3378 4.2229 10.6863 8.57143 6.73764C12.4935 3.1762 17.7381 1 23.5 1" stroke="url(#paint0_linear_2358_1024)"/>
<path d="M45.5 22.614C45.5 10.6769 35.6503 1 23.5 1" stroke="url(#paint1_linear_2358_1024)" stroke-linejoin="round" stroke-dasharray="1 1"/>
<path d="M45.5001 23.3858C45.5001 29.6621 42.7772 35.3135 38.4287 39.2622C34.5066 42.8236 29.262 44.9998 23.5001 44.9998" stroke="url(#paint2_linear_2358_1024)"/>
<path d="M1.5 23.3858C1.5 35.3229 11.3497 44.9998 23.5 44.9998" stroke="url(#paint3_linear_2358_1024)" stroke-dasharray="1 1"/>
<path d="M39.0434 20.3281C39.1189 20.8278 39.17 21.3353 39.1955 21.8494L38.1968 21.899C38.2085 22.1358 38.2145 22.3742 38.2145 22.614C38.2145 22.8538 38.2085 23.0922 38.1968 23.329L39.1955 23.3786C39.17 23.8927 39.1189 24.4002 39.0434 24.8999L38.0546 24.7506C37.983 25.2249 37.8878 25.6917 37.7703 26.1497L38.739 26.3981C38.6116 26.8947 38.4598 27.3817 38.2848 27.8578L37.3462 27.5128C37.1813 27.9615 36.9944 28.3999 36.7866 28.8268L37.6858 29.2643C37.4622 29.7239 37.2162 30.1708 36.9491 30.6039L36.098 30.0789C35.8474 30.4851 35.577 30.8783 35.288 31.2572L36.083 31.8637C35.7738 32.2691 35.4447 32.6591 35.0972 33.0322L34.3654 32.3507C34.0404 32.6997 33.6982 33.033 33.34 33.3494L34.002 34.0989C33.6205 34.4358 33.2221 34.7546 32.8083 35.054L32.2222 34.2438C31.8363 34.5229 31.4361 34.784 31.0228 35.0258L31.5277 35.889C31.0892 36.1455 30.6369 36.3816 30.1722 36.596L29.7533 35.688C29.3217 35.8871 28.8788 36.0662 28.4256 36.2241L28.7547 37.1684C28.2761 37.3352 27.7869 37.4798 27.2884 37.601L27.0521 36.6294C26.5914 36.7414 26.1221 36.8321 25.6453 36.9004L25.7871 37.8903C25.2869 37.9619 24.7791 38.0104 24.2649 38.0347L24.2178 37.0358C23.9801 37.0469 23.7409 37.0526 23.5002 37.0526C23.2595 37.0526 23.0202 37.0469 22.7825 37.0358L22.7355 38.0347C22.2212 38.0104 21.7134 37.9619 21.2132 37.8903L21.355 36.9004C20.8782 36.8321 20.4089 36.7414 19.9483 36.6294L19.712 37.601C19.2134 37.4798 18.7242 37.3352 18.2457 37.1684L18.5748 36.2241C18.1216 36.0662 17.6786 35.8871 17.2471 35.688L16.8281 36.596C16.3634 36.3816 15.9112 36.1455 15.4727 35.889L15.9776 35.0258C15.5643 34.784 15.164 34.5229 14.7782 34.2438L14.192 35.054C13.7782 34.7546 13.3798 34.4358 12.9984 34.0989L13.6603 33.3494C13.3022 33.033 12.9599 32.6997 12.635 32.3507L11.9031 33.0322C11.5556 32.6591 11.2266 32.2691 10.9173 31.8637L11.7124 31.2572C11.4234 30.8783 11.1529 30.4851 10.9024 30.0789L10.0513 30.6039C9.78415 30.1708 9.5381 29.7239 9.31451 29.2643L10.2137 28.8268C10.006 28.3999 9.81906 27.9615 9.65417 27.5129L8.71555 27.8578C8.54056 27.3817 8.38872 26.8947 8.26137 26.3981L9.23002 26.1497C9.11256 25.6917 9.0174 25.2249 8.94574 24.7506L7.95695 24.8999C7.88146 24.4002 7.83034 23.8927 7.80482 23.3786L8.80359 23.329C8.79184 23.0922 8.78589 22.8538 8.78589 22.614C8.78589 22.3742 8.79184 22.1358 8.80359 21.899L7.80482 21.8494C7.83034 21.3353 7.88146 20.8278 7.95695 20.3281L8.94573 20.4775C9.0174 20.0031 9.11256 19.5363 9.23002 19.0783L8.26137 18.8299C8.38872 18.3334 8.54056 17.8463 8.71555 17.3702L9.65417 17.7152C9.81906 17.2665 10.006 16.8281 10.2137 16.4012L9.31451 15.9637C9.5381 15.5042 9.78415 15.0572 10.0513 14.6242L10.9024 15.1491C11.1529 14.7429 11.4234 14.3497 11.7124 13.9708L10.9173 13.3643C11.2266 12.9589 11.5556 12.5689 11.9031 12.1958L12.635 12.8773C12.9599 12.5283 13.3022 12.195 13.6603 11.8787L12.9984 11.1291C13.3798 10.7922 13.7782 10.4734 14.192 10.174L14.7782 10.9842C15.164 10.7051 15.5643 10.444 15.9776 10.2022L15.4727 9.33905C15.9112 9.08256 16.3634 8.84645 16.8281 8.63204L17.2471 9.54005C17.6786 9.34096 18.1216 9.16184 18.5748 9.00391L18.2457 8.0596C18.7242 7.89284 19.2134 7.74822 19.712 7.62698L19.9483 8.59867C20.4089 8.48666 20.8782 8.39592 21.355 8.32762L21.2132 7.33772C21.7134 7.26608 22.2212 7.21758 22.7355 7.19337L22.7825 8.19227C23.0202 8.18108 23.2595 8.17542 23.5002 8.17542C23.7409 8.17542 23.9801 8.18108 24.2178 8.19227L24.2649 7.19337C24.7791 7.21758 25.2869 7.26608 25.7871 7.33772L25.6453 8.32762C26.1222 8.39593 26.5914 8.48666 27.0521 8.59867L27.2884 7.62698C27.7869 7.74822 28.2761 7.89285 28.7547 8.0596L28.4256 9.00391C28.8788 9.16184 29.3218 9.34096 29.7533 9.54005L30.1722 8.63204C30.6369 8.84645 31.0892 9.08256 31.5277 9.33905L31.0228 10.2022C31.4361 10.444 31.8363 10.7051 32.2222 10.9842L32.8083 10.174C33.2221 10.4734 33.6205 10.7922 34.002 11.1291L33.34 11.8787C33.6982 12.195 34.0404 12.5283 34.3654 12.8773L35.0972 12.1958C35.4447 12.5689 35.7738 12.9589 36.083 13.3643L35.288 13.9708C35.577 14.3497 35.8474 14.7429 36.098 15.1491L36.9491 14.6242C37.2162 15.0572 37.4622 15.5042 37.6858 15.9637L36.7866 16.4012C36.9944 16.8281 37.1813 17.2665 37.3462 17.7152L38.2848 17.3702C38.4598 17.8463 38.6116 18.3333 38.739 18.8299L37.7703 19.0783C37.8878 19.5363 37.983 20.0031 38.0546 20.4775L39.0434 20.3281Z" stroke="url(#paint4_radial_2358_1024)" stroke-width="2" stroke-dasharray="1.5 1.5"/>
<path d="M42.3415 21.854C42.3484 22.0221 42.3531 22.1908 42.3554 22.36L41.8554 22.3668C41.8565 22.4491 41.8571 22.5316 41.8571 22.6141C41.8571 22.6967 41.8565 22.7792 41.8554 22.8615L42.3554 22.8684C42.3531 23.0375 42.3484 23.2062 42.3415 23.3743L41.8419 23.3537C41.8352 23.5183 41.8262 23.6823 41.815 23.8457L42.3138 23.88C42.3022 24.0486 42.2883 24.2167 42.2722 24.384L41.7745 24.336C41.7587 24.5 41.7406 24.6633 41.7204 24.8259L42.2165 24.8877C42.1956 25.0553 42.1725 25.2222 42.1471 25.3884L41.6528 25.3129C41.6279 25.4757 41.6008 25.6378 41.5715 25.7992L42.0635 25.8885C42.0334 26.0546 42.0009 26.22 41.9663 26.3846L41.477 26.2816C41.4431 26.4427 41.407 26.603 41.3688 26.7625L41.855 26.8791C41.8156 27.0434 41.774 27.2068 41.7302 27.3693L41.2474 27.2392C41.2046 27.398 41.1597 27.5559 41.1126 27.7129L41.5915 27.8565C41.543 28.0184 41.4923 28.1793 41.4395 28.3393L40.9647 28.1824C40.9132 28.3384 40.8595 28.4935 40.8038 28.6476L41.274 28.8177C41.2165 28.9766 41.1569 29.1345 41.0952 29.2914L40.6299 29.1084C40.5697 29.2612 40.5076 29.413 40.4434 29.5638L40.9034 29.7597C40.8372 29.9152 40.7688 30.0696 40.6985 30.2229L40.2441 30.0143C40.1756 30.1635 40.105 30.3116 40.0326 30.4587L40.481 30.6798C40.4063 30.8313 40.3296 30.9817 40.2508 31.1309L39.8086 30.8975C39.732 31.0428 39.6533 31.1868 39.5728 31.3297L40.0084 31.5752C39.9255 31.7224 39.8406 31.8682 39.7537 32.0129L39.3251 31.7555C39.2405 31.8963 39.1541 32.0359 39.0658 32.1743L39.4872 32.4433C39.3964 32.5856 39.3037 32.7266 39.2091 32.8662L38.7951 32.5858C38.703 32.7218 38.609 32.8565 38.5132 32.9899L38.9194 33.2815C38.8209 33.4186 38.7207 33.5543 38.6186 33.6886L38.2205 33.386C38.1211 33.5168 38.0199 33.6462 37.917 33.7742L38.3067 34.0875C38.201 34.219 38.0935 34.3491 37.9842 34.4777L37.6031 34.154C37.4968 34.2792 37.3888 34.4029 37.2791 34.5252L37.6513 34.8591C37.5386 34.9847 37.4242 35.1088 37.3081 35.2313L36.9451 34.8875C36.8322 35.0068 36.7176 35.1245 36.6014 35.2407L36.9551 35.5942C36.8358 35.7135 36.7149 35.8313 36.5924 35.9474L36.2484 35.5845C36.1292 35.6975 36.0084 35.809 35.8861 35.9188L36.2203 36.2908C36.0948 36.4035 35.9678 36.5145 35.8392 36.6239L35.5152 36.2431C35.3901 36.3496 35.2635 36.4544 35.1355 36.5575L35.4492 36.9469C35.3178 37.0527 35.185 37.1568 35.0508 37.2591L34.7477 36.8615C34.6171 36.9611 34.4851 37.0589 34.3517 37.1551L34.6441 37.5607C34.5073 37.6593 34.3691 37.7561 34.2295 37.8512L33.9481 37.4379C33.8124 37.5303 33.6754 37.621 33.537 37.7098L33.8073 38.1305C33.6654 38.2217 33.5222 38.311 33.3776 38.3985L33.1187 37.9708C32.9783 38.0557 32.8367 38.1389 32.6938 38.2202L32.9412 38.6548C32.7946 38.7382 32.6467 38.8198 32.4976 38.8995L32.262 38.4585C32.1173 38.5358 31.9715 38.6113 31.8245 38.6848L32.0483 39.1319C31.8975 39.2074 31.7455 39.281 31.5924 39.3526L31.3806 38.8996C31.232 38.9691 31.0824 39.0367 30.9316 39.1023L31.1312 39.5607C30.9766 39.628 30.8209 39.6933 30.6642 39.7566L30.477 39.293C30.3249 39.3544 30.1717 39.4139 30.0176 39.4714L30.1923 39.9399C30.0345 39.9987 29.8756 40.0556 29.7158 40.1104L29.5536 39.6374C29.3983 39.6907 29.2421 39.7419 29.085 39.7911L29.2345 40.2683C29.0738 40.3186 28.9122 40.3669 28.7497 40.413L28.613 39.9321C28.4551 39.977 28.2963 40.0198 28.1366 40.0606L28.2604 40.5451C28.0974 40.5867 27.9336 40.6263 27.7689 40.6637L27.658 40.1762C27.4979 40.2126 27.3369 40.2469 27.1752 40.2792L27.273 40.7695C27.1082 40.8024 26.9425 40.8332 26.7761 40.8619L26.6913 40.3691C26.5295 40.3969 26.367 40.4227 26.2038 40.4464L26.2755 40.9412C26.1091 40.9653 25.9419 40.9873 25.7741 41.0071L25.7155 40.5106C25.5526 40.5298 25.3889 40.547 25.2247 40.562L25.2703 41.0599C25.1028 41.0752 24.9346 41.0884 24.7659 41.0994L24.7334 40.6004C24.5697 40.6111 24.4055 40.6196 24.2407 40.6261L24.2602 41.1257C24.0921 41.1322 23.9234 41.1366 23.7542 41.1388L23.7477 40.6389C23.6652 40.6399 23.5827 40.6405 23.5 40.6405C23.4173 40.6405 23.3347 40.6399 23.2522 40.6389L23.2457 41.1388C23.0765 41.1366 22.9079 41.1322 22.7398 41.1257L22.7592 40.6261C22.5944 40.6196 22.4302 40.6111 22.2665 40.6004L22.234 41.0994C22.0653 41.0884 21.8972 41.0752 21.7297 41.0599L21.7752 40.562C21.611 40.547 21.4474 40.5298 21.2844 40.5106L21.2258 41.0071C21.058 40.9873 20.8909 40.9653 20.7244 40.9412L20.7961 40.4464C20.6329 40.4227 20.4704 40.3969 20.3086 40.3691L20.2238 40.8619C20.0574 40.8332 19.8918 40.8024 19.7269 40.7695L19.8247 40.2792C19.663 40.2469 19.502 40.2126 19.3419 40.1762L19.231 40.6637C19.0664 40.6263 18.9025 40.5867 18.7396 40.5451L18.8633 40.0606C18.7037 40.0198 18.5448 39.977 18.3869 39.9321L18.2502 40.413C18.0877 40.3669 17.9261 40.3186 17.7655 40.2683L17.9149 39.7911C17.7578 39.7419 17.6016 39.6907 17.4463 39.6374L17.2842 40.1104C17.1243 40.0556 16.9655 39.9987 16.8076 39.9399L16.9824 39.4714C16.8282 39.4139 16.6751 39.3544 16.5229 39.293L16.3357 39.7566C16.179 39.6933 16.0233 39.628 15.8688 39.5607L16.0683 39.1023C15.9176 39.0367 15.7679 38.9691 15.6193 38.8996L15.4075 39.3526C15.2544 39.281 15.1024 39.2074 14.9516 39.1319L15.1754 38.6848C15.0284 38.6113 14.8826 38.5358 14.7379 38.4585L14.5023 38.8995C14.3532 38.8198 14.2053 38.7382 14.0587 38.6547L14.3061 38.2202C14.1632 38.1389 14.0216 38.0557 13.8812 37.9708L13.6223 38.3985C13.4778 38.311 13.3345 38.2217 13.1926 38.1305L13.4629 37.7098C13.3246 37.621 13.1876 37.5303 13.0519 37.4379L12.7704 37.8512C12.6309 37.7561 12.4926 37.6593 12.3558 37.5607L12.6482 37.1551C12.5149 37.0589 12.3829 36.9611 12.2523 36.8615L11.9491 37.2591C11.8149 37.1568 11.6821 37.0527 11.5508 36.9469L11.8644 36.5575C11.7364 36.4544 11.6098 36.3496 11.4847 36.2431L11.1607 36.6239C11.0322 36.5145 10.9051 36.4035 10.7797 36.2908L11.1138 35.9188C10.9915 35.809 10.8707 35.6975 10.7515 35.5845L10.4075 35.9474C10.285 35.8313 10.1641 35.7135 10.0449 35.5942L10.3985 35.2407C10.2823 35.1245 10.1678 35.0068 10.0548 34.8875L9.6918 35.2313C9.57574 35.1088 9.46135 34.9847 9.34867 34.8591L9.72084 34.5252C9.61114 34.4029 9.50311 34.2792 9.39677 34.154L9.01571 34.4777C8.90645 34.3491 8.79894 34.219 8.6932 34.0875L9.0829 33.7742C8.97999 33.6462 8.87882 33.5168 8.77942 33.386L8.38136 33.6886C8.27927 33.5543 8.17898 33.4186 8.08054 33.2815L8.48668 32.9899C8.39092 32.8565 8.29695 32.7218 8.20482 32.5858L7.79087 32.8662C7.69625 32.7266 7.60351 32.5856 7.51269 32.4433L7.93414 32.1743C7.84584 32.0359 7.7594 31.8963 7.67485 31.7555L7.24618 32.0129C7.15934 31.8682 7.07445 31.7223 6.99154 31.5752L7.42713 31.3297C7.34659 31.1868 7.26797 31.0428 7.19131 30.8975L6.74913 31.1309C6.67037 30.9817 6.59362 30.8313 6.51891 30.6798L6.96737 30.4587C6.89488 30.3116 6.82437 30.1635 6.75587 30.0143L6.30147 30.2229C6.23109 30.0696 6.16277 29.9152 6.09655 29.7597L6.55657 29.5638C6.49236 29.413 6.43018 29.2612 6.37006 29.1084L5.90477 29.2914C5.84304 29.1345 5.78343 28.9766 5.72596 28.8177L6.19616 28.6476C6.14043 28.4935 6.08677 28.3384 6.03522 28.1824L5.56046 28.3393C5.5076 28.1793 5.4569 28.0184 5.40839 27.8565L5.88734 27.7129C5.84027 27.5559 5.79532 27.398 5.75252 27.2392L5.26975 27.3693C5.22594 27.2068 5.18432 27.0434 5.14493 26.8791L5.63114 26.7625C5.5929 26.603 5.55681 26.4427 5.5229 26.2816L5.03362 26.3846C4.99899 26.22 4.96657 26.0546 4.93642 25.8885L5.42838 25.7992C5.39909 25.6378 5.37198 25.4757 5.3471 25.3129L4.85284 25.3884C4.82744 25.2222 4.80428 25.0553 4.78341 24.8877L5.27957 24.8259C5.25932 24.6633 5.24126 24.5 5.22545 24.336L4.72776 24.384C4.71161 24.2167 4.69773 24.0486 4.68615 23.88L5.18497 23.8457C5.17375 23.6823 5.16474 23.5183 5.15798 23.3537L4.6584 23.3743C4.6515 23.2062 4.64688 23.0375 4.64456 22.8683L5.14451 22.8615C5.14339 22.7792 5.14282 22.6967 5.14282 22.6141C5.14282 22.5316 5.14339 22.4491 5.14451 22.3668L4.64456 22.3599C4.64688 22.1907 4.6515 22.0221 4.65841 21.854L5.15798 21.8746C5.16474 21.71 5.17375 21.546 5.18497 21.3826L4.68615 21.3483C4.69773 21.1797 4.71161 21.0116 4.72776 20.8442L5.22545 20.8923C5.24127 20.7283 5.25932 20.565 5.27957 20.4024L4.78341 20.3406C4.80428 20.173 4.82744 20.006 4.85284 19.8399L5.3471 19.9154C5.37199 19.7526 5.39909 19.5905 5.42838 19.4291L4.93642 19.3398C4.96658 19.1737 4.99899 19.0083 5.03362 18.8437L5.52291 18.9467C5.55681 18.7856 5.5929 18.6253 5.63114 18.4658L5.14493 18.3492C5.18432 18.1849 5.22594 18.0215 5.26975 17.859L5.75253 17.9891C5.79532 17.8303 5.84027 17.6724 5.88734 17.5153L5.40839 17.3718C5.4569 17.2099 5.50761 17.049 5.56046 16.889L6.03522 17.0459C6.08677 16.8899 6.14043 16.7348 6.19616 16.5807L5.72596 16.4106C5.78343 16.2517 5.84305 16.0938 5.90477 15.9369L6.37006 16.1199C6.43018 15.9671 6.49236 15.8153 6.55657 15.6645L6.09655 15.4686C6.16277 15.3131 6.23109 15.1587 6.30147 15.0054L6.75587 15.214C6.82437 15.0648 6.89488 14.9167 6.96737 14.7696L6.51891 14.5485C6.59362 14.397 6.67037 14.2466 6.74913 14.0974L7.19132 14.3308C7.26798 14.1855 7.34659 14.0414 7.42713 13.8985L6.99154 13.6531C7.07445 13.5059 7.15934 13.3601 7.24618 13.2154L7.67485 13.4728C7.7594 13.332 7.84584 13.1924 7.93415 13.054L7.51269 12.785C7.60352 12.6427 7.69626 12.5017 7.79087 12.3621L8.20482 12.6425C8.29695 12.5065 8.39092 12.3718 8.48669 12.2384L8.08055 11.9468C8.17899 11.8097 8.27927 11.674 8.38137 11.5397L8.77942 11.8423C8.87883 11.7115 8.98 11.5821 9.0829 11.4541L8.69321 11.1408C8.79894 11.0093 8.90646 10.8792 9.01571 10.7506L9.39678 11.0743C9.50311 10.9491 9.61115 10.8254 9.72085 10.7031L9.34867 10.3692C9.46136 10.2436 9.57575 10.1195 9.69181 9.99696L10.0548 10.3408C10.1678 10.2215 10.2823 10.1038 10.3985 9.98758L10.0449 9.6341C10.1641 9.51478 10.285 9.39704 10.4075 9.28091L10.7515 9.64378C10.8707 9.53077 10.9915 9.41933 11.1138 9.30949L10.7797 8.93751C10.9051 8.82481 11.0322 8.71375 11.1607 8.60437L11.4847 8.98518C11.6098 8.87873 11.7364 8.77391 11.8645 8.67077L11.5508 8.28141C11.6821 8.17561 11.8149 8.07153 11.9491 7.96918L12.2523 8.3668C12.3829 8.26724 12.5149 8.16936 12.6482 8.07322L12.3558 7.66762C12.4927 7.569 12.6309 7.47215 12.7704 7.3771L13.0519 7.79038C13.1876 7.69798 13.3246 7.60732 13.4629 7.51846L13.1926 7.0978C13.3345 7.00662 13.4778 6.91727 13.6223 6.82979L13.8812 7.25753C14.0216 7.17256 14.1632 7.08939 14.3061 7.00806L14.0587 6.57354C14.2053 6.49006 14.3532 6.40847 14.5023 6.32879L14.738 6.76977C14.8826 6.69247 15.0284 6.61702 15.1754 6.54347L14.9516 6.09635C15.1024 6.02085 15.2544 5.9473 15.4076 5.87571L15.6193 6.32866C15.7679 6.2592 15.9176 6.19164 16.0683 6.12602L15.8688 5.66757C16.0233 5.60029 16.179 5.53498 16.3357 5.4717L16.5229 5.93532C16.6751 5.87389 16.8282 5.81441 16.9824 5.7569L16.8076 5.28844C16.9655 5.22955 17.1243 5.17269 17.2842 5.11788L17.4463 5.59085C17.6016 5.53762 17.7578 5.48638 17.9149 5.43716L17.7655 4.96002C17.9261 4.90969 18.0877 4.86143 18.2502 4.81525L18.3869 5.2962C18.5448 5.25131 18.7037 5.20845 18.8633 5.16765L18.7396 4.68321C18.9025 4.64157 19.0664 4.60201 19.231 4.56457L19.3419 5.05213C19.502 5.01571 19.663 4.98135 19.8247 4.94909L19.7269 4.45875C19.8918 4.42585 20.0574 4.39507 20.2238 4.36643L20.3086 4.85919C20.4704 4.83135 20.6329 4.80558 20.7962 4.78193L20.7244 4.2871C20.8909 4.26298 21.058 4.241 21.2258 4.22118L21.2844 4.71773C21.4474 4.69849 21.611 4.68134 21.7752 4.66632L21.7297 4.1684C21.8972 4.15307 22.0653 4.1399 22.234 4.12892L22.2665 4.62786C22.4302 4.6172 22.5944 4.60865 22.7592 4.60223L22.7398 4.10261C22.9079 4.09606 23.0765 4.09168 23.2458 4.08948L23.2522 4.58944C23.3347 4.58837 23.4173 4.58783 23.5 4.58783C23.5827 4.58783 23.6652 4.58837 23.7477 4.58944L23.7542 4.08948C23.9234 4.09168 24.0921 4.09606 24.2602 4.10261L24.2407 4.60223C24.4055 4.60865 24.5698 4.6172 24.7334 4.62786L24.7659 4.12892C24.9346 4.13991 25.1028 4.15307 25.2703 4.1684L25.2247 4.66632C25.389 4.68134 25.5526 4.69849 25.7155 4.71773L25.7741 4.22118C25.9419 4.241 26.1091 4.26298 26.2755 4.2871L26.2038 4.78193C26.367 4.80558 26.5295 4.83135 26.6913 4.85919L26.7761 4.36643C26.9425 4.39507 27.1082 4.42586 27.273 4.45875L27.1752 4.94909C27.3369 4.98136 27.4979 5.01571 27.6581 5.05213L27.7689 4.56457C27.9336 4.60201 28.0974 4.64157 28.2604 4.68321L28.1366 5.16765C28.2963 5.20845 28.4551 5.25131 28.6131 5.2962L28.7497 4.81525C28.9122 4.86143 29.0738 4.9097 29.2345 4.96002L29.085 5.43716C29.2421 5.48638 29.3983 5.53762 29.5536 5.59086L29.7158 5.11789C29.8756 5.17269 30.0345 5.22955 30.1923 5.28844L30.0176 5.7569C30.1717 5.81441 30.3249 5.87389 30.477 5.93532L30.6642 5.4717C30.8209 5.53499 30.9766 5.60029 31.1312 5.66757L30.9316 6.12602C31.0824 6.19164 31.232 6.2592 31.3806 6.32866L31.5924 5.87571C31.7455 5.9473 31.8975 6.02086 32.0483 6.09635L31.8246 6.54347C31.9715 6.61703 32.1173 6.69247 32.262 6.76977L32.4976 6.3288C32.6467 6.40847 32.7946 6.49007 32.9412 6.57355L32.6939 7.00806C32.8367 7.08939 32.9783 7.17256 33.1187 7.25753L33.3776 6.82979C33.5222 6.91728 33.6654 7.00662 33.8073 7.0978L33.537 7.51846C33.6754 7.60733 33.8124 7.69798 33.9481 7.79038L34.2295 7.3771C34.3691 7.47215 34.5073 7.569 34.6441 7.66762L34.3517 8.07322C34.4851 8.16937 34.6171 8.26724 34.7477 8.36681L35.0508 7.96918C35.1851 8.07153 35.3179 8.17562 35.4492 8.28141L35.1355 8.67077C35.2635 8.77392 35.3901 8.87873 35.5152 8.98518L35.8392 8.60437C35.9678 8.71375 36.0948 8.82481 36.2203 8.93752L35.8861 9.30949C36.0084 9.41933 36.1292 9.53077 36.2484 9.64378L36.5924 9.28092C36.7149 9.39704 36.8358 9.51478 36.9551 9.6341L36.6014 9.98758C36.7176 10.1038 36.8322 10.2215 36.9451 10.3408L37.3081 9.99697C37.4242 10.1195 37.5386 10.2436 37.6513 10.3692L37.2791 10.7031C37.3888 10.8254 37.4968 10.9491 37.6032 11.0743L37.9842 10.7506C38.0935 10.8792 38.201 11.0093 38.3067 11.1408L37.917 11.4541C38.0199 11.5821 38.1211 11.7115 38.2205 11.8423L38.6186 11.5397C38.7207 11.674 38.8209 11.8097 38.9194 11.9468L38.5132 12.2384C38.609 12.3718 38.703 12.5065 38.7951 12.6425L39.2091 12.3621C39.3037 12.5017 39.3964 12.6427 39.4872 12.785L39.0658 13.054C39.1541 13.1924 39.2405 13.332 39.3251 13.4728L39.7538 13.2154C39.8406 13.3601 39.9255 13.5059 40.0084 13.6531L39.5728 13.8986C39.6533 14.0415 39.732 14.1855 39.8086 14.3308L40.2508 14.0974C40.3296 14.2466 40.4063 14.397 40.481 14.5485L40.0326 14.7696C40.105 14.9167 40.1756 15.0648 40.2441 15.214L40.6985 15.0054C40.7688 15.1587 40.8372 15.3131 40.9034 15.4686L40.4434 15.6645C40.5076 15.8153 40.5698 15.9671 40.6299 16.1199L41.0952 15.9369C41.1569 16.0938 41.2165 16.2517 41.274 16.4106L40.8038 16.5807C40.8595 16.7348 40.9132 16.8899 40.9647 17.0459L41.4395 16.889C41.4923 17.049 41.543 17.2099 41.5915 17.3718L41.1126 17.5154C41.1597 17.6724 41.2046 17.8303 41.2474 17.9891L41.7302 17.859C41.774 18.0215 41.8156 18.1849 41.855 18.3492L41.3688 18.4658C41.407 18.6253 41.4431 18.7856 41.477 18.9467L41.9663 18.8437C42.0009 19.0083 42.0334 19.1737 42.0635 19.3398L41.5715 19.4291C41.6008 19.5905 41.6279 19.7526 41.6528 19.9154L42.1471 19.8399C42.1725 20.0061 42.1956 20.173 42.2165 20.3406L41.7204 20.4024C41.7406 20.565 41.7587 20.7283 41.7745 20.8923L42.2722 20.8443C42.2883 21.0116 42.3022 21.1797 42.3138 21.3483L41.815 21.3826C41.8262 21.546 41.8352 21.71 41.8419 21.8746L42.3415 21.854Z" stroke="url(#paint5_radial_2358_1024)" stroke-dasharray="0.5 0.5"/>
<ellipse cx="23.5" cy="22.6141" rx="12.5714" ry="12.3509" fill="url(#paint6_radial_2358_1024)"/>
<ellipse cx="23.4999" cy="22.614" rx="9.42857" ry="9.26316" fill="url(#paint7_radial_2358_1024)"/>
<path d="M39.0434 20.3281C39.1189 20.8278 39.17 21.3353 39.1955 21.8494L38.1968 21.899C38.2085 22.1358 38.2145 22.3742 38.2145 22.614C38.2145 22.8538 38.2085 23.0922 38.1968 23.329L39.1955 23.3786C39.17 23.8927 39.1189 24.4002 39.0434 24.8999L38.0546 24.7506C37.983 25.2249 37.8878 25.6917 37.7703 26.1497L38.739 26.3981C38.6116 26.8947 38.4598 27.3817 38.2848 27.8578L37.3462 27.5128C37.1813 27.9615 36.9944 28.3999 36.7866 28.8268L37.6858 29.2643C37.4622 29.7239 37.2162 30.1708 36.9491 30.6039L36.098 30.0789C35.8474 30.4851 35.577 30.8783 35.288 31.2572L36.083 31.8637C35.7738 32.2691 35.4447 32.6591 35.0972 33.0322L34.3654 32.3507C34.0404 32.6997 33.6982 33.033 33.34 33.3494L34.002 34.0989C33.6205 34.4358 33.2221 34.7546 32.8083 35.054L32.2222 34.2438C31.8363 34.5229 31.4361 34.784 31.0228 35.0258L31.5277 35.889C31.0892 36.1455 30.6369 36.3816 30.1722 36.596L29.7533 35.688C29.3217 35.8871 28.8788 36.0662 28.4256 36.2241L28.7547 37.1684C28.2761 37.3352 27.7869 37.4798 27.2884 37.601L27.0521 36.6294C26.5914 36.7414 26.1221 36.8321 25.6453 36.9004L25.7871 37.8903C25.2869 37.9619 24.7791 38.0104 24.2649 38.0347L24.2178 37.0358C23.9801 37.0469 23.7409 37.0526 23.5002 37.0526C23.2595 37.0526 23.0202 37.0469 22.7825 37.0358L22.7355 38.0347C22.2212 38.0104 21.7134 37.9619 21.2132 37.8903L21.355 36.9004C20.8782 36.8321 20.4089 36.7414 19.9483 36.6294L19.712 37.601C19.2134 37.4798 18.7242 37.3352 18.2457 37.1684L18.5748 36.2241C18.1216 36.0662 17.6786 35.8871 17.2471 35.688L16.8281 36.596C16.3634 36.3816 15.9112 36.1455 15.4727 35.889L15.9776 35.0258C15.5643 34.784 15.164 34.5229 14.7782 34.2438L14.192 35.054C13.7782 34.7546 13.3798 34.4358 12.9984 34.0989L13.6603 33.3494C13.3022 33.033 12.9599 32.6997 12.635 32.3507L11.9031 33.0322C11.5556 32.6591 11.2266 32.2691 10.9173 31.8637L11.7124 31.2572C11.4234 30.8783 11.1529 30.4851 10.9024 30.0789L10.0513 30.6039C9.78415 30.1708 9.5381 29.7239 9.31451 29.2643L10.2137 28.8268C10.006 28.3999 9.81906 27.9615 9.65417 27.5129L8.71555 27.8578C8.54056 27.3817 8.38872 26.8947 8.26137 26.3981L9.23002 26.1497C9.11256 25.6917 9.0174 25.2249 8.94574 24.7506L7.95695 24.8999C7.88146 24.4002 7.83034 23.8927 7.80482 23.3786L8.80359 23.329C8.79184 23.0922 8.78589 22.8538 8.78589 22.614C8.78589 22.3742 8.79184 22.1358 8.80359 21.899L7.80482 21.8494C7.83034 21.3353 7.88146 20.8278 7.95695 20.3281L8.94573 20.4775C9.0174 20.0031 9.11256 19.5363 9.23002 19.0783L8.26137 18.8299C8.38872 18.3334 8.54056 17.8463 8.71555 17.3702L9.65417 17.7152C9.81906 17.2665 10.006 16.8281 10.2137 16.4012L9.31451 15.9637C9.5381 15.5042 9.78415 15.0572 10.0513 14.6242L10.9024 15.1491C11.1529 14.7429 11.4234 14.3497 11.7124 13.9708L10.9173 13.3643C11.2266 12.9589 11.5556 12.5689 11.9031 12.1958L12.635 12.8773C12.9599 12.5283 13.3022 12.195 13.6603 11.8787L12.9984 11.1291C13.3798 10.7922 13.7782 10.4734 14.192 10.174L14.7782 10.9842C15.164 10.7051 15.5643 10.444 15.9776 10.2022L15.4727 9.33905C15.9112 9.08256 16.3634 8.84645 16.8281 8.63204L17.2471 9.54005C17.6786 9.34096 18.1216 9.16184 18.5748 9.00391L18.2457 8.0596C18.7242 7.89284 19.2134 7.74822 19.712 7.62698L19.9483 8.59867C20.4089 8.48666 20.8782 8.39592 21.355 8.32762L21.2132 7.33772C21.7134 7.26608 22.2212 7.21758 22.7355 7.19337L22.7825 8.19227C23.0202 8.18108 23.2595 8.17542 23.5002 8.17542C23.7409 8.17542 23.9801 8.18108 24.2178 8.19227L24.2649 7.19337C24.7791 7.21758 25.2869 7.26608 25.7871 7.33772L25.6453 8.32762C26.1222 8.39593 26.5914 8.48666 27.0521 8.59867L27.2884 7.62698C27.7869 7.74822 28.2761 7.89285 28.7547 8.0596L28.4256 9.00391C28.8788 9.16184 29.3218 9.34096 29.7533 9.54005L30.1722 8.63204C30.6369 8.84645 31.0892 9.08256 31.5277 9.33905L31.0228 10.2022C31.4361 10.444 31.8363 10.7051 32.2222 10.9842L32.8083 10.174C33.2221 10.4734 33.6205 10.7922 34.002 11.1291L33.34 11.8787C33.6982 12.195 34.0404 12.5283 34.3654 12.8773L35.0972 12.1958C35.4447 12.5689 35.7738 12.9589 36.083 13.3643L35.288 13.9708C35.577 14.3497 35.8474 14.7429 36.098 15.1491L36.9491 14.6242C37.2162 15.0572 37.4622 15.5042 37.6858 15.9637L36.7866 16.4012C36.9944 16.8281 37.1813 17.2665 37.3462 17.7152L38.2848 17.3702C38.4598 17.8463 38.6116 18.3333 38.739 18.8299L37.7703 19.0783C37.8878 19.5363 37.983 20.0031 38.0546 20.4775L39.0434 20.3281Z" stroke="url(#paint8_radial_2358_1024)" stroke-width="2" stroke-dasharray="1.5 1.5"/>
<path d="M42.3415 21.854C42.3484 22.0221 42.3531 22.1908 42.3554 22.36L41.8554 22.3668C41.8565 22.4491 41.8571 22.5316 41.8571 22.6141C41.8571 22.6967 41.8565 22.7792 41.8554 22.8615L42.3554 22.8684C42.3531 23.0375 42.3484 23.2062 42.3415 23.3743L41.8419 23.3537C41.8352 23.5183 41.8262 23.6823 41.815 23.8457L42.3138 23.88C42.3022 24.0486 42.2883 24.2167 42.2722 24.384L41.7745 24.336C41.7587 24.5 41.7406 24.6633 41.7204 24.8259L42.2165 24.8877C42.1956 25.0553 42.1725 25.2222 42.1471 25.3884L41.6528 25.3129C41.6279 25.4757 41.6008 25.6378 41.5715 25.7992L42.0635 25.8885C42.0334 26.0546 42.0009 26.22 41.9663 26.3846L41.477 26.2816C41.4431 26.4427 41.407 26.603 41.3688 26.7625L41.855 26.8791C41.8156 27.0434 41.774 27.2068 41.7302 27.3693L41.2474 27.2392C41.2046 27.398 41.1597 27.5559 41.1126 27.7129L41.5915 27.8565C41.543 28.0184 41.4923 28.1793 41.4395 28.3393L40.9647 28.1824C40.9132 28.3384 40.8595 28.4935 40.8038 28.6476L41.274 28.8177C41.2165 28.9766 41.1569 29.1345 41.0952 29.2914L40.6299 29.1084C40.5697 29.2612 40.5076 29.413 40.4434 29.5638L40.9034 29.7597C40.8372 29.9152 40.7688 30.0696 40.6985 30.2229L40.2441 30.0143C40.1756 30.1635 40.105 30.3116 40.0326 30.4587L40.481 30.6798C40.4063 30.8313 40.3296 30.9817 40.2508 31.1309L39.8086 30.8975C39.732 31.0428 39.6533 31.1868 39.5728 31.3297L40.0084 31.5752C39.9255 31.7224 39.8406 31.8682 39.7537 32.0129L39.3251 31.7555C39.2405 31.8963 39.1541 32.0359 39.0658 32.1743L39.4872 32.4433C39.3964 32.5856 39.3037 32.7266 39.2091 32.8662L38.7951 32.5858C38.703 32.7218 38.609 32.8565 38.5132 32.9899L38.9194 33.2815C38.8209 33.4186 38.7207 33.5543 38.6186 33.6886L38.2205 33.386C38.1211 33.5168 38.0199 33.6462 37.917 33.7742L38.3067 34.0875C38.201 34.219 38.0935 34.3491 37.9842 34.4777L37.6031 34.154C37.4968 34.2792 37.3888 34.4029 37.2791 34.5252L37.6513 34.8591C37.5386 34.9847 37.4242 35.1088 37.3081 35.2313L36.9451 34.8875C36.8322 35.0068 36.7176 35.1245 36.6014 35.2407L36.9551 35.5942C36.8358 35.7135 36.7149 35.8313 36.5924 35.9474L36.2484 35.5845C36.1292 35.6975 36.0084 35.809 35.8861 35.9188L36.2203 36.2908C36.0948 36.4035 35.9678 36.5145 35.8392 36.6239L35.5152 36.2431C35.3901 36.3496 35.2635 36.4544 35.1355 36.5575L35.4492 36.9469C35.3178 37.0527 35.185 37.1568 35.0508 37.2591L34.7477 36.8615C34.6171 36.9611 34.4851 37.0589 34.3517 37.1551L34.6441 37.5607C34.5073 37.6593 34.3691 37.7561 34.2295 37.8512L33.9481 37.4379C33.8124 37.5303 33.6754 37.621 33.537 37.7098L33.8073 38.1305C33.6654 38.2217 33.5222 38.311 33.3776 38.3985L33.1187 37.9708C32.9783 38.0557 32.8367 38.1389 32.6938 38.2202L32.9412 38.6548C32.7946 38.7382 32.6467 38.8198 32.4976 38.8995L32.262 38.4585C32.1173 38.5358 31.9715 38.6113 31.8245 38.6848L32.0483 39.1319C31.8975 39.2074 31.7455 39.281 31.5924 39.3526L31.3806 38.8996C31.232 38.9691 31.0824 39.0367 30.9316 39.1023L31.1312 39.5607C30.9766 39.628 30.8209 39.6933 30.6642 39.7566L30.477 39.293C30.3249 39.3544 30.1717 39.4139 30.0176 39.4714L30.1923 39.9399C30.0345 39.9987 29.8756 40.0556 29.7158 40.1104L29.5536 39.6374C29.3983 39.6907 29.2421 39.7419 29.085 39.7911L29.2345 40.2683C29.0738 40.3186 28.9122 40.3669 28.7497 40.413L28.613 39.9321C28.4551 39.977 28.2963 40.0198 28.1366 40.0606L28.2604 40.5451C28.0974 40.5867 27.9336 40.6263 27.7689 40.6637L27.658 40.1762C27.4979 40.2126 27.3369 40.2469 27.1752 40.2792L27.273 40.7695C27.1082 40.8024 26.9425 40.8332 26.7761 40.8619L26.6913 40.3691C26.5295 40.3969 26.367 40.4227 26.2038 40.4464L26.2755 40.9412C26.1091 40.9653 25.9419 40.9873 25.7741 41.0071L25.7155 40.5106C25.5526 40.5298 25.3889 40.547 25.2247 40.562L25.2703 41.0599C25.1028 41.0752 24.9346 41.0884 24.7659 41.0994L24.7334 40.6004C24.5697 40.6111 24.4055 40.6196 24.2407 40.6261L24.2602 41.1257C24.0921 41.1322 23.9234 41.1366 23.7542 41.1388L23.7477 40.6389C23.6652 40.6399 23.5827 40.6405 23.5 40.6405C23.4173 40.6405 23.3347 40.6399 23.2522 40.6389L23.2457 41.1388C23.0765 41.1366 22.9079 41.1322 22.7398 41.1257L22.7592 40.6261C22.5944 40.6196 22.4302 40.6111 22.2665 40.6004L22.234 41.0994C22.0653 41.0884 21.8972 41.0752 21.7297 41.0599L21.7752 40.562C21.611 40.547 21.4474 40.5298 21.2844 40.5106L21.2258 41.0071C21.058 40.9873 20.8909 40.9653 20.7244 40.9412L20.7961 40.4464C20.6329 40.4227 20.4704 40.3969 20.3086 40.3691L20.2238 40.8619C20.0574 40.8332 19.8918 40.8024 19.7269 40.7695L19.8247 40.2792C19.663 40.2469 19.502 40.2126 19.3419 40.1762L19.231 40.6637C19.0664 40.6263 18.9025 40.5867 18.7396 40.5451L18.8633 40.0606C18.7037 40.0198 18.5448 39.977 18.3869 39.9321L18.2502 40.413C18.0877 40.3669 17.9261 40.3186 17.7655 40.2683L17.9149 39.7911C17.7578 39.7419 17.6016 39.6907 17.4463 39.6374L17.2842 40.1104C17.1243 40.0556 16.9655 39.9987 16.8076 39.9399L16.9824 39.4714C16.8282 39.4139 16.6751 39.3544 16.5229 39.293L16.3357 39.7566C16.179 39.6933 16.0233 39.628 15.8688 39.5607L16.0683 39.1023C15.9176 39.0367 15.7679 38.9691 15.6193 38.8996L15.4075 39.3526C15.2544 39.281 15.1024 39.2074 14.9516 39.1319L15.1754 38.6848C15.0284 38.6113 14.8826 38.5358 14.7379 38.4585L14.5023 38.8995C14.3532 38.8198 14.2053 38.7382 14.0587 38.6547L14.3061 38.2202C14.1632 38.1389 14.0216 38.0557 13.8812 37.9708L13.6223 38.3985C13.4778 38.311 13.3345 38.2217 13.1926 38.1305L13.4629 37.7098C13.3246 37.621 13.1876 37.5303 13.0519 37.4379L12.7704 37.8512C12.6309 37.7561 12.4926 37.6593 12.3558 37.5607L12.6482 37.1551C12.5149 37.0589 12.3829 36.9611 12.2523 36.8615L11.9491 37.2591C11.8149 37.1568 11.6821 37.0527 11.5508 36.9469L11.8644 36.5575C11.7364 36.4544 11.6098 36.3496 11.4847 36.2431L11.1607 36.6239C11.0322 36.5145 10.9051 36.4035 10.7797 36.2908L11.1138 35.9188C10.9915 35.809 10.8707 35.6975 10.7515 35.5845L10.4075 35.9474C10.285 35.8313 10.1641 35.7135 10.0449 35.5942L10.3985 35.2407C10.2823 35.1245 10.1678 35.0068 10.0548 34.8875L9.6918 35.2313C9.57574 35.1088 9.46135 34.9847 9.34867 34.8591L9.72084 34.5252C9.61114 34.4029 9.50311 34.2792 9.39677 34.154L9.01571 34.4777C8.90645 34.3491 8.79894 34.219 8.6932 34.0875L9.0829 33.7742C8.97999 33.6462 8.87882 33.5168 8.77942 33.386L8.38136 33.6886C8.27927 33.5543 8.17898 33.4186 8.08054 33.2815L8.48668 32.9899C8.39092 32.8565 8.29695 32.7218 8.20482 32.5858L7.79087 32.8662C7.69625 32.7266 7.60351 32.5856 7.51269 32.4433L7.93414 32.1743C7.84584 32.0359 7.7594 31.8963 7.67485 31.7555L7.24618 32.0129C7.15934 31.8682 7.07445 31.7223 6.99154 31.5752L7.42713 31.3297C7.34659 31.1868 7.26797 31.0428 7.19131 30.8975L6.74913 31.1309C6.67037 30.9817 6.59362 30.8313 6.51891 30.6798L6.96737 30.4587C6.89488 30.3116 6.82437 30.1635 6.75587 30.0143L6.30147 30.2229C6.23109 30.0696 6.16277 29.9152 6.09655 29.7597L6.55657 29.5638C6.49236 29.413 6.43018 29.2612 6.37006 29.1084L5.90477 29.2914C5.84304 29.1345 5.78343 28.9766 5.72596 28.8177L6.19616 28.6476C6.14043 28.4935 6.08677 28.3384 6.03522 28.1824L5.56046 28.3393C5.5076 28.1793 5.4569 28.0184 5.40839 27.8565L5.88734 27.7129C5.84027 27.5559 5.79532 27.398 5.75252 27.2392L5.26975 27.3693C5.22594 27.2068 5.18432 27.0434 5.14493 26.8791L5.63114 26.7625C5.5929 26.603 5.55681 26.4427 5.5229 26.2816L5.03362 26.3846C4.99899 26.22 4.96657 26.0546 4.93642 25.8885L5.42838 25.7992C5.39909 25.6378 5.37198 25.4757 5.3471 25.3129L4.85284 25.3884C4.82744 25.2222 4.80428 25.0553 4.78341 24.8877L5.27957 24.8259C5.25932 24.6633 5.24126 24.5 5.22545 24.336L4.72776 24.384C4.71161 24.2167 4.69773 24.0486 4.68615 23.88L5.18497 23.8457C5.17375 23.6823 5.16474 23.5183 5.15798 23.3537L4.6584 23.3743C4.6515 23.2062 4.64688 23.0375 4.64456 22.8683L5.14451 22.8615C5.14339 22.7792 5.14282 22.6967 5.14282 22.6141C5.14282 22.5316 5.14339 22.4491 5.14451 22.3668L4.64456 22.3599C4.64688 22.1907 4.6515 22.0221 4.65841 21.854L5.15798 21.8746C5.16474 21.71 5.17375 21.546 5.18497 21.3826L4.68615 21.3483C4.69773 21.1797 4.71161 21.0116 4.72776 20.8442L5.22545 20.8923C5.24127 20.7283 5.25932 20.565 5.27957 20.4024L4.78341 20.3406C4.80428 20.173 4.82744 20.006 4.85284 19.8399L5.3471 19.9154C5.37199 19.7526 5.39909 19.5905 5.42838 19.4291L4.93642 19.3398C4.96658 19.1737 4.99899 19.0083 5.03362 18.8437L5.52291 18.9467C5.55681 18.7856 5.5929 18.6253 5.63114 18.4658L5.14493 18.3492C5.18432 18.1849 5.22594 18.0215 5.26975 17.859L5.75253 17.9891C5.79532 17.8303 5.84027 17.6724 5.88734 17.5153L5.40839 17.3718C5.4569 17.2099 5.50761 17.049 5.56046 16.889L6.03522 17.0459C6.08677 16.8899 6.14043 16.7348 6.19616 16.5807L5.72596 16.4106C5.78343 16.2517 5.84305 16.0938 5.90477 15.9369L6.37006 16.1199C6.43018 15.9671 6.49236 15.8153 6.55657 15.6645L6.09655 15.4686C6.16277 15.3131 6.23109 15.1587 6.30147 15.0054L6.75587 15.214C6.82437 15.0648 6.89488 14.9167 6.96737 14.7696L6.51891 14.5485C6.59362 14.397 6.67037 14.2466 6.74913 14.0974L7.19132 14.3308C7.26798 14.1855 7.34659 14.0414 7.42713 13.8985L6.99154 13.6531C7.07445 13.5059 7.15934 13.3601 7.24618 13.2154L7.67485 13.4728C7.7594 13.332 7.84584 13.1924 7.93415 13.054L7.51269 12.785C7.60352 12.6427 7.69626 12.5017 7.79087 12.3621L8.20482 12.6425C8.29695 12.5065 8.39092 12.3718 8.48669 12.2384L8.08055 11.9468C8.17899 11.8097 8.27927 11.674 8.38137 11.5397L8.77942 11.8423C8.87883 11.7115 8.98 11.5821 9.0829 11.4541L8.69321 11.1408C8.79894 11.0093 8.90646 10.8792 9.01571 10.7506L9.39678 11.0743C9.50311 10.9491 9.61115 10.8254 9.72085 10.7031L9.34867 10.3692C9.46136 10.2436 9.57575 10.1195 9.69181 9.99696L10.0548 10.3408C10.1678 10.2215 10.2823 10.1038 10.3985 9.98758L10.0449 9.6341C10.1641 9.51478 10.285 9.39704 10.4075 9.28091L10.7515 9.64378C10.8707 9.53077 10.9915 9.41933 11.1138 9.30949L10.7797 8.93751C10.9051 8.82481 11.0322 8.71375 11.1607 8.60437L11.4847 8.98518C11.6098 8.87873 11.7364 8.77391 11.8645 8.67077L11.5508 8.28141C11.6821 8.17561 11.8149 8.07153 11.9491 7.96918L12.2523 8.3668C12.3829 8.26724 12.5149 8.16936 12.6482 8.07322L12.3558 7.66762C12.4927 7.569 12.6309 7.47215 12.7704 7.3771L13.0519 7.79038C13.1876 7.69798 13.3246 7.60732 13.4629 7.51846L13.1926 7.0978C13.3345 7.00662 13.4778 6.91727 13.6223 6.82979L13.8812 7.25753C14.0216 7.17256 14.1632 7.08939 14.3061 7.00806L14.0587 6.57354C14.2053 6.49006 14.3532 6.40847 14.5023 6.32879L14.738 6.76977C14.8826 6.69247 15.0284 6.61702 15.1754 6.54347L14.9516 6.09635C15.1024 6.02085 15.2544 5.9473 15.4076 5.87571L15.6193 6.32866C15.7679 6.2592 15.9176 6.19164 16.0683 6.12602L15.8688 5.66757C16.0233 5.60029 16.179 5.53498 16.3357 5.4717L16.5229 5.93532C16.6751 5.87389 16.8282 5.81441 16.9824 5.7569L16.8076 5.28844C16.9655 5.22955 17.1243 5.17269 17.2842 5.11788L17.4463 5.59085C17.6016 5.53762 17.7578 5.48638 17.9149 5.43716L17.7655 4.96002C17.9261 4.90969 18.0877 4.86143 18.2502 4.81525L18.3869 5.2962C18.5448 5.25131 18.7037 5.20845 18.8633 5.16765L18.7396 4.68321C18.9025 4.64157 19.0664 4.60201 19.231 4.56457L19.3419 5.05213C19.502 5.01571 19.663 4.98135 19.8247 4.94909L19.7269 4.45875C19.8918 4.42585 20.0574 4.39507 20.2238 4.36643L20.3086 4.85919C20.4704 4.83135 20.6329 4.80558 20.7962 4.78193L20.7244 4.2871C20.8909 4.26298 21.058 4.241 21.2258 4.22118L21.2844 4.71773C21.4474 4.69849 21.611 4.68134 21.7752 4.66632L21.7297 4.1684C21.8972 4.15307 22.0653 4.1399 22.234 4.12892L22.2665 4.62786C22.4302 4.6172 22.5944 4.60865 22.7592 4.60223L22.7398 4.10261C22.9079 4.09606 23.0765 4.09168 23.2458 4.08948L23.2522 4.58944C23.3347 4.58837 23.4173 4.58783 23.5 4.58783C23.5827 4.58783 23.6652 4.58837 23.7477 4.58944L23.7542 4.08948C23.9234 4.09168 24.0921 4.09606 24.2602 4.10261L24.2407 4.60223C24.4055 4.60865 24.5698 4.6172 24.7334 4.62786L24.7659 4.12892C24.9346 4.13991 25.1028 4.15307 25.2703 4.1684L25.2247 4.66632C25.389 4.68134 25.5526 4.69849 25.7155 4.71773L25.7741 4.22118C25.9419 4.241 26.1091 4.26298 26.2755 4.2871L26.2038 4.78193C26.367 4.80558 26.5295 4.83135 26.6913 4.85919L26.7761 4.36643C26.9425 4.39507 27.1082 4.42586 27.273 4.45875L27.1752 4.94909C27.3369 4.98136 27.4979 5.01571 27.6581 5.05213L27.7689 4.56457C27.9336 4.60201 28.0974 4.64157 28.2604 4.68321L28.1366 5.16765C28.2963 5.20845 28.4551 5.25131 28.6131 5.2962L28.7497 4.81525C28.9122 4.86143 29.0738 4.9097 29.2345 4.96002L29.085 5.43716C29.2421 5.48638 29.3983 5.53762 29.5536 5.59086L29.7158 5.11789C29.8756 5.17269 30.0345 5.22955 30.1923 5.28844L30.0176 5.7569C30.1717 5.81441 30.3249 5.87389 30.477 5.93532L30.6642 5.4717C30.8209 5.53499 30.9766 5.60029 31.1312 5.66757L30.9316 6.12602C31.0824 6.19164 31.232 6.2592 31.3806 6.32866L31.5924 5.87571C31.7455 5.9473 31.8975 6.02086 32.0483 6.09635L31.8246 6.54347C31.9715 6.61703 32.1173 6.69247 32.262 6.76977L32.4976 6.3288C32.6467 6.40847 32.7946 6.49007 32.9412 6.57355L32.6939 7.00806C32.8367 7.08939 32.9783 7.17256 33.1187 7.25753L33.3776 6.82979C33.5222 6.91728 33.6654 7.00662 33.8073 7.0978L33.537 7.51846C33.6754 7.60733 33.8124 7.69798 33.9481 7.79038L34.2295 7.3771C34.3691 7.47215 34.5073 7.569 34.6441 7.66762L34.3517 8.07322C34.4851 8.16937 34.6171 8.26724 34.7477 8.36681L35.0508 7.96918C35.1851 8.07153 35.3179 8.17562 35.4492 8.28141L35.1355 8.67077C35.2635 8.77392 35.3901 8.87873 35.5152 8.98518L35.8392 8.60437C35.9678 8.71375 36.0948 8.82481 36.2203 8.93752L35.8861 9.30949C36.0084 9.41933 36.1292 9.53077 36.2484 9.64378L36.5924 9.28092C36.7149 9.39704 36.8358 9.51478 36.9551 9.6341L36.6014 9.98758C36.7176 10.1038 36.8322 10.2215 36.9451 10.3408L37.3081 9.99697C37.4242 10.1195 37.5386 10.2436 37.6513 10.3692L37.2791 10.7031C37.3888 10.8254 37.4968 10.9491 37.6032 11.0743L37.9842 10.7506C38.0935 10.8792 38.201 11.0093 38.3067 11.1408L37.917 11.4541C38.0199 11.5821 38.1211 11.7115 38.2205 11.8423L38.6186 11.5397C38.7207 11.674 38.8209 11.8097 38.9194 11.9468L38.5132 12.2384C38.609 12.3718 38.703 12.5065 38.7951 12.6425L39.2091 12.3621C39.3037 12.5017 39.3964 12.6427 39.4872 12.785L39.0658 13.054C39.1541 13.1924 39.2405 13.332 39.3251 13.4728L39.7538 13.2154C39.8406 13.3601 39.9255 13.5059 40.0084 13.6531L39.5728 13.8986C39.6533 14.0415 39.732 14.1855 39.8086 14.3308L40.2508 14.0974C40.3296 14.2466 40.4063 14.397 40.481 14.5485L40.0326 14.7696C40.105 14.9167 40.1756 15.0648 40.2441 15.214L40.6985 15.0054C40.7688 15.1587 40.8372 15.3131 40.9034 15.4686L40.4434 15.6645C40.5076 15.8153 40.5698 15.9671 40.6299 16.1199L41.0952 15.9369C41.1569 16.0938 41.2165 16.2517 41.274 16.4106L40.8038 16.5807C40.8595 16.7348 40.9132 16.8899 40.9647 17.0459L41.4395 16.889C41.4923 17.049 41.543 17.2099 41.5915 17.3718L41.1126 17.5154C41.1597 17.6724 41.2046 17.8303 41.2474 17.9891L41.7302 17.859C41.774 18.0215 41.8156 18.1849 41.855 18.3492L41.3688 18.4658C41.407 18.6253 41.4431 18.7856 41.477 18.9467L41.9663 18.8437C42.0009 19.0083 42.0334 19.1737 42.0635 19.3398L41.5715 19.4291C41.6008 19.5905 41.6279 19.7526 41.6528 19.9154L42.1471 19.8399C42.1725 20.0061 42.1956 20.173 42.2165 20.3406L41.7204 20.4024C41.7406 20.565 41.7587 20.7283 41.7745 20.8923L42.2722 20.8443C42.2883 21.0116 42.3022 21.1797 42.3138 21.3483L41.815 21.3826C41.8262 21.546 41.8352 21.71 41.8419 21.8746L42.3415 21.854Z" stroke="url(#paint9_radial_2358_1024)" stroke-dasharray="0.5 0.5"/>
<ellipse cx="23.5" cy="22.6141" rx="12.5714" ry="12.3509" fill="url(#paint10_radial_2358_1024)"/>
<ellipse cx="23.4999" cy="22.614" rx="9.42857" ry="9.26316" fill="url(#paint11_radial_2358_1024)"/>
<defs>
<linearGradient id="paint0_linear_2358_1024" x1="19.1786" y1="1" x2="1.07334" y2="21.389" gradientUnits="userSpaceOnUse">
<stop stop-color="white"/>
<stop offset="1" stop-color="white" stop-opacity="0"/>
</linearGradient>
<linearGradient id="paint1_linear_2358_1024" x1="43.9286" y1="13.3509" x2="22.9469" y2="-0.886675" gradientUnits="userSpaceOnUse">
<stop stop-color="white"/>
<stop offset="1" stop-color="white" stop-opacity="0"/>
</linearGradient>
<linearGradient id="paint2_linear_2358_1024" x1="27.8216" y1="44.9998" x2="45.9268" y2="24.6108" gradientUnits="userSpaceOnUse">
<stop stop-color="white"/>
<stop offset="1" stop-color="white" stop-opacity="0"/>
</linearGradient>
<linearGradient id="paint3_linear_2358_1024" x1="3.07143" y1="32.6489" x2="24.0531" y2="46.8865" gradientUnits="userSpaceOnUse">
<stop stop-color="white"/>
<stop offset="1" stop-color="white" stop-opacity="0"/>
</linearGradient>
<radialGradient id="paint4_radial_2358_1024" cx="0" cy="0" r="1" gradientUnits="userSpaceOnUse" gradientTransform="translate(23.5002 22.614) rotate(90) scale(21.2281 21.6071)">
<stop stop-color="white"/>
<stop offset="1" stop-color="white" stop-opacity="0"/>
</radialGradient>
<radialGradient id="paint5_radial_2358_1024" cx="0" cy="0" r="1" gradientUnits="userSpaceOnUse" gradientTransform="translate(23.5 22.6141) rotate(90) scale(25.4737 25.9286)">
<stop stop-color="white"/>
<stop offset="1" stop-color="white" stop-opacity="0.54"/>
</radialGradient>
<radialGradient id="paint6_radial_2358_1024" cx="0" cy="0" r="1" gradientUnits="userSpaceOnUse" gradientTransform="translate(23.5 22.2282) rotate(67.6448) scale(13.7719 13.9473)">
<stop stop-color="white"/>
<stop offset="0.739583" stop-color="white" stop-opacity="0.582344"/>
<stop offset="1" stop-color="white" stop-opacity="0.19"/>
</radialGradient>
<radialGradient id="paint7_radial_2358_1024" cx="0" cy="0" r="1" gradientUnits="userSpaceOnUse" gradientTransform="translate(23.4999 22.3245) rotate(67.6448) scale(10.3289 10.4605)">
<stop stop-color="white"/>
<stop offset="0.739583" stop-color="white" stop-opacity="0.582344"/>
<stop offset="1" stop-color="white" stop-opacity="0.19"/>
</radialGradient>
<radialGradient id="paint8_radial_2358_1024" cx="0" cy="0" r="1" gradientUnits="userSpaceOnUse" gradientTransform="translate(23.5002 22.614) rotate(90) scale(21.2281 21.6071)">
<stop stop-color="white"/>
<stop offset="1" stop-color="white" stop-opacity="0"/>
</radialGradient>
<radialGradient id="paint9_radial_2358_1024" cx="0" cy="0" r="1" gradientUnits="userSpaceOnUse" gradientTransform="translate(23.5 22.6141) rotate(90) scale(25.4737 25.9286)">
<stop stop-color="white"/>
<stop offset="1" stop-color="white" stop-opacity="0.54"/>
</radialGradient>
<radialGradient id="paint10_radial_2358_1024" cx="0" cy="0" r="1" gradientUnits="userSpaceOnUse" gradientTransform="translate(23.5 22.2282) rotate(67.6448) scale(13.7719 13.9473)">
<stop stop-color="white"/>
<stop offset="0.739583" stop-color="white" stop-opacity="0.582344"/>
<stop offset="1" stop-color="white" stop-opacity="0.19"/>
</radialGradient>
<radialGradient id="paint11_radial_2358_1024" cx="0" cy="0" r="1" gradientUnits="userSpaceOnUse" gradientTransform="translate(23.4999 22.3245) rotate(67.6448) scale(10.3289 10.4605)">
<stop stop-color="white"/>
<stop offset="0.739583" stop-color="white" stop-opacity="0.582344"/>
<stop offset="1" stop-color="white" stop-opacity="0.19"/>
</radialGradient>
</defs>
</svg>
