<svg xmlns="http://www.w3.org/2000/svg"  viewBox="0 0 64 64" width="64px" height="64px"><linearGradient id="_52a03Cd8tmyFB68TNWNYa" x1="32" x2="32" y1="23" y2="57" gradientUnits="userSpaceOnUse" spreadMethod="reflect"><stop offset="0" stop-color="#6dc7ff"/><stop offset="1" stop-color="#e6abff"/></linearGradient><path fill="url(#_52a03Cd8tmyFB68TNWNYa)" d="M32,57c-9.374,0-17-7.626-17-17s7.626-17,17-17c5.034,0,9.78,2.212,13.022,6.071 C47.587,32.125,49,36.006,49,40C49,49.374,41.374,57,32,57z M32,25c-8.271,0-15,6.729-15,15s6.729,15,15,15s15-6.729,15-15 c0-3.524-1.246-6.949-3.509-9.643C40.63,26.953,36.442,25,32,25z"/><linearGradient id="_52a03Cd8tmyFB68TNWNYb" x1="32" x2="32" y1="2.375" y2="61.627" gradientUnits="userSpaceOnUse" spreadMethod="reflect"><stop offset="0" stop-color="#1a6dff"/><stop offset="1" stop-color="#c822ff"/></linearGradient><path fill="url(#_52a03Cd8tmyFB68TNWNYb)" d="M43,22.145V18c0-1.103-0.897-2-2-2h-1v-5c0-4.411-3.589-8-8-8s-8,3.589-8,8v5h-1 c-1.103,0-2,0.897-2,2v4.145C15.011,25.849,11,32.456,11,40c0,11.58,9.42,21,21,21s21-9.42,21-21C53,32.456,48.989,25.849,43,22.145 z M41,18v3.055c-1.27-0.606-2.606-1.086-4-1.428V18H41z M26,11c0-3.309,2.691-6,6-6s6,2.691,6,6v5h-1c-1.103,0-2,0.897-2,2v1.24 C34.017,19.098,33.021,19,32,19s-2.017,0.098-3,0.24V18c0-1.103-0.897-2-2-2h-1V11z M23,18h4v1.627c-1.394,0.342-2.73,0.823-4,1.428 V18z M32,59c-10.477,0-19-8.523-19-19s8.523-19,19-19s19,8.523,19,19S42.477,59,32,59z"/><linearGradient id="_52a03Cd8tmyFB68TNWNYc" x1="32" x2="32" y1="2.375" y2="61.627" gradientUnits="userSpaceOnUse" spreadMethod="reflect"><stop offset="0" stop-color="#1a6dff"/><stop offset="1" stop-color="#c822ff"/></linearGradient><path fill="url(#_52a03Cd8tmyFB68TNWNYc)" d="M32,32c-3.309,0-6,2.691-6,6c0,2.215,1.21,4.149,3,5.188V46c0,1.654,1.346,3,3,3s3-1.346,3-3 v-2.812c1.79-1.039,3-2.973,3-5.188C38,34.691,35.309,32,32,32z M33,46c0,0.551-0.449,1-1,1s-1-0.449-1-1v-2h2V46z M32,42 c-2.206,0-4-1.794-4-4s1.794-4,4-4s4,1.794,4,4S34.206,42,32,42z"/></svg>