<svg xmlns="http://www.w3.org/2000/svg"  viewBox="0 0 48 48" width="48px" height="48px" baseProfile="basic" fill="#6be3a2"><circle cx="24" cy="24" r="7" fill="#6be3a2"/><path fill="#324561" d="M14.101,34.899c-0.256,0-0.512-0.098-0.707-0.293C10.561,31.773,9,28.007,9,24	s1.561-7.773,4.394-10.606c0.391-0.391,1.023-0.391,1.414,0s0.391,1.023,0,1.414C12.353,17.263,11,20.527,11,24	s1.353,6.737,3.808,9.192c0.391,0.391,0.391,1.023,0,1.414C14.612,34.802,14.356,34.899,14.101,34.899z"/><path fill="#324561" d="M33.899,34.899c-0.256,0-0.512-0.098-0.707-0.293c-0.391-0.391-0.391-1.023,0-1.414	C35.647,30.737,37,27.473,37,24s-1.353-6.737-3.808-9.192c-0.391-0.391-0.391-1.023,0-1.414s1.023-0.391,1.414,0	C37.439,16.227,39,19.993,39,24s-1.561,7.773-4.394,10.606C34.411,34.802,34.155,34.899,33.899,34.899z"/><path fill="#324561" d="M8.443,40.557c-0.256,0-0.512-0.098-0.707-0.293c-8.967-8.968-8.967-23.56,0-32.527	c0.391-0.391,1.023-0.391,1.414,0s0.391,1.023,0,1.414c-8.188,8.188-8.188,21.511,0,29.699c0.391,0.391,0.391,1.023,0,1.414	C8.955,40.459,8.699,40.557,8.443,40.557z"/><path fill="#324561" d="M39.557,40.557c-0.256,0-0.512-0.098-0.707-0.293c-0.391-0.391-0.391-1.023,0-1.414	c8.188-8.188,8.188-21.511,0-29.699c-0.391-0.391-0.391-1.023,0-1.414s1.023-0.391,1.414,0c8.967,8.968,8.967,23.56,0,32.527	C40.068,40.459,39.812,40.557,39.557,40.557z"/></svg>