<svg xmlns="http://www.w3.org/2000/svg"  viewBox="0 0 128 128" width="64px" height="64px"><path d="M 34.802734 20.521484 C 29.012695 20.476367 23.499609 23.024609 18.599609 28.099609 C 12.099609 34.899609 6.7996094 46.100781 3.5996094 59.800781 C 0.69960937 72.600781 0.000390625 85.800391 1.9003906 95.900391 C 4.5003906 110.40039 9.9 118.40039 17.5 118.90039 C 22.6 119.30039 25.900781 115.69961 29.800781 111.59961 C 33.000781 108.19961 37.100781 103.99922 43.300781 100.19922 C 49.400781 96.599219 57.6 96.099609 62 96.099609 L 65.599609 96.099609 C 69.999609 96.099609 78.200781 96.599219 84.300781 100.19922 C 90.600781 103.89922 94.600781 108.19961 97.800781 111.59961 C 101.50078 115.49961 104.8 119 109.5 119 L 110.19922 119 C 117.79922 118.5 123.20078 110.5 125.80078 96 C 127.60078 85.8 126.99961 72.700391 124.09961 59.900391 C 120.89961 46.200391 115.6 34.899609 109 28.099609 C 103.4 22.299609 97.000781 19.799219 90.300781 20.699219 C 86.800781 21.199219 82.400781 23.599219 77.800781 26.199219 C 72.900781 28.999219 67.300781 32.099609 63.800781 32.099609 C 60.300781 32.099609 54.700781 28.999219 49.800781 26.199219 C 45.200781 23.599219 40.800781 21.199219 37.300781 20.699219 C 36.463281 20.586719 35.629883 20.52793 34.802734 20.521484 z M 36 46 C 45.4 46 53 53.6 53 63 C 53 72.4 45.4 80 36 80 C 26.6 80 19 72.4 19 63 C 19 53.6 26.6 46 36 46 z M 92 47 C 93.7 47 95 48.3 95 50 L 95 60 L 105 60 C 106.7 60 108 61.3 108 63 C 108 64.7 106.7 66 105 66 L 95 66 L 95 76 C 95 77.7 93.7 79 92 79 C 90.3 79 89 77.7 89 76 L 89 66 L 79 66 C 77.3 66 76 64.7 76 63 C 76 61.3 77.3 60 79 60 L 89 60 L 89 50 C 89 48.3 90.3 47 92 47 z M 36 52 A 11 11 0 0 0 36 74 A 11 11 0 0 0 36 52 z"/></svg>