<svg xmlns="http://www.w3.org/2000/svg"  viewBox="0 0 72 72" width="64px" height="64px"><path d="M 26 8 C 22.681 8 20 10.691 20 14 C 20 17.309 22.681 20 26 20 C 29.319 20 32 17.309 32 14 C 32 10.691 29.319 8 26 8 z M 46 8 C 42.681 8 40 10.691 40 14 C 40 17.309 42.681 20 46 20 C 49.319 20 52 17.309 52 14 C 52 10.691 49.319 8 46 8 z M 26 22 C 20 22 15 26 15 29 L 15 42 C 15 43.66 16.34 45 18 45 L 18 61.935547 C 18 63.628547 19.371453 65 21.064453 65 C 22.705453 65 24.055953 63.707359 24.126953 62.068359 L 24.833984 45 L 27.166016 45 L 27.873047 62.068359 C 27.944047 63.707359 29.294547 65 30.935547 65 C 32.628547 65 34 63.628547 34 61.935547 L 34 45 L 34 41 L 34 28 L 48 28 C 49.657 28 51 26.657 51 25 C 51 23.343 49.657 22 48 22 L 26 22 z M 54.980469 25.359375 C 54.800469 29.059375 51.75 32 48 32 L 38 32 L 38 41 L 38 45 L 38 61.935547 C 38 63.628547 39.371453 65 41.064453 65 C 42.705453 65 44.055953 63.707359 44.126953 62.068359 L 44.833984 45 L 47.166016 45 L 47.873047 62.068359 C 47.944047 63.707359 49.294547 65 50.935547 65 C 52.628547 65 54 63.628547 54 61.935547 L 54 45 C 55.66 45 57 43.66 57 42 L 57 29 C 57 27.84 56.250469 26.529375 54.980469 25.359375 z"/></svg>