<svg xmlns="http://www.w3.org/2000/svg" viewBox="0 0 1500 1500" width="1500" height="1500"><g transform="translate(1416.0 1354.0) rotate(0.0 -664.5 -629.0) scale(-2.0446153846153847 -2.0455284552845527)"><svg width="650" height="615" viewBox="0 0 650 615"><clipPath id="a"><path d="M0 0h649.81v614.48H0z"/></clipPath><g clip-path="url(#a)"><path d="M34.82 117.86c-91.92 151.65 13.5 313.72 137.87 338.93 85 17.24 95.29 58.94 197.62 126.38 101.11 66.64 262 26.43 276.89-116S612.74 195.9 502.44 93.73C362.27-36.1 126.73-33.8 34.82 117.86z" fill="#fece2f"/></g></svg></g><g transform="translate(616.0 142.0) rotate(0.0 333.5 636.5) scale(3.8114285714285714 3.811377245508982)"><svg width="175" height="334" viewBox="0 0 175 334"><clipPath id="b"><path d="M0 0h174.1v334H0z"/></clipPath><g clip-path="url(#b)"><path d="M41.6 1h90.9c22.4 0 40.6 18.2 40.6 40.6v250.8c0 22.4-18.2 40.6-40.6 40.6H41.6C19.2 333 1 314.8 1 292.4V41.6C1 19.2 19.2 1 41.6 1z" fill="#1a1a1a"/><path d="M132.5 334H41.6C18.6 334 0 315.4 0 292.4V41.6C0 18.6 18.6 0 41.6 0h90.9c23 0 41.6 18.6 41.6 41.6v250.8c0 23-18.7 41.6-41.6 41.6zM41.6 2C19.7 2 2 19.7 2 41.6v250.8C2 314.2 19.7 332 41.6 332h90.9c21.9 0 39.6-17.7 39.6-39.6V41.6C172 19.7 154.3 2 132.5 2z" fill="#1a1a1a"/><path d="M162.6 31H11.4v253.6h151.2z" fill="#fece2f"/><path d="M11.4 284.6h15.9L143.7 31h-38.2L11.4 235.8zM83.1 31H70.3L11.4 159.3v27.8z" fill="#fff"/><path d="M67.5 14.8h39.1c1.5 0 2.7 1.2 2.7 2.7s-1.2 2.7-2.7 2.7H67.5c-1.5 0-2.7-1.2-2.7-2.7s1.2-2.7 2.7-2.7z" fill="#fece2f"/><g fill="#1a1a1a"><path d="M106.6 21.1H67.5c-2 0-3.7-1.6-3.7-3.7s1.6-3.7 3.7-3.7h39.1c2 0 3.7 1.6 3.7 3.7s-1.7 3.7-3.7 3.7zm-39.1-5.3c-.9 0-1.7.8-1.7 1.7s.8 1.7 1.7 1.7h39.1c.9 0 1.7-.8 1.7-1.7s-.8-1.7-1.7-1.7zM46.2 86.2h-6.1c-6.8 0-12.2-5.5-12.2-12.2v-6.1c0-6.8 5.5-12.2 12.2-12.2h6.1c6.7 0 12.2 5.5 12.2 12.2V74c0 6.7-5.4 12.1-12.2 12.2zm-6.1-28.6c-5.6 0-10.2 4.6-10.2 10.2v6.1c0 5.6 4.6 10.2 10.2 10.2h6.1c5.6 0 10.2-4.6 10.2-10.2v-6.1c0-5.6-4.6-10.2-10.2-10.2zm51.2 28.6h-6.1C78.4 86.2 73 80.7 73 74v-6.1c0-6.8 5.5-12.2 12.2-12.2h6.1c6.7 0 12.2 5.5 12.2 12.2V74c0 6.7-5.5 12.1-12.2 12.2zm-6.2-28.6c-5.7 0-10.2 4.6-10.2 10.2v6.1c0 5.7 4.6 10.2 10.2 10.2h6.1c5.6 0 10.2-4.6 10.2-10.2v-6.1c0-5.6-4.6-10.2-10.2-10.2zm51.2 28.6h-6.1c-6.7 0-12.2-5.5-12.2-12.2v-6.1c0-6.7 5.5-12.2 12.2-12.2h6.1c6.8 0 12.2 5.5 12.2 12.2V74c0 6.7-5.5 12.2-12.2 12.2zm-6.1-28.6c-5.6 0-10.2 4.6-10.2 10.2v6.1c0 5.6 4.6 10.2 10.2 10.2h6.1c5.7 0 10.2-4.6 10.2-10.2v-6.1c0-5.7-4.6-10.2-10.2-10.2zm-84 71.099h-6.1c-6.8 0-12.2-5.5-12.2-12.2v-6.1c0-6.8 5.5-12.2 12.2-12.2h6.1c6.8 0 12.2 5.5 12.2 12.2v6.1c.1 6.7-5.4 12.2-12.2 12.2zm-6.1-28.6c-5.6 0-10.2 4.6-10.2 10.2v6.1c0 5.6 4.6 10.2 10.2 10.2h6.1c5.6 0 10.2-4.6 10.2-10.2v-6.1c0-5.6-4.6-10.2-10.2-10.2zm51.2 28.6h-6.1c-6.8 0-12.2-5.5-12.2-12.2v-6.1c0-6.8 5.5-12.2 12.2-12.2h6.1c6.8 0 12.2 5.5 12.2 12.2v6.1c0 6.7-5.5 12.2-12.2 12.2zm-6.2-28.6c-5.7 0-10.2 4.6-10.2 10.2v6.1c0 5.7 4.6 10.2 10.2 10.2h6.1c5.6 0 10.2-4.6 10.2-10.2v-6.1c0-5.6-4.6-10.2-10.2-10.2zm51.2 28.6h-6.1c-6.8 0-12.2-5.5-12.2-12.2v-6.1c0-6.8 5.5-12.2 12.2-12.2h6.1c6.8 0 12.2 5.5 12.2 12.2v6.1c0 6.7-5.5 12.2-12.2 12.2zm-6.1-28.6c-5.6 0-10.2 4.6-10.2 10.2v6.1c0 5.6 4.6 10.2 10.2 10.2h6.1c5.7 0 10.2-4.6 10.2-10.2v-6.1c0-5.7-4.6-10.2-10.2-10.2zm-84 71.1h-6.1c-6.7 0-12.2-5.5-12.2-12.2v-6.1c0-6.8 5.5-12.2 12.2-12.2h6.1c6.8 0 12.2 5.5 12.2 12.2v6.1c0 6.7-5.4 12.2-12.2 12.2zm-6.1-28.6c-5.7 0-10.2 4.6-10.2 10.2v6.1c0 5.6 4.6 10.2 10.2 10.2h6.1c5.6 0 10.2-4.6 10.2-10.2v-6.1c0-5.7-4.6-10.2-10.2-10.2zm51.2 28.6h-6.1c-6.7 0-12.2-5.5-12.2-12.2v-6.1c0-6.8 5.5-12.2 12.2-12.2h6.1c6.8 0 12.2 5.5 12.2 12.2v6.1c0 6.7-5.5 12.2-12.2 12.2zm-6.2-28.6c-5.7 0-10.2 4.6-10.2 10.2v6.1c0 5.7 4.6 10.2 10.2 10.2h6.1c5.6 0 10.2-4.6 10.2-10.2v-6.1c0-5.7-4.6-10.2-10.2-10.2zm51.2 28.6h-6.1c-6.7 0-12.2-5.5-12.2-12.2v-6.1c0-6.8 5.5-12.2 12.2-12.2h6.1c6.8 0 12.2 5.5 12.2 12.2v6.1c0 6.7-5.5 12.2-12.2 12.2zm-6.1-28.6c-5.7 0-10.2 4.6-10.2 10.2v6.1c0 5.6 4.6 10.2 10.2 10.2h6.1c5.7 0 10.2-4.6 10.2-10.2v-6.1c0-5.7-4.6-10.2-10.2-10.2zm-84 69.6h-6.1c-6.8 0-12.2-5.5-12.2-12.2v-6.1c0-6.8 5.5-12.2 12.2-12.2h6.1c6.7 0 12.2 5.5 12.2 12.2v6.1c.1 6.8-5.4 12.2-12.2 12.2zm-6.1-28.5c-5.6 0-10.2 4.6-10.2 10.2v6.1c0 5.7 4.6 10.2 10.2 10.2h6.1c5.7 0 10.2-4.6 10.2-10.2v-6.1c0-5.6-4.6-10.2-10.2-10.2zm51.2 28.5h-6.1c-6.8 0-12.2-5.5-12.2-12.2v-6.1c0-6.8 5.5-12.2 12.2-12.2h6.1c6.7 0 12.2 5.5 12.2 12.2v6.1c0 6.8-5.5 12.2-12.2 12.2zm-6.2-28.5c-5.7 0-10.2 4.6-10.2 10.2v6.1c0 5.7 4.6 10.2 10.2 10.2h6.1c5.7 0 10.2-4.6 10.2-10.2v-6.1c0-5.6-4.6-10.2-10.2-10.2zm51.2 28.5h-6.1c-6.8 0-12.2-5.5-12.2-12.2v-6.1c0-6.7 5.5-12.2 12.2-12.2h6.1c6.8 0 12.2 5.5 12.2 12.2v6.1c0 6.8-5.5 12.2-12.2 12.2zm-6.1-28.5c-5.6 0-10.2 4.6-10.2 10.2v6.1c0 5.7 4.6 10.2 10.2 10.2h6.1c5.7 0 10.2-4.6 10.2-10.2v-6.1c0-5.7-4.6-10.2-10.2-10.2z"/></g><path d="M87 318.399c-6.3 0-11.3-5.1-11.3-11.4s5.1-11.3 11.4-11.3 11.3 5.1 11.3 11.4-5.1 11.3-11.4 11.3zm0-20.7c-5.2 0-9.4 4.2-9.4 9.4s4.2 9.4 9.4 9.4 9.4-4.2 9.4-9.4-4.2-9.4-9.4-9.4z" fill="#fece2f"/><path d="M162.6 285.6H11.4c-.6 0-1-.4-1-1V31c0-.6.4-1 1-1h151.2c.6 0 1 .4 1 1v253.6c0 .5-.4 1-1 1zm-150.2-2h149.2V32H12.4z" fill="#1a1a1a"/></g></svg></g><g transform="translate(456.0 469.0) rotate(89.99999999999987 481.0 276.5) translate(0.0 0.0) scale(5.435028248587571 5.421568627450981)"><svg width="176.816" height="102" viewBox="0 0 176.816 102"><clipPath id="c"><path d="M0 0h176.5v101.5H0z"/></clipPath><g clip-path="url(#c)"><path d="M176.5 0H0v101.5h176.5z" fill="#fece2f"/></g></svg></g><g transform="translate(824.0 445.0) rotate(0.0 131.5 186.0) scale(3.931534494356828 3.946949602122016)"><svg width="66.895" height="94.25" viewBox="0 0 66.895 94.25"><g fill="#FFF"><path d="M3.379 16.05a2.485 2.485 0 0 0 .8.1 2.518 2.518 0 0 0 2-.9 23.629 23.629 0 0 1 11.4-7.4 3.092 3.092 0 0 0 1.7-1.5 4.046 4.046 0 0 0-.1-3.4 4.651 4.651 0 0 0-3-2.8 2.208 2.208 0 0 0-1.6 0 28.965 28.965 0 0 0-13.8 9c-1.2 1.4-1 3.7.5 5.4a5.106 5.106 0 0 0 2.1 1.5zm10.7 1.6a4.484 4.484 0 0 0 .4 3.4 4.721 4.721 0 0 0 2.7 2.3 2.485 2.485 0 0 0 .8.1 2.663 2.663 0 0 0 1.2-.3 19.023 19.023 0 0 1 6.7-1.8 2.654 2.654 0 0 0 1.9-1.1 3.948 3.948 0 0 0 .4-3.2 4.688 4.688 0 0 0-3.1-3.3 3.75 3.75 0 0 0-1.1-.1 23.383 23.383 0 0 0-8.6 2.3 4.524 4.524 0 0 0-1.3 1.7zm51.7 6.3-1.2-1.5a45.746 45.746 0 0 0-2.9-3.6 56.633 56.633 0 0 0-23-16.6 35.8 35.8 0 0 0-3.5-1.1 48.16 48.16 0 0 0-5.2-1.1 2.723 2.723 0 0 0-2.4.9 3.522 3.522 0 0 0-.7 2.8 4.865 4.865 0 0 0 3.3 4.1c.1 0 .3.1.4.1a34.348 34.348 0 0 1 4.4.9c.9.3 1.9.6 2.9.9 7.3 2.7 13.7 7.3 19.5 14 .8.9 1.5 1.9 2.4 3 .4.6.9 1.1 1.3 1.7a5.028 5.028 0 0 0 2.2 1.6 2.485 2.485 0 0 0 .8.1 2.732 2.732 0 0 0 1.9-.8c1.3-1.3 1.2-3.6-.2-5.4zm-2.2 33.9v-1.1a42.837 42.837 0 0 0-3.2-15.4 51.078 51.078 0 0 0-8.1-13.7 42.107 42.107 0 0 0-11.7-9.7 9.143 9.143 0 0 0-1.4-.7 1.421 1.421 0 0 0-.6-.2 2.2 2.2 0 0 0-.8-.1 2.734 2.734 0 0 0-2.7 2.6 5 5 0 0 0 2.7 4.9c.3.2.6.3.9.5a33.31 33.31 0 0 1 9.2 7.5 38.6 38.6 0 0 1 6.4 10.9 35.294 35.294 0 0 1 2.5 12.1v.7l.1 3.6a12.75 12.75 0 0 0 .1 2 4.85 4.85 0 0 0 3.3 4.4 2.2 2.2 0 0 0 .8.1 2.732 2.732 0 0 0 1.9-.8 3.069 3.069 0 0 0 .8-2.4 12.1 12.1 0 0 0-.1-1.9zm-28-3.2a17.7 17.7 0 0 0-.1-2.3l-.1-2.2a4.507 4.507 0 0 0-3.1-4.2 2.745 2.745 0 0 0-2.6.6 2.648 2.648 0 0 0-.8 2.2v2.2a16.2 16.2 0 0 0 .1 2.2c0 1.4.1 3.3 0 4.7-.2 5.6-1.5 10-4.1 13.4a43.237 43.237 0 0 1-4.5 5c-.7.7-1.5 1.5-2.2 2.3l-.5.5a11.3 11.3 0 0 0-1.1 1.1 3.862 3.862 0 0 0 .5 5 4.069 4.069 0 0 0 1.9 1.3 2.2 2.2 0 0 0 .8.1 2.463 2.463 0 0 0 1.9-.9 2.336 2.336 0 0 1 .7-.7 5.716 5.716 0 0 0 .7-.8l2.1-2.1a52.692 52.692 0 0 0 5-5.6c3.3-4.3 5-10 5.2-17a24.732 24.732 0 0 0 .2-4.8zm-25.3-7.1v-.2c0-.8-.1-1.5-.1-2.3l-.1-3.3c-.1-4.8.7-8.8 2.6-11.9a4.423 4.423 0 0 0-1.2-5.3 4.784 4.784 0 0 0-1.7-1 2.583 2.583 0 0 0-3.1 1.2c-2.4 4.2-3.5 9.4-3.4 15.6 0 1.1 0 2.1.1 3.2a16.95 16.95 0 0 0 .1 2.3v.1a3.4 3.4 0 0 1-.2 1.4 1.8 1.8 0 0 1-.6.9l-.6.6-.6.6c-1.4 1.1-1.5 3.4-.2 5.3a4.3 4.3 0 0 0 2.4 1.8 2.2 2.2 0 0 0 .8.1 2.716 2.716 0 0 0 1.7-.6 13.576 13.576 0 0 0 1.2-1.2l.3-.3a8.251 8.251 0 0 0 2-3.2 7.629 7.629 0 0 0 .6-3.8z"/><path d="M49.279 52.35a22.74 22.74 0 0 0-1.6-7.3 27.447 27.447 0 0 0-6-9.4 19.692 19.692 0 0 0-8.9-5.5l-.7-.2c-4.4-1-8.5-.1-11.4 2.6s-4.4 6.9-4.4 11.8v2.5c0 1.7.1 3.4 0 4.9a14.234 14.234 0 0 1-.8 4.5 11.258 11.258 0 0 1-2.1 3.5c-1 1.1-2 2.1-3.1 3.3l-.8.8c-1.2 1.2-1.1 3.5.2 5.1a4.535 4.535 0 0 0 2.1 1.5 2.747 2.747 0 0 0 2.6-.6l.7-.7c1.1-1.1 2.3-2.3 3.4-3.5a17.077 17.077 0 0 0 3.2-5.3 19.332 19.332 0 0 0 1.2-6.7c.1-1.8 0-3.6 0-5.3v-2.4c0-3.1.9-5.6 2.6-7.1 1.7-1.6 3.9-2.1 6.7-1.4l.4.1a13.548 13.548 0 0 1 6.9 5.1 23.7 23.7 0 0 1 2.3 4.1 13.385 13.385 0 0 1 1 4.4c.1 1.4.1 2.7.1 4.1v4.1c0 7.8-1.5 14.5-4.8 20.4a32.873 32.873 0 0 1-6.1 7.8 3.932 3.932 0 0 0 .1 5.1 3.821 3.821 0 0 0 2.2 1.5 2.2 2.2 0 0 0 .8.1 2.41 2.41 0 0 0 1.8-.7 39.161 39.161 0 0 0 7.1-9.1c3.8-6.8 5.6-14.8 5.6-23.7 0-1.4 0-2.8-.1-4.3-.1-1.2-.1-2.6-.2-4.1z"/></g></svg></g><g transform="translate(691.0 299.0) rotate(0.0 -241.0 558.5) scale(-1.79182156133829 1.7900641025641026)"><svg width="269" height="624" viewBox="0 0 269 624"><clipPath id="d"><path d="M0 0h268.46v623.67H0z"/></clipPath><g clip-path="url(#d)"><path d="m114.59 108.25 5.51-43.93 24.45.64 4.76 43.51-18.1 8.57z" fill="#fece2f"/><path d="M131.21 117.999a1 1 0 0 1-.47-.12l-16.62-8.78a.996.996 0 0 1-.52-1l5.5-43.93a1 1 0 0 1 1-.88l24.46.64a1.001 1.001 0 0 1 1 .89l4.77 43.51a1.004 1.004 0 0 1-.57 1l-18.1 8.57a.938.938 0 0 1-.45.1zm-15.54-10.35 15.57 8.23 17-8-4.59-41.94-22.65-.6z" fill="#1a1a1a"/><path d="M146.77 86.76s-17.46 6.67-24.66-5.82c4.34 2.75 23.71-4 23.71-4z" fill="#1a1a1a"/><path d="M136.64 89.5c-5.44 0-11.7-1.64-15.4-8.06a.998.998 0 0 1 .179-1.214 1.003 1.003 0 0 1 1.221-.126c2.87 1.82 15.54-1.57 22.85-4.13a1 1 0 0 1 1.33.85l1 9.85a.996.996 0 0 1-.64 1 33.457 33.457 0 0 1-10.54 1.83zm-12.2-7c6.42 7.59 18.24 4.49 21.26 3.53l-.75-7.8c-3.83 1.32-14.63 4.71-20.51 4.31z" fill="#1a1a1a"/><path d="M128.43 1.69a60.215 60.215 0 0 1-22 8.7 4.144 4.144 0 0 0-3.2 2.68 56.95 56.95 0 0 1-5.29 11 4.12 4.12 0 0 0 .76 5.21 32.738 32.738 0 0 0 12.84 6.87c.394.112.801.169 1.21.17h38a4.18 4.18 0 0 0 1.7-.36 55.697 55.697 0 0 0 10.76-6.35 4.132 4.132 0 0 0 .95-5.61 62.067 62.067 0 0 1-5.87-10.62 4.1 4.1 0 0 0-3-2.4C146.75 9.49 140.22 6.5 133 1.7a4.163 4.163 0 0 0-4.57-.01z" fill="#fece2f"/><path d="M100.14 27.64s.79-2 2-4.5 2.75-6.14 10.48-9 12.7-4.55 18.1-4.44 21.49 4 25 8 5.71 9.53 5.61 10.48 3.6-2 3.6-2l-7.31-14.29s-8.57-1.17-13.44-4c-4.87-2.83-11.86-6.67-13.34-7-1.48-.33-11.75 5.82-14 6.56s-12.49 3.28-12.49 3.28l-7.2 14.93s-.15 2.14 2.99 1.98z" fill="#fff"/><path d="M150.76 37.32h-38a4.998 4.998 0 0 1-1.5-.22A33.767 33.767 0 0 1 98 30a5.13 5.13 0 0 1-.93-6.48 55.602 55.602 0 0 0 5.2-10.8 5.122 5.122 0 0 1 4-3.33A59.81 59.81 0 0 0 127.88.86a5.12 5.12 0 0 1 5.71 0c7.63 5.1 14 7.74 21.85 9.12a5.077 5.077 0 0 1 3.77 3A62.272 62.272 0 0 0 165 23.44a5.122 5.122 0 0 1-1.17 7 56.87 56.87 0 0 1-11 6.47 5.06 5.06 0 0 1-2.07.41zM129 2.52a60.877 60.877 0 0 1-22.41 8.86 3.144 3.144 0 0 0-2.43 2 57.566 57.566 0 0 1-5.39 11.22 3.14 3.14 0 0 0 .58 3.95 31.999 31.999 0 0 0 12.46 6.64c.298.089.609.132.92.13h38a3.06 3.06 0 0 0 1.28-.27 54.452 54.452 0 0 0 10.58-6.24 3.119 3.119 0 0 0 .73-4.24 63.312 63.312 0 0 1-6-10.79 3.067 3.067 0 0 0-2.23-1.78c-8.07-1.41-14.84-4.23-22.61-9.42a3.142 3.142 0 0 0-3.49 0z" fill="#1a1a1a"/><path d="M253.86 165.26a184.569 184.569 0 0 0-32.93 35.46c12.7 16.75-10.52 21.46-23.62 27.39-.46 9-.4 15.25-2.21 21 23.42-.56 58.48 3 68.12-29.49 7.13-24.07-.32-39.25-9.36-54.36z" fill="#fece2f"/><path d="M197.13 235.271c12-.55 37.81-9.77 27.11-30.06.21 12.07-5.72 19.55-27.11 22.69a37.193 37.193 0 0 0 0 7.37z" fill="#fff"/><path d="M195.84 250.289a1 1 0 0 1-1-1l.1-3.72c.14-5.3.27-9.87.27-17.1a1 1 0 0 1 .82-1c5.45-.95 23.5-4.77 27.11-14 1.41-3.59.4-7.69-3-12.19a.996.996 0 0 1 0-1.17 185.451 185.451 0 0 1 33.11-35.66 1.011 1.011 0 0 1 .802-.215 1.004 1.004 0 0 1 .688.465l.89 1.47c8.77 14.62 18.72 31.2 8.54 53.82-11.91 26.44-51.72 30-68.29 30.26zm1.36-21c0 6.78-.13 11.21-.26 16.31l-.08 2.67c16.76-.41 54.26-4.2 65.45-29.06 9.76-21.67.51-37.07-8.43-52l-.28-.46a184.167 184.167 0 0 0-31.44 33.92c3.5 4.87 4.46 9.42 2.84 13.54-3.75 9.56-20.07 13.65-27.8 15.08z" fill="#1a1a1a"/><path d="M68.76 228.08c-20.47-5.72-33.64-9.6-23.71-25.61-5.07-9.17-20.72-22.69-34-33.15C3.71 183.76-2 202.86 7.7 223.6c13.44 28.63 47.23 27.54 62.54 27.54z" fill="#fece2f"/><path d="M28.74 243.569c-12.91-12.72-25.45-28.57-16.2-64.81-1.06-1.7-4.24-5.82-4.24-5.82s-22.9 50.53 20.44 70.63z" fill="#fff"/><path d="M69.62 252.569c-32.76 0-54.57-9.77-63.38-28.55-8-17-6.86-35 3.39-55.15a1.007 1.007 0 0 1 .68-.53 1.003 1.003 0 0 1 .83.19c12.73 10 29 24 34.23 33.46a1.001 1.001 0 0 1 0 1c-3.1 5-3.93 8.76-2.61 11.83 2.87 6.63 16 10.47 37.67 14.85a1.005 1.005 0 0 1 .8.94l.77 20.55a1.001 1.001 0 0 1-.93 1c-3.96.28-7.77.41-11.45.41zm-58.75-81.7c-9.45 19.13-10.37 36.21-2.82 52.3 11.76 25.05 45.38 28.61 71.95 27.09l-.73-18.77c-22.43-4.56-35.18-8.49-38.37-15.87-1.56-3.61-.79-7.8 2.43-13.17-5.22-8.92-20.26-21.91-32.46-31.58zm251.51 13.5s-21.29 16.82-41.45 16.35 34.78-31.28 34.78-31.28 6.03 8.26 6.67 14.93zm-55.51 408.742-14.6-320.64-63.77 3.67-56.36-3.36-12.78 320.33h41.05l31.32-199.59 34.1 199.59z" fill="#1a1a1a"/><path d="M200.13 453.37s-26.67-48.82-12.39-40.56 2.25-24-5.64-42.06 2.18-12.39 6-8.26c9.48 10.21 9.8 29.9 9.8 29.9zm1.69 35.99s-8.89-33-11.43-9.32 10.16 30.92 13.55 69.87c-.85-38.53-2.12-60.55-2.12-60.55zm-98.24 82.571s4.24-29.64-1.69-60.13c-5.93-30.49-1.27-36.84 4.66-26.67s6.77-11.86 2.54-38.11 4.65-40.66 13.55-3.39c-8.05 54.62-19.06 128.3-19.06 128.3zM140.42 439s15.25 47.85 26.68 66.91-.85 13.12-3.81 20.32 4.12 27.59 6.77 32.18c6.36 11-.71 30.42-4.23 30.49z" fill="#fece2f"/><path d="M83.26 621.601h-17l-1.77-6.36s-10.1 7.43-20 7.43H16.88s2.07-10.75 9.84-11c8.24-.25 31.13-8.26 32.72-18.9l24.61-2.22z" fill="#1a1a1a"/><path d="M44.51 623.66H16.88a1.006 1.006 0 0 1-.77-.36 1 1 0 0 1-.21-.82c.09-.48 2.32-11.54 10.79-11.79s30.3-8.31 31.76-18.05a1 1 0 0 1 .9-.85L84 589.57a.987.987 0 0 1 .414.053c.133.046.254.12.356.217a.997.997 0 0 1 .32.75l-.79 31a1 1 0 0 1-1 1h-17a.999.999 0 0 1-1-.73l-1.39-5c-2.98 1.97-11.17 6.8-19.4 6.8zm-26.34-2h26.34c9.46 0 19.31-7.15 19.41-7.23a1.002 1.002 0 0 1 1.326.12c.11.119.191.263.234.42L67 620.6h15.28l.72-28.94-22.75 2.06c-2.59 10.91-24.82 18.7-33.51 19-5.41.13-7.8 6.28-8.57 8.94z" fill="#1a1a1a"/><path d="m68.86 592.681 14.82-278.2-12.81-1.17-11.43 279.16z" fill="#fece2f"/><path d="M183.24 621.601h17l1.76-6.36s10.11 7.43 20 7.43h27.63s-2.07-10.75-9.85-11c-8.23-.25-31.12-8.26-32.71-18.9l-24.61-2.22z" fill="#1a1a1a"/><path d="M249.62 623.66H222c-8.23 0-16.42-4.83-19.42-6.8l-1.39 5a.997.997 0 0 1-1 .73h-17a1.002 1.002 0 0 1-1-1l-.79-31a1.005 1.005 0 0 1 .676-.967.989.989 0 0 1 .414-.053l24.61 2.22a.998.998 0 0 1 .9.85c1.45 9.74 23.29 17.79 31.75 18.05s10.71 11.31 10.8 11.79a1.004 1.004 0 0 1-.21.82 1.003 1.003 0 0 1-.72.36zM202 614.24c.214.003.423.069.6.19.09.08 10 7.23 19.41 7.23h26.34c-.77-2.65-3.16-8.81-8.59-9-8.69-.27-30.92-8.06-33.52-19l-22.74-2.06.74 28.94h15.24L201 615a.994.994 0 0 1 .64-.68 1.14 1.14 0 0 1 .36-.08z" fill="#1a1a1a"/><path d="M206.87 594.111h-41a1 1 0 0 1-1-.84l-33.1-193.57-30.38 193.56a.999.999 0 0 1-1 .85h-41a.997.997 0 0 1-.72-.31 1 1 0 0 1-.28-.73l12.75-320.33a.997.997 0 0 1 .67-.898.994.994 0 0 1 .39-.052l56.3 3.35 63.71-3.67a.993.993 0 0 1 1.06.95l14.6 320.64c.008.272-.088.537-.27.74a.995.995 0 0 1-.73.31zm-40.2-2h39.16l-14.51-318.59-62.76 3.62h-.12l-55.34-3.3-12.7 318.27h39.15l31.19-198.74a.996.996 0 0 1 1-.85.997.997 0 0 1 1 .83zM109.2 35c-.38 6.08-.46 13.62 6.68 18.31 7.53 4.94 26.92 4.1 31.76-.29 6.15-5.57 6.12-12.51 5.86-18.6 0 .03-30.37-4.62-44.3.58z" fill="#1a1a1a"/><path d="M131.53 57.7c-6.19 0-12.49-1.09-16.2-3.52-7.39-4.86-7.55-12.46-7.13-19.21a1.002 1.002 0 0 1 .64-.87c14-5.27 43.56-.83 44.81-.64a1 1 0 0 1 .84.95c.24 5.28.58 13.25-6.17 19.38-2.73 2.48-9.69 3.91-16.79 3.91zm-21.38-22c-.34 6.26 0 12.63 6.28 16.76 7.08 4.64 26.08 3.84 30.54-.2 5.36-4.86 5.78-10.79 5.56-17-4.83-.61-29.88-3.8-42.38.49z" fill="#1a1a1a"/><path d="M171.51 114.17c-19.55-5.82-56.16-5.56-76.86 0C78 117.43 29.73 132.71 1 159.6c4.68 17.86 33.14 42.66 48.73 47.61a112.322 112.322 0 0 1 20.17-10.56c-1.62 24.36-1.7 51.52 2.23 76 14.1 19.61 115.25 17.77 120.15 2.45 3.13-9.78 6.26-44.5 3.5-84.12 5.77 3 16.82 9.11 20 13.06 21.89-11.21 39.82-26.75 47.87-46.66 0-.01-49.94-35.6-92.14-43.21z" fill="#fff"/><path d="M110.36 111.221S47.9 119.261 1 159.601a63.574 63.574 0 0 0 3.92 9s47.42-40.66 105.22-54.84c2.55-.85.22-2.54.22-2.54zm84.69 75.78s-1.43-7 2.75-12.71c4.66-6.35 15.46 7 17.15 28.8-5.72-5.09-19.17-12.09-19.17-12.09zM76.27 147.209s-12.27 67.79-5.08 117.51 11.64 7.83 11.64 7.83-8.89-43.4-1.9-124.7c1.07-7.2-3.6-6.14-4.66-.64z" fill="#fece2f"/><path d="m119.78 111.96 7.3 13.34-13.02 116.87 21.6 13.02 20.64-16.51-20.64-114.02 8.89-13.65zm-10.55 68.879s-24.47-.6-39 2.94l-.23 13.35s10.68-7.92 19.31 1.54c6.34-4.69 8.43-7.42 19.12-5.47.617-4.09.885-8.225.8-12.36z" fill="#1a1a1a"/><path d="M89.32 199.669a1 1 0 0 1-.74-.32c-7.9-8.67-17.57-1.72-18-1.42a.993.993 0 0 1-1.049.082 1.001 1.001 0 0 1-.541-.902l.21-13.35a1.001 1.001 0 0 1 .76-1c14.5-3.52 39-3 39.27-3a1.003 1.003 0 0 1 1 1 74.245 74.245 0 0 1-.8 12.57c-.024.13-.074.253-.145.364a1.014 1.014 0 0 1-.634.433.99.99 0 0 1-.391.003c-9.16-1.67-11.62.19-16.51 3.9l-1.84 1.39a.996.996 0 0 1-.59.25zm-9.83-6.62a13.743 13.743 0 0 1 9.94 4.29l1.12-.84c5-3.81 7.84-6 17.08-4.45.439-3.388.643-6.803.61-10.22-4.57-.07-24.36-.14-37 2.74l-.24 10.76a18.504 18.504 0 0 1 8.49-2.28zm77.23-12.839s24.47-.6 39 2.93l.21 13.35s-10.68-7.91-19.31 1.55c-6.35-4.69-8.43-7.42-19.12-5.47a72.709 72.709 0 0 1-.78-12.36z" fill="#1a1a1a"/><path d="M176.63 198.999a1 1 0 0 1-.6-.2c-.667-.48-1.277-.94-1.83-1.38-4.89-3.71-7.35-5.58-16.51-3.91a.999.999 0 0 1-1.17-.79 73.14 73.14 0 0 1-.8-12.58 1 1 0 0 1 1-1c.24 0 24.76-.56 39.27 3a1.004 1.004 0 0 1 .76 1l.21 13.36a1 1 0 0 1-1.076 1.01 1.003 1.003 0 0 1-.514-.189c-.41-.3-10.08-7.251-18 1.409a.994.994 0 0 1-.74.27zm-13.07-8.11c5.35 0 7.93 2 11.85 4.94l1.11.84c6.95-6.93 15-3.83 18.39-2l-.17-10.76c-12.67-2.89-32.45-2.81-37-2.75a72.143 72.143 0 0 0 .61 10.22 32.837 32.837 0 0 1 5.21-.45zm-108.89-63.37a71.218 71.218 0 0 1 4.77 8.89c5.4-2.22 21.91-9.52 34.61-12.38 12.7-2.86 4.41-10.85-2.54-9.21-10.8 2.54-36.84 12.7-36.84 12.7z" fill="#1a1a1a"/><path d="M59.44 137.41a.993.993 0 0 1-.92-.6 69.931 69.931 0 0 0-4.69-8.75.995.995 0 0 1 .116-1.225c.102-.107.226-.191.364-.245 1.06-.42 26.23-10.22 37-12.75a9.942 9.942 0 0 1 9.06 2.52 4.104 4.104 0 0 1 1.17 4.06c-.45 1.45-2.07 3.42-7.24 4.58-11 2.49-25.16 8.43-31.95 11.29l-2.5 1.05c-.13.051-.27.074-.41.07zM56.16 128a74.454 74.454 0 0 1 3.8 7.09l1.59-.66c6.84-2.88 21.07-8.88 32.28-11.4 4.63-1 5.57-2.6 5.76-3.22a2.218 2.218 0 0 0-.71-2.11 7.937 7.937 0 0 0-7.14-1.93C82.4 118 61.26 126.05 56.16 128zm151.21-2.07a71.557 71.557 0 0 0-4.76 8.9c-5.4-2.23-21.91-9.53-34.62-12.39s-3.39-9.58 3.56-7.94c10.79 2.5 35.82 11.43 35.82 11.43z" fill="#1a1a1a"/><path d="M202.61 135.829a.991.991 0 0 1-.38-.08l-2.51-1.05c-6.78-2.86-20.91-8.8-31.95-11.29-4-.91-6.38-2.3-7-4.14a3.297 3.297 0 0 1 .94-3.26c1.82-2 6.07-3.41 10-2.48 10.72 2.52 35.68 11.37 35.93 11.46a1.009 1.009 0 0 1 .61.62 1.002 1.002 0 0 1-.1.86 69.892 69.892 0 0 0-4.69 8.75 1.007 1.007 0 0 1-.85.61zm-33.34-20.58a8.895 8.895 0 0 0-6.05 2.12 1.38 1.38 0 0 0-.49 1.31c.13.39.88 1.75 5.48 2.78 11.21 2.53 25.45 8.52 32.29 11.4l1.59.67a70.072 70.072 0 0 1 3.78-7.07c-5.07-1.78-25.26-8.8-34.55-11a9.418 9.418 0 0 0-2.05-.21z" fill="#1a1a1a"/><path d="M220.45 132.211c-3.17 5.22-2 17 7.8 22.81 5 3 14.84 4.86 24.36-4.47" fill="#fece2f"/><path d="M237.33 158.489a18.836 18.836 0 0 1-9.59-2.61 19.93 19.93 0 0 1-9.27-12.39c-1.09-4.34-.66-8.86 1.13-11.8a1.002 1.002 0 0 1 1.37-.34 1.002 1.002 0 0 1 .34 1.37c-1.52 2.5-1.86 6.44-.9 10.28a17.992 17.992 0 0 0 8.35 11.16c2 1.16 12.23 6.38 23.15-4.33a1 1 0 0 1 1.4 1.43c-5.37 5.26-10.99 7.23-15.98 7.23z" fill="#1a1a1a"/><path d="M14.44 148.899s8.9 8.26 26.26-2.11c-2.12-4.45-1.27-10.59 0-12.92" fill="#fece2f"/><path d="M24.38 153.05c-6.82 0-10.38-3.19-10.62-3.41a1 1 0 0 1 0-1.42 1.002 1.002 0 0 1 1.41-.05c.34.31 8.38 7.36 24.31-1.8-1.79-4.63-1-10.49.39-13a.999.999 0 0 1 .611-.476 1.007 1.007 0 0 1 1.068.354 1.015 1.015 0 0 1 .081 1.122 16 16 0 0 0 0 12 .999.999 0 0 1-.39 1.29c-6.93 4.11-12.55 5.39-16.86 5.39z" fill="#1a1a1a"/><path d="m101.25 169.6-30.64 3.02v-6.67l30.64-3.02z" fill="#fece2f"/><path d="M70.61 173.619a.989.989 0 0 1-1-1v-6.62a1.001 1.001 0 0 1 .9-1l30.64-3a1.003 1.003 0 0 1 1.013.586.988.988 0 0 1 .087.404v6.67a.998.998 0 0 1-.9 1l-30.65 3zm1-6.76v4.65l28.64-2.81v-4.7z" fill="#1a1a1a"/><path d="M183.75 152.66c1.234.312 2.438.73 3.6 1.25 0 0 0-1.54-.28-6a31.005 31.005 0 0 0-20.57-1.27s-.09 3.18-.27 5.71c1-.2 1.91-.36 2.83-.48a72.96 72.96 0 0 0-2.6 9c-1.05 5.08 10.38 10.69 10.38 10.69 3-.64 10.8-5.82 9.95-9.21-.66-2.62-2.32-7.57-3.04-9.69z" fill="#fece2f"/><path d="M176.84 172.559a.988.988 0 0 1-.44-.1c-1.24-.61-12.1-6.12-10.91-11.8a69.58 69.58 0 0 1 2.08-7.53l-1.14.22a.993.993 0 0 1-.84-.211 1.004 1.004 0 0 1-.36-.789c.18-2.48.27-5.63.27-5.67a1.003 1.003 0 0 1 .67-.91 31.791 31.791 0 0 1 21.3 1.29.997.997 0 0 1 .6.86c.27 4.42.28 6 .28 6a1.005 1.005 0 0 1-.48.85.997.997 0 0 1-1 .05 16.123 16.123 0 0 0-1.58-.62c.81 2.41 1.93 5.86 2.44 7.92a4.275 4.275 0 0 1-.74 3.3c-2.05 3.29-7.46 6.59-10 7.13zm-7.78-21.67a1.009 1.009 0 0 1 .987.861.996.996 0 0 1-.047.469 73.345 73.345 0 0 0-2.56 8.85c-.7 3.4 6.49 7.88 9.51 9.43 2.24-.67 6.78-3.59 8.37-6.15.38-.504.558-1.131.5-1.76-.65-2.6-2.33-7.58-3-9.6a1.005 1.005 0 0 1 .22-1 1.007 1.007 0 0 1 1-.28c.92.25 1.7.5 2.29.71 0-.84-.09-2.08-.19-3.79a30.633 30.633 0 0 0-18.64-1.2c0 .84-.08 2.29-.16 3.73.52-.09 1.06-.18 1.61-.25z" fill="#1a1a1a"/><path d="M129.94 125.621c-2.54 39.69-6.46 90.4-8.36 119.83-7.31-3.65-7-4.21-7-4.23 1.65-18.22 12.29-115.22 12.29-115.22l-3.6-7 6.19-5.19a33.758 33.758 0 0 1 .48 11.81z" fill="#fece2f"/><path d="M103.16 275.449s1.69 42.73-1.7 48.13c-3.39 5.4-19 7.32-19.47-5.78s-2.12-36.18-2.12-44.27 22.44-11.95 23.29 1.92z" fill="#1a1a1a"/><path d="M92.05 328.7a13.442 13.442 0 0 1-3.48-.44c-2.73-.74-7.35-3.08-7.58-10.43-.2-5.95-.65-14-1.09-21.72-.53-9.33-1-18.15-1-22.58 0-4.88 6.49-8.1 12.5-8.28 5.61-.21 12.31 2.38 12.79 10.14.17 4.41 1.6 43.2-1.85 48.7-1.78 2.82-6.08 4.61-10.29 4.61zm-.17-61.46h-.45c-5.1.15-10.56 2.71-10.56 6.28 0 4.38.5 13.16 1 22.47.44 7.76.89 15.79 1.08 21.77.19 5.76 3.43 7.83 6.12 8.56 4.54 1.22 9.93-.75 11.52-3.28 2.36-3.77 2.21-30.49 1.54-47.55-.44-7.49-7.45-8.25-10.25-8.25z" fill="#1a1a1a"/><path d="M80.81 271.07s2.35 42.7-1 48.14-19 7.58-19.55-5.52-2.69-36.14-2.8-44.24 22.31-12.24 23.35 1.62z" fill="#1a1a1a"/><path d="M70.29 324.46a13.204 13.204 0 0 1-3.27-.4c-2.74-.7-7.39-3-7.73-10.32-.28-6-.87-14.15-1.44-22-.67-9.2-1.3-17.88-1.36-22.27-.06-4.88 6.38-8.19 12.39-8.45 5.61-.24 12.35 2.22 12.92 10 .24 4.4 2.26 43.17-1.11 48.72-1.69 2.85-6.12 4.72-10.4 4.72zM69.63 263H69c-5.1.22-10.52 2.86-10.48 6.42.06 4.33.69 13 1.36 22.15.57 7.87 1.16 16 1.44 22.06.26 5.76 3.53 7.79 6.22 8.48 4.57 1.17 9.93-.89 11.48-3.44 2.31-3.8 1.76-30.52.82-47.56-.58-7.3-7.28-8.11-10.21-8.11zm83.5 18.451s.79 28.37.79 34.72 5.08 9.74 12.7 7.62 26.68-9.32 32.61-14.82 5.7-38.1 3.44-43.19c-5.08-11.44-50.82 3.39-49.54 15.67z" fill="#1a1a1a"/><path d="M162.35 325.419a9.927 9.927 0 0 1-6.11-1.86 8.996 8.996 0 0 1-3.32-7.39c0-6.16-.76-33.5-.79-34.66-.73-7.51 12.87-15.11 26.67-18.8 10.2-2.72 22.07-3.45 24.78 2.66 2.3 5.17 2.67 38.44-3.67 44.33s-26.19 13.16-33 15.05a16.797 16.797 0 0 1-4.56.67zm30-62.74c-4.417.11-8.802.782-13.05 2-12.6 3.36-25.82 10.7-25.2 16.69a.215.215 0 0 0 0 .08c0 .28.79 28.46.79 34.75a7.008 7.008 0 0 0 2.53 5.8c2.07 1.57 5.23 1.88 8.91.86 8-2.22 26.57-9.38 32.19-14.59 5.33-4.95 5.51-36.87 3.21-42.06-1-2.34-4.43-3.53-9.36-3.53z" fill="#1a1a1a"/><path d="M136.38 287.999c-28.12 0-57.7-4.51-65.06-14.75a1.09 1.09 0 0 1-.18-.43c-3.36-21-4.15-46.07-2.34-74.61a112 112 0 0 0-18.5 9.79 1 1 0 0 1-.87.13C34.34 203.369 5 178.809 0 159.849a1.001 1.001 0 0 1 .29-1c27.87-26.09 75.46-42 94.14-45.65 21.14-5.68 57.82-5.7 77.1 0h.13c41.94 7.56 92 43 92.54 43.37a1.003 1.003 0 0 1 .34 1.19c-7.47 18.5-24.19 34.81-48.34 47.17a1.002 1.002 0 0 1-1.23-.26c-2.1-2.61-8.65-6.94-18.11-12 2.53 38.61-.46 72.72-3.66 82.7-1.81 5.65-14 8.71-23.89 10.27a218.236 218.236 0 0 1-32.93 2.36zm-63.3-15.73c10.24 13.58 65.1 16.32 95.94 11.45 13-2.06 21.16-5.31 22.31-8.91 3.19-10 6.17-44.65 3.45-83.74a1.006 1.006 0 0 1 .428-.94 1.005 1.005 0 0 1 1.032-.06c5.88 3.08 16 8.68 19.77 12.7 23-11.93 39-27.48 46.41-45.05-6-4.15-52-35.43-90.86-42.53a1.29 1.29 0 0 1-.34 0c-18.93-5.64-55.3-5.63-76.31 0-18.47 3.59-65.18 19.2-92.79 44.75 5.07 17.57 32.81 41.23 47.46 46.18a116.076 116.076 0 0 1 20-10.37 1.004 1.004 0 0 1 1 .12 1.003 1.003 0 0 1 .41.87c-1.99 28.92-1.28 54.33 2.09 75.5zm98.44-158.07 1 .1z" fill="#1a1a1a"/><path d="M135.66 256.189a1.052 1.052 0 0 1-.52-.14l-21.59-13a.99.99 0 0 1-.391-.427.993.993 0 0 1-.089-.573l13-116.559-7.15-13.06a1.002 1.002 0 0 1 0-1 .988.988 0 0 1 .349-.363.989.989 0 0 1 .481-.147l24.77-.95a.998.998 0 0 1 .88 1.54l-8.68 13.32 20.57 113.669a.996.996 0 0 1-.36 1l-20.65 16.5a.993.993 0 0 1-.62.19zm-20.53-14.54 20.45 12.35 19.63-15.71-20.54-113.45a.997.997 0 0 1 .15-.719l7.84-12-21.23.82 6.57 11.88a1 1 0 0 1 .12.59z" fill="#1a1a1a"/><path d="m132 110.391-15.72 16.5-9.62-14.86 6.13-10.23z" fill="#fff"/><path d="M116.28 127.889h-.09a.997.997 0 0 1-.75-.45l-9.62-14.86a1.004 1.004 0 0 1 0-1.06l6.13-10.23a1.003 1.003 0 0 1 1.27-.4l19.21 8.6a1.005 1.005 0 0 1 .546 1.191 1.001 1.001 0 0 1-.236.409L117 127.579a.997.997 0 0 1-.72.31zm-8.44-15.89 8.6 13.27 13.86-14.55-17.11-7.66z" fill="#1a1a1a"/><path d="m132.41 110.39 15.32 17.45 10.02-15.81-5.9-10.87z" fill="#fff"/><path d="M147.73 128.839a1.061 1.061 0 0 1-.76-.34l-15.31-17.45a.99.99 0 0 1-.036-1.274c.095-.121.217-.219.356-.286l19.45-9.23a1.001 1.001 0 0 1 1.3.42l5.9 10.87a1 1 0 0 1 0 1l-10 15.81a1.006 1.006 0 0 1-.77.46zM134 110.729l13.57 15.44 9-14.18-5.16-9.52z" fill="#1a1a1a"/><path d="M157 50.7c-.63-4.35-5.32-3.23-6.58-1.24l-.47.79C149.43 42.91 148.3 35 148.3 35l-32.7-.57s-1.18 7.72-1.75 14.91c-1.33-1.93-5.89-2.95-6.51 1.33-.31 3.48 1.72 9.58 5.79 7.59.16-.08.29-.17.43-.25.21 13.13 3.77 25.29 18.31 26.17 15.19.92 18.45-12.56 18.42-26.51.313.23.648.427 1 .59 4.02 2.02 6.06-4.08 5.71-7.56z" fill="#fece2f"/><path d="M133.3 85.25h-1.49c-12.31-.75-18.61-9.15-19.21-25.66a3.822 3.822 0 0 1-3.17-.56c-2.23-1.54-3.34-5.55-3.08-8.38s2.09-3.56 3.07-3.79a5.24 5.24 0 0 1 3.6.55c.6-6.54 1.58-13 1.59-13.06a.998.998 0 0 1 1-.85l32.71.57a1 1 0 0 1 1 .86c0 .07.91 6.33 1.49 12.84a5.433 5.433 0 0 1 4.09-.93 4.143 4.143 0 0 1 3.1 3.72c.26 2.83-.85 6.84-3.08 8.38a3.817 3.817 0 0 1-3.67.4c-.19 10.55-2.42 17.7-6.79 21.82-2.82 2.74-6.57 4.09-11.16 4.09zM113.56 57c.172.003.34.047.49.13a.996.996 0 0 1 .51.86c.26 16.47 5.78 24.48 17.37 25.18 4.7.29 8.45-.87 11.19-3.45 4.18-3.94 6.2-11.16 6.17-22.06a.996.996 0 0 1 .55-.89 1.001 1.001 0 0 1 1 .09c.249.19.517.355.8.49a1.93 1.93 0 0 0 2.12 0c1.51-1 2.42-4.29 2.23-6.52-.17-1.18-.71-1.88-1.59-2.06a3.306 3.306 0 0 0-3.09 1.23c-.14.22-.29.48-.45.76a.997.997 0 0 1-1.091.487 1 1 0 0 1-.779-.907c-.44-5.84-1.26-12.09-1.56-14.32l-31-.53c-.32 2.21-1.16 8.29-1.61 14a.998.998 0 0 1-1.82.49 3.342 3.342 0 0 0-3.15-1.17c-.86.2-1.38.9-1.55 2.08-.19 2.17.72 5.44 2.24 6.49a2 2 0 0 0 2.12 0l.22-.13.14-.08c.16-.107.348-.167.54-.17z" fill="#1a1a1a"/><path d="M107.52 33c.32 1.45 1.3 5.47 1.3 5.47l45 .29 1.12-5.61c3.73-15.28-50.77-15.15-47.42-.15z" fill="#fece2f"/><path d="m153.77 39.74-45-.29a.999.999 0 0 1-1-.76s-1-4-1.31-5.49c-.47-2.11-.19-5.18 3.8-7.85 9.22-6.17 33.19-6.1 42 .11 3 2.13 4.24 4.86 3.49 7.91l-1.11 5.57a1 1 0 0 1-.87.8zm-44.16-2.28 43.34.28 1-4.81c.56-2.28-.32-4.17-2.69-5.84C143 21.35 120 21.3 111.45 27c-2.45 1.64-3.44 3.57-3 5.75.28 1.07.86 3.48 1.16 4.71z" fill="#1a1a1a"/><path d="M109.31 38.45S115.88 46 132.16 46s21.13-7.36 21.13-7.36a79 79 0 0 0-43.98-.19z" fill="#fece2f"/><path d="M122.87 54.71c2.806 0 5.08-1.154 5.08-2.58s-2.274-2.58-5.08-2.58-5.08 1.156-5.08 2.58 2.274 2.58 5.08 2.58z" fill="#fff"/><path d="M122.87 55.71c-3.46 0-6.08-1.54-6.08-3.58s2.62-3.58 6.08-3.58 6.13 1.54 6.13 3.58-2.66 3.58-6.13 3.58zm0-5.16c-2.53 0-4.08 1-4.08 1.58s1.55 1.58 4.08 1.58 4.09-1 4.09-1.58-1.55-1.58-4.09-1.58z" fill="#1a1a1a"/><path d="M142.09 54.71c2.805 0 5.08-1.154 5.08-2.58s-2.275-2.58-5.08-2.58c-2.806 0-5.08 1.156-5.08 2.58s2.274 2.58 5.08 2.58z" fill="#fff"/><path d="M142.09 55.71c-3.47 0-6.08-1.54-6.08-3.58s2.61-3.58 6.08-3.58 6.08 1.54 6.08 3.58-2.61 3.58-6.08 3.58zm0-5.16c-2.53 0-4.08 1-4.08 1.58s1.55 1.58 4.08 1.58 4.08-1 4.08-1.58-1.55-1.58-4.08-1.58zm-19.22 2.41a1.98 1.98 0 1 0 0-3.96 1.98 1.98 0 0 0 0 3.96z" fill="#1a1a1a"/><path d="M142.01 52.96a1.98 1.98 0 1 0 0-3.96 1.98 1.98 0 0 0 0 3.96z" fill="#1a1a1a"/><path d="M126.9 71.16a11.72 11.72 0 0 0 11.72-.3" fill="#fece2f"/><path d="M132.6 73.62a12.933 12.933 0 0 1-6.22-1.6 1 1 0 0 1 1-1.72 10.61 10.61 0 0 0 10.71-.3 1.001 1.001 0 0 1 1.06 1.7 12.24 12.24 0 0 1-6.55 1.92z" fill="#1a1a1a"/><path d="M133.59 56.22c.13 2.205.606 4.375 1.41 6.43 1.19 2.46-2.7 2.78-2.7 2.78" fill="#fece2f"/><path d="M132.32 66.43a1.001 1.001 0 0 1-.08-2c.68-.05 1.74-.35 2-.76.07-.12 0-.32-.09-.58a21.81 21.81 0 0 1-1.52-6.81 1.003 1.003 0 0 1 .93-1.06 1.003 1.003 0 0 1 .961.562.997.997 0 0 1 .099.379 20.014 20.014 0 0 0 1.33 6.06 2.516 2.516 0 0 1 0 2.44c-.84 1.48-3.1 1.73-3.55 1.77zm-20.17-40.28a1 1 0 0 1-.53-.15c-7.87-4.95-8.28-14-8.3-14.36a.998.998 0 0 1 1.707-.706 1 1 0 0 1 .293.707c0 .09.41 8.37 7.37 12.74a1.006 1.006 0 0 1 .441.625 1.004 1.004 0 0 1-.131.755 1.001 1.001 0 0 1-.85.39zm-4.52 4.08a30.28 30.28 0 0 1-10.47-2.07 1 1 0 0 1 .78-1.84 28.717 28.717 0 0 0 9.69 1.91 1.001 1.001 0 0 1 0 2zM150 26.15a1.002 1.002 0 0 1-.944-1.324c.069-.201.2-.375.374-.497 6.12-4.2 6.48-12.18 6.48-12.26a1 1 0 0 1 2 .07c0 .36-.38 9.06-7.35 13.84a.997.997 0 0 1-.56.17zm4.48 4.08a.999.999 0 1 1 0-2 28.723 28.723 0 0 0 9.7-1.91 1 1 0 1 1 .78 1.84 30.348 30.348 0 0 1-10.48 2.07zm-.98 9.3c-24.47-8.46-44.34-.29-44.54-.2l-1.55-3.69c.86-.36 21.49-8.84 47.4.11z" fill="#1a1a1a"/><path d="M137.47 16.76 136.28 10 131 7.67h-.05L125.57 10l-1.19 6.75c-.55 2.92 1.25 4.12 6.5 7.4v.06h.05v-.06c5.29-3.27 7.07-4.47 6.54-7.39z" fill="#fff"/><path d="M130.93 25.21h-.15a1 1 0 0 1-.6-.29c-5.13-3.22-7.46-4.73-6.78-8.33l1.19-6.74a1.007 1.007 0 0 1 .58-.74l5.13-2.27a1.09 1.09 0 0 1 1.17 0l5.15 2.28a.994.994 0 0 1 .58.74l1.19 6.74c.68 3.61-1.66 5.12-6.78 8.33a1.09 1.09 0 0 1-.22.16 1.066 1.066 0 0 1-.46.12zm-4.46-14.5-1.1 6.23c-.39 2.06.56 2.93 5.56 6.07 5-3.14 5.94-4 5.55-6.06l-1.09-6.23-4.46-2z" fill="#1a1a1a"/><g fill="#fece2f"><path d="M160.05 324.059a6.109 6.109 0 0 1-3.34-1c-4.51-2.93-4-9.51-4-10.3l-.42-22.6a1 1 0 1 1 2 0l.42 22.65a.565.565 0 0 1 0 .13c0 .06-.61 6.1 3.05 8.47a3.998 3.998 0 0 0 4.28.15c2.13-1.19 3.46-3.95 3.38-7v-4.78c0-5.18.08-13-.22-21.25-.13-3.77-1.14-6.42-3-7.86a6.53 6.53 0 0 0-4.91-1.15 1.02 1.02 0 0 1-1.215-.785 1.024 1.024 0 0 1 .785-1.215 8.534 8.534 0 0 1 6.54 1.51c2.35 1.83 3.62 5 3.78 9.39.3 8.28.25 16.14.22 21.33v4.72c.1 3.8-1.63 7.25-4.41 8.8a6.112 6.112 0 0 1-2.94.79z"/><path d="M172.85 306.291a7.444 7.444 0 0 1-4.75-1.4c-1.64-1.3-2.48-3.49-2.48-6.51a1 1 0 1 1 2 0c0 2.37.58 4 1.73 4.95 1.9 1.51 5.27 1 8.32.27 4.61-1.07 23.45-9.54 23.64-9.62a1.003 1.003 0 0 1 1.14.145 1.002 1.002 0 0 1-.32 1.675c-.78.35-19.2 8.63-24 9.75a23.952 23.952 0 0 1-5.28.74zm-11.18 18.128a6.52 6.52 0 0 1-2.23-.33 1.01 1.01 0 0 1-.557-.525 1 1 0 0 1 1.267-1.345c4 1.53 20.54-4.85 30.67-9.5a1.001 1.001 0 0 1 1.147 1.592.994.994 0 0 1-.317.228c-2.39 1.1-21.75 9.88-29.98 9.88zm-69.26 1c-4.8 0-9-1.42-11.9-4.09a10.412 10.412 0 0 1-3.65-7.5c0-1.37-.29-11.61-.53-19.84-.11-4-.22-7.59-.27-9.55a35.123 35.123 0 0 1 1.81-11.65 1.004 1.004 0 0 1 1.285-.595 1.002 1.002 0 0 1 .595 1.285 33.478 33.478 0 0 0-1.69 10.9c0 2 .16 5.54.27 9.55.24 8.24.53 18.5.53 19.9a8.406 8.406 0 0 0 3 6c3 2.72 7.51 3.95 12.74 3.47 7.49-.69 6.9-10.74 6.87-11.16l.53-23.14a1 1 0 1 1 2 0l-.48 23.07c.3 4.2-1.14 12.5-8.69 13.2-.83.12-1.64.15-2.42.15z"/><path d="M87.42 294.001a17.579 17.579 0 0 1-2.69-.25l-.55-.08c-3.85-.41-8-3.58-8.17-11.29a.999.999 0 1 1 2 0c.17 8.06 4.92 9.19 6.38 9.34l.64.09c1.48.23 4.23.65 6.12-.93 1.4-1.16 2.16-3.28 2.25-6.29.33-11.05 6.43-13.22 6.69-13.31a1 1 0 0 1 1.32 1.018 1.007 1.007 0 0 1-.68.882c-.23.08-5 1.93-5.33 11.47-.11 3.61-1.11 6.22-3 7.77a7.65 7.65 0 0 1-4.98 1.58zm-22.89-6a15.44 15.44 0 0 1-2.61-.25l-.53-.07a1.006 1.006 0 0 1 .22-2l.62.09c1.4.22 4 .63 5.8-.86 1.4-1.16 2.15-3.3 2.24-6.37.32-11 6.21-13.21 6.46-13.3a1.009 1.009 0 0 1 .77.043.989.989 0 0 1 .51.577 1 1 0 0 1-.61 1.27c-.21.08-4.86 1.93-5.13 11.47-.11 3.67-1.11 6.31-3 7.85a7.33 7.33 0 0 1-4.74 1.55z"/><path d="M84.53 287.9c1.138 0 2.06-1.173 2.06-2.62s-.922-2.62-2.06-2.62-2.06 1.173-2.06 2.62.922 2.62 2.06 2.62zm90.3 11.86c1.138 0 2.06-1.173 2.06-2.62s-.922-2.62-2.06-2.62-2.06 1.173-2.06 2.62.922 2.62 2.06 2.62zm23.6-9.629c1.138 0 2.06-1.173 2.06-2.62s-.922-2.62-2.06-2.62-2.06 1.173-2.06 2.62.922 2.62 2.06 2.62zm-135.691-7.727c1.106-.092 1.905-1.336 1.785-2.778-.12-1.442-1.115-2.536-2.221-2.444-1.106.093-1.906 1.337-1.785 2.779.12 1.442 1.114 2.536 2.22 2.443zM131.54 305.9a126.93 126.93 0 0 1-29-3.16 1.007 1.007 0 0 1-.71-1.23 1.004 1.004 0 0 1 1.23-.71 128.614 128.614 0 0 0 49.94 1.26 1.015 1.015 0 1 1 .35 2 123.592 123.592 0 0 1-21.81 1.84z"/><path d="M119.2 304.78a1 1 0 0 1-1-1l.31-14.19a1.002 1.002 0 0 1 1.707-.707.997.997 0 0 1 .293.707l-.31 14.19a1 1 0 0 1-1 1zm20.11 0a.997.997 0 0 1-1-1l.32-14.19a.997.997 0 0 1 1-1 .997.997 0 0 1 1 1l-.32 14.19a1 1 0 0 1-1 1zm-7.99 84.161a1.002 1.002 0 0 1-1-1v-37.47a.997.997 0 0 1 1.707-.707 1 1 0 0 1 .293.707v37.47a1.003 1.003 0 0 1-1 1z"/></g><path d="M12.54 178.76s3.81 26.25 29 36c0-4 0-7.62 2.11-10.58-4.22-1.71-21.37-13.35-31.11-25.42z" fill="#1a1a1a"/><path d="m128.67 124.9 6.51-.4s-4.05-2.54-5.56-9.6a21.76 21.76 0 0 0-.95 10z" fill="#fece2f"/><path d="M195.16 266.94s2.23-7.77-5.92-21.1-4.81-20.36-.74-17 5.55-3 1.11-12.59 4.44-17.77 6.29-5.92-.74 56.61-.74 56.61zm58.59-34.8s-10.59 9.21-21 11.07c-12.14 2.16-5.9-12.36 12.55-17.16 10.69-2.78 17.31-7.86 20.69-15.71-3.49 11.57-5.23 14.79-12.24 21.8z" fill="#1a1a1a"/><path d="m125.87 35-5.3 9.31 7.25 1.48 6.57-10.69zm12.06.47-5.77 10.54 3.23-.22 5.72-10.05z" fill="#fff"/><path d="M132.15 47c-16.54 0-23.32-7.58-23.6-7.9a1.005 1.005 0 0 1-.202-.946 1 1 0 0 1 .692-.674 79.81 79.81 0 0 1 44.53.2.995.995 0 0 1 .55 1.51c-.21.33-5.34 7.81-21.97 7.81zm-20.81-8.07c2.56 2 9.12 6.07 20.81 6.07s17.24-3.88 19.31-5.83a77.65 77.65 0 0 0-40.12-.23zm18.92 256.319a1 1 0 0 1-1-1l.63-50.81a1 1 0 1 1 2 0l-.63 50.82a.998.998 0 0 1-1 .99zM110.67 51.5s1.19.18 1.8 2.38z" fill="#1a1a1a"/><path d="M112.47 54.88a1.001 1.001 0 0 1-1-.73c-.4-1.46-1-1.67-1.05-1.67a1.001 1.001 0 1 1 .36-1.97c.19 0 1.86.36 2.62 3.11a1.004 1.004 0 0 1-.351 1.056.997.997 0 0 1-.349.174zm41.24-3.38s-1.19.18-1.8 2.38z" fill="#1a1a1a"/><path d="M151.91 54.88h-.27a.999.999 0 0 1-.7-1.23c.77-2.75 2.43-3.08 2.62-3.11a1.018 1.018 0 0 1 1.175.826 1.011 1.011 0 0 1-.825 1.175c-.06 0-.66.29-1 1.67a.995.995 0 0 1-1 .67z" fill="#1a1a1a"/><path d="M27.52 613s20.48-1.47 30.33-14c-2.85 9.51-11.91 17.77-30.33 14z" fill="#fece2f"/><path d="M113 41.45c7.25 8.16 20.1 12 37.8 6.94L150 42s-4.87 3.71-17 4.34-15.13-2.87-20-4.89z" fill="#1a1a1a"/><path d="M218.34 605.9s8.67 5.53 18.81 6c-5.99 2.66-17.15-.47-18.81-6z" fill="#fece2f"/></g></svg></g><g transform="translate(853.0 937.0) rotate(0.0 97.0 97.0) scale(8.32618025751073 8.32618025751073)"><svg width="23.3" height="23.3" viewBox="0 0 23.3 23.3"><g fill="#FFF"><path d="M9.9 17.1c-.5 0-1-.2-1.3-.6L6 13.1c-.5-.7-.4-1.7.3-2.3.7-.5 1.7-.4 2.3.3l1.3 1.7 4.7-6.2c.5-.7 1.6-.8 2.3-.3s.8 1.6.3 2.3l-6 7.9c-.3.4-.8.6-1.3.6z"/><path d="M21.7 5.4c0-1-.4-2-1.2-2.8-.7-.7-1.7-1.2-2.8-1.2H5.4c-1 0-2 .4-2.8 1.2-.7.7-1.2 1.7-1.2 2.8v12.3c0 1 .4 2 1.2 2.8.7.7 1.7 1.2 2.8 1.2h12.4c1 0 2-.4 2.8-1.2s1.2-1.7 1.2-2.8V5.4z"/><path d="M17.8 23.3H5.5c-1.5 0-2.9-.6-3.9-1.6S0 19.3 0 17.8V5.5C0 4 .6 2.6 1.6 1.6S4 0 5.5 0h12.3c1.5 0 2.9.6 3.9 1.6s1.6 2.4 1.6 3.9v12.3c0 1.5-.6 2.9-1.6 3.9s-2.4 1.6-3.9 1.6zM5.5 3.1c-.6 0-1.2.2-1.6.7-.4.4-.7 1-.7 1.6v12.3c0 .6.2 1.2.7 1.6.4.4 1 .7 1.6.7h12.3c.6 0 1.2-.2 1.6-.7.4-.4.7-1 .7-1.6V5.4c0-.6-.2-1.2-.7-1.6-.4-.4-1-.7-1.6-.7z"/></g><path d="M10.1 17.3c-.5 0-.9-.2-1.3-.6l-3.6-4.4c-.6-.7-.5-1.7.2-2.3s1.7-.5 2.3.2l2.3 2.9 5.4-6.6c.6-.7 1.6-.8 2.3-.2s.8 1.6.2 2.3l-6.6 8.2c-.3.3-.7.5-1.2.5z" fill="#FECE2F"/></svg></g><g transform="translate(726.0 390.0) rotate(0.0 223.5 241.0) scale(1.580287067807396 1.5840152486115218)"><svg width="282.86" height="304.29" viewBox="0 0 282.86 304.29"><g fill="#1A1A1A"><path d="M279.86 47.9a3 3 0 0 1-3-3V6h-38.9a3 3 0 0 1 0-6h41.9a3 3 0 0 1 3 3v41.9a3 3 0 0 1-3 3zM3 47.9a3 3 0 0 1-3-3V3a3 3 0 0 1 3-3h41.9a3 3 0 0 1 0 6H6v38.9a3 3 0 0 1-3 3zm276.86 256.39h-41.9a3 3 0 1 1 0-6h38.9v-38.9a3 3 0 0 1 6 0v41.9a3 3 0 0 1-3 3zm-234.96 0H3a3 3 0 0 1-3-3v-41.9a3 3 0 0 1 6 0v38.9h38.9a3 3 0 0 1 0 6z"/></g></svg></g></svg>