<svg xmlns="http://www.w3.org/2000/svg" width="350" height="350" fill="none" xmlns:v="https://vecta.io/nano"><style><![CDATA[.B{fill:#1a1a1a}.C{fill:#ff8707}.D{fill:#fff}]]></style><g clip-path="url(#E)"><mask id="A" maskUnits="userSpaceOnUse" x="20" y="22" width="311" height="294"><path d="M330.4 315.933H20.391V22.648H330.4v293.285z" class="D"/></mask><g mask="url(#A)" class="C"><path d="M313.788 259.68c43.853-72.381-6.441-149.735-65.775-161.768-40.551-8.229-45.46-28.132-94.28-60.32C105.496 5.786 28.739 24.978 21.636 92.958s16.44 129.475 69.062 178.239c66.872 61.967 179.243 60.869 223.091-11.517z"/></g></g><g clip-path="url(#F)"><mask id="B" maskUnits="userSpaceOnUse" x="143" y="33" width="156" height="298"><path d="M143.733 33.133h154.833v297.034H143.733V33.133z" class="D"/></mask><g mask="url(#B)"><path d="M180.73 34.023h80.84c19.921 0 36.107 16.186 36.107 36.106v223.042c0 19.921-16.186 36.106-36.107 36.106h-80.84c-19.921 0-36.107-16.185-36.107-36.106V70.129c0-19.921 16.186-36.106 36.107-36.106z" class="B"/><path d="M261.57 330.167h-80.84c-20.455 0-36.997-16.542-36.997-36.996V70.129c0-20.454 16.542-36.996 36.997-36.996h80.84c20.455 0 36.996 16.541 36.996 36.996v223.042c0 20.454-16.63 36.996-36.996 36.996zM180.73 34.912c-19.477 0-35.218 15.741-35.218 35.217v223.042c0 19.387 15.741 35.217 35.218 35.217h80.84c19.476 0 35.218-15.741 35.218-35.217V70.129c-.089-19.476-15.83-35.217-35.218-35.217h-80.84z" class="B"/><path d="M288.339 60.702H153.872v225.532h134.467V60.702z" class="C"/><path d="M153.872 286.234h14.14L271.531 60.702h-33.973l-83.686 182.133v43.399zm63.765-225.532h-11.383l-52.382 114.1v24.723l63.765-138.823z" class="D"/><path d="M203.763 46.295h34.773a2.39 2.39 0 1 1 0 4.802h-34.773a2.39 2.39 0 1 1 0-4.802z" class="C"/><path d="M238.536 51.898h-34.773c-1.778 0-3.29-1.423-3.29-3.291s1.423-3.29 3.29-3.29h34.773c1.779 0 3.291 1.423 3.291 3.29s-1.512 3.291-3.291 3.291zm-34.773-4.713a1.56 1.56 0 0 0-1.511 1.512 1.56 1.56 0 0 0 1.511 1.512h34.773a1.56 1.56 0 0 0 1.512-1.512 1.56 1.56 0 0 0-1.512-1.512h-34.773zm-18.942 62.608h-5.425c-6.048 0-10.85-4.891-10.85-10.85v-5.425c0-6.047 4.891-10.85 10.85-10.85h5.425c5.958 0 10.849 4.891 10.849 10.85v5.425c0 5.959-4.802 10.761-10.849 10.85zm-5.425-25.435c-4.981 0-9.072 4.091-9.072 9.071v5.425c0 4.98 4.091 9.071 9.072 9.071h5.425c4.98 0 9.071-4.091 9.071-9.071v-5.425c0-4.98-4.091-9.071-9.071-9.071h-5.425zm45.534 25.435h-5.425c-6.048 0-10.85-4.891-10.85-10.85v-5.425c0-6.047 4.891-10.85 10.85-10.85h5.425c5.958 0 10.849 4.891 10.849 10.85v5.425c0 5.959-4.891 10.761-10.849 10.85zm-5.514-25.435c-5.07 0-9.072 4.091-9.072 9.071v5.425c0 5.069 4.091 9.071 9.072 9.071h5.425c4.98 0 9.071-4.091 9.071-9.071v-5.425c0-4.98-4.091-9.071-9.071-9.071h-5.425zm45.534 25.435h-5.425c-5.959 0-10.85-4.891-10.85-10.85v-5.425c0-5.959 4.891-10.85 10.85-10.85h5.425c6.047 0 10.849 4.891 10.849 10.85v5.425c0 5.959-4.891 10.85-10.849 10.85zm-5.425-25.435c-4.981 0-9.072 4.091-9.072 9.071v5.425c0 4.98 4.091 9.071 9.072 9.071h5.425c5.069 0 9.071-4.091 9.071-9.071v-5.425c0-5.069-4.091-9.071-9.071-9.071h-5.425zm-74.704 63.23h-5.425c-6.048 0-10.85-4.891-10.85-10.85v-5.424c0-6.048 4.891-10.85 10.85-10.85h5.425c6.047 0 10.849 4.891 10.849 10.85v5.424c.089 5.959-4.802 10.85-10.849 10.85zm-5.425-25.434c-4.981 0-9.072 4.09-9.072 9.071v5.424c0 4.981 4.091 9.072 9.072 9.072h5.425c4.98 0 9.071-4.091 9.071-9.072v-5.424c0-4.981-4.091-9.071-9.071-9.071h-5.425zm45.534 25.434h-5.425c-6.048 0-10.85-4.891-10.85-10.85v-5.424c0-6.048 4.891-10.85 10.85-10.85h5.425c6.047 0 10.849 4.891 10.849 10.85v5.424c0 5.959-4.891 10.85-10.849 10.85zm-5.514-25.434c-5.07 0-9.072 4.09-9.072 9.071v5.424c0 5.07 4.091 9.072 9.072 9.072h5.425c4.98 0 9.071-4.091 9.071-9.072v-5.424c0-4.981-4.091-9.071-9.071-9.071h-5.425zm45.534 25.434h-5.425c-6.048 0-10.85-4.891-10.85-10.85v-5.424c0-6.048 4.891-10.85 10.85-10.85h5.425c6.047 0 10.849 4.891 10.849 10.85v5.424c0 5.959-4.891 10.85-10.849 10.85zm-5.425-25.434c-4.981 0-9.072 4.09-9.072 9.071v5.424c0 4.981 4.091 9.072 9.072 9.072h5.425c5.069 0 9.071-4.091 9.071-9.072v-5.424c0-5.069-4.091-9.071-9.071-9.071h-5.425zm-74.704 63.23h-5.425c-5.959 0-10.85-4.891-10.85-10.849v-5.425c0-6.048 4.891-10.85 10.85-10.85h5.425c6.047 0 10.849 4.891 10.849 10.85v5.425c0 5.958-4.802 10.849-10.849 10.849zm-5.425-25.434c-5.07 0-9.072 4.091-9.072 9.071v5.425c0 4.98 4.091 9.071 9.072 9.071h5.425c4.98 0 9.071-4.091 9.071-9.071v-5.425c0-5.069-4.091-9.071-9.071-9.071h-5.425zm45.534 25.434h-5.425c-5.959 0-10.85-4.891-10.85-10.849v-5.425c0-6.048 4.891-10.85 10.85-10.85h5.425c6.047 0 10.849 4.891 10.849 10.85v5.425c0 5.958-4.891 10.849-10.849 10.849zm-5.514-25.434c-5.07 0-9.072 4.091-9.072 9.071v5.425c0 5.069 4.091 9.071 9.072 9.071h5.425c4.98 0 9.071-4.091 9.071-9.071v-5.425c0-5.069-4.091-9.071-9.071-9.071h-5.425zm45.534 25.434h-5.425c-5.959 0-10.85-4.891-10.85-10.849v-5.425c0-6.048 4.891-10.85 10.85-10.85h5.425c6.047 0 10.849 4.891 10.849 10.85v5.425c0 5.958-4.891 10.849-10.849 10.849zm-5.425-25.434c-5.07 0-9.072 4.091-9.072 9.071v5.425c0 4.98 4.091 9.071 9.072 9.071h5.425c5.069 0 9.071-4.091 9.071-9.071v-5.425c0-5.069-4.091-9.071-9.071-9.071h-5.425zm-74.704 61.896h-5.425c-6.048 0-10.85-4.891-10.85-10.849v-5.425c0-6.047 4.891-10.85 10.85-10.85h5.425c5.958 0 10.849 4.891 10.849 10.85v5.425c.089 6.047-4.802 10.849-10.849 10.849zm-5.425-25.345c-4.981 0-9.072 4.091-9.072 9.071v5.425c0 5.069 4.091 9.071 9.072 9.071h5.425c5.069 0 9.071-4.091 9.071-9.071v-5.425c0-4.98-4.091-9.071-9.071-9.071h-5.425zm45.534 25.345h-5.425c-6.048 0-10.85-4.891-10.85-10.849v-5.425c0-6.047 4.891-10.85 10.85-10.85h5.425c5.958 0 10.849 4.891 10.849 10.85v5.425c0 6.047-4.891 10.849-10.849 10.849zm-5.514-25.345c-5.07 0-9.072 4.091-9.072 9.071v5.425c0 5.069 4.091 9.071 9.072 9.071h5.425c5.069 0 9.071-4.091 9.071-9.071v-5.425c0-4.98-4.091-9.071-9.071-9.071h-5.425zm45.534 25.345h-5.425c-6.048 0-10.85-4.891-10.85-10.849v-5.425c0-5.959 4.891-10.85 10.85-10.85h5.425c6.047 0 10.849 4.891 10.849 10.85v5.425c0 6.047-4.891 10.849-10.849 10.849zm-5.425-25.345c-4.981 0-9.072 4.091-9.072 9.071v5.425c0 5.069 4.091 9.071 9.072 9.071h5.425c5.069 0 9.071-4.091 9.071-9.071v-5.425c0-5.069-4.091-9.071-9.071-9.071h-5.425z" class="B"/><path d="M221.105 316.292c-5.602 0-10.049-4.535-10.049-10.138s4.536-10.049 10.138-10.049 10.05 4.535 10.05 10.138-4.536 10.049-10.139 10.049zm0-18.409a8.35 8.35 0 1 0 0 16.72 8.35 8.35 0 1 0 0-16.72z" class="C"/><path d="M288.339 287.124H153.872c-.534 0-.89-.356-.89-.89V60.702c0-.534.356-.889.89-.889h134.467c.534 0 .889.356.889.889v225.532c0 .445-.355.89-.889.89zm-133.578-1.779H287.45V61.592H154.761v223.753z" class="B"/></g></g><g clip-path="url(#G)"><mask id="C" maskUnits="userSpaceOnUse" x="154" y="61" width="130" height="225"><path d="M283.15 61.717v223.832H154.749V61.717H283.15z" class="D"/></mask><g mask="url(#C)" class="C"><path d="M283.15 285.549V61.717H154.749v223.832H283.15z"/></g></g><g clip-path="url(#H)" class="D"><path d="M195.366 118.615c.238.07.486.101.734.092a2.3 2.3 0 0 0 1.012-.204c.318-.143.599-.357.823-.625 2.746-3.251 6.382-5.621 10.458-6.815a2.84 2.84 0 0 0 1.559-1.382c.212-.497.314-1.035.298-1.575s-.149-1.072-.389-1.556a4.29 4.29 0 0 0-1.078-1.61 4.27 4.27 0 0 0-1.674-.969 2.02 2.02 0 0 0-1.468 0 26.57 26.57 0 0 0-12.66 8.289c-1.101 1.289-.917 3.408.459 4.973a4.69 4.69 0 0 0 1.926 1.382zm9.816 1.473c-.295 1.052-.163 2.177.367 3.131.52 1.003 1.409 1.763 2.477 2.119.238.07.486.101.734.092.383-.004.76-.099 1.101-.277a17.38 17.38 0 0 1 6.146-1.657 2.45 2.45 0 0 0 1.743-1.013 3.65 3.65 0 0 0 .367-2.947 4.32 4.32 0 0 0-1.032-1.887 4.31 4.31 0 0 0-1.812-1.153 3.46 3.46 0 0 0-1.009-.092 21.39 21.39 0 0 0-7.889 2.119c-.517.418-.926.955-1.193 1.565zm47.428 5.802l-1.101-1.381c-.831-1.15-1.719-2.256-2.661-3.316-5.627-6.81-12.888-12.071-21.099-15.288a33.03 33.03 0 0 0-3.211-1.013c-1.57-.425-3.162-.763-4.77-1.013-.406-.054-.82-.006-1.204.138a2.51 2.51 0 0 0-.998.691 3.26 3.26 0 0 0-.596 1.221c-.11.444-.126.907-.046 1.358.091.854.425 1.665.961 2.334a4.46 4.46 0 0 0 2.067 1.442c.091 0 .275.092.367.092 1.362.188 2.71.464 4.036.829.826.276 1.743.552 2.66.829 6.697 2.486 12.568 6.723 17.889 12.893.734.829 1.376 1.75 2.201 2.763.367.552.826 1.013 1.193 1.566.525.668 1.223 1.177 2.018 1.473a2.25 2.25 0 0 0 .734.092 2.5 2.5 0 0 0 1.743-.737c1.193-1.197 1.101-3.315-.183-4.973zm-2.019 31.221v-1.013a39.58 39.58 0 0 0-2.935-14.183 47.06 47.06 0 0 0-7.431-12.617 38.66 38.66 0 0 0-10.733-8.934 8.33 8.33 0 0 0-1.284-.644c-.168-.102-.356-.165-.551-.184a2 2 0 0 0-.733-.092c-.639.007-1.252.259-1.712.704a2.52 2.52 0 0 0-.765 1.69 4.61 4.61 0 0 0 .551 2.637c.441.804 1.112 1.457 1.926 1.876.275.184.55.276.825.46a30.59 30.59 0 0 1 8.44 6.907c2.493 3 4.477 6.391 5.871 10.039 1.411 3.55 2.188 7.322 2.293 11.143v.645l.092 3.315c-.017.616.013 1.232.092 1.842a4.47 4.47 0 0 0 .886 2.499 4.45 4.45 0 0 0 2.141 1.553 2.01 2.01 0 0 0 .734.093 2.5 2.5 0 0 0 1.743-.737 2.82 2.82 0 0 0 .604-1.026 2.83 2.83 0 0 0 .13-1.184 11.25 11.25 0 0 0-.092-1.75l-.092-3.039zm-25.686-2.947a16.3 16.3 0 0 0-.091-2.119l-.092-2.026c-.016-.861-.298-1.696-.807-2.389a4.14 4.14 0 0 0-2.037-1.479c-.411-.119-.847-.131-1.264-.034a2.52 2.52 0 0 0-1.121.587 2.43 2.43 0 0 0-.602.927 2.46 2.46 0 0 0-.132 1.099v2.026a14.9 14.9 0 0 0 .092 2.026c0 1.289.092 3.039 0 4.329-.184 5.157-1.376 9.209-3.761 12.34-1.255 1.641-2.635 3.18-4.128 4.605-.643.645-1.377 1.382-2.019 2.118l-.458.461c-.359.314-.697.652-1.009 1.013-.484.696-.703 1.543-.619 2.387s.466 1.631 1.077 2.218c.454.559 1.06.975 1.743 1.197.237.076.486.107.734.092a2.26 2.26 0 0 0 .964-.218c.301-.144.567-.352.779-.611a2.17 2.17 0 0 1 .642-.645c.237-.225.452-.471.642-.736l1.927-1.934a48.5 48.5 0 0 0 4.587-5.158c3.027-3.96 4.586-9.209 4.77-15.656a22.84 22.84 0 0 0 .183-4.42zm-23.209-6.539v-.184c0-.737-.092-1.382-.092-2.119l-.091-3.039c-.092-4.42.642-8.104 2.385-10.959a4.08 4.08 0 0 0 .284-2.63 4.07 4.07 0 0 0-1.385-2.251 4.38 4.38 0 0 0-1.559-.921c-.528-.181-1.103-.17-1.623.032a2.37 2.37 0 0 0-1.221 1.073c-2.202 3.868-3.211 8.657-3.119 14.367 0 1.013 0 1.934.091 2.947-.017.707.014 1.415.092 2.118v.092a3.15 3.15 0 0 1-.183 1.29 1.66 1.66 0 0 1-.551.828l-.55.553-.551.553c-1.284 1.013-1.376 3.131-.183 4.881.512.8 1.293 1.388 2.202 1.657.237.076.485.107.734.092a2.48 2.48 0 0 0 1.559-.552 12.48 12.48 0 0 0 1.101-1.105l.275-.277a7.6 7.6 0 0 0 1.835-2.947c.478-1.1.668-2.305.55-3.499zm35.777 4.42a20.98 20.98 0 0 0-1.468-6.723 25.29 25.29 0 0 0-5.504-8.657c-2.217-2.396-5.038-4.146-8.164-5.065l-.642-.184c-4.037-.921-7.798-.092-10.458 2.394s-4.037 6.355-4.037 10.868v2.302c0 1.566.092 3.131 0 4.513a13.12 13.12 0 0 1-.734 4.144c-.441 1.183-1.094 2.276-1.926 3.223-.917 1.013-1.835 1.934-2.844 3.04l-.734.736c-1.101 1.105-1.009 3.224.184 4.697a4.16 4.16 0 0 0 1.926 1.382 2.52 2.52 0 0 0 2.385-.553l.643-.645c1.009-1.013 2.109-2.118 3.119-3.223 1.266-1.434 2.261-3.088 2.935-4.881.728-1.975 1.1-4.064 1.101-6.17.092-1.658 0-3.316 0-4.881v-2.211c0-2.855.826-5.157 2.385-6.539 1.56-1.473 3.578-1.934 6.146-1.289l.367.092a12.43 12.43 0 0 1 6.33 4.697 21.85 21.85 0 0 1 2.11 3.776c.532 1.289.842 2.659.917 4.052.092 1.29.092 2.487.092 3.776v3.776c0 7.183-1.376 13.354-4.403 18.788-1.494 2.664-3.38 5.086-5.596 7.183a3.63 3.63 0 0 0 .092 4.697c.486.688 1.202 1.179 2.018 1.381.237.076.485.107.734.092.304.013.608-.038.892-.149a2.2 2.2 0 0 0 .759-.495c2.571-2.456 4.766-5.28 6.513-8.381 3.486-6.263 5.137-13.63 5.137-21.827 0-1.289 0-2.578-.091-3.96-.092-1.105-.092-2.394-.184-3.776z"/></g><g clip-path="url(#I)"><mask id="D" maskUnits="userSpaceOnUse" x="48" y="69" width="114" height="262"><path d="M161.233 69.767H48.992v260.495h112.241V69.767z" class="D"/></mask><g mask="url(#D)"><path d="M113.324 114.981l-2.304-18.349-10.222.267-1.99 18.174 7.567 3.579 6.949-3.671z" class="C"/><path d="M106.375 119.053c.069-.001.137-.018.197-.05l6.949-3.668a.41.41 0 0 0 .173-.175c.039-.074.054-.159.044-.242l-2.3-18.349c-.012-.102-.061-.196-.138-.263a.42.42 0 0 0-.28-.104l-10.226.267c-.103 0-.203.037-.281.106s-.126.163-.137.266l-1.995 18.174a.42.42 0 0 0 .053.246c.043.075.107.135.185.171l7.567 3.58c.059.029.123.044.188.042zm6.498-4.323l-6.51 3.437-7.108-3.341 1.919-17.518 9.47-.251 2.229 17.672z" class="B"/><path d="M99.87 106.005s7.3 2.786 10.31-2.431c-1.814 1.148-9.913-1.671-9.913-1.671l-.397 4.102z" class="B"/><path d="M104.105 107.149c2.275 0 4.892-.685 6.439-3.366a.42.42 0 0 0-.075-.507c-.067-.064-.154-.104-.246-.114s-.186.012-.265.061c-1.2.76-6.497-.656-9.553-1.725a.41.41 0 0 0-.187-.021.41.41 0 0 0-.178.063c-.053.034-.099.08-.132.134s-.053.116-.059.179l-.418 4.114c-.006.089.017.178.065.253a.42.42 0 0 0 .203.165 14.01 14.01 0 0 0 4.407.764zm5.101-2.924c-2.684 3.171-7.626 1.876-8.889 1.475l.314-3.258c1.601.551 6.116 1.967 8.575 1.8v-.017z" class="B"/><path d="M107.538 70.473c2.795 1.807 5.921 3.042 9.198 3.634a1.73 1.73 0 0 1 .82.379c.235.197.414.452.518.74.57 1.606 1.311 3.147 2.211 4.594a1.72 1.72 0 0 1 .235 1.145c-.058.398-.254.762-.552 1.031-1.552 1.347-3.386 2.328-5.369 2.869-.164.047-.335.071-.506.071H98.206a1.75 1.75 0 0 1-.711-.15 23.3 23.3 0 0 1-4.499-2.652c-.354-.265-.593-.656-.667-1.092s.023-.884.269-1.251c.961-1.395 1.783-2.881 2.454-4.436.111-.257.284-.482.502-.657s.477-.293.752-.345c3.57-.622 6.3-1.871 9.319-3.876a1.74 1.74 0 0 1 1.911-.004z" class="C"/><path d="M119.366 81.311l-.837-1.88c-.506-1.044-1.149-2.564-4.381-3.759s-5.31-1.901-7.568-1.855-8.984 1.671-10.452 3.341-2.387 3.981-2.346 4.377-1.505-.835-1.505-.835l3.056-5.969s3.583-.489 5.619-1.671 4.958-2.786 5.577-2.924 4.913 2.431 5.853 2.74 5.222 1.37 5.222 1.37l3.011 6.236s.062.894-1.25.827z" class="D"/><path d="M98.202 85.355h15.887a2.09 2.09 0 0 0 .627-.092 14.12 14.12 0 0 0 5.544-2.966 2.14 2.14 0 0 0 .389-2.707 23.24 23.24 0 0 1-2.174-4.511 2.14 2.14 0 0 0-.646-.924c-.294-.245-.649-.406-1.026-.467-3.216-.586-6.286-1.797-9.035-3.563-.353-.237-.769-.363-1.194-.363s-.841.126-1.194.363c-3.19 2.13-5.853 3.233-9.135 3.809-.346.062-.671.209-.946.428a2.12 2.12 0 0 0-.63.825c-.665 1.531-1.475 2.994-2.421 4.369-.312.456-.436 1.015-.344 1.56a2.14 2.14 0 0 0 .834 1.364 23.78 23.78 0 0 0 4.599 2.702c.273.117.568.175.865.171zm9.097-14.535c2.846 1.845 6.031 3.103 9.37 3.701a1.31 1.31 0 0 1 .62.281 1.32 1.32 0 0 1 .396.554 24.04 24.04 0 0 0 2.253 4.686 1.3 1.3 0 0 1 .175.868c-.044.301-.192.577-.417.782a13.38 13.38 0 0 1-5.21 2.773c-.124.037-.254.055-.384.054H98.214a1.28 1.28 0 0 1-.535-.113c-1.568-.699-3.052-1.574-4.423-2.606a1.3 1.3 0 0 1-.305-1.771 26.44 26.44 0 0 0 2.508-4.507 1.28 1.28 0 0 1 .932-.743c3.374-.589 6.205-1.767 9.453-3.934.216-.144.47-.221.73-.221s.514.077.73.221l-.005-.025z" class="B"/><path d="M55.097 138.793a77.1 77.1 0 0 1 13.768 14.811c-5.31 6.996 4.398 8.963 9.875 11.44.192 3.759.167 6.37.924 8.771-9.792-.234-24.45 1.253-28.48-12.317-2.981-10.054.134-16.394 3.913-22.705z" class="C"/><path d="M78.815 168.035c-5.017-.23-15.808-4.081-11.334-12.556-.088 5.042 2.391 8.166 11.334 9.478.102 1.023.102 2.054 0 3.078z" class="D"/><path d="M79.354 174.308c.111 0 .217-.044.296-.123s.122-.184.122-.295l-.042-1.554-.113-7.142a.42.42 0 0 0-.343-.418c-2.279-.397-9.825-1.992-11.334-5.847-.59-1.5-.167-3.212 1.254-5.092.052-.071.079-.156.079-.244s-.028-.173-.079-.244a77.49 77.49 0 0 0-13.843-14.895.43.43 0 0 0-.158-.081.44.44 0 0 0-.177-.009c-.059.01-.115.033-.165.066s-.092.077-.123.128l-.372.614c-3.667 6.107-7.827 13.032-3.571 22.48 4.98 11.044 21.624 12.53 28.552 12.639l.017.017zm-.569-8.772c0 2.832.054 4.683.109 6.813l.034 1.115c-7.007-.171-22.686-1.754-27.364-12.138-4.081-9.051-.213-15.483 3.524-21.719l.117-.192c4.96 4.152 9.377 8.912 13.145 14.167-1.463 2.035-1.865 3.935-1.187 5.656 1.568 3.993 8.391 5.701 11.623 6.298z" class="B"/><path d="M132.485 165.031c8.559-2.389 14.065-4.009 9.913-10.696 2.12-3.83 8.663-9.478 14.215-13.846 3.069 6.031 5.456 14.009 1.401 22.671-5.619 11.959-19.747 11.503-26.147 11.503l.618-9.632z" class="C"/><path d="M149.217 171.501c5.398-5.313 10.641-11.933 6.773-27.07.443-.71 1.773-2.431 1.773-2.431s9.574 21.106-8.546 29.501z" class="D"/><path d="M132.126 175.26c13.696 0 22.815-4.081 26.498-11.925 3.345-7.1 2.868-14.619-1.417-23.035-.028-.055-.068-.104-.117-.142s-.106-.066-.167-.079a.42.42 0 0 0-.183.001c-.06.014-.116.04-.164.078-5.323 4.177-12.125 10.024-14.312 13.976a.42.42 0 0 0-.056.209.42.42 0 0 0 .056.208c1.296 2.089 1.643 3.659 1.092 4.942-1.2 2.769-6.69 4.373-15.75 6.202-.091.019-.174.068-.235.139s-.095.161-.099.254l-.322 8.583a.42.42 0 0 0 .112.286c.072.077.171.124.277.132a67.81 67.81 0 0 0 4.787.171zm24.563-34.124c3.951 7.99 4.335 15.124 1.179 21.844-4.917 10.463-18.973 11.95-30.082 11.315l.305-7.84c9.378-1.904 14.709-3.546 16.042-6.628.652-1.508.331-3.258-1.016-5.501 2.183-3.726 8.471-9.152 13.572-13.19zm-105.155 5.638s8.901 7.026 17.33 6.829-14.541-13.065-14.541-13.065-2.521 3.45-2.789 6.236zm23.208 170.724l6.104-133.925 26.661 1.533 23.564-1.404 5.343 133.796h-17.162l-13.095-83.365-14.257 83.365H74.743z" class="B"/><path d="M77.561 259.131s11.15-20.391 5.18-16.941-.941-10.025 2.358-17.568-.911-5.175-2.508-3.45c-3.963 4.265-4.097 12.489-4.097 12.489l-.932 25.47zm-.707 15.032s3.717-13.783 4.779-3.892-4.248 12.914-5.665 29.183l.886-25.291zm41.073 34.489s-1.772-12.38.707-25.116.531-15.387-1.948-11.139-2.831-4.954-1.062-15.918-1.945-16.983-5.666-1.416l7.969 53.589zm-15.402-55.523s-6.376 19.986-11.155 27.947.355 5.48 1.593 8.487-1.722 11.524-2.83 13.441c-2.659 4.595.297 12.706 1.769 12.735l10.624-62.61z" class="C"/><path d="M126.423 329.398h7.107l.74-2.656s4.223 3.103 8.362 3.103h11.544s-.866-4.49-4.114-4.595c-3.445-.104-13.015-3.45-13.68-7.894l-10.289-.927.33 12.969z" class="B"/><path d="M142.624 330.258h11.552c.061 0 .122-.014.177-.04s.105-.063.145-.11a.42.42 0 0 0 .082-.162c.015-.059.017-.121.006-.181-.038-.2-.97-4.82-4.512-4.924s-12.668-3.471-13.278-7.539a.42.42 0 0 0-.127-.243c-.068-.065-.156-.104-.25-.113l-10.306-.927c-.058-.005-.117.003-.173.022s-.106.05-.148.091-.078.088-.101.142a.42.42 0 0 0-.033.171l.33 12.948c0 .111.044.217.123.296s.184.122.295.122h7.108c.094.004.186-.025.262-.08a.41.41 0 0 0 .156-.225l.581-2.088c1.246.823 4.67 2.84 8.111 2.84zm11.012-.835h-11.012c-3.955 0-8.073-2.987-8.115-3.02-.083-.061-.185-.09-.287-.08a.42.42 0 0 0-.268.13c-.046.05-.079.11-.097.175l-.636 2.352h-6.388l-.301-12.088 9.511.861c1.083 4.556 10.377 7.81 14.01 7.936 2.262.054 3.262 2.623 3.583 3.734z" class="B"/><path d="M132.443 317.319l-6.196-116.199 5.356-.489 4.779 116.6-3.939.088z" class="C"/><path d="M84.622 329.398h-7.108l-.736-2.656s-4.227 3.103-8.362 3.103H56.865s.865-4.49 4.118-4.595c3.441-.104 13.011-3.45 13.676-7.894l10.289-.927-.326 12.969z" class="B"/><path d="M56.869 330.258h11.548c3.441 0 6.865-2.017 8.119-2.84l.581 2.088c.025.091.08.17.156.225a.41.41 0 0 0 .262.08h7.108c.111 0 .217-.044.295-.123s.123-.184.123-.295l.33-12.948c.001-.088-.025-.175-.076-.247a.42.42 0 0 0-.207-.157c-.056-.019-.115-.027-.173-.022l-10.289.927a.42.42 0 0 0-.25.113c-.068.064-.113.15-.126.242-.606 4.069-9.737 7.431-13.274 7.54s-4.478 4.724-4.515 4.924a.42.42 0 0 0 .006.181c.015.059.043.114.082.162s.083.08.135.106a.42.42 0 0 0 .166.044zm19.91-3.935a.46.46 0 0 0-.251.08c-.038.033-4.181 3.02-8.115 3.02H57.4c.322-1.107 1.321-3.68 3.591-3.76 3.633-.112 12.927-3.366 14.014-7.935l9.507-.861-.309 12.088h-6.372l-.636-2.314a.42.42 0 0 0-.268-.284c-.048-.019-.099-.031-.15-.034z" class="B"/><path d="M74.743 317.916h17.142c.1.001.198-.034.274-.098s.128-.154.144-.253l13.839-80.851 12.702 80.847c.015.1.066.19.142.256a.42.42 0 0 0 .276.099h17.142c.056 0 .112-.012.164-.034a.42.42 0 0 0 .137-.096c.039-.04.069-.088.089-.14s.03-.108.028-.164l-5.331-133.796a.41.41 0 0 0-.082-.231c-.05-.067-.119-.117-.198-.144-.052-.019-.108-.026-.163-.022l-23.539 1.399-26.636-1.533c-.055-.004-.111.004-.163.022s-.101.046-.142.083-.075.082-.098.132-.037.105-.039.16l-6.104 133.925a.44.44 0 0 0 .113.309c.039.042.087.075.139.097a.43.43 0 0 0 .166.033zm16.807-.835H75.178l6.067-133.07 26.239 1.512h.051l23.137-1.378 5.31 132.936h-16.369l-13.04-83.01a.42.42 0 0 0-.418-.356.42.42 0 0 0-.273.096c-.077.064-.129.153-.145.251L91.55 317.081zm24.028-232.696c.159 2.54.192 5.689-2.793 7.648-3.148 2.063-11.255 1.713-13.279-.121-2.571-2.326-2.559-5.225-2.45-7.769 0 .013 12.698-1.93 18.522.242z" class="B"/><path d="M106.242 93.867c2.588 0 5.222-.455 6.773-1.47 3.089-2.03 3.156-5.204 2.981-8.024-.005-.08-.033-.156-.081-.221s-.112-.114-.187-.143c-5.853-2.201-18.212-.347-18.734-.267-.096.015-.183.063-.247.136s-.101.165-.105.261c-.1 2.205-.243 5.534 2.58 8.095 1.141 1.036 4.051 1.633 7.02 1.633zm8.938-9.189c.143 2.615 0 5.275-2.625 7-2.96 1.938-10.904 1.604-12.769-.084-2.241-2.03-2.416-4.507-2.325-7.101 2.019-.255 12.492-1.587 17.718.205v-.021z" class="B"/><path d="M89.526 117.453c8.174-2.431 23.48-2.322 32.135 0 6.961 1.362 27.142 7.744 39.154 18.976-1.956 7.459-13.855 17.818-20.373 19.885-2.655-1.751-5.48-3.229-8.433-4.41.677 10.174.71 21.519-.933 31.744-5.895 8.19-48.185 7.422-50.233 1.023-1.309-4.085-2.617-18.587-1.463-35.136-2.412 1.254-7.032 3.806-8.362 5.455-9.152-4.682-16.648-11.173-20.014-19.489 0-.004 20.88-14.869 38.523-18.048z" class="D"/><path d="M115.093 116.222s26.114 3.358 45.722 20.207a26.44 26.44 0 0 1-1.639 3.759s-19.826-16.983-43.991-22.905c-1.066-.355-.092-1.061-.092-1.061zm-35.408 31.652s.598-2.924-1.15-5.309c-1.948-2.652-6.464 2.924-7.17 12.029 2.391-2.126 8.015-5.05 8.015-5.05l.305-1.67zm49.661-16.621s5.13 28.315 2.124 49.082-4.866 3.27-4.866 3.27 3.717-18.127.794-52.085c-.447-3.007 1.505-2.564 1.948-.267z" class="C"/><path d="M111.154 116.53l-3.052 5.572 5.444 48.815-9.031 5.438-8.63-6.896 8.63-47.624-3.717-5.702 10.356.397zm4.411 28.77s10.231-.251 16.306 1.228l.096 5.576s-4.465-3.308-8.074.643c-2.65-1.959-3.524-3.099-7.993-2.285-.258-1.708-.37-3.435-.335-5.162z" class="B"/><path d="M123.889 153.165c.058 0 .116-.012.169-.035a.42.42 0 0 0 .141-.099c3.303-3.621 7.346-.718 7.525-.593a.42.42 0 0 0 .215.08c.077.006.155-.01.224-.046a.42.42 0 0 0 .167-.156.43.43 0 0 0 .059-.221l-.088-5.576c.003-.095-.027-.188-.085-.264a.42.42 0 0 0-.232-.153c-6.063-1.47-16.306-1.253-16.419-1.253s-.217.044-.295.122a.42.42 0 0 0-.123.295 30.96 30.96 0 0 0 .334 5.251c.011.054.031.105.061.152a.43.43 0 0 0 .429.182c3.829-.698 4.858.079 6.902 1.629l.77.58c.068.061.155.098.246.105zm4.11-2.765c-.778.002-1.547.162-2.262.47s-1.358.757-1.894 1.322l-.468-.351c-2.09-1.592-3.278-2.506-7.141-1.859-.183-1.415-.269-2.841-.255-4.269 1.911-.029 10.185-.058 15.469 1.145l.101 4.494a7.74 7.74 0 0 0-3.55-.952zm-32.289-5.363s-10.231-.251-16.306 1.224l-.088 5.576s4.465-3.304 8.073.647c2.655-1.959 3.525-3.099 7.994-2.284a30.34 30.34 0 0 0 .326-5.163z" class="B"/><path d="M87.386 152.885c.091 0 .178-.029.251-.084l.765-.576c2.044-1.55 3.073-2.331 6.903-1.633.109.021.221-.002.313-.064a.42.42 0 0 0 .176-.266 30.53 30.53 0 0 0 .334-5.255c0-.11-.044-.217-.122-.295a.42.42 0 0 0-.296-.122c-.1 0-10.352-.234-16.418 1.253a.42.42 0 0 0-.318.417l-.088 5.581c-.001.058.011.115.033.168a.42.42 0 0 0 .099.142c.042.039.092.07.147.089a.43.43 0 0 0 .171.023c.078-.006.152-.034.215-.079.171-.126 4.214-3.029 7.526.588.041.039.09.069.143.088a.41.41 0 0 0 .166.025zm5.465-3.388c-2.237 0-3.315.836-4.954 2.064l-.464.351c-2.906-2.895-6.271-1.6-7.689-.836l.071-4.494c5.297-1.207 13.567-1.174 15.469-1.149.016 1.428-.069 2.854-.255 4.269-.72-.12-1.448-.183-2.178-.188v-.017zm45.526-26.468a29.71 29.71 0 0 0-1.994 3.713c-2.258-.927-9.161-3.976-14.47-5.171s-1.844-4.532 1.062-3.847c4.515 1.061 15.402 5.305 15.402 5.305z" class="B"/><path d="M136.382 127.16c.082.001.162-.022.23-.067s.122-.108.154-.183c.567-1.263 1.222-2.485 1.961-3.655a.41.41 0 0 0 .065-.264.42.42 0 0 0-.113-.248c-.043-.044-.095-.079-.152-.102-.444-.175-10.967-4.269-15.47-5.325a4.15 4.15 0 0 0-2.026.05c-.661.184-1.266.528-1.762 1.002a1.72 1.72 0 0 0-.479.78c-.087.299-.09.615-.01.916.188.606.866 1.428 3.027 1.913 4.599 1.04 10.519 3.521 13.358 4.715l1.045.439a.44.44 0 0 0 .172.029zm1.371-3.93a31.3 31.3 0 0 0-1.589 2.961l-.664-.275c-2.86-1.203-8.81-3.709-13.496-4.762-1.936-.418-2.329-1.086-2.409-1.345a.93.93 0 0 1 .03-.48c.052-.155.144-.293.267-.401a3.32 3.32 0 0 1 1.393-.772c.52-.14 1.067-.152 1.592-.034 3.905.931 12.744 4.293 14.876 5.108zm-63.219-.865a29.84 29.84 0 0 1 1.99 3.718c2.258-.932 9.16-3.981 14.474-5.175s1.417-4.002-1.488-3.317c-4.511 1.044-14.976 4.774-14.976 4.774z" class="B"/><path d="M76.524 126.5c.055-.001.109-.012.159-.033l1.049-.439c2.835-1.195 8.742-3.676 13.358-4.716 1.672-.38 2.667-.96 2.927-1.729.064-.241.062-.495-.008-.735a1.38 1.38 0 0 0-.385-.627c-.761-.835-2.538-1.424-4.181-1.035-4.482 1.052-14.918 4.749-15.022 4.786-.059.022-.113.056-.157.101s-.078.099-.098.158a.42.42 0 0 0-.02.185c.007.062.028.121.062.174a29.25 29.25 0 0 1 1.961 3.655.42.42 0 0 0 .355.255zm13.939-8.596a3.72 3.72 0 0 1 2.529.886.57.57 0 0 1 .177.245.58.58 0 0 1 .028.302c-.054.163-.368.731-2.291 1.161-4.687 1.057-10.64 3.558-13.5 4.761l-.665.28a29.4 29.4 0 0 0-1.58-2.953c2.12-.743 10.561-3.675 14.445-4.594a3.92 3.92 0 0 1 .857-.088z" class="B"/><path d="M69.065 124.989c1.325 2.18.836 7.1-3.261 9.527-2.09 1.253-6.204 2.03-10.185-1.867" class="C"/><path d="M62.008 135.965c1.41.001 2.795-.375 4.009-1.091a8.31 8.31 0 0 0 2.461-2.196c.666-.889 1.147-1.901 1.415-2.979.456-1.812.276-3.7-.472-4.928-.057-.095-.15-.163-.257-.189s-.221-.01-.316.047-.162.149-.189.257a.42.42 0 0 0 .047.315c.636 1.044.778 2.69.376 4.294-.242.97-.676 1.881-1.275 2.682s-1.353 1.473-2.216 1.979c-.836.485-5.113 2.665-9.679-1.809a.42.42 0 0 0-.592.007c-.078.079-.12.186-.119.297a.42.42 0 0 0 .126.294c2.245 2.197 4.595 3.02 6.681 3.02z" class="B"/><path d="M155.196 131.959s-3.721 3.45-10.979-.881c.886-1.859.531-4.424 0-5.397" class="C"/><path d="M151.04 133.693c2.852 0 4.34-1.333 4.44-1.424.04-.039.071-.086.092-.136s.032-.106.032-.161-.011-.11-.032-.161-.052-.097-.092-.136a.42.42 0 0 0-.29-.131c-.111-.004-.218.036-.299.111-.142.129-3.504 3.074-10.164-.752.748-1.934.418-4.382-.163-5.43-.027-.049-.064-.091-.108-.125s-.094-.059-.147-.074a.42.42 0 0 0-.246.006c-.08.026-.15.076-.201.142s-.082.146-.088.229a.43.43 0 0 0 .054.24c.651 1.607.651 3.404 0 5.012-.045.094-.053.201-.023.301s.097.184.186.238c2.898 1.716 5.247 2.251 7.049 2.251z" class="B"/><path d="M118.901 140.605l12.811 1.262v-2.786l-12.811-1.261v2.785z" class="C"/><path d="M131.712 142.284c.055.001.109-.01.16-.03a.42.42 0 0 0 .137-.091c.039-.039.069-.085.09-.136s.031-.106.031-.161v-2.765a.42.42 0 0 0-.108-.281c-.069-.077-.165-.126-.268-.136l-12.811-1.253c-.087-.009-.175.01-.251.054s-.136.11-.172.19c-.024.054-.037.111-.037.169v2.786c0 .104.038.205.107.282a.42.42 0 0 0 .27.136l12.814 1.253.038-.017zm-.418-2.823v1.942l-11.974-1.174v-1.963l11.974 1.195z" class="B"/><path d="M84.409 133.53c-.516.13-1.019.305-1.505.522l.117-2.506a12.97 12.97 0 0 1 8.6-.53l.113 2.384-1.183-.2a30.41 30.41 0 0 1 1.087 3.759c.439 2.122-4.34 4.465-4.34 4.465-1.254-.267-4.515-2.431-4.16-3.847.276-1.094.97-3.162 1.271-4.047z" class="C"/><path d="M87.298 141.841c.064.001.127-.013.184-.041.518-.255 5.059-2.557 4.561-4.929a29.01 29.01 0 0 0-.87-3.145l.477.092a.43.43 0 0 0 .186-.004c.061-.015.117-.044.166-.084a.43.43 0 0 0 .113-.148.42.42 0 0 0 .038-.182l-.113-2.368c-.003-.084-.031-.166-.081-.233a.42.42 0 0 0-.199-.147 13.3 13.3 0 0 0-8.905.539c-.071.03-.132.08-.176.143a.42.42 0 0 0-.074.216l-.117 2.506a.42.42 0 0 0 .201.355.42.42 0 0 0 .206.067.43.43 0 0 0 .212-.046c.216-.098.436-.185.661-.259l-1.02 3.308c-.045.238-.041.484.013.721s.154.46.297.657c.857 1.374 3.119 2.753 4.181 2.978l.063.004zm3.253-9.051a.42.42 0 0 0-.273.104c-.076.066-.125.157-.14.256-.009.066-.003.133.02.196a30.59 30.59 0 0 1 1.07 3.696c.293 1.42-2.713 3.292-3.976 3.939-.937-.28-2.835-1.5-3.5-2.569-.159-.21-.233-.472-.209-.735.272-1.086.974-3.166 1.254-4.01a.42.42 0 0 0 .011-.221c-.016-.074-.052-.141-.103-.196a.42.42 0 0 0-.418-.117l-.957.296c0-.351.038-.869.079-1.583 2.482-.973 5.207-1.148 7.793-.501l.067 1.558-.673-.104-.046-.009z" class="B"/><path d="M106.906 122.236l3.496 50.051c3.056-1.525 2.926-1.758 2.926-1.767-.69-7.61-5.138-48.125-5.138-48.125l1.505-2.924-2.588-2.168c-.357 1.62-.425 3.29-.201 4.933z" class="C"/><path d="M118.103 184.817s-.707 17.847.711 20.103 7.943 3.057 8.14-2.415l.886-18.49c0-3.379-9.382-4.992-9.737.802z" class="B"/><path d="M122.748 207.059a5.67 5.67 0 0 0 1.455-.184c1.141-.309 3.073-1.287 3.169-4.357l.456-9.072.418-9.431c0-2.038-2.714-3.383-5.226-3.458-2.346-.088-5.147.994-5.348 4.235-.071 1.842-.669 18.044.774 20.341.744 1.178 2.542 1.926 4.302 1.926zm.071-25.671h.188c2.132.063 4.415 1.132 4.415 2.623 0 1.829-.209 5.497-.418 9.385l-.451 9.093c-.08 2.406-1.434 3.271-2.559 3.576-1.898.509-4.152-.314-4.817-1.37-.986-1.575-.924-12.736-.643-19.861.184-3.129 3.114-3.446 4.285-3.446z" class="B"/><path d="M127.447 182.988s-.982 17.835.418 20.107 7.944 3.166 8.174-2.306 1.125-15.095 1.171-18.478-9.328-5.112-9.763.677z" class="B"/><path d="M131.846 205.288a5.58 5.58 0 0 0 1.367-.167c1.145-.293 3.089-1.253 3.232-4.311l.602-9.189.568-9.302c.025-2.038-2.667-3.42-5.18-3.529-2.345-.1-5.163.927-5.402 4.177-.1 1.838-.945 18.031.464 20.349.707 1.191 2.559 1.972 4.349 1.972zm.275-25.671h.264c2.132.092 4.398 1.195 4.381 2.681-.025 1.809-.288 5.43-.568 9.252l-.602 9.214c-.109 2.406-1.476 3.254-2.601 3.542-1.91.489-4.151-.372-4.799-1.437-.966-1.587-.736-12.747-.343-19.865.242-3.049 3.043-3.387 4.268-3.387zm-34.91 7.707l-.33 14.501c0 2.653-2.124 4.069-5.31 3.183s-11.155-3.893-13.634-6.19-2.383-15.913-1.438-18.039c2.124-4.779 21.247 1.415 20.712 6.545z" class="B"/><path d="M93.356 205.688c.914.029 1.812-.244 2.555-.777.457-.37.82-.842 1.062-1.378s.353-1.121.326-1.708c0-2.573.318-13.993.33-14.477.305-3.137-5.381-6.311-11.151-7.853-4.265-1.136-9.227-1.441-10.36 1.111-.962 2.16-1.116 16.056 1.534 18.516s10.95 5.497 13.797 6.286a6.99 6.99 0 0 0 1.906.28zm-12.543-26.205a21.77 21.77 0 0 1 5.456.835c5.268 1.404 10.795 4.469 10.536 6.971.002.011.002.023 0 .034 0 .117-.33 11.887-.33 14.514.026.459-.056.917-.24 1.338s-.464.792-.818 1.085c-.865.655-2.187.785-3.725.359-3.345-.927-11.109-3.918-13.458-6.094-2.228-2.068-2.304-15.4-1.342-17.568.418-.977 1.852-1.474 3.913-1.474h.008z" class="B"/><path d="M104.214 190.059c11.757 0 24.124-1.884 27.201-6.161.038-.054.063-.115.075-.18 1.405-8.771 1.735-19.242.979-31.163 2.7 1.119 5.289 2.488 7.734 4.089a.42.42 0 0 0 .176.069.4.4 0 0 0 .188-.015c6.309-1.988 18.576-12.246 20.666-20.165.02-.074.02-.153-.002-.226a.41.41 0 0 0-.119-.192c-11.652-10.897-31.549-17.543-39.359-19.067-8.839-2.373-24.174-2.381-32.235 0h-.054c-17.535 3.157-38.464 17.96-38.69 18.115a.42.42 0 0 0-.142.497c3.123 7.727 10.114 14.539 20.211 19.702a.42.42 0 0 0 .514-.109c.878-1.09 3.617-2.899 7.572-5.012-1.058 16.127.192 30.374 1.53 34.542.757 2.36 5.853 3.638 9.988 4.29 4.558.675 9.16 1.005 13.768.986zm26.465-6.571c-4.281 5.673-27.218 6.817-40.112 4.783-5.435-.861-8.847-2.218-9.328-3.722-1.334-4.177-2.58-18.649-1.442-34.976a.42.42 0 0 0-.179-.393c-.063-.043-.136-.068-.212-.072s-.152.012-.219.047c-2.458 1.286-6.689 3.625-8.266 5.305-9.616-4.983-16.306-11.478-19.404-18.817 2.509-1.733 21.741-14.798 37.988-17.764.047.006.095.006.142 0 7.914-2.356 23.12-2.352 31.904 0 7.722 1.499 27.251 8.019 38.795 18.691-2.12 7.339-13.718 17.221-19.843 19.289a48.57 48.57 0 0 0-8.362-4.332c-.068-.029-.142-.04-.215-.031s-.144.037-.203.082-.102.096-.132.159-.043.134-.039.204c.832 12.079.535 22.693-.874 31.535v.012z" class="B"/><path d="M104.515 176.772c.076 0 .151-.02.217-.058l9.027-5.43a.41.41 0 0 0 .163-.179.42.42 0 0 0 .038-.239l-5.436-48.684 2.99-5.455c.036-.064.056-.136.056-.209a.42.42 0 0 0-.056-.209c-.035-.062-.085-.115-.146-.152a.42.42 0 0 0-.201-.061l-10.356-.397a.42.42 0 0 0-.22.052c-.067.037-.123.091-.161.158s-.056.142-.054.218a.41.41 0 0 0 .067.215l3.629 5.564-8.6 47.477c-.017.077-.012.157.015.231s.074.139.136.187l8.634 6.892a.42.42 0 0 0 .259.079zm8.583-6.073l-8.55 5.158-8.207-6.561 8.588-47.386a.42.42 0 0 0-.063-.301l-3.278-5.012 8.876.343-2.747 4.962a.42.42 0 0 0-.05.246l5.431 48.551z" class="B"/><path d="M106.045 115.875l6.572 6.892 4.023-6.207-2.563-4.273-8.032 3.588z" class="D"/><path d="M112.618 123.184h.037a.44.44 0 0 0 .179-.058.43.43 0 0 0 .135-.13l4.022-6.207c.041-.067.063-.143.063-.222s-.022-.154-.063-.221l-2.563-4.273a.42.42 0 0 0-.234-.184c-.098-.031-.203-.025-.297.017l-8.032 3.592a.42.42 0 0 0-.206.207c-.042.091-.05.194-.022.291.019.064.053.122.099.17l6.581 6.888c.038.041.085.073.137.096s.107.033.164.034zm3.528-6.637l-3.595 5.542-5.795-6.077 7.153-3.2 2.237 3.735z" class="B"/><path d="M105.874 115.874l-6.405 7.289-4.189-6.604 2.467-4.54 8.128 3.855z" class="D"/><path d="M99.469 123.58a.45.45 0 0 0 .318-.142l6.401-7.288c.065-.073.102-.166.105-.264a.41.41 0 0 0-.238-.388l-8.132-3.855c-.096-.045-.205-.052-.306-.019s-.186.102-.237.194l-2.467 4.541c-.037.063-.056.135-.056.208s.019.146.056.209l4.181 6.604c.035.055.083.1.138.134s.119.053.184.058l.054.008zm5.74-7.564l-5.674 6.449-3.763-5.923 2.157-3.976 7.279 3.45z" class="B"/><path d="M95.593 90.943c.263-1.817 2.224-1.349 2.751-.518l.197.33.69-6.37 13.672-.238.731 6.228c.557-.806 2.463-1.232 2.722.555.13 1.454-.719 4.001-2.421 3.17-.066-.034-.121-.071-.179-.105-.088 5.484-1.576 10.563-7.656 10.931-6.35.384-7.713-5.246-7.701-11.073-.131.096-.271.178-.418.247-1.681.844-2.534-1.704-2.387-3.158z" class="C"/><path d="M105.502 105.374h.623c5.146-.313 7.78-3.822 8.031-10.718a1.6 1.6 0 0 0 1.326-.234c.932-.643 1.396-2.318 1.287-3.5s-.874-1.487-1.283-1.583c-.513-.106-1.047-.024-1.505.23-.251-2.732-.661-5.43-.665-5.455-.015-.1-.066-.191-.143-.256s-.174-.1-.275-.099l-13.676.238a.42.42 0 0 0-.277.101c-.077.066-.127.158-.141.258 0 .029-.38 2.644-.623 5.363-.245-.175-.522-.299-.816-.366s-.597-.074-.894-.023a1.73 1.73 0 0 0-1.296 1.554c-.109 1.182.355 2.857 1.288 3.5.221.155.477.252.746.281s.54-.01.789-.114c.079 4.406 1.012 7.393 2.839 9.114 1.179 1.144 2.747 1.708 4.666 1.708zm8.253-11.799a.44.44 0 0 0-.205.054c-.064.036-.118.088-.155.151s-.058.135-.058.208c-.109 6.879-2.417 10.225-7.263 10.517-1.965.121-3.532-.363-4.678-1.441-1.748-1.645-2.592-4.661-2.58-9.214 0-.077-.022-.153-.062-.219s-.099-.119-.168-.153a.42.42 0 0 0-.418.038c-.104.079-.216.148-.334.205a.81.81 0 0 1-.886 0c-.631-.418-1.012-1.792-.932-2.723.071-.493.297-.785.665-.86.242-.036.488-.008.715.083a1.38 1.38 0 0 1 .577.431c.059.092.121.2.188.317.044.079.112.141.194.178s.174.046.262.026a.42.42 0 0 0 .226-.135c.059-.068.094-.154.1-.243.184-2.439.527-5.05.652-5.981l12.961-.221c.134.923.485 3.463.673 5.848.006.086.039.168.094.235a.42.42 0 0 0 .214.137c.083.022.172.018.253-.012a.42.42 0 0 0 .2-.156 1.4 1.4 0 0 1 1.317-.489c.359.084.577.376.648.869.079.906-.301 2.272-.937 2.711-.132.083-.286.127-.443.127a.84.84 0 0 1-.443-.127l-.092-.054-.058-.033a.42.42 0 0 0-.226-.071z" class="B"/><path d="M116.28 83.55l-.544 2.285-18.814.121-.468-2.343c-1.559-6.382 21.227-6.328 19.826-.063z" class="C"/><path d="M96.943 86.365l18.814-.121a.42.42 0 0 0 .419-.318l.547-2.293c.197-.881.08-2.164-1.589-3.279-3.854-2.577-13.876-2.548-17.559.046-1.254.89-1.773 2.03-1.459 3.304l.464 2.326a.42.42 0 0 0 .127.227c.065.06.148.098.237.108zm18.463-.952l-18.12.117-.418-2.009c-.234-.952.134-1.742 1.125-2.439 3.453-2.397 13.069-2.418 16.644-.037 1.024.685 1.438 1.491 1.254 2.402l-.485 1.967z" class="B"/><path d="M115.532 85.827s-2.747 3.154-9.554 3.154-8.834-3.074-8.834-3.074a33.06 33.06 0 0 1 18.388-.079z" class="C"/><path d="M109.862 92.618c-1.173 0-2.124-.482-2.124-1.078s.951-1.078 2.124-1.078 2.124.483 2.124 1.078-.951 1.078-2.124 1.078z" class="D"/><path d="M109.862 93.036c1.447 0 2.542-.643 2.542-1.495s-1.095-1.495-2.542-1.495-2.563.643-2.563 1.495 1.113 1.495 2.563 1.495zm0-2.155c1.058 0 1.706.418 1.706.66s-.648.66-1.706.66-1.71-.418-1.71-.66.648-.66 1.71-.66z" class="B"/><path d="M101.827 92.618c-1.173 0-2.124-.482-2.124-1.078s.951-1.078 2.124-1.078 2.123.483 2.123 1.078-.95 1.078-2.123 1.078z" class="D"/><path d="M101.827 93.036c1.45 0 2.542-.643 2.542-1.495s-1.092-1.495-2.542-1.495-2.543.643-2.543 1.495 1.092 1.495 2.543 1.495zm0-2.155c1.057 0 1.705.418 1.705.66s-.648.66-1.705.66-1.706-.418-1.706-.66.648-.66 1.706-.66zm8.035 1.007a.83.83 0 0 1-.828-.827.83.83 0 0 1 .828-.827.83.83 0 0 1 .586.242c.155.155.242.365.242.585s-.087.43-.242.585a.83.83 0 0 1-.586.242z" class="B"/><path d="M101.86 91.887c-.22 0-.43-.087-.585-.242s-.243-.365-.243-.585.087-.43.243-.585.365-.242.585-.242.43.087.585.242.243.365.243.585-.087.43-.243.585-.365.242-.585.242z" class="B"/><path d="M108.177 99.489a4.9 4.9 0 0 1-2.466.593c-.861-.022-1.7-.27-2.434-.718" class="C"/><path d="M105.794 100.516a5.4 5.4 0 0 0 2.601-.668c.084-.061.142-.151.163-.252a.42.42 0 0 0-.048-.296c-.052-.089-.135-.156-.234-.188s-.205-.025-.299.017a4.44 4.44 0 0 1-4.478-.125.42.42 0 0 0-.577.134c-.059.094-.078.208-.053.316s.093.202.187.26c.818.522 1.768.8 2.738.802z" class="B"/><path d="M105.38 93.249c-.054.921-.253 1.827-.589 2.686-.498 1.028 1.129 1.161 1.129 1.161" class="C"/><path d="M105.911 97.513a.42.42 0 0 0 .296-.114c.079-.075.126-.178.131-.288s-.034-.216-.108-.297-.176-.13-.285-.137c-.285-.021-.728-.146-.836-.317-.03-.05 0-.134.037-.242a9.12 9.12 0 0 0 .636-2.844.42.42 0 0 0-.104-.301c-.072-.083-.175-.134-.285-.142a.42.42 0 0 0-.402.235c-.024.05-.038.103-.041.158-.053.867-.24 1.721-.556 2.531-.087.156-.132.331-.132.51s.045.354.132.51c.351.618 1.296.723 1.484.739h.033zm8.433-16.824a.42.42 0 0 0 .222-.063c3.29-2.068 3.462-5.848 3.47-5.998a.42.42 0 0 0-.07-.233c-.046-.069-.111-.123-.188-.154a.42.42 0 0 0-.456.092.42.42 0 0 0-.122.295c0 .038-.172 3.496-3.082 5.321-.093.059-.159.153-.184.261a.42.42 0 0 0 .055.315c.041.054.095.097.157.126a.42.42 0 0 0 .198.037zm1.89 1.704c1.499-.027 2.981-.32 4.377-.865a.42.42 0 0 0 .213-.229.41.41 0 0 0-.006-.312c-.042-.099-.121-.179-.22-.221a.42.42 0 0 0-.313-.006c-1.294.498-2.665.768-4.051.798a.42.42 0 0 0-.4.418.42.42 0 0 0 .4.418zM98.52 80.689a.42.42 0 0 0 .339-.175.42.42 0 0 0 .056-.377.42.42 0 0 0-.156-.208c-2.559-1.754-2.709-5.087-2.709-5.121a.42.42 0 0 0-.133-.291c-.04-.037-.087-.067-.139-.086a.42.42 0 0 0-.161-.026c-.055.002-.109.015-.159.037s-.095.055-.132.095-.067.087-.086.139-.028.106-.026.161c0 .15.159 3.784 3.073 5.781.069.047.151.072.234.071zm-1.873 1.704a.42.42 0 0 0 .296-.122c.078-.078.122-.185.122-.295s-.044-.217-.122-.295a.42.42 0 0 0-.296-.122 12.02 12.02 0 0 1-4.055-.798.42.42 0 0 0-.327-.012c-.053.02-.1.05-.141.09a.42.42 0 0 0-.128.301c0 .056.011.112.034.163s.054.098.095.137.089.069.141.089a12.7 12.7 0 0 0 4.382.865zm.41 3.885c10.231-3.534 18.538-.121 18.622-.084l.648-1.541c-.36-.15-8.985-3.692-19.817.046l.548 1.579z" class="B"/><path d="M103.758 76.767l.498-2.823 2.207-.973h.021l2.249.973.498 2.819c.23 1.22-.523 1.721-2.718 3.091v.025h-.021v-.025c-2.211-1.366-2.955-1.867-2.734-3.087z" class="D"/><path d="M106.492 80.296h.063c.095-.011.184-.053.251-.121 2.145-1.345 3.119-1.976 2.835-3.479l-.498-2.815a.42.42 0 0 0-.242-.309l-2.145-.948c-.073-.046-.158-.071-.245-.071s-.171.025-.244.071l-2.154.952c-.062.028-.117.07-.16.124a.42.42 0 0 0-.082.185l-.498 2.815c-.284 1.508.695 2.139 2.835 3.479a.47.47 0 0 0 .092.067c.06.031.125.048.192.05zm1.865-6.056l.46 2.602c.163.86-.234 1.224-2.325 2.535-2.09-1.311-2.483-1.671-2.32-2.531l.456-2.602 1.864-.835 1.865.831z" class="B"/><path d="M94.318 205.12c.496-.001.981-.146 1.396-.418 1.886-1.223 1.672-3.972 1.672-4.302l.176-9.439a.42.42 0 0 0-.418-.418.42.42 0 0 0-.418.418l-.176 9.46c-.002.018-.002.036 0 .054 0 .026.255 2.548-1.275 3.538a1.67 1.67 0 0 1-.886.291c-.317.011-.63-.068-.904-.228-.891-.497-1.447-1.65-1.413-2.924v-1.996l.092-8.876c.054-1.575.477-2.682 1.254-3.283.293-.212.626-.364.978-.446a2.72 2.72 0 0 1 1.075-.034c.055.012.112.013.167.003s.108-.031.155-.062.088-.07.12-.116a.42.42 0 0 0 .066-.153.43.43 0 0 0-.328-.508 3.56 3.56 0 0 0-1.432.036c-.47.108-.913.311-1.302.595-.983.764-1.514 2.088-1.58 3.922l-.092 8.909v1.972c-.042 1.587.681 3.028 1.844 3.675a2.56 2.56 0 0 0 1.229.33z" class="C"/><path d="M88.966 197.699c.709.037 1.41-.169 1.986-.585.686-.543 1.037-1.458 1.037-2.719 0-.111-.044-.217-.123-.295s-.185-.123-.296-.123-.217.044-.296.123-.122.184-.122.295c0 .99-.242 1.671-.723 2.067-.794.631-2.203.418-3.478.113-1.927-.447-9.804-3.985-9.884-4.018-.076-.04-.163-.055-.248-.045a.42.42 0 0 0-.229.106c-.053.048-.092.109-.115.177s-.027.14-.014.21a.42.42 0 0 0 .09.19c.046.055.105.097.172.122.326.146 8.027 3.605 10.034 4.073.722.184 1.463.288 2.208.309zm4.674 7.571a2.73 2.73 0 0 0 .932-.137c.103-.04.187-.119.233-.22.034-.075.045-.159.031-.24s-.051-.157-.108-.217-.13-.102-.211-.121a.41.41 0 0 0-.242.017c-1.672.639-8.588-2.026-12.823-3.968-.088-.04-.187-.048-.28-.023a.42.42 0 0 0-.232.159c-.056.078-.084.174-.078.27a.42.42 0 0 0 .111.259c.037.04.082.072.133.095.999.459 9.093 4.126 12.534 4.126zm28.957.418c2.007 0 3.763-.593 4.976-1.708a4.35 4.35 0 0 0 1.526-3.133c0-.572.121-4.849.221-8.287l.113-3.988a14.65 14.65 0 0 0-.757-4.866c-.038-.104-.116-.189-.217-.235a.42.42 0 0 0-.32-.014c-.104.038-.189.116-.235.217a.42.42 0 0 0-.014.32c.486 1.468.725 3.006.707 4.553 0 .835-.067 2.313-.113 3.988l-.222 8.312c-.025.482-.15.953-.366 1.384s-.518.813-.888 1.122c-1.254 1.136-3.14 1.65-5.326 1.45-3.132-.289-2.885-4.486-2.873-4.662l-.221-9.665c0-.111-.044-.217-.123-.295s-.184-.122-.295-.122a.42.42 0 0 0-.296.122c-.078.078-.122.184-.122.295l.2 9.636c-.125 1.754.477 5.221 3.634 5.514a7.04 7.04 0 0 0 1.011.062z" class="C"/><path d="M124.684 192.565c.377-.005.753-.04 1.124-.104l.23-.033c1.61-.172 3.345-1.496 3.416-4.716 0-.111-.044-.217-.122-.295a.42.42 0 0 0-.296-.123c-.111 0-.217.044-.296.123s-.122.184-.122.295c-.071 3.366-2.057 3.838-2.668 3.901l-.267.038c-.619.096-1.769.271-2.559-.389-.585-.484-.903-1.37-.941-2.627-.138-4.615-2.688-5.522-2.797-5.559a.41.41 0 0 0-.203-.017.42.42 0 0 0-.348.442c.005.082.035.161.086.227a.42.42 0 0 0 .198.141c.096.034 2.09.806 2.228 4.791.046 1.508.464 2.598 1.255 3.245.595.458 1.332.691 2.082.66zm9.57-2.506a6.34 6.34 0 0 0 1.091-.104l.222-.029c.11-.012.212-.068.282-.155a.42.42 0 0 0-.065-.591.42.42 0 0 0-.309-.09l-.26.038c-.585.092-1.672.263-2.425-.359-.585-.485-.898-1.379-.936-2.661-.134-4.594-2.596-5.517-2.701-5.555a.42.42 0 0 0-.322.018.41.41 0 0 0-.131.099.39.39 0 0 0-.082.142c-.036.104-.03.218.018.318a.42.42 0 0 0 .237.212c.088.034 2.032.806 2.145 4.791.046 1.533.464 2.636 1.254 3.279.565.44 1.266.67 1.982.647zm-8.362-.042c-.476 0-.861-.49-.861-1.094s.385-1.094.861-1.094.861.489.861 1.094-.385 1.094-.861 1.094zm-37.754 4.954c-.476 0-.861-.49-.861-1.094s.386-1.095.861-1.095.861.49.861 1.095-.385 1.094-.861 1.094zm-9.867-4.022c-.476 0-.861-.49-.861-1.094s.386-1.095.861-1.095.861.49.861 1.095-.385 1.094-.861 1.094zm56.732-3.227c-.463-.039-.797-.558-.747-1.161s.466-1.059.929-1.021.797.559.746 1.161-.466 1.059-.928 1.021zm-28.766 9.813a53.12 53.12 0 0 0 12.125-1.319.43.43 0 0 0 .255-.196c.055-.096.07-.211.042-.318-.014-.053-.039-.103-.073-.147a.41.41 0 0 0-.123-.108.42.42 0 0 0-.155-.052c-.055-.008-.11-.004-.163.01a53.84 53.84 0 0 1-20.88.527.42.42 0 0 0-.317.07c-.045.032-.084.073-.114.12a.42.42 0 0 0-.06.154c-.01.055-.008.111.004.166a.43.43 0 0 0 .067.151c.032.045.073.084.12.114a.43.43 0 0 0 .154.06 51.7 51.7 0 0 0 9.118.768z" class="C"/><path d="M111.397 197.068c.11 0 .217-.044.295-.123s.123-.184.123-.295l-.13-5.927c0-.082-.025-.163-.071-.231s-.111-.122-.188-.154a.43.43 0 0 0-.241-.024c-.081.016-.155.056-.214.114-.038.038-.069.085-.09.135a.42.42 0 0 0-.032.16l.13 5.927c0 .111.044.217.122.295s.185.123.296.123zm-8.408 0a.42.42 0 0 0 .16-.032.43.43 0 0 0 .136-.09c.039-.039.069-.085.09-.136a.42.42 0 0 0 .032-.16l-.134-5.927a.42.42 0 0 0-.031-.16c-.021-.051-.052-.097-.091-.136a.43.43 0 0 0-.136-.09.42.42 0 0 0-.16-.032.42.42 0 0 0-.16.032.43.43 0 0 0-.136.09c-.039.039-.07.085-.091.136a.42.42 0 0 0-.031.16l.134 5.927c0 .111.044.217.122.295s.185.123.296.123zm3.34 35.152a.42.42 0 0 0 .418-.418v-15.65a.41.41 0 0 0-.069-.233.42.42 0 0 0-.188-.155c-.077-.031-.161-.04-.242-.023s-.156.057-.214.116c-.079.078-.123.184-.123.295v15.65c.001.111.045.217.123.295s.185.123.295.123z" class="C"/><path d="M155.99 144.431s-1.593 10.965-12.124 15.037c0-1.671 0-3.183-.882-4.419 1.764-.714 8.934-5.576 13.006-10.618z" class="B"/><path d="M107.437 121.935l-2.721-.167s1.693-1.061 2.324-4.01a9.07 9.07 0 0 1 .397 4.177z" class="C"/><path d="M79.638 181.263s-.932-3.246 2.475-8.814 2.011-8.504.309-7.1-2.32-1.253-.464-5.259-1.856-7.422-2.63-2.472.309 23.645.309 23.645zm-24.496-14.536s4.428 3.847 8.78 4.624c5.076.902 2.467-5.163-5.247-7.167-4.469-1.162-7.237-3.283-8.65-6.562 1.459 4.832 2.187 6.177 5.118 9.105z" class="B"/><path d="M108.608 84.386l2.216 3.889-3.031.618-2.747-4.465 3.562-.042zm-5.042.196l2.412 4.402-1.35-.092-2.392-4.198 1.33-.113z" class="D"/><path d="M105.982 89.398c6.916 0 9.75-3.166 9.867-3.3.047-.053.079-.118.093-.187a.42.42 0 0 0-.117-.386.41.41 0 0 0-.181-.104 33.4 33.4 0 0 0-18.617.084c-.063.018-.121.051-.168.095s-.085.1-.107.162-.03.127-.022.192.031.127.067.181c.088.138 2.233 3.262 9.185 3.262zm8.701-3.371c-1.07.835-3.813 2.535-8.701 2.535s-7.207-1.621-8.073-2.435c5.486-1.499 11.271-1.533 16.774-.096v-.004zm-7.91 107.06c.11 0 .217-.044.295-.123s.123-.184.123-.295l-.264-21.222a.42.42 0 0 0-.418-.418c-.111 0-.217.044-.295.122s-.123.185-.123.296l.263 21.226a.42.42 0 0 0 .124.293c.078.078.184.121.295.121zm8.19-101.81s-.498.075-.753.994l.753-.994z" class="B"/><path d="M114.21 92.689a.42.42 0 0 0 .262-.08c.076-.055.131-.135.157-.225.167-.61.418-.698.439-.698a.42.42 0 0 0 .269-.174c.063-.091.087-.204.067-.313s-.082-.206-.174-.269a.42.42 0 0 0-.313-.067c-.079 0-.778.15-1.095 1.299a.42.42 0 0 0 .146.441c.044.034.093.058.146.073l.096.012zm-17.242-1.412s.498.075.753.994l-.753-.994z" class="B"/><path d="M97.721 92.689h.113c.053-.014.103-.039.146-.073s.08-.076.107-.123.045-.1.052-.155.003-.11-.012-.163c-.322-1.149-1.016-1.286-1.095-1.299-.111-.019-.225.007-.317.071s-.155.163-.174.274a.42.42 0 0 0 .07.317.42.42 0 0 0 .12.114c.047.03.1.05.155.059.025 0 .276.121.418.697.03.086.086.16.162.21s.166.075.256.069z" class="B"/><path d="M149.727 325.805s-8.562-.614-12.68-5.847c1.191 3.972 4.979 7.422 12.68 5.847z" class="C"/><path d="M113.989 87.08c-3.031 3.408-8.404 5.012-15.804 2.899l.334-2.669s2.037 1.55 7.108 1.813 6.326-1.199 8.362-2.043z" class="B"/><path d="M69.947 322.84s-3.625 2.31-7.864 2.506c2.504 1.111 7.17-.196 7.864-2.506z" class="C"/></g></g><g clip-path="url(#J)"><g class="D"><path d="M218.267 251.855c-.972 0-1.943-.389-2.526-1.166l-5.051-6.605c-.972-1.36-.777-3.303.583-4.469 1.36-.971 3.302-.777 4.468.583l2.526 3.303 9.131-12.045c.971-1.36 3.108-1.555 4.468-.583s1.554 3.108.583 4.468l-11.657 15.348c-.583.777-1.554 1.166-2.525 1.166z"/><path d="M241.192 229.124c0-1.942-.778-3.885-2.332-5.439-1.36-1.36-3.303-2.332-5.44-2.332h-23.896c-1.942 0-3.885.777-5.439 2.332-1.36 1.359-2.332 3.302-2.332 5.439v23.896c0 1.943.777 3.886 2.332 5.44 1.359 1.36 3.302 2.332 5.439 2.332h24.091c1.942 0 3.885-.778 5.439-2.332s2.332-3.302 2.332-5.44v-23.896h-.194z"/><path d="M233.615 263.9h-23.896c-2.915 0-5.634-1.166-7.577-3.108s-3.109-4.663-3.109-7.577v-23.896c0-2.915 1.166-5.634 3.109-7.577s4.662-3.109 7.577-3.109h23.896c2.914 0 5.634 1.166 7.577 3.109s3.108 4.662 3.108 7.577v23.896c0 2.914-1.166 5.634-3.108 7.577s-4.663 3.108-7.577 3.108zm-23.896-39.244c-1.166 0-2.332.388-3.109 1.36-.777.777-1.36 1.943-1.36 3.108v23.896c0 1.166.389 2.332 1.36 3.109.777.777 1.943 1.36 3.109 1.36h23.896c1.165 0 2.331-.389 3.108-1.36.777-.777 1.36-1.943 1.36-3.109v-23.896c0-1.165-.388-2.331-1.36-3.108-.777-.777-1.943-1.36-3.108-1.36h-23.896z"/></g><path d="M218.655 252.243c-.971 0-1.748-.388-2.525-1.165l-6.994-8.549c-1.166-1.36-.972-3.302.388-4.468s3.303-.971 4.469.389l4.468 5.634 10.491-12.823c1.166-1.36 3.109-1.554 4.468-.388s1.555 3.108.389 4.468l-12.822 15.931c-.583.583-1.36.971-2.332.971z" class="C"/></g><g clip-path="url(#K)" class="B"><path d="M272.594 108.704c-.294 0-.575-.117-.782-.325a1.11 1.11 0 0 1-.324-.784V93.218h-14.344c-.294 0-.575-.117-.782-.325a1.11 1.11 0 0 1 0-1.568 1.1 1.1 0 0 1 .782-.325h15.45c.293 0 .575.117.782.325a1.11 1.11 0 0 1 .324.784v15.486a1.11 1.11 0 0 1-.324.784c-.207.208-.489.325-.782.325zm-102.088 0c-.293 0-.575-.117-.782-.325a1.11 1.11 0 0 1-.324-.784V92.109a1.11 1.11 0 0 1 .324-.784c.207-.208.489-.325.782-.325h15.45a1.1 1.1 0 0 1 .782.325 1.11 1.11 0 0 1 0 1.568c-.207.208-.488.325-.782.325h-14.344v14.377a1.11 1.11 0 0 1-.324.784c-.207.208-.488.325-.782.325zm102.088 94.763h-15.45c-.294 0-.575-.117-.782-.325a1.11 1.11 0 0 1 0-1.568c.207-.208.488-.325.782-.325h14.344v-14.378a1.11 1.11 0 0 1 .324-.784 1.1 1.1 0 0 1 .782-.324c.293 0 .575.116.782.324a1.11 1.11 0 0 1 .324.784v15.487a1.11 1.11 0 0 1-.324.784c-.207.208-.489.325-.782.325zm-86.638 0h-15.45c-.293 0-.575-.117-.782-.325a1.11 1.11 0 0 1-.324-.784v-15.487a1.11 1.11 0 0 1 .324-.784c.207-.208.489-.324.782-.324a1.1 1.1 0 0 1 .782.324 1.11 1.11 0 0 1 .324.784v14.378h14.344c.294 0 .575.117.782.325a1.11 1.11 0 0 1 0 1.568c-.207.208-.488.325-.782.325z"/></g><defs><clipPath id="E"><path transform="matrix(-1 0 0 -1 330.4 315.933)" d="M0 0h310.1v293.533H0z" class="D"/></clipPath><clipPath id="F"><path transform="translate(143.733 33.133)" d="M0 0h155.633v297.033H0z" class="D"/></clipPath><clipPath id="G"><path transform="matrix(0 1 -1 0 283.15 61.7167)" d="M0 0h224.233v129.033H0z" class="D"/></clipPath><clipPath id="H"><path transform="translate(192.267 103.833)" d="M0 0h61.367v86.8H0z" class="D"/></clipPath><clipPath id="I"><path transform="matrix(-1 0 0 1 161.233 69.7667)" d="M0 0h112.467v260.633H0z" class="D"/></clipPath><clipPath id="J"><path transform="translate(199.033 218.633)" d="M0 0h45.267v45.267H0z" class="D"/></clipPath><clipPath id="K"><path transform="translate(169.4 91)" d="M0 0h104.3v112.467H0z" class="D"/></clipPath></defs></svg>