<svg xmlns="http://www.w3.org/2000/svg" xmlns:xlink="http://www.w3.org/1999/xlink" width="350" height="350" fill="none" xmlns:v="https://vecta.io/nano"><style><![CDATA[.B{fill:#fff}.C{fill:#232323}.D{fill:#ff8707}]]></style><g clip-path="url(#G)"><g class="C"><path d="M176.047 143.196c-6.003 5.556-15.335 32.101-15.335 32.101s-10.487-5.247-16.162-6.073c-.5-.086-1-.12-1.501-.103-.379-1.944-1.276-3.819-2.38-5.539-1.984-3.045-4.64-5.557-6.33-6.968-7.228-6.004-1.501-20.489 10.108-18.166-1.76-7.793 9.659-15.363 17.007-7.553 2.191-3.01 5.623-4.232 8.28-4.146 7.003.224 13.816 9.514 6.313 16.447z"/><path d="M160.712 175.813a.63.63 0 0 0 .19-.034.52.52 0 0 0 .293-.31c.087-.258 9.349-26.493 15.197-31.895 3.174-2.924 4.209-6.692 2.846-10.322-1.484-3.939-5.468-6.898-9.487-7.019-2.363-.068-5.899.895-8.366 3.854-4.002-3.888-8.831-3.475-12.091-1.755-3.778 1.996-5.951 5.798-5.503 9.462-6.106-.895-10.177 2.666-11.971 6.417-1.035 2.15-1.431 4.559-1.121 6.778.345 2.425 1.466 4.507 3.278 6.004 1.448 1.204 4.174 3.681 6.209 6.812 0 .017.017.017.017.035 1.191 1.84 1.984 3.647 2.312 5.35.052.241.276.413.517.413.466 0 .949.034 1.415.103 5.537.791 15.903 5.969 16.007 6.021a.45.45 0 0 0 .258.086zm14.99-32.996c-5.623 5.196-13.868 27.818-15.266 31.757-2.225-1.083-10.763-5.126-15.8-5.866-.379-.051-.776-.103-1.155-.103-.397-1.703-1.19-3.475-2.346-5.264 0-.017-.017-.017-.017-.035-2.122-3.268-4.951-5.849-6.434-7.087-1.604-1.342-2.622-3.183-2.915-5.351-.276-2.03.086-4.232 1.017-6.193 1.708-3.544 5.641-6.916 11.574-5.728.173.034.345-.018.466-.138s.173-.31.138-.482c-.776-3.423 1.225-7.156 4.847-9.066 3.036-1.6 7.59-1.927 11.281 1.978.103.104.259.173.414.155s.293-.086.379-.206c2.191-3.011 5.589-3.991 7.831-3.922 3.623.12 7.228 2.786 8.556 6.348.707 1.892 1.328 5.608-2.57 9.203z"/></g><path d="M196.849 167.521c1.501 2.409 1.518 5.712-.345 8.567-4.881 7.415-17.094 10.116-17.094 10.116l5.192 26.114s-15.99 11.32-38.982 1.549c0 0 3.398-16.687 6.537-27.921-5.192 1.858-13.316.069-15.61-6.709-1.38-4.06 1.138-9.221 5.623-10.116 4.346-.86 6.951.654 11.729 2.374 4.433 1.617 4.364-.533 4.312-5.23-.034-4.163 1.018-8.378 2.087-10.941 2.415-5.815 10.264-9.978 15.766-12.128 2.053 3.956 4.364 7.758 6.917 11.423 4.433 6.417 10.349 7.277 13.868 12.902z" class="B"/><g class="C"><path d="M175.564 144.503c-2.243.929-5.227 2.34-7.969 4.232-3.209 2.219-5.347 4.559-6.365 6.985-.949 2.27-2.053 6.399-2.018 10.545v.172c.017 2.89.034 4.8-1.035 5.884-.5.499-1.156.757-1.984.757-.724 0-1.569-.189-2.691-.585l-2.242-.843c-2.605-.998-4.485-1.72-6.693-1.72-.724 0-1.449.068-2.225.223-1.725.344-3.208 1.445-4.157 3.114-1.017 1.772-1.276 3.888-.672 5.66.724 2.133 2.173 3.888 4.174 5.075 1.794 1.049 4.019 1.634 6.261 1.634 1.363 0 2.708-.224 3.847-.636.12-.035.224-.069.345-.069a1.07 1.07 0 0 1 .707.275c.138.129.238.294.29.476a1.03 1.03 0 0 1 .003.556c-2.708 9.651-5.623 23.5-6.348 27.009 5.813 2.374 11.695 3.561 17.456 3.561 6.279 0 11.316-1.445 14.421-2.666 2.328-.912 3.967-1.824 4.76-2.305l-5.036-25.427a1.03 1.03 0 0 1 .793-1.204c.121-.034 11.85-2.701 16.456-9.668 1.587-2.409 1.707-5.247.345-7.449-1.622-2.598-3.864-4.146-6.21-5.798-2.605-1.806-5.278-3.681-7.641-7.07a103.66 103.66 0 0 1-6.572-10.718zm.483-1.376c2.052 3.957 4.364 7.845 6.917 11.492 4.45 6.434 10.366 7.294 13.885 12.902 1.501 2.409 1.518 5.712-.345 8.567-4.881 7.415-17.094 10.116-17.094 10.116l5.192 26.114s-7.814 5.523-20.354 5.523c-5.416 0-11.712-1.033-18.628-3.974 0 0 3.398-16.688 6.537-27.921-1.277.447-2.708.688-4.209.688-4.605 0-9.677-2.271-11.419-7.398-1.38-4.059 1.139-9.22 5.624-10.115.862-.172 1.69-.482 2.449-.482 3.053 0 5.468 1.256 9.28 2.65.983.361 1.621.464 2.208.464 2.07 0 1.966-1.858 1.932-5.505-.035-4.163.948-8.55 2.018-11.13 2.415-5.815 10.504-9.841 16.007-11.991z"/><path d="M161.454 159.315c-1.621-3.062-.362-7.328 2.691-8.98 1.328-.808 4.726-1.239 4.381 1.153-.724 1.428-1.794 2.546-2.587 3.888-.932 1.118-2.501 6.313-4.485 3.939zm3.795 2.374c1.018-.826 3.501-2.752 5.364-5.333.259-.361.759-.447 1.121-.189.932.688 2.26 2.047.742 3.664-1.845 1.979-5.882 3.131-7.175 2.564a.43.43 0 0 1-.207-.551l.155-.155zm14.386-10.253c-1.07.74-1.984 1.084-4.226 1.927a.82.82 0 0 0-.501 1.032c.397 1.084 1.432 1.858 3.174 1.187 1.932-.74 2.38-2.684 2.191-3.871-.035-.223-.259-.378-.483-.344-.052.017-.104.035-.155.069z"/></g><mask id="A" maskUnits="userSpaceOnUse" x="136" y="143" width="62" height="74"><path d="M196.849 167.521c1.501 2.409 1.518 5.712-.345 8.567-4.881 7.415-17.094 10.116-17.094 10.116s2.329 13.487 4.64 24.497c0 0-15.455 11.458-38.43 1.686 0 0 3.398-15.225 6.537-26.458-5.192 1.858-13.316.068-15.61-6.71-1.38-4.06 1.138-9.221 5.623-10.115 4.346-.86 6.951.654 11.729 2.374 4.433 1.617 4.364-.533 4.312-5.23-.034-4.163 1.018-8.378 2.087-10.941 2.415-5.815 10.264-9.978 15.766-12.128a102.77 102.77 0 0 0 6.917 11.422c4.433 6.434 10.349 7.295 13.868 12.92z" class="B"/></mask><g mask="url(#A)" class="C"><path d="M181.687 144.968c-2.104-2.323-6.123-2.581-8.486-.499-1.104.877-2.501 3.63-.38 4.077 1.449-.172 2.726-.74 4.105-.981 1.277-.464 6.124-.137 4.761-2.597zm-2.104 40.668s-7.279 1.703-11.816.103c-.897 1.291 2.76 9.342 13.782 7.759 8.469-1.221-1.966-7.862-1.966-7.862z"/><path d="M178.772 194.221a21.49 21.49 0 0 0 2.863-.207c2.243-.327 3.45-1.049 3.709-2.202.569-2.649-4.864-6.21-5.485-6.606-.121-.069-.259-.103-.397-.069-.069.017-7.193 1.652-11.522.121-.224-.086-.466 0-.604.189-.466.671-.172 2.081.725 3.509.845 1.342 3.863 5.265 10.711 5.265zm.707-8.034c2.105 1.376 5.158 3.956 4.847 5.401-.189.843-1.638 1.222-2.846 1.394-2.052.292-9.004.843-12.436-4.404-.621-.946-.845-1.72-.88-2.168 4.209 1.204 10.108.052 11.315-.223z"/></g><path d="M180.48 161.414a.42.42 0 0 0 .362-.206c.742-1.377.949-2.306.655-3.011-.362-.912-1.414-1.273-2.639-1.703-2.708-.946-3.001-2.357-3.018-2.374-.035-.224-.242-.361-.466-.327s-.362.241-.328.464c.018.069.328 1.893 3.554 3.011 1.19.413 1.949.705 2.138 1.221.173.465-.017 1.222-.62 2.34-.104.189-.035.447.172.551a.63.63 0 0 0 .19.034zm-.914 10.236c-1.104-1.858-.535-4.817 1.552-5.729 3.053-.894.69 8.43-1.552 5.729zm-26.374 7.105c.121 0 .241-.035.328-.121a.5.5 0 0 0 .069-.722c-.052-.069-1.346-1.6-3.519-2.632-2.018-.964-5.227-1.669-8.952.464-.242.138-.328.465-.19.706a.53.53 0 0 0 .707.189c6.365-3.664 10.953 1.703 11.143 1.927.121.12.259.189.414.189zm-1.208 7.225c.052 0 .104 0 .138-.017 2.484-.705 3.899-1.755 3.968-1.806a.52.52 0 0 0 .103-.723c-.172-.224-.5-.275-.724-.103-.018.017-1.363.998-3.623 1.634a.53.53 0 0 0-.362.637.51.51 0 0 0 .5.378z" class="C"/><mask id="B" maskUnits="userSpaceOnUse" x="131" y="126" width="49" height="50"><path d="M176.047 143.196c-6.003 5.556-15.335 32.101-15.335 32.101s-10.487-5.247-16.162-6.073c-.5-.086-1-.12-1.501-.103-.379-1.944-1.276-3.819-2.38-5.539-1.984-3.045-4.64-5.557-6.33-6.968-7.228-6.004-1.501-20.489 10.108-18.166-1.76-7.793 9.107-15.931 16.973-8.327 2.19-3.01 5.657-3.458 8.314-3.372 7.003.224 13.816 9.514 6.313 16.447z" class="B"/></mask><g mask="url(#B)" class="B"><path d="M158.798 137.691a.52.52 0 0 0 .517-.516c.069-6.245 4.157-9.6 4.192-9.634.224-.172.259-.499.086-.723a.52.52 0 0 0-.724-.086c-.19.155-4.502 3.665-4.589 10.425 0 .293.225.534.518.534z"/></g><path d="M100.945 290.18l-5.899 21.539-4.968 18.614c16.852 3.578 43.709 5.883 73.964 5.883 17.818 0 34.446-.808 48.555-2.185l.535-.051c6.814-.688 13.023-1.497 18.474-2.426l-2.45-20.472-1.793-17.513s-14.162-62.344-43.33-82.868c0 0-8.072 5.213-18.767 5.557-11.574.378-19.664-3.871-19.664-3.871-11.556 9.892-38.637 57.545-44.657 77.793z" class="D"/><mask id="C" maskUnits="userSpaceOnUse" x="60" y="201" width="213" height="136"><path d="M78.711 304.27c.224-.121 13.748-5.643 22.234-14.09l-5.899 21.539-4.968 18.614c16.852 3.578 43.709 5.883 73.964 5.883 17.818 0 34.446-.808 48.555-2.185l.535-.051c6.814-.671 13.006-1.497 18.474-2.426l-2.449-20.472-1.794-17.513s7.727 7.329 13.368 10.339c-5.279-4.128 10.746-47.721 31.272-69.346 0 0-49.556-54.31-87.987-23.861 0 0-15.455 11.458-38.431 1.686-8.107-6.193-30.151-28.746-84.779 21.607 16.404 15.604 27.512 62.964 17.904 70.276z" class="B"/></mask><g mask="url(#C)" class="B"><path d="M154.658 238.106c1.501 0 2.881-.55 4.123-1.617 2.449-2.133 4.346-6.296 5.64-12.404.483-2.253.776-4.369.966-5.918.586 1.738 1.466 4.215 2.605 6.813 2.846 6.503 5.813 10.58 8.814 12.094 1.518.774 3.036.877 4.536.327 9.142-3.389 3.002-26.304 2.726-27.285-.069-.275-.363-.43-.639-.361s-.431.361-.362.637c.017.051 1.587 5.883 2.07 12.025.431 5.522.069 12.438-4.174 14.02-1.225.448-2.432.362-3.691-.275-6.693-3.389-11.609-20.541-11.661-20.713-.069-.24-.293-.395-.552-.378-.258.034-.448.224-.465.482-.018.154-1.018 15.414-6.486 20.162-1.173 1.015-2.432 1.462-3.829 1.359-1.863-.138-3.45-1.067-4.709-2.718-2.156-2.856-2.915-7.243-3.191-10.425-.311-3.768-.087-8.017.603-11.337a.51.51 0 0 0-.396-.602c-.276-.052-.552.12-.604.395-1.277 6.142-1.277 17.221 2.76 22.588 1.449 1.91 3.277 2.976 5.45 3.131h.466z"/></g><mask id="D" maskUnits="userSpaceOnUse" x="60" y="201" width="213" height="136"><path d="M78.711 304.27c.224-.121 13.748-5.643 22.234-14.09l-5.899 21.539-4.968 18.614c16.852 3.578 43.709 5.883 73.964 5.883 17.818 0 34.446-.808 48.555-2.185l.535-.051c6.814-.671 13.006-1.497 18.474-2.426l-2.449-20.472-1.794-17.513s7.727 7.329 13.368 10.339c-5.279-4.128 10.746-47.721 31.272-69.346 0 0-49.556-54.31-87.987-23.861 0 0-15.455 11.458-38.431 1.686-8.107-6.193-30.151-28.746-84.779 21.607 16.404 15.604 27.512 62.964 17.904 70.276z" class="B"/></mask><g mask="url(#D)" class="B"><path d="M163.024 261.33c.052 0 .086 0 .138-.017 5.278-1.41 8.228-3.784 7.693-11.75-.328-4.748-2.122-14.777-3.553-22.828-1.053-5.849-1.95-10.907-2.019-12.387a.53.53 0 0 0-.534-.499.53.53 0 0 0-.5.534c.069 1.548.983 6.64 2.035 12.524 1.432 8.034 3.225 18.029 3.553 22.725.5 7.346-1.949 9.359-6.934 10.683a.51.51 0 0 0-.362.637c.052.224.259.378.483.378z"/></g><g class="B"><path d="M164.818 237.573a1.14 1.14 0 0 1-1.139-1.136c0-.627.51-1.135 1.139-1.135s1.138.508 1.138 1.135a1.14 1.14 0 0 1-1.138 1.136zm1.138 14.296c-.629 0-1.138-.509-1.138-1.136s.509-1.135 1.138-1.135 1.139.508 1.139 1.135a1.14 1.14 0 0 1-1.139 1.136z"/></g><g class="C"><path d="M60.824 233.994c17.525 16.154 28.219 65.528 17.904 70.276-9.815 4.524-20.733-34.94-17.904-70.276z"/><path d="M77.158 305.147a4.13 4.13 0 0 0 1.777-.413c2.018-.929 3.364-3.354 3.967-7.208 1.207-7.569-.552-20.111-4.554-32.738-4.381-13.78-10.643-25.151-17.18-31.172a.51.51 0 0 0-.535-.103c-.19.069-.31.241-.328.447-1.121 14.107-.103 30.226 2.812 44.195 2.777 13.333 6.969 23.052 11.177 25.994.949.671 1.915.998 2.863.998zM61.255 235.13c6.123 6.073 11.954 16.911 16.111 29.985 3.967 12.49 5.692 24.842 4.519 32.273-.552 3.441-1.708 5.66-3.381 6.434-1.173.534-2.346.379-3.622-.498-8.038-5.609-15.8-37.968-13.627-68.194z"/></g><path d="M11.181 257.202c3.381 39.481 38.465 40.341 60.389 32.393l1.294-.481c3.812-1.48 7.176-3.217 9.832-5.041 2.449-34.062-21.509-49.82-21.872-50.061l-8.78 8.739c2.363-26.958-1.587-54.397 6.9-84.279 2.846-8.945-3.312-8.12-8.193-.86 1.035-2.58-24.062 5.677-21.251 11.836-.103.241-.19.499-.259.757a4.48 4.48 0 0 0-.242.499c-6.486 13.435-20.751 52.401-17.818 86.498z" class="B"/><path d="M49.508 294.085c7.935 0 15.8-1.651 22.234-3.991l1.311-.482c3.778-1.462 7.21-3.234 9.935-5.109.121-.086.207-.224.224-.396.569-7.844-.224-15.362-2.363-22.347a55.71 55.71 0 0 0-7.624-15.706c-5.744-8.258-11.867-12.318-12.126-12.49-.017-.017-.035-.017-.052-.034-.207-.103-.449-.052-.604.103l-7.779 7.742c.69-8.654.759-17.186.845-26.201.155-18.115.311-36.866 5.916-56.581 1.587-4.989.259-6.503-.673-6.933-1.966-.946-5.227 1.118-8.055 5.057-1.57-.55-6.52 1.136-8.072 1.704-2.191.791-7.641 2.907-11.108 5.728-2.346 1.893-3.226 3.682-2.622 5.299-.069.189-.138.361-.19.55-.069.155-.155.31-.224.465-3.467 7.225-8.555 20.368-12.454 35.628-4.864 19.027-6.675 36.23-5.399 51.179 1.242 14.417 6.727 24.825 16.3 30.932 6.727 4.232 14.679 5.883 22.579 5.883zm32.687-10.304c-2.622 1.772-5.916 3.457-9.522 4.851l-1.276.482c-12.626 4.593-30.789 6.52-43.864-1.807-9.297-5.918-14.627-16.068-15.835-30.14-1.259-14.605.604-32.187 5.364-50.835 3.881-15.174 8.935-28.248 12.385-35.439.086-.172.155-.327.241-.482.017-.034.017-.051.035-.086.069-.241.155-.464.241-.705a.57.57 0 0 0 0-.413c-.466-1.015.017-2.219 1.449-3.578 2.07-1.979 6.003-4.146 10.798-5.953 4.157-1.565 7.21-2.167 8.021-2.047.017.172.121.327.276.413a.52.52 0 0 0 .673-.172c3.07-4.559 6.02-5.832 7.158-5.299 1.052.499 1.104 2.65.121 5.712-5.64 19.87-5.796 38.673-5.951 56.874-.086 9.479-.155 18.425-.966 27.525-.017.224.104.413.293.516a.53.53 0 0 0 .587-.103l8.469-8.43c1.38.964 6.555 4.886 11.505 11.974 3.295 4.731 5.796 9.909 7.486 15.414 2.035 6.795 2.829 14.107 2.311 21.728z" class="C"/><path d="M47.749 162.67l-2.363 5.935 2.363-5.935z" class="B"/><path d="M45.386 169.121a.52.52 0 0 0 .483-.327l2.363-5.935a.53.53 0 0 0-.293-.671.53.53 0 0 0-.673.293c0 .017-.656 1.685-2.363 5.935-.104.258.017.567.293.671.052.017.121.034.19.034z" class="C"/><path d="M31.707 171.134c-1.501.275-4.036-3.957-4.209-9.445-.155-4.851 4.744-7.277 5.106-2.873.448 5.282 1.311 11.922-.897 12.318z" class="B"/><path d="M31.587 171.65c.086 0 .155 0 .224-.017 2.432-.43 1.966-5.609 1.483-11.079l-.155-1.789c-.172-2.134-1.345-2.839-2.398-2.787-1.863.103-3.846 2.477-3.76 5.711.103 3.355 1.328 7.793 3.364 9.445.5.413.931.516 1.242.516zm.034-1.032c-.138.034-.362-.069-.604-.276-1.156-.928-2.846-4.249-2.984-8.687-.052-1.824 1-4.542 2.777-4.645h.069c.983 0 1.19 1.273 1.242 1.841l.155 1.789c.328 3.871.845 9.72-.655 9.978z" class="C"/><path d="M35.985 168.983c-.949.121-3.502-2.442-3.864-11.904-.207-5.213 6.365-7.415 6.296-2.185-.103 6.262.19 13.745-2.432 14.089z" class="B"/><path d="M35.916 169.517c.052 0 .104 0 .138-.018 2.777-.378 2.812-6.244 2.846-12.472l.017-2.116c.017-1.514-.483-2.632-1.432-3.182-.931-.534-2.156-.431-3.294.258-1.328.791-2.691 2.563-2.587 5.126.328 8.602 2.38 11.217 3.26 11.939.414.361.793.465 1.052.465zm0-1.033c-.034 0-.207-.034-.448-.275-.587-.533-2.518-2.89-2.829-11.147-.086-2.116 1.035-3.544 2.104-4.198.811-.499 1.656-.585 2.242-.241.621.344.931 1.136.914 2.271-.017.705-.017 1.411-.017 2.133-.052 4.989-.086 11.199-1.966 11.457z" class="C"/><path d="M41.229 167.039c-.759-.258-2.777-2.941-2.812-12.128-.035-8.034 7.865-9.341 7.607-3.268-.259 6.244-2.294 16.222-4.795 15.396z" class="B"/><path d="M41.522 167.59c.259 0 .569-.069.914-.31 1.069-.739 2.035-2.89 2.846-6.417a53.07 53.07 0 0 0 1.259-9.238c.069-1.806-.518-3.182-1.656-3.87-1.035-.637-2.415-.603-3.657.103-2.104 1.17-3.346 3.802-3.329 7.019.034 9.135 2.018 12.231 3.174 12.627.121.069.276.086.448.086zm1.69-19.233a2.27 2.27 0 0 1 1.121.292c.811.499 1.225 1.548 1.173 2.959-.293 7.139-2.208 13.849-3.657 14.847-.224.154-.362.137-.448.103-.172-.052-.776-.62-1.363-2.409-.5-1.514-1.087-4.352-1.104-9.238-.017-2.838 1.035-5.126 2.794-6.124.483-.293 1-.43 1.483-.43z" class="C"/><path d="M46.214 163.134c-1.087-.499-1.915-3.578-1.363-11.715.552-8.172 9.625-6.021 8.021.31-1.552 6.055-4.709 12.3-6.658 11.405z" class="B"/><path d="M46.61 163.736c.224 0 .483-.051.776-.189 2.225-1.066 4.743-6.83 5.985-11.698.535-2.099.035-3.991-1.38-5.195-1.242-1.067-3.001-1.359-4.467-.74-1.846.757-3.001 2.77-3.191 5.488-.5 7.38.052 11.491 1.656 12.231.172.035.362.103.621.103zm2.536-17.134a3.38 3.38 0 0 1 2.191.809c1.104.946 1.483 2.46 1.052 4.163-1.345 5.298-3.795 10.236-5.434 11.027-.276.12-.414.086-.5.052-.293-.138-1.725-1.308-1.052-11.217.155-2.357 1.069-3.991 2.553-4.593a3.06 3.06 0 0 1 1.19-.241z" class="C"/><path d="M78.331 305.027c.224-.121 14.144-6.383 22.614-14.847 0 0 24.648-27.129 35.17-46.053 7.676-13.797 9.487-31.74 9.487-31.74-8.107-6.193-30.91-28.764-85.555 21.59 16.387 15.604 27.892 63.721 18.284 71.05z" class="D"/><mask id="E" maskUnits="userSpaceOnUse" x="60" y="201" width="91" height="104"><path d="M78.711 304.27c.224-.121 13.748-5.643 22.234-14.09l-2.777 10.03c-1.501 5.591 70.41-78.051 47.434-87.823-8.107-6.193-30.151-28.746-84.779 21.607 16.387 15.604 27.495 62.964 17.887 70.276z" class="B"/></mask><g mask="url(#E)" class="B"><path d="M100.1 292.296a.53.53 0 0 0 .379-.155c8.78-9.117 19.457-22.863 19.56-23 .173-.224.138-.551-.086-.723a.52.52 0 0 0-.724.086c-.104.138-10.764 13.849-19.492 22.932-.19.206-.19.533.017.723.086.086.224.137.346.137z"/></g><g class="C"><path d="M49.87 253.623c.224 0 .431-.155.5-.378 1.363-4.817 2.225-10.615 2.242-10.666.035-.275-.155-.551-.431-.585s-.552.155-.587.43c0 .052-.862 5.78-2.208 10.528-.086.276.086.568.362.637.035.017.086.034.121.034zm222.15-19.061c-10.366 2.443-48.452 57.923-31.272 69.346 6.227 4.129 37.12-15.224 31.272-69.346z"/><path d="M242.852 304.958c1.949 0 4.45-.843 7.107-2.443 6.761-4.094 12.988-11.939 17.111-21.539 2.57-5.986 4.364-12.696 5.33-19.904 1.104-8.188 1.138-17.117.121-26.544-.018-.155-.087-.276-.207-.362s-.276-.12-.414-.086c-4.571 1.084-13.058 11.045-19.44 20.438-8.573 12.627-14.455 25.168-16.111 34.441-1.345 7.5.035 12.679 4.123 15.397.621.395 1.432.602 2.38.602zm28.72-69.708c.931 9.101.88 17.737-.19 25.668-.949 7.122-2.725 13.728-5.261 19.646-1.914 4.455-7.365 15.414-16.697 21.074-3.553 2.15-6.848 2.873-8.4 1.858-3.709-2.461-4.951-7.295-3.674-14.348 1.621-8.997 7.589-21.71 15.955-34.045 7.072-10.408 14.42-18.356 18.267-19.853z"/></g><path d="M243.801 276.314c-.017 2.065.103 4.129.345 6.176.034.018.069.052.121.069 2.414 1.531 5.519 2.942 9.055 4.095l1.311.412.173.052c22.165 6.606 59.509 3.458 61.837-36.987 2.484-43.008-22.078-86.635-22.199-86.876 2.536-6.279-19.474-26.132-20.164-21.659-.863 1.376-1.38 8.085-1.967 13.281-5.209-7.036-10.383-9.118-7.779-1.273 9.798 29.469 7.072 57.063 10.626 83.883l-3.14-2.925s-5.726 2.477-12.005 7.914c-7.641 6.606-16.093 17.581-16.214 33.838z" class="B"/><path d="M273.521 290.335l4.312-.155c8.987-.619 17.025-3.251 23.235-7.586 9.831-6.882 15.248-17.789 16.093-32.428.552-9.617-.207-20.025-2.26-30.984-1.656-8.825-4.157-18.029-7.417-27.353-5.226-14.88-10.815-25.564-12.471-28.626.5-1.617.086-5.316-6.761-12.782-4.071-4.438-11.212-10.649-13.627-9.926-.431.137-.725.447-.828.912-.673 1.221-1.087 4.851-1.639 10.184l-.207 1.944c-2.725-3.406-5.968-6.193-7.71-5.299-1.156.585-1.207 2.443-.19 5.505 6.469 19.457 7.469 38.174 8.418 56.272.483 8.997.931 17.513 2.001 26.115l-2.105-1.944c-.155-.138-.362-.172-.552-.104-.052.018-5.864 2.564-12.143 8-7.417 6.417-16.266 17.547-16.387 34.217-.017 2.082.104 4.181.345 6.228a.51.51 0 0 0 .242.378l.103.069c2.467 1.566 5.641 2.993 9.177 4.163l1.328.413c.069.017.121.035.19.052 5.951 1.789 12.523 2.735 18.853 2.735zm1.587-148.877c1.638 0 7.262 4.095 12.367 9.668 4.847 5.282 7.314 9.858 6.486 11.94a.49.49 0 0 0 .017.412 1.49 1.49 0 0 0 .086.155c1.605 2.925 7.211 13.608 12.454 28.558 3.243 9.255 5.727 18.407 7.366 27.181 2.035 10.872 2.794 21.211 2.242 30.725-.828 14.313-6.089 24.962-15.645 31.636-6.054 4.232-13.903 6.796-22.7 7.415-7.503.516-15.593-.378-22.82-2.529l-.155-.051h-.018c-.431-.138-.879-.258-1.293-.413-3.416-1.119-6.469-2.495-8.849-3.991a47.48 47.48 0 0 1-.31-5.867c.12-16.274 8.779-27.181 16.041-33.443 5.33-4.61 10.315-7.105 11.574-7.69l2.898 2.684a.5.5 0 0 0 .587.086c.189-.103.31-.31.276-.533-1.208-9.049-1.674-17.978-2.174-27.457-.966-18.166-1.966-36.952-8.469-56.53-.932-2.786-.742-4.042-.311-4.266.794-.413 3.623 1.222 7.193 6.021.121.172.345.241.552.189s.362-.223.38-.447l.345-3.234c.431-4.146.914-8.825 1.535-9.84.034-.052.069-.121.069-.19.017-.172.069-.172.121-.189.017.017.086 0 .155 0z" class="C"/><path d="M227.38 293.569s7.969 8.103 13.609 11.114c-5.278-4.129 11.195-48.582 31.738-70.19 0 0-50.246-54.241-88.694-23.792 0 0 3.829 12.954 17.629 38.931 11.66 21.952 13.109 28.73 25.718 43.937z" class="D"/><mask id="F" maskUnits="userSpaceOnUse" x="90" y="210" width="142" height="127"><path d="M100.945 290.18l-5.899 21.539-4.968 18.614c16.852 3.578 43.709 5.883 73.964 5.883 17.818 0 34.446-.808 48.555-2.185l.535-.051c6.814-.688 13.023-1.497 18.474-2.426l-2.45-20.472-1.793-17.513s-14.162-62.344-43.33-82.868c0 0-8.072 5.213-18.767 5.557-11.574.378-19.664-3.871-19.664-3.871-11.556 9.892-38.637 57.545-44.657 77.793z" class="B"/></mask><g mask="url(#F)" class="B"><path d="M228.053 295.737a.47.47 0 0 0 .345-.138c.207-.189.241-.516.051-.722-.103-.121-10.711-12.146-16.438-25.169a.52.52 0 0 0-.69-.258c-.259.121-.379.413-.259.688 5.796 13.178 16.508 25.306 16.611 25.427.086.12.242.172.38.172z"/></g><path d="M272.314 154.877s3.346 4.094 6.675 10.287l-6.675-10.287z" class="B"/><path d="M278.989 165.68a.4.4 0 0 0 .241-.068c.259-.138.345-.448.207-.706-3.312-6.159-6.692-10.339-6.727-10.373-.172-.224-.5-.258-.724-.069-.225.172-.259.499-.069.722.034.035 3.346 4.146 6.623 10.219a.5.5 0 0 0 .449.275zm-1.259 83.058c.051 0 .103 0 .155-.018.276-.086.431-.361.345-.636-1.863-6.228-2.553-10.855-2.57-10.907a.51.51 0 1 0-1.018.155c0 .051.725 4.748 2.605 11.044.051.224.258.362.483.362z" class="C"/><path d="M291.753 166.386c1.449.499 4.606-3.286 5.623-8.671.897-4.765-3.57-7.913-4.605-3.612-1.242 5.143-3.122 11.56-1.018 12.283z" class="B"/><path d="M292.029 166.953c.276 0 .638-.086 1.052-.326 2.277-1.325 4.174-5.523 4.795-8.826.604-3.182-1-5.832-2.828-6.21-1.018-.224-2.295.292-2.795 2.374l-.431 1.737c-1.328 5.333-2.57 10.357-.241 11.165.12.052.276.086.448.086zm2.587-14.382c.069 0 .138 0 .225.018 1.742.378 2.363 3.217 2.018 5.006-.5 2.632-2.156 6.881-4.295 8.12-.276.155-.5.223-.638.172-1.432-.499-.018-6.176.914-9.944.155-.585.293-1.17.431-1.737.121-.499.5-1.635 1.345-1.635z" class="C"/><path d="M287.872 163.616c.914.275 3.829-1.875 5.675-11.165 1-5.126-5.14-8.309-5.882-3.131-.88 6.21-2.329 13.556.207 14.296z" class="B"/><path d="M288.045 164.166c.241 0 .552-.068.948-.309.966-.585 3.398-2.856 5.072-11.303.5-2.511-.587-4.473-1.777-5.453-1.018-.86-2.225-1.136-3.208-.757-1.018.396-1.691 1.428-1.915 2.924l-.311 2.099c-.931 6.159-1.793 11.974.88 12.765a1.57 1.57 0 0 0 .311.034zm1.931-16.962c.518 0 1.104.241 1.639.688.949.809 1.829 2.391 1.415 4.473-1.605 8.12-3.864 10.15-4.52 10.58-.276.189-.448.206-.483.189-1.828-.55-.897-6.692-.155-11.612l.311-2.099c.155-1.118.603-1.858 1.259-2.099.172-.086.345-.12.534-.12z" class="C"/><path d="M283.008 160.881c.793-.138 3.208-2.478 4.674-11.561 1.277-7.948-6.33-10.425-7.02-4.404-.724 6.228-.276 16.395 2.346 15.965z" class="B"/><path d="M282.853 161.414c.086 0 .172 0 .241-.017 1.208-.207 3.64-2.959 5.089-11.974.517-3.182-.311-5.969-2.191-7.449-1.121-.877-2.467-1.135-3.605-.671-1.242.516-2.035 1.79-2.242 3.579-.328 2.873-.397 6.365-.19 9.324.259 3.595.862 5.883 1.811 6.778.379.327.776.43 1.087.43zm.069-1.049c-.104.017-.242.017-.432-.172-1.276-1.205-2.138-8.12-1.311-15.225.156-1.394.742-2.374 1.622-2.736.776-.327 1.725-.12 2.553.516 1.587 1.256 2.277 3.682 1.811 6.486-.776 4.817-1.811 7.535-2.536 8.963-.845 1.669-1.535 2.133-1.707 2.168z" class="C"/><path d="M278.678 156.253c1.156-.327 2.433-3.234 3.157-11.371.707-8.155-8.59-7.432-7.969-.929.586 6.227 2.743 12.885 4.812 12.3z" class="B"/><path d="M278.42 156.803c.155 0 .276-.017.396-.051 1.691-.465 2.881-4.456 3.536-11.819.242-2.718-.603-4.868-2.294-5.918-1.362-.843-3.139-.825-4.536.052-1.57.981-2.363 2.77-2.156 4.92.483 5.006 2.07 11.096 4.105 12.49.345.258.673.326.949.326zm-.587-17.358c.587 0 1.173.155 1.673.465 1.38.843 2.018 2.598 1.811 4.937-.862 9.892-2.466 10.838-2.777 10.924-.086.035-.241.035-.5-.12-1.501-1.032-3.139-6.297-3.657-11.733-.172-1.754.449-3.182 1.673-3.956.552-.345 1.156-.517 1.777-.517z" class="C"/></g><g clip-path="url(#H)"><path d="M180.909 113.317l107.218 59.231c.603.333 1.265.544 1.95.621s1.377.017 2.038-.174 1.279-.511 1.817-.941a5.27 5.27 0 0 0 1.319-1.566l44.115-80.04 3.05-5.532c.671-1.219.832-2.655.446-3.992s-1.286-2.467-2.504-3.139L233.139 18.552a5.23 5.23 0 0 0-1.949-.621 5.24 5.24 0 0 0-2.039.174c-.661.191-1.279.511-1.817.942s-.986.962-1.318 1.566l-3.066 5.563-44.099 80.01a5.25 5.25 0 0 0 2.058 7.132z" class="B"/><g class="C"><path d="M290.652 173.602a5.66 5.66 0 0 0 1.573-.225 5.6 5.6 0 0 0 1.957-1.01c.579-.463 1.061-1.037 1.417-1.687l44.115-80.04 3.05-5.532c.72-1.312.892-2.856.477-4.294a5.65 5.65 0 0 0-2.691-3.378L233.332 18.204c-1.311-.722-2.853-.893-4.29-.478s-2.65 1.384-3.374 2.695l-3.066 5.563-44.1 80.009a5.66 5.66 0 0 0-.48 4.296c.415 1.439 1.385 2.654 2.694 3.377l107.219 59.231c.831.462 1.766.705 2.717.706zM230.615 18.298a4.81 4.81 0 0 1 2.332.603l107.219 59.231c1.124.623 1.956 1.666 2.312 2.902s.209 2.562-.41 3.689l-3.05 5.532-44.115 80.039c-.308.558-.722 1.05-1.219 1.447a4.84 4.84 0 0 1-1.679.871c-.612.176-1.252.231-1.884.16s-1.245-.266-1.802-.574l-107.218-59.231c-1.125-.621-1.958-1.665-2.314-2.901s-.209-2.563.412-3.69l44.099-80.009 3.066-5.563a4.85 4.85 0 0 1 1.783-1.835c.748-.441 1.6-.673 2.468-.672z"/><path d="M222.711 26.175l116.416 64.273 3.05-5.532c.672-1.219.832-2.655.447-3.992a5.25 5.25 0 0 0-2.504-3.139L232.901 18.552a5.24 5.24 0 0 0-1.95-.621c-.684-.077-1.377-.018-2.038.174s-1.279.511-1.817.942-.986.962-1.319 1.566l-3.066 5.563z"/></g><g class="B"><use xlink:href="#P"/><path d="M235.738 28.119c-.897 0-1.624-.728-1.624-1.626s.727-1.626 1.624-1.626 1.624.728 1.624 1.626-.727 1.626-1.624 1.626zm4.835 2.673c-.896 0-1.623-.728-1.623-1.626s.727-1.626 1.623-1.626 1.624.728 1.624 1.626-.727 1.626-1.624 1.626z"/></g></g><g clip-path="url(#I)"><path d="M102.139 124.581c1.517-1.161 1.831-3.299.701-4.774s-3.275-1.729-4.792-.568l-51.05 39.093c-1.517 1.161-1.831 3.299-.701 4.774s3.275 1.729 4.792.568l51.05-39.093z" class="C"/><path d="M36.858 177.655l22.941-17.568c2.547-1.95 3.074-5.539 1.177-8.016s-5.499-2.904-8.046-.953L29.99 168.685c-2.547 1.951-3.074 5.54-1.177 8.016s5.499 2.904 8.046.954z" class="D"/><path d="M92.964 124.299l3.163 4.131c1.088 1.42 3.596 1.268 5.424-.331l9.975-8.725c1.612-1.41 2.112-3.452 1.152-4.705l-2.114-2.761c-.958-1.251-3.061-1.303-4.843-.115l-11.024 7.355c-2.019 1.348-2.821 3.73-1.733 5.151z" class="C"/><path d="M65.397 153.719l-4.826-6.302c-1.566-2.045-4.541-2.398-6.644-.787h0c-2.103 1.61-2.538 4.574-.972 6.619l4.826 6.302c1.566 2.046 4.541 2.398 6.644.788h0c2.103-1.611 2.538-4.574.972-6.62z" class="D"/></g><g clip-path="url(#J)" class="C"><path d="M107.281 103.936a.75.75 0 0 1-.751-.729l-.629-24.038c-.005-.199.069-.391.207-.535a.75.75 0 0 1 .525-.233c.199-.005.393.069.537.205s.229.325.234.524l.63 24.039c.005.198-.069.391-.207.535a.75.75 0 0 1-.525.233h-.021zm-15.063 7.131a.75.75 0 0 1-.484-.177L73.3 95.376a.75.75 0 0 1-.087-1.053.75.75 0 0 1 .509-.263c.198-.017.395.045.547.172l18.434 15.515c.118.099.202.231.241.38s.032.305-.021.449a.75.75 0 0 1-.275.357c-.126.088-.277.135-.431.135z"/></g><g clip-path="url(#K)"><path d="M273.019 124.816c-.914-.338-1.704-.944-2.267-1.74a4.83 4.83 0 0 1-.084-5.458c.538-.813 1.309-1.443 2.212-1.809.25-.099.451-.291.562-.536a1.04 1.04 0 0 0 .033-.775c-.267-.739-.582-1.46-.945-2.158a1.06 1.06 0 0 0-1.317-.501c-.899.362-1.884.453-2.834.265a5 5 0 0 1-2.518-1.328c-.672-.658-1.137-1.5-1.335-2.42s-.122-1.878.22-2.755a1.02 1.02 0 0 0-.014-.748c-.099-.239-.284-.432-.518-.541-.72-.345-1.461-.643-2.22-.891a1.06 1.06 0 0 0-.748.025c-.238.1-.431.283-.544.515-.395.861-1.03 1.59-1.828 2.099a4.94 4.94 0 0 1-2.674.776c-.947.003-1.875-.266-2.673-.776s-1.433-1.238-1.828-2.099c-.113-.232-.306-.415-.544-.515a1.06 1.06 0 0 0-.748-.025 18.28 18.28 0 0 0-2.221.891c-.235.109-.42.302-.518.541a1.02 1.02 0 0 0-.014.748 4.8 4.8 0 0 1 .22 2.755c-.198.92-.663 1.762-1.335 2.42a5 5 0 0 1-2.518 1.328c-.95.188-1.935.097-2.834-.265-.243-.093-.512-.094-.755-.001a1.06 1.06 0 0 0-.563.503c-.362.697-.677 1.418-.945 2.157a1.04 1.04 0 0 0 .034.775c.111.245.312.437.561.536a4.86 4.86 0 0 1 3.016 4.479 4.86 4.86 0 0 1-.871 2.755c-.564.809-1.36 1.427-2.283 1.773a1.04 1.04 0 0 0-.575.521c-.117.241-.136.519-.054.774.248.751.545 1.485.891 2.196.119.245.329.434.584.528a1.06 1.06 0 0 0 .788-.023 4.98 4.98 0 0 1 2.913-.357c.985.176 1.895.644 2.61 1.344s1.196 1.609 1.37 2.597a4.8 4.8 0 0 1-.399 2.909c-.119.246-.136.53-.047.788s.278.472.523.593c.721.356 1.464.664 2.225.924a1.07 1.07 0 0 0 .804-.049c.251-.121.445-.335.54-.597a4.96 4.96 0 0 1 4.645-3.226 4.96 4.96 0 0 1 2.827.885 4.95 4.95 0 0 1 1.817 2.341 1.07 1.07 0 0 0 1.345.646 18.46 18.46 0 0 0 2.225-.924c.246-.121.434-.334.523-.593a1.03 1.03 0 0 0-.047-.788 4.8 4.8 0 0 1-.398-2.909c.174-.988.653-1.896 1.37-2.597s1.625-1.168 2.61-1.343 2-.052 2.914.356c.249.109.531.118.787.024a1.06 1.06 0 0 0 .585-.528c.345-.712.643-1.445.89-2.197a1.03 1.03 0 0 0-.628-1.295zm-16.819.592a4.85 4.85 0 0 1-2.678-.857c-.789-.543-1.4-1.307-1.756-2.197s-.441-1.864-.245-2.802a4.86 4.86 0 0 1 1.348-2.468 4.87 4.87 0 0 1 2.489-1.309c.941-.181 1.914-.08 2.798.29a4.86 4.86 0 0 1 2.168 1.791c.531.797.814 1.734.814 2.692a4.9 4.9 0 0 1-4.937 4.86h-.001z" fill="#fb6613" fill-opacity=".31"/></g><g clip-path="url(#L)"><path d="M52.165 159.469c1.09-3.132 2.193-7.999 1.741-10.131-1.064-5.037-5.551-5.574-7.812-1.753a8.26 8.26 0 0 0-.461-.295c-4.377-2.593-6.688 2.241-7.2 4.434a4.51 4.51 0 0 0-.464-.159c-4.411-1.311-6.493 4.447-6.493 4.447a3.99 3.99 0 0 0-.433-.081c-4.889-.711-6.157 7.183-3.009 13.981 1.518 3.205 5.143 4.539 4.176-4.2 2.094 5.892 5.929 7.917 5.729-6.542.836 8.338 4.244 14.875 7.403 2.362.511 4.126 1.651 4.523 3.051 3.339 2.8-2.366 3.771-5.402 3.771-5.402z" class="B"/><g class="C"><path d="M48.138 165.635c.18-.105.366-.238.558-.4 2.832-2.393 3.845-5.408 3.909-5.607.951-2.735 2.267-7.966 1.755-10.379-.531-2.515-1.967-4.225-3.839-4.572-1.682-.311-3.399.549-4.572 2.261l-.09-.053c-1.474-.873-2.87-1.043-4.147-.504-1.98.836-3.133 3.181-3.601 4.739l-.026-.008c-1.985-.59-3.846.058-5.373 1.876a10.56 10.56 0 0 0-1.524 2.49l-.099-.014c-1.569-.228-2.904.338-3.847 1.638-1.998 2.754-1.841 8.222.373 13.002.893 1.887 2.324 2.983 3.48 2.669.853-.231 1.756-1.244 1.742-4.505.924 1.657 1.954 2.51 2.917 2.352.177-.029.348-.091.502-.182 1.1-.64 1.782-2.801 2.039-6.455.687 2.686 1.738 4.851 3.173 4.988 1.403.134 2.648-1.624 3.785-5.36.33 1.237.792 1.952 1.414 2.209.452.186.937.126 1.471-.185zm3.584-6.319c-.015.046-.98 2.952-3.631 5.192-.323.273-.775.572-1.09.442-.244-.1-.849-.639-1.199-3.467-.014-.109-.064-.21-.143-.287s-.181-.123-.289-.132a.45.45 0 0 0-.302.083.46.46 0 0 0-.177.26c-1.59 6.296-2.971 6.665-3.356 6.628-1.112-.106-2.589-3.465-3.134-8.903-.012-.12-.07-.233-.161-.313a.47.47 0 0 0-.328-.119c-.12.005-.232.056-.313.143s-.126.203-.124.324c.134 9.701-1.55 10.47-1.889 10.525-.691.114-1.922-1.269-2.939-4.131a.48.48 0 0 0-.215-.257c-.1-.057-.216-.076-.327-.052s-.208.089-.274.181a.47.47 0 0 0-.082.322c.464 4.196-.166 5.908-.913 6.11-.679.184-1.726-.76-2.384-2.149-2.042-4.41-2.24-9.591-.458-12.048.743-1.025 1.75-1.453 2.992-1.272a3.27 3.27 0 0 1 .392.073c.11.026.224.011.323-.042s.173-.14.212-.246c.005-.013.514-1.395 1.527-2.593 1.292-1.529 2.775-2.058 4.407-1.573.143.041.284.089.423.145a.46.46 0 0 0 .194.033c.066-.003.13-.02.188-.05a.46.46 0 0 0 .233-.303c.291-1.243 1.333-3.803 3.2-4.591.995-.42 2.112-.27 3.32.446.148.087.293.18.435.278.052.036.111.061.173.073a.45.45 0 0 0 .186-.001.46.46 0 0 0 .295-.212c.971-1.64 2.457-2.495 3.878-2.231 1.48.274 2.632 1.704 3.08 3.825.406 1.913-.558 6.525-1.725 9.878l-.004.011z"/><path d="M42.437 168.794c1.224-.713 2.329-3.068 3.356-7.137a.48.48 0 0 0-.336-.578.46.46 0 0 0-.565.328c-1.6 6.339-2.968 6.713-3.349 6.677-.565-.054-1.231-1.003-1.782-2.539-.582-1.621-1.036-3.85-1.28-6.277-.257-2.564-.01-4.908.265-7.09l.066-.508a.48.48 0 0 0-.087-.35c-.073-.102-.183-.17-.305-.191s-.246.008-.345.08a.46.46 0 0 0-.182.305l-.07.537c-.281 2.225-.534 4.63-.267 7.293.251 2.502.724 4.813 1.331 6.505.721 2.009 1.591 3.075 2.586 3.17.329.032.65-.043.962-.225z"/><path d="M36.256 170.438c1.517-.883 2.24-4.664 2.149-11.265v-.028a.48.48 0 0 0-.038-.18c-.024-.057-.059-.109-.103-.153s-.096-.079-.152-.103-.117-.036-.178-.036a.43.43 0 0 0-.177.035.44.44 0 0 0-.149.101c-.042.043-.076.095-.098.152s-.034.118-.033.179l.001.027c.134 9.701-1.551 10.47-1.889 10.525-.691.114-1.922-1.269-2.939-4.131-.975-2.744-1.261-5.86-.827-9.011.028-.217.063-.432.103-.646a.48.48 0 0 0-.074-.353c-.07-.104-.177-.177-.298-.202s-.246-.001-.348.068-.171.175-.194.297c-.043.23-.08.46-.11.692-.454 3.297-.151 6.569.875 9.457 1.138 3.201 2.625 4.979 3.98 4.757.177-.029.348-.091.502-.182z"/><path d="M31.469 172.616c.913-.531 1.725-2.225 1.203-6.947-.007-.061-.025-.121-.055-.175s-.069-.103-.117-.143-.102-.069-.161-.087a.46.46 0 0 0-.181-.02.47.47 0 0 0-.173.052.45.45 0 0 0-.139.116c-.038.047-.066.102-.083.161a.47.47 0 0 0-.015.182c.463 4.182-.165 5.898-.905 6.108-.16.046-.618.004-1.211-.477-.924-.75-3.034-3.314-2.663-10.902.004-.062-.005-.124-.025-.184a.48.48 0 0 0-.093-.16.47.47 0 0 0-.146-.114.46.46 0 0 0-.357-.025c-.058.02-.111.051-.156.092s-.082.091-.108.147-.04.116-.043.178c-.155 3.174.101 5.852.762 7.959.663 2.113 1.593 3.199 2.257 3.738.707.574 1.474.818 2.052.654.119-.034.239-.084.357-.153zm17.028-7.004c.175-.102.359-.234.55-.401.591-.517 2.035-2.2 3.272-4.873 1.494-3.227 2.212-6.876 2.076-10.551-.006-.123-.059-.241-.149-.327a.47.47 0 0 0-.332-.13c-.122.002-.238.053-.322.141s-.129.208-.125.332c.306 8.275-3.894 13.693-5.036 14.691-.335.294-.824.607-1.251.435-.301-.121-1.037-.698-1.377-3.446-.555-4.484-.23-7.493.182-11.302l.267-2.563a.48.48 0 0 0-.017-.184.49.49 0 0 0-.225-.285.47.47 0 0 0-.174-.057.46.46 0 0 0-.181.015c-.059.017-.113.045-.16.084a.45.45 0 0 0-.115.14.47.47 0 0 0-.052.176l-.266 2.553c-.419 3.87-.749 6.927-.18 11.521.296 2.394.959 3.814 1.971 4.221.38.152.946.217 1.645-.19z"/></g></g><g clip-path="url(#M)"><path d="M261.569 82.296c-1.249-.462-2.329-1.291-3.098-2.378s-1.192-2.382-1.213-3.714.362-2.639 1.098-3.75 1.789-1.972 3.024-2.473a1.42 1.42 0 0 0 .813-1.793c-.365-1.011-.797-1.996-1.292-2.95-.163-.316-.437-.56-.769-.686s-.699-.126-1.031.002a6.82 6.82 0 0 1-7.314-1.455 6.56 6.56 0 0 1-1.825-3.308 6.57 6.57 0 0 1 .3-3.767 1.41 1.41 0 0 0-.018-1.024c-.135-.327-.388-.591-.709-.739a24.95 24.95 0 0 0-3.033-1.219c-.334-.114-.698-.101-1.023.035s-.589.386-.743.704c-.54 1.177-1.408 2.174-2.499 2.871a6.74 6.74 0 0 1-3.654 1.06 6.74 6.74 0 0 1-3.653-1.061c-1.091-.697-1.959-1.694-2.499-2.87-.153-.317-.418-.568-.743-.704s-.689-.148-1.023-.035c-1.036.34-2.05.747-3.034 1.219-.321.148-.574.412-.709.739a1.41 1.41 0 0 0-.018 1.024 6.57 6.57 0 0 1 .3 3.767 6.56 6.56 0 0 1-1.825 3.308c-.947.926-2.142 1.557-3.441 1.816a6.82 6.82 0 0 1-3.873-.361 1.44 1.44 0 0 0-1.8.685c-.495.954-.927 1.939-1.292 2.949-.122.346-.105.726.046 1.06s.427.597.767.733c1.216.498 2.256 1.346 2.989 2.436s1.128 2.373 1.133 3.687c-.006 1.348-.421 2.662-1.191 3.768a6.64 6.64 0 0 1-3.119 2.424 1.42 1.42 0 0 0-.786.712c-.161.33-.187.709-.075 1.058a24.41 24.41 0 0 0 1.218 3.003 1.44 1.44 0 0 0 .799.722c.349.129.735.117 1.076-.032 1.248-.559 2.636-.729 3.982-.488a6.82 6.82 0 0 1 3.567 1.837c.979.959 1.634 2.201 1.872 3.551s.047 2.741-.546 3.977c-.163.337-.185.725-.063 1.079s.379.645.715.81a25.08 25.08 0 0 0 3.04 1.264c.361.122.755.098 1.098-.067s.609-.458.739-.816a6.78 6.78 0 0 1 2.483-3.201 6.77 6.77 0 0 1 7.729 0 6.78 6.78 0 0 1 2.483 3.201 1.46 1.46 0 0 0 .739.816c.343.165.737.189 1.098.067 1.04-.354 2.056-.776 3.041-1.264.336-.165.593-.456.715-.809s.099-.742-.064-1.079a6.57 6.57 0 0 1-.544-3.977c.238-1.35.893-2.592 1.872-3.55a6.82 6.82 0 0 1 3.567-1.837c1.346-.241 2.734-.071 3.982.488.341.149.727.16 1.076.032a1.44 1.44 0 0 0 .799-.722c.473-.973.88-1.976 1.218-3.003a1.42 1.42 0 0 0-.859-1.772zm-22.986.81c-1.309-.021-2.582-.428-3.66-1.171s-1.913-1.788-2.4-3.004-.603-2.549-.334-3.831.909-2.456 1.842-3.375a6.64 6.64 0 0 1 7.225-1.393c1.207.506 2.238 1.358 2.963 2.449a6.65 6.65 0 0 1 1.112 3.681c-.014 1.776-.732 3.474-1.998 4.721a6.69 6.69 0 0 1-4.748 1.925h-.002z" fill="#fb6613" fill-opacity=".31"/></g><g clip-path="url(#N)" class="C"><path d="M313.06 112.505c-.725-.269-1.352-.751-1.799-1.384a3.86 3.86 0 0 1-.704-2.162 3.85 3.85 0 0 1 .638-2.183c.427-.647 1.038-1.148 1.755-1.439a.83.83 0 0 0 .472-1.044c-.212-.589-.463-1.162-.75-1.717a.84.84 0 0 0-1.045-.399c-.713.287-1.494.36-2.248.21a3.95 3.95 0 0 1-1.998-1.057c-.533-.524-.902-1.193-1.059-1.925a3.83 3.83 0 0 1 .174-2.193c.072-.193.068-.406-.011-.596s-.225-.344-.411-.43c-.571-.275-1.159-.512-1.761-.709-.193-.066-.404-.059-.593.02s-.342.225-.432.41a3.92 3.92 0 0 1-1.45 1.671c-.633.406-1.37.62-2.121.617-.752.003-1.488-.212-2.121-.617a3.92 3.92 0 0 1-1.45-1.671c-.09-.185-.243-.331-.432-.41s-.4-.086-.593-.02c-.602.198-1.191.435-1.762.709-.186.086-.333.24-.411.43s-.082.403-.011.596c.271.698.332 1.46.175 2.193s-.526 1.401-1.06 1.925c-.55.54-1.244.907-1.997 1.057s-1.536.077-2.249-.21c-.192-.074-.406-.075-.598-.001a.84.84 0 0 0-.447.4c-.287.555-.538 1.129-.75 1.717-.07.201-.061.422.027.617a.83.83 0 0 0 .446.427c.705.29 1.309.783 1.735 1.418s.654 1.381.657 2.146a3.88 3.88 0 0 1-.691 2.193c-.447.644-1.079 1.136-1.811 1.411-.2.074-.363.223-.456.415s-.109.413-.043.616c.196.598.432 1.182.706 1.748a.84.84 0 0 0 1.089.402c.724-.325 1.53-.424 2.311-.284a3.95 3.95 0 0 1 2.071 1.069c.568.558.948 1.281 1.087 2.067a3.83 3.83 0 0 1-.317 2.315c-.095.196-.108.422-.037.628s.22.375.415.471c.572.284 1.161.53 1.765.736.209.071.438.057.637-.039a.84.84 0 0 0 .429-.475 3.94 3.94 0 0 1 1.442-1.863 3.92 3.92 0 0 1 2.243-.705c.802 0 1.584.246 2.243.705s1.162 1.109 1.441 1.863a.85.85 0 0 0 .429.475c.2.096.428.11.638.039.604-.206 1.193-.452 1.765-.736a.82.82 0 0 0 .415-.471c.071-.206.058-.432-.037-.628a3.83 3.83 0 0 1-.316-2.315 3.82 3.82 0 0 1 1.087-2.067 3.96 3.96 0 0 1 2.071-1.069c.781-.14 1.586-.041 2.311.284.198.087.422.093.625.018a.84.84 0 0 0 .464-.42c.274-.566.51-1.15.706-1.748.066-.203.051-.424-.042-.616a.82.82 0 0 0-.456-.415zm-13.343.471a3.85 3.85 0 0 1-2.125-.681c-.626-.433-1.111-1.041-1.393-1.749a3.88 3.88 0 0 1 .875-4.195 3.85 3.85 0 0 1 1.975-1.041 3.84 3.84 0 0 1 2.219.23 3.86 3.86 0 0 1 1.72 1.425 3.88 3.88 0 0 1 .646 2.143c-.008 1.034-.425 2.023-1.16 2.748a3.88 3.88 0 0 1-2.756 1.12h-.001z"/></g><g clip-path="url(#O)"><path d="M268.623 169.624c-3.119-11.239-1.922-27.151 3.896-16.241 2.32 4.349 4.559 11.384 12.899 17.739" class="B"/><path d="M285.93 170.975c-.03-.107-.095-.201-.184-.269-6.777-5.165-9.506-10.869-11.499-15.034l-1.256-2.537c-1.651-3.096-3.088-4.346-4.392-3.823-1.886.755-2.179 5.235-2.185 7.838a49.21 49.21 0 0 0 1.781 12.922.52.52 0 0 0 .252.313.54.54 0 0 0 .726-.208.52.52 0 0 0 .048-.399c-1.1-3.839-1.751-8.563-1.741-12.635.01-4.323.767-6.56 1.512-6.859.506-.202 1.574.57 3.055 3.347.401.752.807 1.599 1.236 2.496 2.038 4.26 4.829 10.094 11.806 15.412a.53.53 0 0 0 .309.109.54.54 0 0 0 .317-.092c.093-.063.164-.152.203-.257s.043-.218.012-.324h0z" class="C"/></g><defs><clipPath id="G"><path transform="matrix(-1 0 0 1 317.333 126.233)" d="M0 0h307.067v210H0z" class="B"/></clipPath><clipPath id="H"><path transform="matrix(-1 0 0 1 343.467 17.5)" d="M0 0h165.667v156.1H0z" class="B"/></clipPath><clipPath id="I"><path transform="matrix(.607987 .793947 -.793947 .607987 106.389 106.456)" d="M0 0h17.267v104.3H0z" class="B"/></clipPath><clipPath id="J"><path transform="translate(73.033 78.4)" d="M0 0h35v32.667H0z" class="B"/></clipPath><clipPath id="K"><path transform="translate(238.7 103.367)" d="M0 0h35v34.3H0z" class="B"/></clipPath><clipPath id="L"><path transform="matrix(-.86422 .503114 .503114 .86422 50.2568 141.367)" d="M0 0h34.3v20.067H0z" class="B"/></clipPath><clipPath id="M"><path transform="translate(214.667 52.967)" d="M0 0h47.833v46.9H0z" class="B"/></clipPath><clipPath id="N"><path transform="translate(285.833 95.433)" d="M0 0h27.767v27.3H0z" class="B"/></clipPath><clipPath id="O"><path transform="matrix(.275517 .961296 .961296 -.275517 262.725 150.987)" d="M0 0h26.133v16.8H0z" class="B"/></clipPath><path id="P" d="M230.902 25.445c-.897 0-1.624-.728-1.624-1.626s.727-1.626 1.624-1.626 1.624.728 1.624 1.626-.727 1.626-1.624 1.626z"/></defs></svg>