<svg xmlns="http://www.w3.org/2000/svg" width="40" height="40" fill="none" xmlns:v="https://vecta.io/nano"><path d="M3.524 16.509l19.967 19.967c.291.291.151.787-.254.862a17.64 17.64 0 0 1-2.065.261.52.52 0 0 1-.401-.152L2.554 19.231a.52.52 0 0 1-.152-.401c.047-.701.134-1.39.261-2.065.076-.405.571-.546.862-.254zm-.563 8.085c-.133-.497.454-.81.818-.447l12.074 12.074c.364.364.05.951-.447.818-6.054-1.623-10.822-6.391-12.445-12.445zm1.75-13.371c.17-.294.57-.339.81-.099l23.355 23.355c.24.24.195.641-.099.81a17.61 17.61 0 0 1-1.526.784c-.197.089-.428.044-.58-.109L4.035 13.33a.52.52 0 0 1-.109-.58 17.55 17.55 0 0 1 .785-1.526h0zM19.981 2.4c9.731 0 17.619 7.888 17.619 17.619 0 5.166-2.223 9.812-5.765 13.035-.204.186-.518.174-.714-.022L6.967 8.878c-.195-.196-.208-.509-.022-.714C10.168 4.623 14.815 2.4 19.981 2.4z" fill="#ff8707"/></svg>