<svg xmlns="http://www.w3.org/2000/svg" xmlns:xlink="http://www.w3.org/1999/xlink" width="300" height="350" fill="none" xmlns:v="https://vecta.io/nano"><style><![CDATA[.B{fill:#000}.C{fill:#fff}]]></style><g clip-path="url(#A)"><path d="M299.348 107.788v229.703c0 5.286-12.254 8.435-22.731 11.522 1.478-.433-6.283-234.92-6.283-234.92 0-9.757-1.945-15.129-16.086-19.948L4.653 6.582C14.516.296 26.624-.949 33.327 1.337l243.139 82.866c14.142 4.82 22.882 13.827 22.882 23.584z" class="C"/><g class="B"><path d="M276.618 349.286c-.169 0-.331-.056-.411-.153a.18.18 0 0 1 .001-.242c1.29-4.038-6.254-232.482-6.33-234.793 0-10.094-2.204-15.063-15.855-19.716L4.458 6.829c-.125-.035-.217-.103-.249-.185-.035-.09.007-.184.112-.251C14.564-.134 26.779-1.211 33.553 1.099l243.139 82.866c14.256 4.859 23.112 13.987 23.112 23.822v229.704c0 5.067-10.493 8.124-20.64 11.081l-2.33.682c-.08.023-.149.032-.216.032zm-.212-.516zm.011-.004zM5.384 6.52l249.095 87.388c13.956 4.757 16.311 10.071 16.311 20.184l3.696 117.293 2.229 80.735.513 26.672c.069 6.299.043 8.766-.075 9.758l1.611-.47c9.895-2.884 20.127-5.866 20.127-10.59V107.787c0-9.638-8.68-18.583-22.651-23.345L33.102 1.575c-8.296-2.829-20.35.406-27.717 4.945z"/><path d="M293.21 94.144c3.953 4.074 6.137 8.765 6.137 13.644v229.703c0 5.286-12.253 8.435-22.73 11.522 1.477-.433-.298-245.443-4.07-249.446l20.663-5.422z"/><path d="M276.618 349.287c-.169 0-.331-.057-.411-.154-.065-.08-.059-.169.002-.243.675-2.005.614-62.21-.127-124.326-.9-75.376-2.407-123.221-3.932-124.863-.063-.067-.076-.148-.034-.222s.131-.133.249-.164l20.662-5.422c.212-.056.461-.007.578.113 4.056 4.18 6.199 8.945 6.199 13.781v229.703c0 5.067-10.493 8.125-20.64 11.082l-2.342.685c-.068.02-.137.029-.204.029zM273.1 99.721c2.24 5.999 3.468 88.983 3.897 125.008l.172 123.818 1.595-.466c9.895-2.883 20.127-5.865 20.127-10.589V107.788c0-4.658-2.03-9.249-5.873-13.294L273.1 99.721z"/></g><path d="M264.697 348.662L25.199 265.446C10.302 260.27 1.123 250.73 1.102 240.405L.652 11.894C.642 6.48 10.381 3.077 18.228 5.751l243.134 82.866c14.146 4.821 22.884 13.827 22.884 23.585v229.702c0 6.018-10.868 9.775-19.549 6.758z" class="C"/><path d="M271.224 350.001c-2.321 0-4.641-.367-6.756-1.101L24.97 265.682C9.986 260.476.666 250.791.645 240.405L.196 11.894C.191 9.253 2.459 6.882 6.263 5.553a19.3 19.3 0 0 1 12.19-.04l243.135 82.866c14.258 4.859 23.115 13.987 23.115 23.823v229.702c0 2.925-2.523 5.543-6.748 7.004-2.108.729-4.42 1.093-6.731 1.093zm-6.298-1.576c3.934 1.367 8.634 1.37 12.573.009s6.291-3.803 6.291-6.529V112.202c0-9.639-8.68-18.585-22.653-23.347L18.002 5.989c-3.542-1.207-7.759-1.194-11.279.037S1.104 9.45 1.109 11.893l.45 228.511c.02 10.192 9.166 19.696 23.869 24.805l239.498 83.216z" class="B"/><path d="M189.397 177.738c25.917-8.975 25.814-38.183-.231-65.239s-68.17-41.713-94.088-32.738-25.815 38.184.23 65.239 68.17 41.713 94.088 32.738z" fill="#adc4cb"/><use xlink:href="#B" class="B"/><path d="M158.482 136.546c-15.283 1.887-25.471-1.438-25.471-1.438l-.136-28.858s1.323-4.906 12.039-5.426c11.658-.566 21.445 1.672 21.445 8.687l5.36 8.046c4.304 6.461 1.295 17.194-13.237 18.989z" class="C"/><path d="M149.219 137.393c-10.014 0-16.346-2.018-16.427-2.045-.146-.047-.238-.139-.238-.239l-.136-28.858c0-.015.002-.03.006-.045.014-.053.369-1.311 2.091-2.642 1.58-1.222 4.661-2.736 10.362-3.013 7.86-.382 14.001.514 17.755 2.591 2.758 1.526 4.165 3.651 4.183 6.316l5.328 7.998c2.84 4.263 2.365 9.782-1.182 13.733-2.704 3.013-6.987 4.958-12.387 5.625-3.375.417-6.514.579-9.355.579zm-15.753-2.454c1.612.47 11.261 3.026 24.924 1.338 5.126-.632 9.195-2.482 11.767-5.347 3.426-3.817 3.883-9.15 1.138-13.271l-5.361-8.046c-.021-.033-.032-.067-.032-.102 0-2.531-1.309-4.538-3.889-5.966-4.5-2.489-11.762-2.705-17.062-2.448-9.968.484-11.502 4.793-11.619 5.176l.134 28.666z" class="B"/><path d="M115.596 128.753l20.766 5.74 14.401-27.535s1.163-4.921-8.814-7.324c-10.854-2.615-21.306-2.218-24.775 4.482l-9.099 6.73c-7.305 5.405-6.733 15.44 7.521 17.907z" class="C"/><path d="M136.362 134.767a.75.75 0 0 1-.191-.025l-20.734-5.732c-5.739-1-9.842-3.35-11.554-6.62-2.004-3.827-.462-8.536 3.838-11.716l9.043-6.69c1.336-2.543 3.731-4.322 7.118-5.288 4.613-1.315 10.919-1.079 18.238.684 5.308 1.278 7.5 3.273 8.405 4.721.986 1.577.703 2.842.69 2.895-.003.015-.009.029-.016.044l-14.401 27.535c-.04.075-.131.137-.251.169-.058.015-.121.023-.185.023zm-5.742-36.363c-2.198 0-4.368.223-6.345.787-3.171.904-5.414 2.589-6.665 5.006-.018.033-.045.064-.081.091l-9.099 6.731c-4.115 3.044-5.592 7.548-3.677 11.207 1.147 2.19 3.981 5.054 10.97 6.264a.66.66 0 0 1 .064.014l20.295 5.61 14.234-27.215c.078-.387.744-4.775-8.537-7.011-3.169-.763-7.209-1.484-11.159-1.484z" class="B"/><path d="M184.284 159.279v15.661l-.023 4.231c-22.742 4.911-54.923-5.461-78.957-25a111.36 111.36 0 0 1-9.992-9.167c-.059-.06-.114-.121-.174-.181v-3.456c0-5.24 5.788-8.043 9.951-9.187 12.47-3.427 20.248-2.629 22.23-2.528 2.283.115 18.832 3.928 18.832 3.928s8.914 1.751 15.888 4.708c13.086 5.549 22.244 12.205 22.244 20.991z" fill="#ff870a"/><g class="B"><path d="M172.161 180.667c-8.365 0-17.541-1.54-27.108-4.585-14.369-4.573-28.241-12.094-40.116-21.748-3.568-2.9-6.939-5.992-10.02-9.193l-.171-.179c-.042-.042-.064-.09-.064-.139v-3.457c0-6.149 7.82-8.776 10.217-9.435 11.728-3.223 19.443-2.74 21.978-2.58l.481.028c2.321.117 18.279 3.789 18.957 3.945.068.013 9.038 1.793 15.988 4.74 15.097 6.402 22.437 13.342 22.437 21.215v15.661l-.023 4.233c-.001.115-.122.217-.302.256-3.829.827-7.934 1.238-12.254 1.238zM95.596 144.75l.11.115c3.066 3.185 6.418 6.261 9.966 9.143 11.795 9.589 25.56 17.055 39.809 21.59 14.145 4.502 27.388 5.669 38.324 3.38l.022-4.038v-15.661c0-7.682-7.213-14.475-22.051-20.767-6.835-2.899-15.677-4.654-15.766-4.672-5.724-1.318-16.974-3.826-18.728-3.915l-.499-.029c-2.474-.155-10.002-.627-21.503 2.534-2.272.624-9.684 3.113-9.684 8.937v3.383z"/><path d="M150.587 176.839c-.259-.002-.46-.127-.456-.278l.441-16.552c.005-.151.199-.273.464-.27.252.003.454.127.45.279l-.442 16.552c-.004.15-.208.269-.457.269z"/></g><path d="M151.111 138.65l.632-11.169-28.05 6.214v6.627c0 1.365 1.012 2.666 2.79 3.518 3.362 1.611 9.499 3.559 16.943 1.401 6.12-1.774 7.571-4.572 7.685-6.591z" class="C"/><path d="M136.811 146.464a24.82 24.82 0 0 1-10.613-2.41c-1.882-.902-2.961-2.262-2.961-3.732v-6.627c0-.115.119-.218.299-.257l28.049-6.214c.143-.032.303-.019.426.035s.194.14.189.231l-.632 11.169c-.118 2.099-1.593 4.988-7.943 6.829a24.39 24.39 0 0 1-6.814.976zm-12.661-12.578v6.436c0 1.302.955 2.507 2.618 3.304 3.642 1.745 9.453 3.399 16.459 1.369 5.939-1.722 7.318-4.406 7.428-6.355l.608-10.761-27.113 6.007z" class="B"/><path d="M109.308 106.699l-.609 16.353c-.187 5.021 4.394 9.67 11.817 11.992 12.087 3.783 27.281.767 32.081-6.887 0 0 3.233-7.107 4.398-8.835 1.732-2.568.196-24.546-32.7-22.047-9.091.69-14.987 9.424-14.987 9.424z" class="C"/><path d="M131.562 136.948c-3.865 0-7.733-.558-11.257-1.661-7.633-2.388-12.254-7.079-12.063-12.241l.609-16.353c.001-.033.012-.066.033-.096.015-.023 1.523-2.238 4.132-4.506 3.542-3.079 7.317-4.791 11.222-5.088 11.418-.867 20.249 1.062 26.248 5.734 8.088 6.3 7.92 15.223 6.933 16.688-1.142 1.693-4.349 8.733-4.381 8.804-2.274 3.629-6.871 6.383-12.958 7.778-2.741.629-5.629.941-8.518.941zm-21.799-30.191l-.607 16.301c-.185 4.953 4.249 9.452 11.571 11.743 5.927 1.855 12.862 2.108 19.027.695 5.839-1.339 10.249-3.979 12.416-7.435.119-.267 3.241-7.119 4.402-8.842.916-1.357.927-10.122-6.81-16.148-5.786-4.507-14.337-6.365-25.41-5.525-8.388.637-14.116 8.537-14.589 9.211z" class="B"/><path d="M166.359 108.731c.009-6.495-8.54-12.807-23.206-14.6-.787-.108-1.601-.207-2.462-.293-5.723-.567-18.632-.27-25.345 3.573-7.08 4.053-6.163 12.615-6.163 12.615s2.954.286 8.153-1.999c6.61-2.904 9.469-6.563 9.469-6.563s.606 4.384 5.56 7.987c6.155 4.475 17.105 7.393 17.105 7.393l.192 6.652 2.077 4.294-.019 1.635" class="C"/><path d="M151.721 129.699c-.256-.001-.459-.124-.457-.276l.019-1.595-2.059-4.255c-.011-.023-.017-.048-.018-.072l-.187-6.479c-1.724-.484-11.389-3.312-17.005-7.397-3.736-2.716-5.039-5.826-5.467-7.294-1.199 1.236-4.042 3.766-8.94 5.918-5.293 2.325-8.367 2.06-8.496 2.048-.21-.02-.369-.126-.383-.253-.009-.088-.224-2.2.43-4.845.609-2.458 2.122-5.838 5.873-7.986 6.971-3.991 20.348-4.179 25.735-3.645.801.079 1.615.176 2.488.296 7.073.865 13.074 2.808 17.342 5.62 4.015 2.644 6.224 5.928 6.219 9.247 0 .152-.205.274-.457.274s-.457-.123-.456-.274c.009-6.793-9.383-12.686-22.841-14.332a65.13 65.13 0 0 0-2.445-.291c-5.238-.519-18.233-.347-24.955 3.501-6.184 3.539-6.117 10.731-6.04 12.152.916-.015 3.519-.23 7.445-1.956 6.431-2.826 9.297-6.422 9.325-6.459.088-.112.291-.174.495-.153s.357.123.374.247c.006.043.657 4.345 5.458 7.835 6.013 4.373 16.829 7.289 16.937 7.318.163.043.269.139.272.246l.191 6.615 2.06 4.259c.012.025.018.051.018.078l-.019 1.635c-.002.151-.206.272-.456.272z" class="B"/><path d="M123.693 124.692c-.622.243-1.365.385-2.164.385-2.192 0-3.969-1.066-3.969-2.38s1.777-2.38 3.969-2.38" class="C"/><path d="M121.529 125.351c-2.44 0-4.425-1.191-4.425-2.654s1.985-2.654 4.425-2.654c.252 0 .457.122.457.274s-.205.274-.457.274c-1.936 0-3.512.944-3.512 2.106s1.576 2.106 3.512 2.106c.683 0 1.346-.118 1.915-.341.211-.082.494-.046.632.08s.078.297-.133.38c-.718.28-1.553.429-2.414.429z" class="B"/><path d="M116.967 127.864s3.912 3.066 10.396 1.795l-10.396-1.795z" class="C"/><g class="B"><path d="M124.283 130.239c-4.794 0-7.645-2.182-7.679-2.209-.153-.12-.115-.291.085-.383s.487-.069.64.05 3.805 2.895 9.892 1.702c.239-.047.498.032.576.176s-.053.298-.292.345a16.79 16.79 0 0 1-3.222.319zm-7.829-10.917c.611 0 1.107-.803 1.107-1.793s-.496-1.793-1.107-1.793-1.108.802-1.108 1.793.496 1.793 1.108 1.793z"/><path d="M116.453 119.596c-1.074 0-1.564-1.071-1.564-2.067s.49-2.067 1.564-2.067 1.564 1.071 1.564 2.067-.489 2.067-1.564 2.067zm-.007-3.587c-.166.032-.643.547-.643 1.52s.477 1.488.658 1.52c.166-.032.643-.547.643-1.52s-.477-1.488-.658-1.52zm14.473 6.9c.611 0 1.107-.803 1.107-1.793s-.496-1.794-1.107-1.794-1.108.803-1.108 1.794.496 1.793 1.108 1.793z"/><path d="M130.919 123.183c-1.075 0-1.564-1.072-1.564-2.067s.489-2.068 1.564-2.068 1.564 1.072 1.564 2.068-.49 2.067-1.564 2.067zm-.008-3.587c-.166.031-.643.547-.643 1.52s.477 1.488.658 1.52c.167-.032.643-.547.643-1.52s-.477-1.489-.658-1.52z"/></g><path d="M113.068 113.721s4.291-1.452 8.143 1.507l-8.143-1.507z" class="C"/><path d="M121.211 115.502c-.136 0-.27-.037-.36-.106-3.569-2.741-7.519-1.45-7.558-1.437-.22.074-.499.028-.622-.104s-.047-.299.173-.373c.047-.016 4.68-1.531 8.727 1.577.155.119.12.291-.079.385-.084.039-.183.058-.281.058z" class="B"/><path d="M129.139 116.954s4.291-1.452 8.142 1.506l-8.142-1.506z" class="C"/><path d="M137.282 118.734a.61.61 0 0 1-.361-.105c-3.568-2.741-7.518-1.45-7.558-1.437-.22.074-.498.027-.622-.104s-.046-.299.173-.373c.047-.016 4.681-1.532 8.727 1.577.155.119.12.291-.079.384a.67.67 0 0 1-.28.058z" class="B"/><path d="M149.471 124.198c.639-3.278 4.04-4.343 7.083-3.899s4.773 2.617 3.866 4.854-6.257 4.663-9.299 4.219" class="C"/><g class="B"><path d="M151.874 129.697a5.93 5.93 0 0 1-.861-.059c-.246-.035-.396-.184-.336-.33s.306-.238.552-.202c2.825.413 7.894-1.916 8.747-4.018.847-2.086-.738-4.115-3.53-4.522-1.368-.2-2.725-.058-3.822.4-1.469.613-2.403 1.742-2.7 3.264-.029.151-.255.258-.506.24s-.43-.153-.401-.303c.415-2.127 1.907-3.159 3.086-3.651 1.314-.549 2.934-.72 4.559-.483 3.282.479 5.167 2.805 4.202 5.184-.885 2.18-5.679 4.48-8.99 4.48zm-46.57 24.748c-.259-.003-.461-.127-.456-.279l.223-8.312c.004-.151.197-.276.464-.27.252.003.454.128.45.279l-.224 8.312c-.004.15-.208.27-.457.27z"/><use xlink:href="#B"/></g><path d="M235.882 244.785l-187.013-64.76c-1.908-.661-3.085-1.882-3.087-3.204l-.021-10.354c-.002-.981 1.767-1.595 3.183-1.105l186.149 64.341c2.538.877 4.085 2.509 4.044 4.265l-.228 9.786c-.021.924-1.692 1.493-3.027 1.031z" fill="#dd6b20"/><path d="M236.892 245.223c-.425 0-.851-.067-1.237-.201L48.64 180.262c-2.043-.708-3.313-2.026-3.316-3.44l-.02-10.355c-.001-.56.48-1.061 1.288-1.341a4.07 4.07 0 0 1 2.58-.001l186.15 64.341c2.678.925 4.315 2.652 4.272 4.506l-.228 9.786c-.012.532-.48 1.007-1.251 1.27-.384.13-.804.195-1.223.195zm-.781-.675c.485.168 1.065.169 1.552.003s.782-.465.79-.801l.227-9.786c.039-1.655-1.423-3.197-3.815-4.024L48.716 165.599c-.522-.18-1.145-.18-1.667.001s-.832.505-.832.866l.021 10.355c.002 1.22 1.098 2.357 2.859 2.967l187.014 64.76z" class="B"/><path d="M235.21 295.237L49.615 231.095c-2.382-.823-3.844-2.35-3.829-3.999l.353-37.409c.007-.786 1.426-1.275 2.562-.883l186.365 64.234c2.515.867 4.051 2.481 4.018 4.22l-.712 36.897c-.019.967-1.765 1.565-3.162 1.082z" class="C"/><path d="M236.263 295.682c-.44 0-.881-.069-1.281-.208L49.387 231.333c-2.519-.871-4.074-2.495-4.057-4.239l.353-37.408c.005-.468.41-.886 1.087-1.119s1.483-.233 2.159 0l186.366 64.234c2.654.915 4.281 2.624 4.246 4.46l-.711 36.898c-.011.552-.495 1.045-1.295 1.319-.399.136-.835.204-1.271.204zM47.849 188.941c-.215 0-.429.033-.625.101-.391.135-.626.377-.628.647l-.353 37.409c-.015 1.547 1.365 2.988 3.6 3.76L235.438 295a2.61 2.61 0 0 0 1.644.002c.515-.176.827-.494.833-.85l.712-36.897c.031-1.638-1.42-3.163-3.788-3.979L48.473 189.042c-.195-.068-.41-.101-.624-.101z" class="B"/></g><defs><clipPath id="A"><path d="M0 0h300v350H0z" class="C"/></clipPath><path id="B" d="M172.185 180.668c-9.205 0-19.421-1.861-30.011-5.546-17.839-6.207-34.622-16.855-47.258-29.981s-19.619-27.168-19.662-39.537c-.044-12.425 6.917-21.686 19.6-26.078s29.536-3.377 47.454 2.858c17.839 6.207 34.622 16.855 47.258 29.982s19.619 27.167 19.662 39.537c.043 12.424-6.917 21.686-19.6 26.077-5.187 1.796-11.073 2.688-17.443 2.688zM112.301 77.386c-6.214 0-11.945.867-16.99 2.614-12.388 4.29-19.186 13.382-19.144 25.602.043 12.276 6.982 26.22 19.54 39.265s29.222 23.621 46.925 29.781c17.624 6.133 34.151 7.147 46.54 2.858 25.659-8.885 25.481-37.984-.397-64.866-12.557-13.045-29.222-23.622-46.925-29.782-10.445-3.635-20.507-5.472-29.549-5.472z"/></defs></svg>