<svg xmlns="http://www.w3.org/2000/svg" width="75" height="74" fill="none" xmlns:v="https://vecta.io/nano"><g fill="#f19534"><path d="M54.726 12.595c1.409-.681 2.385-2.119 2.385-3.788 0-1.115-.443-2.184-1.231-2.973s-1.858-1.231-2.973-1.231-2.184.443-2.973 1.231-1.231 1.858-1.231 2.973c0 1.692.999 3.142 2.437 3.811-1.663 9.009-4.216 15.714-13.716 17.146 0 0 2.558 12.792 14.524 12.792s13.178-12.665 13.178-12.665c-9.708.497-10.528-11.706-10.401-17.296z"/><path d="M20.203 12.595c-1.409-.681-2.385-2.119-2.385-3.788 0-1.115.443-2.184 1.231-2.973s1.858-1.231 2.973-1.231 2.184.443 2.973 1.231 1.231 1.858 1.231 2.973c0 1.692-.999 3.142-2.437 3.811 1.663 9.009 4.216 15.714 13.716 17.146 0 0-2.558 12.792-14.524 12.792S9.808 29.897 9.808 29.897c9.702.491 10.522-11.712 10.395-17.302z"/></g><g fill="#ffca28"><path d="M51.786 42.556l.156.006c3.298 0 5.775-.964 7.635-2.356l-7.791 2.351z"/><path d="M69.002 9.737c-1.923-.26-3.759 1.571-4.094 4.077-.208 1.565.214 3.026 1.028 3.967l-1.386 5.746S62.43 37.104 51.723 39.784c-8.559 2.142-11.66-13.525-12.41-18.365 1.629-.808 2.755-2.483 2.755-4.429 0-2.732-2.212-4.943-4.943-4.943s-4.943 2.212-4.943 4.943c0 1.958 1.144 3.65 2.801 4.447-.595 4.776-3.217 19.924-12.457 18.341-9.379-1.611-13.473-17.406-14.42-21.702 1.126-.924 1.756-2.553 1.525-4.302-.335-2.512-2.322-4.314-4.435-4.031s-3.552 2.547-3.217 5.053c.243 1.825 1.363 3.274 2.766 3.823l7.346 45.64s6.41 5.065 25.035 5.065 25.035-5.065 25.035-5.065l7.363-45.761c1.19-.624 2.125-2.027 2.356-3.748.341-2.512-.947-4.753-2.876-5.013z"/></g><path d="M37.355 57.698c3.107 0 5.625-3.002 5.625-6.705s-2.518-6.705-5.625-6.705-5.625 3.002-5.625 6.705 2.518 6.705 5.625 6.705z" fill="#1b3a4b"/><path d="M37.355 45.946c.22.243.416.687 0 1.553s-2.657 2.039-3.066 2.275c-.41.243-.681.133-.809.035-.606-.485-.375-1.582.017-2.252.843-1.45 2.628-2.945 3.858-1.611z" fill="#006466"/><path d="M36.939 53.494c-.635.306-2.72 1.236-2.033 2.339.404.653 1.242.93 2.01.964s1.525-.208 2.206-.56c3.234-1.675 3.494-6.075 2.864-6.41-.647-.346-1.086.549-1.421.93-1.018 1.141-2.251 2.071-3.627 2.737z" fill="#144552"/><path d="M68.338 45.507c.901-4.984-2.449-6.231-2.449-6.231s-2.16-.393-3.176 5.215c-1.016 5.602 1.143 5.995 1.143 5.995s3.575.006 4.481-4.978z" fill="#1b3a4b"/><path d="M66.848 40.979c.785 1.051-.144 2.604-1.652 3.638-.445.306-1.034.191-1.12-.063-.243-.728-.139-1.553.185-2.252.959-2.096 2.189-1.854 2.587-1.322z" fill="#006466"/><path d="M5.777 45.657c-.907-4.978 2.449-6.231 2.449-6.231s2.16-.393 3.176 5.215c1.016 5.602-1.143 5.994-1.143 5.994s-3.581.006-4.481-4.978z" fill="#1b3a4b"/><path d="M9.254 41.118c.774.578.456 1.334-.127 1.86-.664.606-1.172 1.27-1.738 1.958-.087.104-.185.219-.323.248-.266.058-.479-.214-.566-.474-.248-.728-.202-1.582.167-2.252 1.051-1.912 2.287-1.565 2.587-1.34z" fill="#006466"/><path d="M57.885 50.335c-.398 2.27-2.218 3.846-4.071 3.523s-2.108-2.258-1.709-4.528 1.294-4.008 3.142-3.684c1.854.323 3.038 2.425 2.639 4.689zm-40.171 0c.399 2.27 2.218 3.846 4.071 3.523s2.108-2.258 1.709-4.528-1.294-4.008-3.142-3.684-3.032 2.425-2.639 4.689z" fill="#4d194d"/><path d="M20.399 48.822c-.422.474-1.45 1.426-1.813.699-.497-.993.191-2.495.976-2.991s1.426-.104 1.536.341c.133.566-.323 1.525-.699 1.952zm32.86 1.449c-.572-.087-.635-2.056.901-3.604.733-.739 1.784.139 1.519 1.322-.254 1.126-1.374 2.443-2.42 2.281z" fill-opacity=".1" fill="#ffa8a4"/><path d="M63.175 56.716c-3.459 1.733-11.394 6.347-26.045 6.347s-22.586-4.614-26.045-6.347c0 0-1.242.664-1.242 1.357v5.319c0 .71.375 1.363.988 1.727 2.703 1.594 10.938 5.359 26.305 5.359s23.602-3.765 26.305-5.359c.3-.177.55-.43.723-.732s.264-.645.265-.994v-5.319c-.012-.693-1.253-1.357-1.253-1.357z" fill="#ffca28"/><path d="M23.01 64.01c1.617.318 2.108.456 1.998 1.357-.225 1.773-3.904 1.351-6.081.78-4.499-1.184-5.411-2.431-5.411-3.546 0-1.022.785-1.144 1.998-.716 1.45.514 3.69 1.38 7.496 2.125z" fill="#fff59d"/><path d="M63.175 57.883S53.606 63.3 37.129 63.3s-26.045-5.417-26.045-5.417" stroke="#f19534" stroke-width="2.957" stroke-miterlimit="10" stroke-linecap="round"/><path d="M15.716 28.627c3.072-2.195 4.724-6.127 4.868-12.387.012-.566.173-.733.479-.768.491-.052.572.393.566.71-.139 6.757-.999 10.978-4.406 13.358-.167.115-1.363.843-1.871.341-.606-.589.167-1.115.364-1.253zm2.812-19.653c-.098-1.045.144-2.928 2.887-3.783.803-.248 1.299.144 1.392.45.231.762-.439 1.063-.745 1.161-2.108.681-2.212 1.733-2.645 2.402s-.855.087-.889-.231zm26.785 18.267c2.778-2.466 4.62-5.221 5.833-11.492.11-.554.271-.704.572-.693.491.012.514.468.462.78-1.028 6.688-2.004 8.593-5.428 12.387-.387.427-1.328.814-1.86.37-.479-.398.075-1.04.422-1.351zm4.088-18.215c-.098-1.045.144-2.928 2.888-3.783.803-.248 1.299.144 1.392.45.231.762-.439 1.063-.745 1.161-2.108.681-2.212 1.732-2.645 2.402-.427.67-.855.087-.889-.231z" fill="#ffca28"/><path d="M18.384 41.361c-6.711-3.044-8.686-10.984-9.737-14.432-.139-.456-.069-.889.387-1.028s.728.156.872.612c.762 2.5 3.725 10.851 9.841 13.225.445.173 1.138.595.762 1.317-.248.468-1.045.797-2.125.306zM7.463 14.224c-.323-.67-.456-1.305-2.218-2.039-.445-.185-.739-.595-.618-1.057s.583-.808 1.253-.693c2.177.375 2.651 2.587 2.743 3.355.087.739-.832 1.103-1.161.433zm48.62 27.137c6.71-3.044 8.686-10.984 9.737-14.432.139-.456.069-.889-.387-1.028s-.728.156-.872.612c-.762 2.5-3.725 10.851-9.841 13.225-.445.173-1.138.595-.762 1.317.248.468 1.045.797 2.125.306zm10.921-27.137c.323-.67.456-1.305 2.218-2.039.445-.185.739-.595.618-1.057s-.583-.808-1.253-.693c-2.177.375-2.651 2.587-2.743 3.355-.087.739.837 1.103 1.161.433zm-32.571 2.841c.352-.722.97-1.709 2.986-2.125.774-.162.999-.497.93-1.005-.139-1.057-1.455-.982-2.166-.814-2.368.554-2.893 2.657-2.991 3.488-.098.791.895 1.178 1.242.456z" fill="#fff59d"/></svg>