<svg xmlns="http://www.w3.org/2000/svg" width="487" height="399" fill="none" xmlns:v="https://vecta.io/nano"><g clip-path="url(#A)"><path d="M356.457 328.478a23.91 23.91 0 0 0 12.054.986 23.87 23.87 0 0 0 10.99-5.038c8.072-6.761 10.603-17.9 12.662-28.214l6.09-30.507-12.751 8.762c-9.17 6.302-18.546 12.805-24.895 21.932s-9.121 21.587-4.019 31.463" fill="#e6e6e6"/><path d="M357.546 365.413c-1.29-9.382-2.617-18.884-1.712-28.367.804-8.421 3.378-16.646 8.62-23.391a38.96 38.96 0 0 1 10.003-9.046c1-.63 1.921.952.925 1.579a37.01 37.01 0 0 0-14.662 17.655c-3.192 8.103-3.704 16.935-3.154 25.543.332 5.205 1.037 10.376 1.748 15.541.056.233.021.479-.098.688s-.313.365-.542.437a.92.92 0 0 1-1.128-.639z" fill="#f2f2f2"/><path d="M369.977 348.811a17.55 17.55 0 0 0 6.619 5.943 17.6 17.6 0 0 0 8.688 1.942c7.748-.367 14.208-5.764 20.023-10.888l17.2-15.156-11.384-.544c-8.186-.391-16.583-.755-24.38 1.764s-14.988 8.583-16.414 16.637" fill="#e6e6e6"/><path d="M353.899 370.806c6.212-10.969 13.417-23.161 26.291-27.057 3.58-1.08 7.334-1.467 11.059-1.14 1.174.101.881 1.908-.291 1.807-6.245-.518-12.477 1.128-17.648 4.659-4.976 3.381-8.85 8.08-12.129 13.063-2.009 3.053-3.808 6.235-5.608 9.413-.575 1.015-2.256.282-1.674-.745z" fill="#f2f2f2"/><path d="M200.799 293.744a47.12 47.12 0 0 1-23.757 1.944 47.07 47.07 0 0 1-21.661-9.929c-15.908-13.325-20.896-35.278-24.954-55.606l-12.003-60.125 25.13 17.27c18.073 12.419 36.552 25.236 49.065 43.224s17.976 42.544 7.922 62.009" fill="#e6e6e6"/><path d="M198.651 366.538c2.543-18.49 5.159-37.218 3.375-55.906-1.585-16.598-6.659-32.809-16.988-46.101-5.483-7.041-12.155-13.075-19.715-17.829-1.972-1.242-3.786 1.876-1.823 3.113a72.94 72.94 0 0 1 28.896 34.795c6.291 15.969 7.301 33.377 6.217 50.341-.656 10.259-2.045 20.45-3.445 30.629a1.86 1.86 0 0 0 .192 1.356c.235.412.617.72 1.069.861a1.82 1.82 0 0 0 1.37-.174c.416-.236.722-.626.852-1.085z" fill="#f2f2f2"/><path d="M174.152 333.819a34.61 34.61 0 0 1-13.044 11.713 34.69 34.69 0 0 1-17.123 3.826c-15.271-.724-28.003-11.361-39.463-21.459l-33.898-29.87 22.435-1.071c16.133-.771 32.684-1.49 48.05 3.476s29.54 16.915 32.349 32.789" fill="#e6e6e6"/><path d="M205.839 377.167c-12.242-21.619-26.443-45.646-51.816-53.325-7.055-2.128-14.453-2.891-21.795-2.246-2.314.199-1.736 3.759.574 3.56 12.307-1.02 24.59 2.223 34.781 9.183 9.807 6.662 17.442 15.924 23.905 25.746 3.959 6.016 7.505 12.287 11.052 18.55 1.133 2.002 4.446.557 3.299-1.468z" fill="#f2f2f2"/><path d="M111.348 84.481L5.94 62.441l-1.37-.286c-.698-.147-1.423-.094-2.092.152s-1.255.675-1.69 1.239-.702 1.238-.771 1.947.065 1.421.385 2.057l42.302 84.464c.274.543.674 1.012 1.168 1.368a3.8 3.8 0 0 0 1.667.678 3.77 3.77 0 0 0 1.797-.169 3.76 3.76 0 0 0 1.511-.985l28.85-30.723a2.2 2.2 0 0 1 .733-.526c.278-.123.579-.187.883-.189a2.29 2.29 0 0 1 1.18.301c.359.205.655.504.856.864l6.012 10.942c.384.73 1.001 1.31 1.754 1.649s1.597.417 2.4.221l.029-.007a3.7 3.7 0 0 0 2.07-1.26c.529-.641.826-1.439.845-2.269l1.04-25.346c.012-.316.09-.626.227-.912.148-.282.349-.533.593-.739l16.667-13.82a3.78 3.78 0 0 0 1.179-1.729 3.77 3.77 0 0 0 .078-2.09 3.78 3.78 0 0 0-1.045-1.812 3.79 3.79 0 0 0-1.851-.981zm.676 5.45l-16.667 13.821c-.217.176-.414.377-.586.598L5.763 64.697c-.079-.036-.16-.064-.244-.084a1.52 1.52 0 0 0-1.024.103c-.319.152-.575.411-.723.731a1.51 1.51 0 0 0-.088 1.023c.091.341.299.64.587.844l73.306 53.075a3.63 3.63 0 0 0-.984.758l-28.85 30.722c-.25.266-.561.468-.907.588s-.715.156-1.076.104-.706-.192-1.002-.405-.537-.495-.701-.822L1.755 66.871a2.27 2.27 0 0 1 .239-2.396 2.28 2.28 0 0 1 2.262-.837l1.402.294 105.376 22.032a2.28 2.28 0 0 1 1.111.587c.308.296.526.673.629 1.087a2.26 2.26 0 0 1-.045 1.254 2.27 2.27 0 0 1-.705 1.039z" fill="#ccc"/><g fill="#3f3d56"><path d="M111.348 84.481L5.94 62.441l-1.37-.286c-.698-.147-1.423-.094-2.092.152s-1.255.675-1.69 1.239-.702 1.238-.771 1.947.065 1.421.385 2.057l42.302 84.464c.274.543.674 1.012 1.168 1.368a3.8 3.8 0 0 0 1.667.678 3.77 3.77 0 0 0 1.797-.169 3.76 3.76 0 0 0 1.511-.985l28.85-30.723a2.2 2.2 0 0 1 .733-.526c.278-.123.579-.187.883-.189a2.29 2.29 0 0 1 1.18.301c.359.205.655.504.856.864l6.012 10.942c.384.73 1.001 1.31 1.754 1.649s1.597.417 2.4.221l.029-.007a3.7 3.7 0 0 0 2.07-1.26c.529-.641.826-1.439.845-2.269l1.04-25.346c.012-.316.09-.626.227-.912.148-.282.349-.533.593-.739l16.667-13.82a3.78 3.78 0 0 0 1.179-1.729 3.77 3.77 0 0 0 .078-2.09 3.78 3.78 0 0 0-1.045-1.812 3.79 3.79 0 0 0-1.851-.981zm.676 5.45l-16.667 13.821a3.69 3.69 0 0 0-.586.598c-.155.196-.289.408-.399.633a3.62 3.62 0 0 0-.27.72l.002.007c-.068.26-.106.526-.115.794l-1.04 25.345c-.007.499-.184.98-.501 1.365a2.2 2.2 0 0 1-1.245.752l-.015.004c-.481.122-.99.079-1.444-.124a2.2 2.2 0 0 1-1.055-.991l-6.014-10.949a3.77 3.77 0 0 0-1.304-1.379c-.545-.342-1.169-.538-1.812-.572l-.007.002-.257-.004a3.69 3.69 0 0 0-1.718.437 3.63 3.63 0 0 0-.984.758l-28.85 30.722c-.25.266-.561.468-.907.588s-.715.156-1.076.104-.706-.192-1.002-.405-.537-.495-.701-.822L1.755 66.871a2.27 2.27 0 0 1 .239-2.396 2.28 2.28 0 0 1 2.262-.837l1.402.294 105.376 22.032a2.28 2.28 0 0 1 1.111.587c.308.296.526.673.629 1.087a2.26 2.26 0 0 1-.045 1.254 2.27 2.27 0 0 1-.705 1.039z"/><path d="M95.108 104.497l-.617 1.38-.387-.168-.002-.007L5.164 66.089l74.388 53.867.007-.002.197.149-.886 1.224-1.293-.938L4.271 67.315c-.288-.204-.496-.503-.587-.844a1.51 1.51 0 0 1 .088-1.023c.148-.32.404-.579.723-.731a1.52 1.52 0 0 1 1.024-.103 1.32 1.32 0 0 1 .244.084l89.007 39.652.337.148z"/></g><g fill="#ffb8b8"><path d="M323.959 210.095l3.846 37.534.076.771 1.143 11.131 9.39 91.65v.015l1.824 17.781c-.712.955-1.343 1.969-1.885 3.03a21.78 21.78 0 0 0-2.351 10.528c.111 3.651 1.138 7.215 2.987 10.367a192.85 192.85 0 0 0 13.554-3.93c9.216-3.025 18.204-6.702 26.895-11.003-.904-4.964-3.501-9.463-7.352-12.733l-9.427-113.042-.825-9.915-2.688-32.184h-35.187zm26.96-102.231c19.442-19.403 19.442-50.861 0-70.264s-50.963-19.403-70.404 0-19.442 50.861 0 70.264 50.963 19.403 70.404 0z"/></g><path d="M222.926 277.796l.023.287a9.1 9.1 0 0 0 2.232 5.236c1.285 1.463 3.005 2.478 4.908 2.896l74.296 16.194c.644.14 1.302.211 1.961.211 1.993 0 3.931-.654 5.516-1.859a9.09 9.09 0 0 0 3.26-4.813l.523-1.822v-.007c2.506-8.494 6.981-20.056 13.379-34.588l4.642-10.33.916-2.01 11.381-23.925c2.049-4.195 3.596-8.616 4.611-13.171 2.697-12.027 1.632-24.59-3.051-35.993-.954-2.322-2.054-4.581-3.294-6.764-4.89-8.603-11.819-15.879-20.181-21.19s-17.9-8.494-27.78-9.271a57.12 57.12 0 0 0-4.695-.189c-15.677.069-30.725 6.163-42.016 17.018-6.663 6.447-11.723 14.361-14.773 23.108-.197.552-.379 1.111-.561 1.671-2.797 8.85-5.043 17.865-6.724 26.992a279.65 279.65 0 0 0-2.483 15.968 328.74 328.74 0 0 0-2.09 56.351z" fill="#ff6d00"/><path d="M190.207 372.74c45.138 25.604 98.438 32.827 148.782 20.162a192.85 192.85 0 0 0 13.554-3.93 337.89 337.89 0 0 0-14.129-37.776v-.015c-9.102-20.366-17.461-32.827-21.535-38.329a7.05 7.05 0 0 1-1.286-3.085c-.175-1.117-.08-2.259.279-3.33l1.264-3.786c.482-1.433.597-2.963.337-4.451a9.08 9.08 0 0 0-1.828-4.073v-.008c-.084-.106-.175-.212-.265-.317-33.098-37.633-90.796-17.101-91.379-16.89l-.288.106-.181.249-.583.816c-15.644 21.877-26.04 55.505-32.742 94.657z" fill="#2f2e41"/><path d="M122.177 130.445c.249 1.092.411 2.201.485 3.318l87.072 50.131 21.164-12.159 22.562 29.478-35.371 25.16a16.24 16.24 0 0 1-19.455-.473l-89.786-70.692c-4.052 1.497-8.465 1.727-12.651.66a21.28 21.28 0 0 1-10.785-6.633c-2.837-3.253-4.614-7.29-5.095-11.575s.356-8.616 2.401-12.414a21.26 21.26 0 0 1 9.045-8.852c3.846-1.965 8.2-2.716 12.483-2.151a21.29 21.29 0 0 1 11.496 5.311c3.203 2.894 5.447 6.693 6.434 10.891z" fill="#ffb8b8"/><path d="M211.068 183.124v.008c.316 1.138.851 2.203 1.575 3.136l14.856 19.209 7.08 9.167 6.209 8.025c.801 1.036 1.815 1.887 2.975 2.496a9.14 9.14 0 0 0 7.583.416 9.12 9.12 0 0 0 3.231-2.156l22.549-23.366 9.306-9.65a25.27 25.27 0 0 0 9.553-16.801 25.24 25.24 0 0 0-5.124-18.629 25.34 25.34 0 0 0-16.809-9.579c-6.653-.847-13.371.974-18.68 5.064l-5.815 3.242-34.142 19.058a9.13 9.13 0 0 0-3.961 4.433 9.11 9.11 0 0 0-.386 5.927z" fill="#ff6d00"/><path d="M309.549 195.17l1.424 45.379.007.287c.04 1.308.363 2.592.946 3.764s1.412 2.206 2.431 3.029a9.12 9.12 0 0 0 3.474 1.743 9.15 9.15 0 0 0 3.886.139l6.164-1.111 1.575-.287h.007l5.119-.922 27.252-4.912 5.217-.937a9.14 9.14 0 0 0 3.588-1.49 9.13 9.13 0 0 0 2.641-2.844c.666-1.126 1.081-2.382 1.218-3.683a9.1 9.1 0 0 0-.428-3.855l-14.697-43.429c-1.229-6.578-5.022-12.402-10.547-16.194a25.37 25.37 0 0 0-18.926-4.035c-6.595 1.208-12.441 4.978-16.256 10.481a25.24 25.24 0 0 0-4.095 18.877z" fill="#6c63ff"/><path d="M307.838 61.304c-12.796 8.74-29.597 17.724-42.665 8.417-8.581-6.111-11.285-17.428-7.805-27.359 6.257-17.859 23.45-25.722 39.891-31.748 21.373-7.835 44.645-14.068 66.709-8.457s41.563 26.931 37.58 49.304c-3.203 17.992-20.208 32.963-17.794 51.077 2.43 18.23 22.973 27.827 41.109 31.085s38.432 4.305 51.466 17.306c16.627 16.585 12.475 46.229-3.171 63.74s-39.255 25.448-62.133 30.844c-30.312 7.15-63.097 10.907-91.885-.958s-51.192-43.804-42.852-73.754c3.522-12.651 11.821-23.342 19.84-33.751s16.141-21.293 19.2-34.063c2.55-10.642.663-22.998-6.409-30.98a8.97 8.97 0 0 1-2.312-5.05c-.216-1.885.172-3.79 1.108-5.441l.123-.21z" fill="#2f2e41"/></g><defs><clipPath id="A"><path fill="#fff" d="M0 0h487v399H0z"/></clipPath></defs></svg>