<svg xmlns="http://www.w3.org/2000/svg" width="20" height="24" fill="none" xmlns:v="https://vecta.io/nano"><g clip-path="url(#A)"><g fill="#fd3c4f"><path d="M15.25.375H4.75C2.334.375.375 2.334.375 4.75v10.5c0 2.416 1.959 4.375 4.375 4.375h10.5c2.416 0 4.375-1.959 4.375-4.375V4.75c0-2.416-1.959-4.375-4.375-4.375z"/><path opacity=".3" d="M10 24c4.833 0 8.75-.588 8.75-1.312s-3.918-1.312-8.75-1.312-8.75.588-8.75 1.313S5.168 24 10 24z"/></g><path opacity=".3" d="M9.563 2.563A2.19 2.19 0 0 0 11.75.375h-7C2.334.375.375 2.334.375 4.75v9.625a2.19 2.19 0 0 0 2.188-2.187V4.75A2.19 2.19 0 0 1 4.75 2.563h4.813z" fill="#fff"/><path opacity=".15" d="M19.625 15.25V5.625a2.19 2.19 0 0 0-2.187 2.188v7.438a2.19 2.19 0 0 1-2.187 2.188h-4.812a2.19 2.19 0 0 0-2.187 2.188h7c2.416 0 4.375-1.959 4.375-4.375z" fill="#fd3c4f"/><path d="M2.125 5.406c-.363 0-.656-.294-.656-.656 0-1.809 1.472-3.281 3.281-3.281.363 0 .656.294.656.656s-.294.656-.656.656A1.97 1.97 0 0 0 2.781 4.75c0 .363-.294.656-.656.656z" fill="#fff"/><path d="M10.392 13.603L7.47 15.139a.95.95 0 0 1-1.376-1l.558-3.254-2.364-2.304a.95.95 0 0 1 .525-1.618l3.266-.475 1.461-2.96a.95.95 0 0 1 1.701 0l1.461 2.96 3.266.475a.95.95 0 0 1 .525 1.618l-2.364 2.304.558 3.254a.95.95 0 0 1-1.376 1l-2.92-1.537z" fill="#ffce29"/></g><defs><clipPath id="A"><path fill="#fff" d="M0 0h20v24H0z"/></clipPath></defs></svg>