<svg xmlns="http://www.w3.org/2000/svg" height="320.333" width="494.476" xmlns:v="https://vecta.io/nano"><path d="M218.977 98.681l25.362-76.823c-24.095 70.048-38.5 85.548-59.254 85.548-13.365 0-21.55-9.924-21.547-22.887.007-23.3 32.65-53.566 20.846-53.566-8.719 0-32.429 31.012-39.247 46.507-7.26 16.5-40.621-.694-29.557-20.949C126.354 36.786 159.494 0 188.315 0c53.571 0-18.251 83.277 2.209 83.272 9.553 0 22.683-19.157 42.273-71.1 5.833-15.466 35.657-8.015 31.359 6.061l-26.569 85.623c-17.326 51.162-33.41 70.188-55.785 72.628-46.595 5.08-52.057-57.61 19.9-67.314 21.486-2.9 56.635 4.025 56.635 4.025l-3.5 9.373s-27.47-3.8-44.935.193c-35.42 8.093-40.6 34.547-27.624 34.543 14.656-.004 27.202-30.37 36.699-58.623z" fill="#3fb1b5"/><path d="m474.4 306.993c-3.394-12.5-95.135-15.7-174.533-14.808-61.342.692-126.881 6.2-153.783 10.549-7.918 1.28-5.988 12.345 1.977 11.356 99.522-12.358 274.738-6.87 314.83 5.8a7.45 7.45 0 0 0 4.15.255c4.201-1.109 9.014-7.04 7.359-13.152z" fill="#ffcf2d"/><g fill="#3fb1b5"><path d="m294.852 93.991c8.423 0 7.881-17.624-2.68-17.624-19.251 0-50.614 19.584-50.614 55.633 0 14.7 7.6 26.271 25 26.271 33.956 0 56.341-68.8 31.61-68.8-19.785 0-25.84 51.068.63 51.068s39.67-32.352 39.67-32.352l-12.26 3.743s-11.527 18.048-22.267 18.048c-15.373 0-11.169-33.555-6.891-33.555s-3.912 45.7-26.906 45.7c-16.733-.005-5.103-48.132 24.708-48.132z"/><path d="m355.1 85.076c5.449-7.656-15.973-16.664-23.011-5.033-6.845 11.312-15.471 29.856-17.76 50.808-1.318 12.07 1.538 27.326 16.622 27.326 23.773 0 30.415-51.283 30.415-51.283l-1.532.17s-11.914 31.766-24.025 31.766c-10.546 0-1.503-24.53 19.291-53.754z"/><path d="M315.43 134.815c.064-.517 25.213-17.879 39.958-47.624 4.7-9.486-5.345-12.765-12.064-12.765-6.523 0-14.761 20.365-14.761 20.365m25.314-70.961c-24.352 0-68.98 6.128-86.127 12.766-11.051 4.278-7.381 39.958 9.532 34.383C283.931 68.787 322.557 60 358.3 60c80.511 0 38.468 84 17.038 84-14.315 0-1.5-27.755 19.292-56.977 5.449-7.656-15.973-16.664-23.011-5.034C364.777 93.3 330.686 161 370.484 161c53.18 0 99.053-137.17-16.607-137.17z"/><path d="m354.962 136.761c.064-.516 25.213-17.878 39.958-47.623 4.7-9.487-5.345-12.766-12.064-12.766-6.523 0-14.761 20.366-14.761 20.366"/></g><g fill="#ffcf2d"><path d="M430.867 214.794c21.064-55.948-29.585-50.819-29.585-21.78 0 24.756 36.17 27 49.617 13.055l6.361-10.124c-14.744 10.39-39.3 7.66-39.3-2.953 0-7.815 8.68-6.238 8.68-.155 0 6.239-4.17 18.427-11.765 35.678-4.657 10.575 14.659-11.167 14.659-11.167M314.09 216.22c4.239-9.22-12.664-12-16.085-4.462-9.7 21.37-20.27 61.011-21.021 67.117-.936 7.609 17.043 9.645 17.425 1.377.681-14.725 15.341-54.592 19.681-64.032z"/><path d="M334.239 264.563c-10.362-1.862 12.128-39.616 16.936-39.616 5 0 5.766-19.195-10.893-19.195-17.946 0-40.681 40.143-50.894 73.974l4.766 2.016c8.686-25.615 28.619-51.755 39.234-60.871-24 29.976-29.787 63.654-7.41 63.654 20.9 0 31.6-41.808 31.6-41.808l-4.766.789s-9.866 22.622-18.573 21.057zM243.9 217.315c4.239-9.219-12.665-12-16.085-4.462-9.7 21.371-20.27 61.011-21.022 67.118-.936 7.609 17.044 9.645 17.426 1.377.681-14.725 15.339-54.592 19.681-64.033z"/><path d="M264.048 265.659c-9.293-2.382 12.127-39.616 16.936-39.616 5 0 5.766-19.195-10.894-19.195-17.945 0-40.681 40.142-50.893 73.974l4.766 2.016c8.686-25.615 28.619-51.756 39.234-60.871-24 29.975-29.788 63.653-7.411 63.653 20.9 0 36.134-46.6 36.134-46.6l-3.7-1.021s-14.045 30.256-24.172 27.66zm211.021-61.988c6.816-8.424-13.2-16.43-21.992-3.44-8.476 12.517-25.307 34.007-29.593 56.7-3.269 17.3 2.328 32.243 22.074 32.243 27.567 0 43.63-47.224 48.709-65.039a5.12 5.12 0 0 0-4.775-6.636 4.951 4.951 0 0 0-4.586 3.345C481.044 231.65 466.962 268 452.558 268c-12.82 0-3.787-31.825 22.511-64.329z"/></g><g fill="#5b2448"><path d="m263.437 172.964c1.913-3.016-4.9-6.471-7.333-1.889-2.371 4.457-6.31 11.608-7.595 19.715-.865 5.46 1.325 10.976 7.106 10.976 10.773 0 20.092-26.306 20.092-26.306l-3.276-1.248s-8.136 19.1-13.474 19.1c-4.399.004-2.82-8.834 4.48-20.348z"/><path d="m249.4 192.561c6.115-2.64 12.455-12.879 14.3-18.284 1.317-3.866-1.447-5.458-3.985-5.458-2.464 0-6.112 7.973-6.112 7.973"/><path d="M249.471 189.991s-4.061 11.756-12.288 11.756c-6.243 0-9.646-4.7-9.646-11.347 0-11.1 11.962-27.357 29-27.357 6.158 0 5.457 8.524.839 8.524-9.1 0-20.17 10.056-20.17 17.978 0 4.829 8.6 2.322 16.269-13.409l.735 8.859m113.083-11.124c1.912-2.778-4.9-5.96-7.334-1.74-2.371 4.1-6.31 10.69-7.6 18.156-.865 5.028 1.325 10.108 7.106 10.108 9.178 0 16.256-15.631 18.574-21.455a2.124 2.124 0 0 0-1.358-2.818 2.127 2.127 0 0 0-2.552 1.133c-2.01 4.3-7.549 15.358-11.322 15.358-4.853 0-2.815-8.139 4.486-18.742z"/><path d="m353.252 191.918c6.115-2.431 12.455-11.861 14.3-16.838 1.317-3.56-1.446-5.027-3.985-5.027-2.464 0-6.112 7.343-6.112 7.343"/><path d="M353.326 189.551s-4.06 10.827-12.287 10.827c-6.243 0-9.647-4.327-9.647-10.45 0-10.225 11.962-25.195 29-25.195 6.158 0 5.458 7.851.839 7.851-9.1 0-20.17 9.261-20.17 16.557 0 4.447 8.6 2.138 16.269-12.349l.735 8.158m-35.709-4.522a1.478 1.478 0 0 1 .485 1.644c-1.389 4.021-7.4 18.751-20.868 18.751-17.463 0-9.287-37.253 10.622-37.253 14.739 0 7.878 21.65-10.174 22.929a1.5 1.5 0 0 1-1.6-1.562l.055-1.094a1.478 1.478 0 0 1 1.346-1.4c10.109-.911 16.008-12.36 10.575-12.36-8.056 0-16.522 22.665-7.286 22.665 7.169 0 12.643-8.367 14.631-11.892a1.481 1.481 0 0 1 2.211-.432zm-46.872-4.415C279.5 165.723 277.175 161 271.6 161a6.694 6.694 0 0 0-6.277 6.894c0 8.467 12.967 9.962 17.567 5.194l2.175-3.463c-5.043 3.554-13.731 1.864-13.731-1.168 0-2.393 2.734-2.648 2.734-.159 0 2.383-2.574 8.659-6.149 15.17"/><path d="M291.157 172.268c2.486-3.587-5.165-6.307-8.173-1.864-2.9 4.281-8.96 12.318-10.426 20.079-1.118 5.918 1.247 11.028 8 11.028 9.429 0 15.429-16.153 17.166-22.246A1.751 1.751 0 0 0 296.09 177a1.692 1.692 0 0 0-1.568 1.144c-1.321 3.7-5.817 15.17-10.744 15.17-4.752-.004-.767-9.294 7.379-21.046z"/></g><g fill="#ffcf2d"><path d="M434.09 204s-19.576 82.08-62.532 82.08c-38.361 0-20.775-80.637 20.525-80.637 31.506 0 15.434 49.76-24.588 49.76l.425-8.775c22.566 0 36.326-26.879 24.588-26.879-16.711 0-34.274 49.06-15.114 49.06 27.8 0 48.079-67.872 48.079-67.872zm-281.51-14.23c0 27.836-17.724 91.464-34.915 91.464s15.956-70.527 20.2-81.7c4.789-12.616-18.084-18.4-22.39-10.591-2.827 5.128-37.437 92.85-51.818 92.85-7.929 0-2.883-14.794 13.376-42.432 23.742-40.356 18.919-61.749-6.471-61.749-36.47 0-63.644 38.78-70.042 60.509-4.936 16.764 27.064 24.273 32 8.207 7.767-25.279 36.061-50.595 37.44-40.175 1.853 14-35.222 56.326-35.222 84.088 0 12.391 7.7 20.394 18.8 20.394 22.087 0 35.022-27.658 59.35-85.49-27.9 45.783-25.412 84.864.672 84.864 43.689 0 65.022-86.469 65.022-119.483-.002-11.861-26.002-11.599-26.002-.756zm52.066 31.33c3.5-7.556-12-12.055-17.7-1.515-5.539 10.252-17.416 35.841-17.4 51.5.009 10.34 4.83 17.64 15.015 17.648 24.9.021 40.681-68.523 40.681-68.523l1.149-4.022s-22.071 54.69-33.376 54.68c-9.226-.004-1.33-21.78 11.631-49.768z"/><path d="M174.009 268.643c14.176-6.554 27.28-30.478 31.607-42.8 3.095-8.816-3.282-12.72-9.152-12.461-5.7.253-12.545 19.423-12.545 19.423m22.575-45.674c-12.361 0-16.7 23.488-5.042 23.488 11.592 0 19.497-23.488 5.042-23.488z"/></g><path d="M108.122 125.106l4.629 13.318a1.558 1.558 0 0 0 1.44 1.046l14.1.288a1.557 1.557 0 0 1 .91 2.8l-11.236 8.519a1.556 1.556 0 0 0-.55 1.692l4.083 13.5a1.558 1.558 0 0 1-2.381 1.729l-11.577-8.058a1.554 1.554 0 0 0-1.779 0l-11.574 8.053a1.558 1.558 0 0 1-2.381-1.729l4.083-13.5a1.557 1.557 0 0 0-.55-1.692L84.1 142.556a1.557 1.557 0 0 1 .909-2.8l14.1-.288a1.556 1.556 0 0 0 1.439-1.046l4.63-13.318a1.558 1.558 0 0 1 2.944.002zm28.111-23.298l-3.617 4.333a1.56 1.56 0 0 1-1.717.47l-5.32-1.887a1.558 1.558 0 0 0-1.84 2.3l3 4.78a1.556 1.556 0 0 1-.083 1.777l-3.438 4.477a1.557 1.557 0 0 0 1.616 2.459l5.473-1.379a1.559 1.559 0 0 1 1.665.629l3.195 4.653a1.558 1.558 0 0 0 2.839-.777l.38-5.631a1.554 1.554 0 0 1 1.112-1.389l5.413-1.6a1.558 1.558 0 0 0 .138-2.94l-5.239-2.1a1.558 1.558 0 0 1-.977-1.487l.15-5.642a1.558 1.558 0 0 0-2.75-1.046zm321.573-19.976l7 12.242a1.556 1.556 0 0 0 1.607.764l13.911-2.3a1.557 1.557 0 0 1 1.407 2.584l-9.482 10.436a1.558 1.558 0 0 0-.23 1.765l6.491 12.518a1.558 1.558 0 0 1-2.023 2.137l-12.855-5.793a1.558 1.558 0 0 0-1.75.326l-9.9 10.041a1.558 1.558 0 0 1-2.658-1.263l1.537-14.016a1.557 1.557 0 0 0-.851-1.563l-12.61-6.316a1.558 1.558 0 0 1 .381-2.918l13.805-2.87a1.556 1.556 0 0 0 1.223-1.292l2.107-13.942a1.558 1.558 0 0 1 2.89-.54zm-27.048 51.746l3.016 6.2a1.9 1.9 0 0 0 1.9 1.061l6.859-.675a1.9 1.9 0 0 1 1.506 3.263l-4.962 4.783a1.9 1.9 0 0 0-.422 2.131l2.761 6.315a1.9 1.9 0 0 1-2.638 2.441l-6.082-3.241a1.9 1.9 0 0 0-2.158.257l-5.153 4.577a1.9 1.9 0 0 1-3.136-1.754l1.2-6.786a1.9 1.9 0 0 0-.911-1.973l-5.945-3.486a1.9 1.9 0 0 1 .7-3.525l6.826-.953a1.9 1.9 0 0 0 1.594-1.476L427.19 134a1.9 1.9 0 0 1 3.568-.422zm20.652 39.448l1.543 3.171a.972.972 0 0 0 .97.542l3.51-.345a.973.973 0 0 1 .77 1.669l-2.538 2.448a.973.973 0 0 0-.217 1.09l1.413 3.231a.973.973 0 0 1-1.349 1.249l-3.112-1.659a.973.973 0 0 0-1.1.132l-2.64 2.346a.974.974 0 0 1-1.605-.9l.616-3.472a.973.973 0 0 0-.466-1.009l-3.042-1.784a.973.973 0 0 1 .357-1.8l3.493-.488a.971.971 0 0 0 .815-.755l.757-3.444a.973.973 0 0 1 1.825-.222z" fill="#f94f46"/></svg>