<svg width="336" height="218" viewBox="0 0 336 218" fill="none" xmlns="http://www.w3.org/2000/svg">
<g clip-path="url(#clip0_2432_713)">
<path d="M148.797 67.1565C156.635 43.8044 166.03 14.8753 166.03 14.8753C149.657 62.5459 139.869 73.0943 125.767 73.0943C116.685 73.0943 111.123 66.3406 111.125 57.5187C111.13 41.6621 133.311 21.0648 125.29 21.0648C119.366 21.0648 103.255 42.1698 98.6217 52.7148C93.6885 63.9437 71.0195 52.2425 78.5375 38.4581C85.8585 25.0344 108.377 0 127.961 0C164.363 0 115.56 56.6735 129.463 56.6701C135.954 56.6701 144.876 43.6329 158.187 8.28356C162.151 -2.2417 182.417 2.82901 179.496 12.4083C176.234 23.1119 167.971 51.3687 161.442 70.6784C149.669 105.496 138.74 118.444 123.536 120.105C91.8742 123.562 88.1627 80.8987 137.058 74.2947C151.658 72.3212 175.542 77.0339 175.542 77.0339L173.164 83.4127C173.164 83.4127 154.498 80.8266 142.63 83.544C118.562 89.0516 115.042 107.055 123.859 107.052C133.818 107.049 142.343 86.3839 148.797 67.1565Z" fill="#FF7900"/>
<path d="M322.358 208.922C320.052 200.415 257.713 198.237 203.762 198.844C162.079 199.315 117.545 203.063 99.265 206.023C93.8847 206.894 95.1961 214.424 100.608 213.751C168.234 205.341 287.295 209.076 314.538 217.699C315.442 218.023 316.42 218.083 317.358 217.872C320.212 217.117 323.483 213.081 322.358 208.922Z" fill="#FFCF2D"/>
<path d="M200.354 63.9648C206.078 63.9648 205.709 51.9709 198.533 51.9709C185.452 51.9709 164.14 65.2987 164.14 89.8315C164.14 99.8355 169.305 107.71 181.128 107.71C204.201 107.71 219.412 60.8888 202.607 60.8888C189.163 60.8888 185.049 95.6427 203.035 95.6427C221.022 95.6427 229.991 73.6258 229.991 73.6258L221.661 76.1731C221.661 76.1731 213.828 88.4555 206.53 88.4555C196.084 88.4555 198.941 65.6199 201.848 65.6199C204.755 65.6199 199.189 96.7207 183.565 96.7207C172.195 96.7173 180.097 63.9648 200.354 63.9648Z" fill="#FF7900"/>
<path d="M241.293 57.8977C244.996 52.6874 230.439 46.5571 225.657 54.4725C221.006 62.1708 215.144 74.7908 213.589 89.0495C212.693 97.2636 214.634 107.646 224.884 107.646C241.038 107.646 245.551 72.7457 245.551 72.7457L244.51 72.8614C244.51 72.8614 236.414 94.4795 228.185 94.4795C221.019 94.4795 227.163 77.7858 241.293 57.8977Z" fill="#FF7900"/>
<path d="M214.337 91.7471C214.38 91.3953 231.469 79.5797 241.489 59.337C244.682 52.8814 237.857 50.6499 233.291 50.6499C228.859 50.6499 223.261 64.5091 223.261 64.5091" fill="#FF7900"/>
<path d="M240.462 16.2173C223.915 16.2173 193.59 20.3876 181.938 24.9051C174.429 27.8164 176.923 52.0982 188.415 48.3041C192.933 46.8124 219.18 40.8325 243.467 40.8325C298.175 40.8325 269.607 97.998 255.045 97.998C245.318 97.998 254.026 79.1096 268.154 59.2228C271.857 54.0125 257.3 47.8822 252.518 55.7969C247.869 63.4945 224.704 109.567 251.747 109.567C287.883 109.567 319.054 16.2173 240.462 16.2173Z" fill="#FF7900"/>
<path d="M241.199 93.0716C241.243 92.7204 258.332 80.9049 268.351 60.6622C271.545 54.2059 264.719 51.9744 260.153 51.9744C255.721 51.9744 250.123 65.8343 250.123 65.8343" fill="#FF7900"/>
<path d="M292.777 146.176C307.09 108.101 272.674 111.592 272.674 131.354C272.674 148.202 297.252 149.729 306.389 140.239L310.712 133.349C300.693 140.42 284.007 138.562 284.007 131.339C284.007 126.021 289.905 127.094 289.905 131.234C289.905 135.479 287.071 143.774 281.911 155.514C278.746 162.711 291.871 147.914 291.871 147.914" fill="#FFCF2D"/>
<path d="M213.426 147.147C216.307 140.872 204.821 138.98 202.497 144.11C195.905 158.653 188.723 185.631 188.213 189.786C187.577 194.964 199.794 196.35 200.053 190.723C200.516 180.702 210.477 153.571 213.426 147.147Z" fill="#FFCF2D"/>
<path d="M227.118 180.046C220.077 178.779 235.359 153.086 238.626 153.086C242.023 153.086 242.544 140.023 231.224 140.023C219.03 140.023 203.581 167.342 196.641 190.365L199.88 191.737C205.782 174.305 219.326 156.516 226.539 150.312C210.231 170.712 206.299 193.631 221.504 193.631C235.706 193.631 242.977 165.179 242.977 165.179L239.738 165.716C239.738 165.716 233.034 181.111 227.118 180.046Z" fill="#FFCF2D"/>
<path d="M165.732 147.892C168.612 141.618 157.126 139.725 154.802 144.855C148.211 159.399 141.028 186.376 140.517 190.532C139.881 195.71 152.099 197.096 152.358 191.469C152.821 181.448 162.781 154.317 165.732 147.892Z" fill="#FFCF2D"/>
<path d="M179.423 180.792C173.108 179.171 187.663 153.832 190.931 153.832C194.328 153.832 194.849 140.769 183.528 140.769C171.334 140.769 155.885 168.087 148.946 191.111L152.185 192.483C158.087 175.051 171.631 157.261 178.844 151.058C162.536 171.457 158.603 194.376 173.809 194.376C188.01 194.376 198.362 162.663 198.362 162.663L195.848 161.968C195.848 161.968 186.304 182.559 179.423 180.792Z" fill="#FFCF2D"/>
<path d="M322.813 138.607C327.444 132.874 313.843 127.425 307.869 136.266C302.11 144.784 290.673 159.409 287.76 174.852C285.539 186.626 289.342 196.795 302.76 196.795C321.492 196.795 332.407 164.657 335.858 152.533C336.018 152.018 336.056 151.473 335.969 150.941C335.882 150.408 335.674 149.903 335.359 149.466C335.045 149.028 334.633 148.669 334.156 148.418C333.68 148.166 333.152 148.029 332.613 148.017C331.924 148.031 331.255 148.257 330.697 148.664C330.14 149.071 329.721 149.64 329.497 150.294C326.873 157.648 317.304 182.385 307.516 182.385C298.805 182.385 304.943 160.727 322.813 138.607Z" fill="#FFCF2D"/>
<path d="M179.007 117.709C180.307 115.657 175.678 113.305 174.024 116.424C172.413 119.457 169.737 124.323 168.864 129.84C168.276 133.556 169.764 137.31 173.692 137.31C181.012 137.31 187.345 119.408 187.345 119.408L185.119 118.558C185.119 118.558 179.59 131.557 175.963 131.557C172.974 131.559 174.047 125.545 179.007 117.709Z" fill="#FF4800"/>
<path d="M169.469 131.046C173.624 129.249 177.932 122.281 179.186 118.603C180.081 115.972 178.203 114.888 176.478 114.888C174.804 114.888 172.325 120.314 172.325 120.314" fill="#FF4800"/>
<path d="M169.517 129.297C169.517 129.297 166.758 137.297 161.168 137.297C156.925 137.297 154.613 134.099 154.613 129.575C154.613 122.021 162.741 110.958 174.319 110.958C178.503 110.958 178.027 116.758 174.889 116.758C168.705 116.758 161.183 123.602 161.183 128.993C161.183 132.28 167.027 130.573 172.238 119.868L172.738 125.897" fill="#FF4800"/>
<path d="M249.578 118.326C250.877 116.436 246.249 114.27 244.595 117.142C242.984 119.932 240.307 124.417 239.43 129.498C238.843 132.92 240.331 136.377 244.259 136.377C250.496 136.377 255.305 125.74 256.88 121.776C256.954 121.59 256.989 121.391 256.982 121.191C256.974 120.991 256.926 120.795 256.839 120.614C256.753 120.434 256.629 120.274 256.478 120.144C256.326 120.013 256.149 119.916 255.957 119.858C255.624 119.756 255.265 119.777 254.946 119.919C254.628 120.061 254.371 120.313 254.223 120.629C252.857 123.556 249.094 131.081 246.53 131.081C243.232 131.081 244.617 125.542 249.578 118.326Z" fill="#FF4800"/>
<path d="M240.037 130.608C244.193 128.954 248.501 122.536 249.754 119.149C250.649 116.726 248.772 115.728 247.046 115.728C245.372 115.728 242.893 120.725 242.893 120.725" fill="#FF4800"/>
<path d="M240.088 128.997C240.088 128.997 237.329 136.366 231.739 136.366C227.496 136.366 225.183 133.421 225.183 129.254C225.183 122.295 233.312 112.108 244.889 112.108C249.073 112.108 248.598 117.451 245.459 117.451C239.276 117.451 231.754 123.753 231.754 128.718C231.754 131.745 237.597 130.173 242.808 120.314L243.308 125.866" fill="#FF4800"/>
<path d="M219.043 122.789C219.208 122.918 219.328 123.095 219.387 123.295C219.446 123.496 219.441 123.71 219.373 123.908C218.429 126.644 214.345 136.668 205.193 136.668C193.327 136.668 198.882 111.316 212.411 111.316C222.426 111.316 217.764 126.05 205.497 126.92C205.354 126.93 205.211 126.909 205.076 126.86C204.942 126.81 204.819 126.733 204.716 126.632C204.614 126.532 204.534 126.411 204.481 126.278C204.428 126.144 204.404 126.001 204.41 125.857L204.448 125.113C204.459 124.87 204.559 124.64 204.727 124.465C204.895 124.29 205.12 124.181 205.362 124.16C212.231 123.54 216.24 115.749 212.548 115.749C207.074 115.749 201.321 131.173 207.597 131.173C212.468 131.173 216.188 125.479 217.539 123.08C217.61 122.953 217.709 122.843 217.827 122.758C217.945 122.673 218.08 122.614 218.222 122.586C218.365 122.558 218.512 122.562 218.654 122.596C218.795 122.631 218.927 122.695 219.041 122.786L219.043 122.789Z" fill="#FF4800"/>
<path d="M187.193 119.784C189.922 112.781 188.342 109.567 184.554 109.567C183.374 109.64 182.268 110.171 181.472 111.047C180.676 111.923 180.251 113.075 180.289 114.259C180.289 120.021 189.1 121.038 192.226 117.794L193.704 115.437C190.277 117.855 184.373 116.705 184.373 114.642C184.373 113.013 186.231 112.84 186.231 114.534C186.231 116.155 184.482 120.427 182.053 124.858" fill="#FF4800"/>
<path d="M197.843 117.236C199.532 114.794 194.334 112.943 192.29 115.967C190.319 118.88 186.201 124.35 185.205 129.632C184.445 133.659 186.052 137.137 190.641 137.137C197.048 137.137 201.125 126.144 202.306 121.997C202.36 121.821 202.372 121.635 202.342 121.453C202.312 121.272 202.241 121.099 202.133 120.95C202.026 120.801 201.885 120.678 201.722 120.593C201.559 120.507 201.379 120.46 201.195 120.456C200.959 120.46 200.731 120.538 200.54 120.677C200.349 120.816 200.206 121.011 200.13 121.234C199.232 123.752 196.177 131.558 192.829 131.558C189.6 131.555 192.308 125.233 197.843 117.236Z" fill="#FF4800"/>
<path d="M294.967 138.83C294.967 138.83 281.665 194.689 252.476 194.689C226.41 194.689 238.36 139.812 266.423 139.812C287.832 139.812 276.911 173.676 249.715 173.676L250.004 167.704C265.338 167.704 274.688 149.412 266.712 149.412C255.357 149.412 243.423 182.8 256.442 182.8C275.332 182.8 289.112 136.61 289.112 136.61L294.967 138.83Z" fill="#FFCF2D"/>
<path d="M103.679 129.146C103.679 148.09 91.6356 191.391 79.9542 191.391C68.2728 191.391 90.7964 143.395 93.6803 135.791C96.9344 127.205 81.3921 123.269 78.4661 128.584C76.5451 132.073 53.0274 191.772 43.2554 191.772C37.8676 191.772 41.2964 181.704 52.3445 162.895C68.4773 135.431 65.2001 120.872 47.9474 120.872C23.1658 120.872 4.70084 147.264 0.353348 162.051C-3.0007 173.46 18.7435 178.57 22.0976 167.636C27.3753 150.433 46.6013 133.204 47.5383 140.296C48.7975 149.823 23.6047 178.628 23.6047 197.521C23.6047 205.954 28.8369 211.4 36.3795 211.4C51.3877 211.4 60.1772 192.578 76.7082 153.221C57.75 184.378 59.4406 210.974 77.1648 210.974C106.852 210.974 121.348 152.128 121.348 129.661C121.346 121.589 103.679 121.767 103.679 129.146Z" fill="#FFCF2D"/>
<path d="M139.058 150.468C141.437 145.326 130.904 142.264 127.031 149.437C123.267 156.414 115.197 173.828 115.208 184.485C115.214 191.521 118.49 196.489 125.411 196.495C142.33 196.509 153.054 149.862 153.054 149.862L153.834 147.125C153.834 147.125 138.837 184.344 131.155 184.337C124.886 184.334 130.251 169.515 139.058 150.468Z" fill="#FFCF2D"/>
<path d="M118.24 182.823C127.873 178.362 136.777 162.081 139.718 153.695C141.821 147.696 137.488 145.039 133.499 145.215C129.626 145.387 124.974 158.433 124.974 158.433" fill="#FFCF2D"/>
<path d="M140.314 127.351C131.915 127.351 128.966 143.335 136.888 143.335C144.765 143.335 150.137 127.351 140.314 127.351Z" fill="#FFCF2D"/>
<path d="M73.4698 85.1398L76.6152 94.2033C76.6862 94.4078 76.8181 94.5857 76.993 94.7129C77.1679 94.8402 77.3776 94.9108 77.5937 94.9151L87.1748 95.1111C87.395 95.115 87.6085 95.1876 87.7855 95.3188C87.9626 95.45 88.0943 95.6333 88.1624 95.8431C88.2304 96.0528 88.2315 96.2787 88.1653 96.489C88.0991 96.6994 87.969 96.8839 87.7931 97.0167L80.1582 102.814C79.9858 102.945 79.8576 103.125 79.7908 103.331C79.724 103.537 79.7217 103.758 79.7844 103.966L82.5589 113.153C82.6223 113.364 82.6187 113.589 82.5485 113.798C82.4784 114.006 82.3452 114.188 82.1673 114.317C81.9895 114.446 81.7759 114.517 81.5562 114.519C81.3364 114.522 81.1214 114.455 80.941 114.33L73.0743 108.846C72.8971 108.722 72.6861 108.655 72.4699 108.655C72.2537 108.655 72.0427 108.722 71.8655 108.846L64.0009 114.326C63.8204 114.452 63.6054 114.518 63.3857 114.516C63.1659 114.514 62.9523 114.443 62.7745 114.314C62.5967 114.184 62.4634 114.003 62.3933 113.794C62.3231 113.586 62.3195 113.36 62.3829 113.15L65.1574 103.962C65.22 103.755 65.2177 103.534 65.1509 103.328C65.0841 103.122 64.9559 102.942 64.7836 102.811L57.1467 97.0153C56.9708 96.8825 56.8408 96.6982 56.7746 96.4878C56.7083 96.2775 56.7093 96.0518 56.7773 95.842C56.8453 95.6323 56.9769 95.449 57.1538 95.3177C57.3308 95.1865 57.5442 95.1138 57.7643 95.1098L67.3454 94.9138C67.5615 94.9094 67.7711 94.8389 67.9459 94.7116C68.1207 94.5843 68.2524 94.4065 68.3232 94.2019L71.4693 85.1385C71.5415 84.9303 71.6767 84.7499 71.8561 84.6223C72.0354 84.4946 72.25 84.4261 72.47 84.4263C72.6901 84.4264 72.9046 84.4952 73.0837 84.6231C73.2629 84.751 73.3978 84.9316 73.4698 85.1398Z" fill="#F94F46"/>
<path d="M92.5714 69.2845L90.1136 72.2333C89.9749 72.3994 89.7888 72.5191 89.5803 72.5763C89.3718 72.6334 89.1507 72.6254 88.9469 72.5532L85.3319 71.269C85.1244 71.1949 84.8991 71.1875 84.6872 71.2478C84.4753 71.3081 84.2875 71.4331 84.1499 71.6054C84.0123 71.7776 83.9317 71.9886 83.9195 72.2089C83.9073 72.4291 83.964 72.6477 84.0816 72.8342L86.1202 76.0872C86.2353 76.2704 86.2916 76.4845 86.2815 76.7007C86.2715 76.917 86.1954 77.1249 86.0638 77.2965L83.7276 80.3433C83.5935 80.5179 83.517 80.73 83.5088 80.9501C83.5006 81.1702 83.5611 81.3874 83.6819 81.5715C83.8027 81.7556 83.9778 81.8974 84.1828 81.9772C84.3877 82.057 84.6125 82.0708 84.8257 82.0168L88.5446 81.0783C88.7543 81.0255 88.9751 81.0382 89.1773 81.1147C89.3796 81.1913 89.5536 81.3279 89.676 81.5064L91.8471 84.6729C91.9715 84.8545 92.1493 84.9928 92.3558 85.0685C92.5623 85.1443 92.7873 85.1537 92.9994 85.0956C93.2115 85.0374 93.4002 84.9146 93.5394 84.7441C93.6787 84.5736 93.7614 84.3639 93.7762 84.1441L94.0344 80.312C94.0485 80.0959 94.1286 79.8894 94.2637 79.7204C94.3989 79.5513 94.5826 79.4279 94.79 79.3667L98.4682 78.2779C98.679 78.2154 98.8652 78.0887 99.0009 77.9154C99.1366 77.7421 99.215 77.5308 99.2253 77.3109C99.2356 77.0909 99.1773 76.8732 99.0584 76.6879C98.9395 76.5027 98.766 76.3591 98.5619 76.2771L95.002 74.8479C94.8014 74.7673 94.6303 74.6271 94.5116 74.4462C94.393 74.2653 94.3324 74.0524 94.3381 73.836L94.44 69.9964C94.4462 69.7764 94.3838 69.56 94.2616 69.3771C94.1395 69.1943 93.9635 69.054 93.7582 68.9758C93.5528 68.8975 93.3282 68.8852 93.1156 68.9406C92.903 68.9959 92.7128 69.1161 92.5714 69.2845Z" fill="#F94F46"/>
<path d="M311.082 55.6902L315.839 64.0214C315.946 64.2094 316.108 64.3601 316.303 64.4531C316.499 64.546 316.718 64.5768 316.931 64.5413L326.384 62.9761C326.6 62.9399 326.823 62.9723 327.021 63.0688C327.219 63.1654 327.381 63.3211 327.486 63.5146C327.592 63.708 327.634 63.9294 327.608 64.1481C327.581 64.3667 327.488 64.5717 327.34 64.7346L320.897 71.8367C320.751 71.997 320.658 72.198 320.63 72.4127C320.602 72.6275 320.641 72.8456 320.74 73.0379L325.151 81.5569C325.252 81.7524 325.29 81.9745 325.259 82.1924C325.228 82.4104 325.131 82.6134 324.98 82.7732C324.829 82.9331 324.631 83.0419 324.416 83.0845C324.2 83.1272 323.977 83.1015 323.776 83.0112L315.041 79.0688C314.844 78.9797 314.625 78.9533 314.412 78.9929C314.199 79.0326 314.004 79.1365 313.852 79.2907L307.125 86.124C306.971 86.2807 306.771 86.3854 306.555 86.4236C306.338 86.4618 306.115 86.4316 305.917 86.3371C305.718 86.2426 305.554 86.0886 305.447 85.8964C305.34 85.7042 305.295 85.4833 305.319 85.2645L306.363 75.726C306.387 75.5108 306.344 75.2934 306.241 75.1033C306.137 74.9131 305.978 74.7592 305.785 74.6623L297.216 70.364C297.02 70.2653 296.859 70.1078 296.756 69.9134C296.653 69.719 296.613 69.4972 296.641 69.279C296.67 69.0607 296.765 68.8567 296.915 68.6953C297.064 68.5339 297.26 68.423 297.475 68.3782L306.856 66.425C307.068 66.3811 307.261 66.2733 307.409 66.1161C307.558 65.9589 307.655 65.7598 307.687 65.5458L309.119 56.0577C309.152 55.8406 309.252 55.6392 309.405 55.4815C309.557 55.3237 309.755 55.2173 309.971 55.177C310.186 55.1366 310.409 55.1643 310.608 55.2563C310.807 55.3482 310.973 55.4998 311.082 55.6902Z" fill="#F94F46"/>
<path d="M292.703 90.9054L294.752 95.1247C294.868 95.363 295.054 95.5601 295.285 95.6892C295.515 95.8183 295.78 95.8733 296.044 95.8468L300.704 95.3874C300.972 95.3601 301.241 95.4172 301.475 95.5507C301.708 95.6842 301.895 95.8874 302.007 96.1319C302.12 96.3765 302.154 96.6502 302.103 96.9148C302.053 97.1794 301.922 97.4218 301.728 97.608L298.356 100.863C298.166 101.046 298.036 101.284 297.985 101.543C297.934 101.802 297.963 102.071 298.069 102.313L299.945 106.611C300.054 106.857 300.083 107.132 300.028 107.395C299.974 107.659 299.839 107.899 299.641 108.082C299.444 108.265 299.194 108.382 298.927 108.416C298.66 108.45 298.39 108.4 298.153 108.272L294.02 106.066C293.787 105.942 293.522 105.892 293.259 105.923C292.997 105.954 292.751 106.066 292.554 106.241L289.052 109.356C288.852 109.536 288.6 109.648 288.333 109.677C288.066 109.707 287.796 109.652 287.561 109.521C287.327 109.389 287.139 109.188 287.024 108.944C286.909 108.701 286.873 108.427 286.921 108.163L287.737 103.544C287.783 103.284 287.748 103.016 287.638 102.776C287.527 102.536 287.345 102.335 287.117 102.202L283.078 99.8293C282.845 99.6938 282.661 99.489 282.55 99.2435C282.44 98.998 282.408 98.724 282.461 98.4598C282.513 98.1956 282.647 97.9544 282.843 97.7698C283.038 97.5853 283.287 97.4666 283.553 97.4304L288.192 96.7818C288.453 96.7454 288.697 96.6295 288.891 96.4499C289.085 96.2703 289.219 96.0356 289.275 95.7773L290.279 91.1925C290.336 90.9295 290.473 90.6908 290.672 90.5099C290.871 90.3289 291.122 90.2146 291.389 90.183C291.655 90.1514 291.926 90.204 292.161 90.3335C292.397 90.463 292.586 90.6629 292.703 90.9054Z" fill="#F94F46"/>
<path d="M306.736 117.752L307.785 119.91C307.844 120.031 307.939 120.132 308.056 120.198C308.174 120.263 308.309 120.292 308.444 120.278L310.829 120.044C310.966 120.03 311.103 120.06 311.222 120.128C311.341 120.196 311.436 120.3 311.494 120.425C311.551 120.55 311.568 120.69 311.543 120.825C311.518 120.96 311.451 121.084 311.352 121.179L309.628 122.845C309.53 122.939 309.464 123.06 309.438 123.193C309.411 123.326 309.426 123.463 309.48 123.587L310.44 125.786C310.495 125.912 310.51 126.052 310.482 126.187C310.454 126.321 310.385 126.444 310.284 126.538C310.183 126.631 310.056 126.691 309.919 126.708C309.783 126.726 309.645 126.701 309.524 126.636L307.409 125.507C307.29 125.444 307.155 125.419 307.021 125.435C306.888 125.451 306.762 125.507 306.661 125.597L304.868 127.193C304.765 127.285 304.636 127.342 304.499 127.356C304.363 127.371 304.225 127.343 304.105 127.276C303.985 127.208 303.889 127.105 303.83 126.981C303.771 126.856 303.753 126.716 303.777 126.581L304.196 124.218C304.219 124.085 304.201 123.948 304.145 123.825C304.088 123.702 303.995 123.6 303.879 123.531L301.812 122.317C301.694 122.247 301.601 122.143 301.545 122.018C301.489 121.893 301.474 121.753 301.5 121.619C301.527 121.484 301.595 121.362 301.694 121.267C301.793 121.173 301.919 121.112 302.054 121.092L304.428 120.76C304.562 120.742 304.686 120.682 304.785 120.59C304.884 120.499 304.953 120.378 304.982 120.246L305.496 117.903C305.525 117.768 305.595 117.646 305.697 117.553C305.798 117.461 305.926 117.402 306.062 117.385C306.199 117.369 306.337 117.395 306.458 117.461C306.578 117.526 306.676 117.628 306.736 117.752Z" fill="#F94F46"/>
</g>
<defs>
<clipPath id="clip0_2432_713">
<rect width="336" height="218" fill="white"/>
</clipPath>
</defs>
</svg>
