<svg xmlns="http://www.w3.org/2000/svg"  viewBox="0 0 64 64" width="64px" height="64px" baseProfile="basic" fill="#fd3c4f"><path fill="#fd3c4f" d="M44,10H20c-5.523,0-10,4.477-10,10v24c0,5.523,4.477,10,10,10h24c5.523,0,10-4.477,10-10V20	C54,14.477,49.523,10,44,10z"/><ellipse cx="32" cy="61" opacity=".3" rx="20" ry="3"/><path fill="#fff" d="M31,15c2.761,0,5-2.238,5-5H20c-5.523,0-10,4.477-10,10v22c2.761,0,5-2.238,5-5V20 c0-2.757,2.243-5,5-5H31z" opacity=".3"/><path d="M54,44V22c-2.761,0-5,2.238-5,5v17c0,2.757-2.243,5-5,5H33c-2.761,0-5,2.238-5,5h16 C49.523,54,54,49.523,54,44z" opacity=".15"/><path fill="#fff" d="M14,21.5c-0.829,0-1.5-0.671-1.5-1.5c0-4.136,3.364-7.5,7.5-7.5c0.829,0,1.5,0.671,1.5,1.5	s-0.671,1.5-1.5,1.5c-2.481,0-4.5,2.019-4.5,4.5C15.5,20.829,14.829,21.5,14,21.5z"/><path fill="#ffce29" d="M32,42.234l-6.678,3.511c-1.59,0.836-3.449-0.515-3.146-2.286l1.275-7.437l-5.403-5.266	c-1.287-1.254-0.577-3.44,1.201-3.698l7.466-1.085l3.339-6.766c0.795-1.611,3.093-1.611,3.889,0l3.339,6.766l7.466,1.085	c1.778,0.258,2.488,2.444,1.201,3.698l-5.403,5.267l1.275,7.437c0.304,1.771-1.555,3.122-3.146,2.286L32,42.234z"/></svg>