<svg xmlns="http://www.w3.org/2000/svg"  viewBox="0 0 72 72" width="64px" height="64px"><path d="M 36 10 C 28.28 10 22 16.28 22 24 L 22 29.742188 C 18.302469 33.373444 16 38.420503 16 44 C 16 55.028 24.972 64 36 64 C 47.028 64 56 55.028 56 44 C 56 38.420503 53.697531 33.373444 50 29.742188 L 50 24 C 50 16.28 43.72 10 36 10 z M 36 18 C 39.309 18 42 20.691 42 24 L 42 24.921875 C 40.104969 24.324598 38.089745 24 36 24 C 33.910255 24 31.895031 24.324598 30 24.921875 L 30 24 C 30 20.691 32.691 18 36 18 z M 36 32 C 42.617 32 48 37.383 48 44 C 48 50.617 42.617 56 36 56 C 29.383 56 24 50.617 24 44 C 24 37.383 29.383 32 36 32 z M 36 38 C 33.791 38 32 39.791 32 42 C 32 43.477 32.809 44.752312 34 45.445312 L 34 48 C 34 49.105 34.896 50 36 50 C 37.104 50 38 49.105 38 48 L 38 45.445312 C 39.191 44.752313 40 43.477 40 42 C 40 39.791 38.209 38 36 38 z"/></svg>