<svg xmlns="http://www.w3.org/2000/svg"  viewBox="0 0 50 50" width="50px" height="50px"><path d="M 25.96875 1 C 23.79275 1 22.030516 2.3057344 21.978516 3.9277344 L 21.246094 4.0253906 L 21.134766 4.046875 C 19.433766 4.475875 18.104453 5.593 17.439453 7 L 9 7 L 9 4 L 7 4 L 7 14 L 9 14 L 9 11 L 17.439453 11 C 18.104453 12.407 19.433766 13.525125 21.134766 13.953125 L 21.976562 14.066406 C 22.024562 15.692406 23.78975 17 25.96875 17 L 25.96875 14.601562 L 30 15.142578 L 30 2.8574219 L 25.96875 3.3945312 L 25.96875 1 z M 12.300781 14 L 19.970703 31.640625 C 20.630703 33.150625 20.659062 34.860625 20.039062 36.390625 L 15 48 L 32 48 L 34.519531 42.109375 C 34.679531 41.739375 35.220078 41.779922 35.330078 42.169922 L 37 48 L 43 48 L 40.900391 39.179688 C 40.330391 36.529688 38.620703 34.260234 36.220703 32.990234 L 26.589844 27.849609 C 25.549844 27.289609 24.689141 26.449688 24.119141 25.429688 L 17.689453 14 L 12.300781 14 z M 35.5 19 A 5.5 5.5 0 0 0 35.5 30 A 5.5 5.5 0 0 0 35.5 19 z"/></svg>