<svg enable-background="new 0 0 656.087 1277.891" height="1278" viewBox="0 0 656.087 1277.891" width="657" xmlns="http://www.w3.org/2000/svg"><path d="m655.087 393.545v838.674c0 19.3-26.833 30.798-49.775 42.068 3.235-1.581-13.76-857.721-13.76-857.721 0-35.622-4.258-55.235-35.225-72.833 0 0-545.256-319.217-546.567-319.7 21.599-22.951 48.113-27.496 62.792-19.151l532.429 302.555c30.967 17.599 50.106 50.485 50.106 86.108z" fill="#fff"/><path d="m605.313 1275.287c-.37 0-.725-.206-.899-.561-.142-.29-.131-.615.002-.883 2.825-14.743-13.696-848.818-13.863-857.258 0-36.855-4.825-54.995-34.719-71.984-5.43-3.179-541.578-317.061-546.5-319.665-.274-.129-.476-.377-.546-.675-.077-.327.015-.67.245-.915 22.43-23.833 49.18-27.766 64.013-19.333l532.429 302.555c31.219 17.742 50.612 51.069 50.612 86.977v838.674c0 18.5-22.978 29.664-45.199 40.461-1.713.833-3.418 1.661-5.102 2.488-.011.005-.023.011-.034.017-.142.069-.292.102-.439.102zm-.465-1.886c-.003.002-.007.003-.01.005.003-.002.006-.003.01-.005zm.025-.013c-.008.004-.017.008-.025.012.008-.004.015-.008.023-.011.001-.001.001-.001.002-.001zm-593.511-1249.583c26.324 15.147 457.068 267.31 545.47 319.064 30.561 17.368 35.719 36.772 35.719 73.697.042 2.12 4.292 216.466 8.093 428.249 2.232 124.386 3.875 223.562 4.882 294.772.598 42.282.976 75.047 1.123 97.384.151 22.998.094 32.006-.164 35.627 1.169-.571 2.346-1.143 3.528-1.717 21.668-10.528 44.073-21.415 44.073-38.663v-838.673c0-35.19-19.006-67.851-49.6-85.238l-532.428-302.556c-18.167-10.329-44.562 1.484-60.696 18.054z"/><path d="m641.646 343.732c8.656 14.874 13.44 32.002 13.44 49.813v838.674c0 19.3-26.833 30.798-49.775 42.068 3.235-1.581-.653-896.14-8.913-910.758z"/><path d="m605.313 1275.287c-.37 0-.725-.206-.899-.561-.143-.292-.131-.619.004-.888 1.478-7.319 1.345-227.136-.279-453.929-1.971-275.208-5.271-449.895-8.61-455.889-.137-.246-.166-.542-.075-.809.09-.267.287-.486.545-.599l45.247-19.796c.465-.204 1.01-.026 1.265.413 8.882 15.262 13.576 32.661 13.576 50.316v838.674c0 18.499-22.978 29.664-45.199 40.461-1.722.837-3.435 1.669-5.127 2.5-.003.001-.006.003-.009.004-.142.07-.292.102-.439.103zm-7.704-911.196c4.905 21.904 7.594 324.884 8.534 456.416 1.437 200.913 1.857 428.422.376 452.076 1.158-.565 2.324-1.132 3.494-1.701 21.668-10.528 44.073-21.415 44.073-38.663v-838.674c0-17.005-4.444-33.767-12.86-48.538z"/><path d="m579.209 1273.007-524.457-303.834c-32.621-18.898-52.722-53.727-52.767-91.427l-.985-834.321c-.023-19.765 21.303-32.192 38.487-22.427l532.419 302.553c30.976 17.602 50.111 50.485 50.111 86.112v838.67c0 21.971-23.798 35.687-42.808 24.674z" fill="#fff"/><path d="m593.502 1277.896c-5.083 0-10.164-1.341-14.794-4.023l-524.457-303.835c-32.811-19.008-53.221-54.372-53.266-92.291l-.985-834.321c-.011-9.643 4.956-18.298 13.287-23.153s18.311-4.909 26.694-.145l532.419 302.553c31.222 17.742 50.617 51.071 50.617 86.982v838.67c0 10.679-5.524 20.238-14.776 25.571-4.616 2.662-9.679 3.992-14.739 3.992zm-13.792-5.754c8.615 4.99 18.907 5.001 27.533.03 8.625-4.972 13.775-13.883 13.775-23.838v-838.67c0-35.193-19.008-67.856-49.605-85.243l-532.42-302.554c-7.757-4.408-16.99-4.358-24.699.134s-12.304 12.501-12.294 21.423l.985 834.321c.044 37.209 20.072 71.911 52.268 90.563z"/><ellipse cx="311.053" cy="470.092" fill="#adc4cb" rx="118.666" ry="206.539" transform="matrix(.866 -.5 .5 .866 -193.3729 218.5071)"/><path d="m376.624 659.641c-20.157 0-42.528-6.796-65.718-20.25-39.064-22.664-75.816-61.539-103.486-109.465s-42.961-99.192-43.057-144.354c-.096-45.364 15.147-79.177 42.921-95.212s64.678-12.329 103.916 10.435c39.064 22.664 75.816 61.539 103.486 109.465s42.961 99.192 43.056 144.355c.095 45.363-15.147 79.177-42.921 95.212-11.358 6.557-24.247 9.814-38.197 9.814zm-131.135-377.095c-13.606 0-26.156 3.166-37.205 9.545-27.127 15.662-42.015 48.859-41.921 93.476.094 44.818 15.29 95.731 42.788 143.359s63.992 86.245 102.758 108.735c38.593 22.39 74.785 26.095 101.913 10.433 56.189-32.44 55.799-138.684-.868-236.834-27.498-47.628-63.992-86.245-102.758-108.735-22.873-13.272-44.907-19.979-64.707-19.979z"/><path d="m346.618 498.545c-33.467 6.89-55.778-5.25-55.778-5.25l-.297-105.365s2.897-17.911 26.363-19.811c25.53-2.066 46.96 6.105 46.96 31.718l11.738 29.379c9.425 23.59 2.835 62.777-28.986 69.329z" fill="#fff"/><path d="m326.334 501.639c-21.929 0-35.796-7.37-35.972-7.466-.321-.175-.521-.51-.522-.875l-.297-105.365c0-.054.004-.109.013-.163.031-.193.808-4.785 4.579-9.646 3.46-4.461 10.206-9.991 22.691-11.001 17.211-1.393 30.658 1.878 38.879 9.461 6.039 5.57 9.121 13.328 9.161 23.06l11.667 29.201c6.219 15.565 5.178 35.716-2.588 50.143-5.922 11.001-15.302 18.102-27.125 20.536-7.391 1.522-14.265 2.115-20.486 2.115zm-34.496-8.961c3.53 1.715 24.659 11.047 54.578 4.887l.202.979-.202-.979c11.225-2.311 20.136-9.063 25.768-19.525 7.501-13.935 8.503-33.407 2.491-48.453l-11.738-29.378c-.047-.118-.071-.244-.071-.371 0-9.241-2.866-16.57-8.517-21.783-9.854-9.089-25.756-9.878-37.362-8.938-21.829 1.767-25.188 17.5-25.444 18.899z"/><path d="m252.706 470.092 45.473 20.958 31.536-100.535s2.546-17.965-19.301-26.739c-23.768-9.546-46.657-8.099-54.254 16.362l-19.924 24.575c-15.997 19.733-14.745 56.371 16.47 65.379z" fill="#fff"/><path d="m298.179 492.05c-.143 0-.286-.031-.418-.092l-45.405-20.927c-12.567-3.65-21.551-12.231-25.301-24.171-4.388-13.973-1.01-31.164 8.405-42.778l19.803-24.426c2.925-9.282 8.169-15.777 15.588-19.305 10.101-4.803 23.91-3.94 39.936 2.496 11.624 4.668 16.425 11.95 18.407 17.237 2.159 5.76 1.539 10.377 1.511 10.571-.008.054-.02.107-.036.159l-31.536 100.536c-.086.274-.286.498-.549.615-.128.057-.266.085-.405.085zm-12.573-132.766c-4.814 0-9.566.815-13.896 2.874-6.943 3.302-11.854 9.451-14.595 18.276-.038.121-.098.234-.178.333l-19.924 24.575c-9.011 11.115-12.246 27.559-8.051 40.919 2.511 7.995 8.717 18.453 24.021 22.87.048.014.095.031.141.052l44.441 20.482 31.17-99.366c.171-1.412 1.63-17.434-18.693-25.595-6.941-2.787-15.788-5.42-24.436-5.42z"/><path d="m403.118 581.546v57.18c0 3.19-.02 9.12-.05 15.45-49.8 17.93-120.27-19.94-172.9-91.28-7.72-10.46-15.05-21.64-21.88-33.47-.13-.22-.25-.44-.38-.66v-12.62c0-19.13 12.675-29.363 21.79-33.54 27.309-12.514 44.34-9.6 48.68-9.23 5 .42 41.24 14.34 41.24 14.34s19.519 6.393 34.79 17.19c28.657 20.261 48.71 44.56 48.71 76.64z" fill="#87c159"/><path d="m376.572 659.637c-18.318 0-38.412-5.624-59.362-16.741-31.465-16.698-61.842-44.156-87.847-79.406-7.812-10.585-15.194-21.877-21.942-33.564l-.375-.652c-.091-.154-.139-.33-.139-.509v-12.62c0-22.453 17.125-32.044 22.374-34.449 25.682-11.768 42.576-10.003 48.127-9.422.41.043.761.08 1.054.105 5.082.427 40.028 13.832 41.513 14.403.149.048 19.79 6.547 35.009 17.307 33.061 23.375 49.133 48.711 49.133 77.456v57.18c0 3.191-.02 9.123-.05 15.455-.002.42-.266.794-.661.936-8.384 3.02-17.373 4.521-26.834 4.521zm-167.664-131.138.241.419c6.715 11.63 14.056 22.859 21.824 33.384 25.829 35.011 55.973 62.269 87.175 78.827 30.975 16.437 59.975 20.697 83.923 12.34.028-6.062.047-11.672.047-14.743v-57.18c0-28.048-15.795-52.85-48.287-75.823-14.967-10.583-34.33-16.993-34.524-17.057-12.536-4.814-37.17-13.971-41.012-14.293-.305-.026-.669-.064-1.093-.108-5.417-.566-21.901-2.29-47.087 9.251-4.975 2.279-21.207 11.369-21.207 32.631zm194.16 125.677h.01z"/><path d="m329.33 645.661c-.005 0-.011 0-.016 0-.552-.009-.993-.464-.984-1.016l.967-60.434c.009-.552.434-.995 1.016-.984.552.009.993.464.984 1.016l-.967 60.434c-.009.547-.455.984-1 .984z"/><path d="m330.477 506.226 1.383-40.779-61.423 22.688v24.196c0 4.984 2.215 9.735 6.109 12.846 7.362 5.883 20.8 12.994 37.102 5.115 13.401-6.477 16.579-16.694 16.829-24.066z" fill="#fff"/><path d="m299.162 534.759c-10.269 0-18.479-4.996-23.24-8.801-4.121-3.293-6.484-8.26-6.484-13.627v-24.196c0-.419.261-.793.654-.938l61.423-22.688c.312-.115.662-.068.932.127s.425.512.414.845l-1.383 40.778c-.26 7.665-3.489 18.213-17.394 24.933-5.305 2.564-10.32 3.567-14.922 3.567zm-27.725-45.927v23.499c0 4.756 2.09 9.153 5.733 12.065 7.974 6.372 20.7 12.411 36.042 4.996 13.006-6.286 16.024-16.086 16.265-23.2l1.333-39.291zm59.04 17.394h.01z"/><path d="m238.935 389.572-1.333 59.707c-.409 18.33 9.622 35.303 25.877 43.784 26.469 13.81 59.741 2.798 70.251-25.146 0 0 7.081-25.951 9.631-32.258 3.792-9.375.43-89.619-71.607-80.497-19.907 2.521-32.819 34.41-32.819 34.41z" fill="#fff"/><path d="m287.667 500.012c-8.464 0-16.933-2.036-24.65-6.062-16.714-8.72-26.835-25.846-26.415-44.693l1.333-59.707c.003-.121.027-.241.073-.353.033-.081 3.335-8.17 9.048-16.452 7.755-11.242 16.022-17.492 24.573-18.575 25.003-3.166 44.342 3.877 57.478 20.935 17.713 23.002 17.345 55.582 15.182 60.929-2.5 6.181-9.523 31.887-9.593 32.146-4.979 13.25-15.046 23.304-28.375 28.399-6.003 2.295-12.328 3.433-18.654 3.433zm-47.736-110.229-1.329 59.518c-.404 18.081 9.306 34.51 25.34 42.875 12.978 6.771 28.164 7.695 41.665 2.535 12.787-4.887 22.442-14.528 27.188-27.146.261-.973 7.097-25.991 9.64-32.281 2.005-4.957 2.029-36.958-14.913-58.959-12.671-16.455-31.394-23.241-55.642-20.171-18.369 2.326-30.912 31.167-31.949 33.629z"/><path d="m363.866 396.989c.02-23.714-18.7-46.758-50.817-53.306-1.722-.393-3.504-.757-5.39-1.069-12.532-2.071-40.8-.986-55.502 13.046-15.503 14.797-13.494 46.058-13.494 46.058s6.467 1.044 17.853-7.298c14.474-10.605 20.734-23.964 20.734-23.964s1.327 16.007 12.176 29.161c13.478 16.342 37.456 26.996 37.456 26.996l.421 24.286 4.548 15.677-.042 5.97" fill="#fff"/><path d="m331.811 473.547c-.002 0-.005 0-.007 0-.552-.004-.997-.455-.993-1.007l.041-5.824-4.508-15.537c-.025-.085-.038-.173-.039-.261l-.41-23.658c-3.775-1.766-24.939-12.092-37.238-27.005-8.181-9.919-11.033-21.274-11.972-26.631-2.625 4.511-8.851 13.747-19.576 21.604-11.591 8.492-18.323 7.523-18.604 7.479-.461-.074-.809-.458-.839-.923-.021-.323-.492-8.032.942-17.691 1.333-8.973 4.646-21.315 12.859-29.155 15.266-14.571 44.56-15.259 56.355-13.31 1.754.29 3.537.644 5.449 1.081 15.489 3.158 28.629 10.254 37.976 20.518 8.792 9.653 13.628 21.645 13.618 33.764 0 .552-.448.999-1 .999 0 0 0 0-.001 0-.552 0-1-.448-.999-1.001.021-24.8-20.547-46.317-50.016-52.326-1.896-.433-3.64-.779-5.354-1.062-11.472-1.896-39.928-1.267-54.648 12.783-13.541 12.924-13.395 39.181-13.225 44.37 2.005-.054 7.706-.841 16.303-7.14 14.082-10.318 20.358-23.451 20.42-23.583.192-.41.636-.637 1.082-.559.446.08.782.45.82.901.013.157 1.439 15.863 11.951 28.608 13.168 15.966 36.853 26.612 37.091 26.718.355.158.587.508.594.896l.418 24.153 4.511 15.549c.027.093.04.189.04.286l-.042 5.97c-.003.55-.45.994-.999.994z"/><path d="m270.437 455.265c-1.363.889-2.991 1.405-4.74 1.405-4.799 0-8.69-3.891-8.69-8.69s3.891-8.69 8.69-8.69" fill="#fff"/><path d="m265.697 457.67c-5.343 0-9.69-4.347-9.69-9.69s4.347-9.69 9.69-9.69c.552 0 1 .448 1 1s-.448 1-1 1c-4.24 0-7.69 3.45-7.69 7.69s3.45 7.69 7.69 7.69c1.496 0 2.947-.43 4.194-1.243.462-.301 1.082-.171 1.384.292s.171 1.082-.292 1.384c-1.572 1.025-3.4 1.567-5.286 1.567z"/><path d="m255.707 466.846s8.568 11.195 22.765 6.555" fill="#fff"/><path d="m271.729 475.518c-10.499 0-16.741-7.967-16.816-8.064-.335-.438-.252-1.064.186-1.4s1.065-.253 1.402.184c.334.434 8.331 10.569 21.661 6.214.524-.172 1.09.115 1.261.64.172.525-.115 1.09-.64 1.261-2.522.823-4.88 1.165-7.054 1.165z"/><ellipse cx="254.583" cy="429.112" rx="2.425" ry="6.548"/><path d="m254.582 436.66c-2.353 0-3.425-3.912-3.425-7.548s1.072-7.548 3.425-7.548 3.425 3.912 3.425 7.548-1.071 7.548-3.425 7.548zm-.016-13.097c-.364.115-1.408 1.997-1.408 5.549s1.044 5.434 1.441 5.549c.364-.115 1.408-1.997 1.408-5.549s-1.044-5.434-1.441-5.549z"/><ellipse cx="286.259" cy="442.207" rx="2.425" ry="6.548"/><path d="m286.259 449.755c-2.353 0-3.425-3.912-3.425-7.548s1.072-7.548 3.425-7.548 3.425 3.913 3.425 7.548-1.072 7.548-3.425 7.548zm-.017-13.097c-.364.115-1.408 1.997-1.408 5.55s1.045 5.434 1.442 5.549c.364-.115 1.408-1.997 1.408-5.549 0-3.553-1.045-5.435-1.442-5.55z"/><path d="m247.169 415.208s9.397-5.299 17.831 5.502" fill="#fff"/><path d="m265.001 421.71c-.297 0-.592-.132-.789-.385-7.814-10.009-16.465-5.295-16.551-5.247-.481.271-1.091.101-1.362-.38s-.101-1.091.38-1.362c.102-.057 10.249-5.59 19.11 5.758.34.435.263 1.064-.173 1.404-.183.143-.4.212-.615.212z"/><path d="m282.361 427.011s9.397-5.299 17.831 5.502" fill="#fff"/><path d="m300.193 433.513c-.297 0-.592-.132-.789-.385-7.815-10.009-16.465-5.295-16.552-5.247-.481.27-1.091.101-1.362-.38s-.101-1.091.38-1.362c.102-.057 10.249-5.591 19.11 5.758.34.435.263 1.064-.173 1.404-.182.143-.399.212-.614.212z"/><path d="m326.884 453.463c1.4-11.969 8.848-15.857 15.511-14.236 6.663 1.622 10.453 9.555 8.466 17.72s-13.701 17.027-20.363 15.406" fill="#fff"/><path d="m332.147 473.539c-.658 0-1.29-.069-1.886-.214-.537-.131-.866-.672-.735-1.208s.669-.866 1.208-.735c6.188 1.507 17.287-6.995 19.155-14.671 1.854-7.616-1.615-15.023-7.731-16.512-2.994-.729-5.967-.21-8.369 1.461-3.217 2.238-5.262 6.36-5.912 11.919-.064.549-.559.943-1.109.877-.549-.064-.941-.561-.877-1.109.908-7.763 4.176-11.533 6.757-13.329 2.879-2.003 6.425-2.629 9.984-1.763 7.188 1.75 11.315 10.241 9.201 18.928-1.938 7.96-12.435 16.356-19.686 16.356z"/><path d="m230.168 563.896c-.005 0-.011 0-.016 0-.552-.009-.993-.464-.984-1.016l.49-30.35c.009-.552.431-1.006 1.016-.984.552.009.993.464.984 1.016l-.49 30.35c-.009.546-.455.984-1 .984z"/><path d="m376.624 659.641c-20.157 0-42.528-6.796-65.718-20.25-39.064-22.664-75.816-61.539-103.486-109.465s-42.961-99.192-43.057-144.354c-.096-45.364 15.147-79.177 42.921-95.212s64.678-12.329 103.916 10.435c39.064 22.664 75.816 61.539 103.486 109.465s42.961 99.192 43.056 144.355c.095 45.363-15.147 79.177-42.921 95.212-11.358 6.557-24.247 9.814-38.197 9.814zm-131.135-377.095c-13.606 0-26.156 3.166-37.205 9.545-27.127 15.662-42.015 48.859-41.921 93.476.094 44.818 15.29 95.731 42.788 143.359s63.992 86.245 102.758 108.735c38.593 22.39 74.785 26.095 101.913 10.433 56.189-32.44 55.799-138.684-.868-236.834-27.498-47.628-63.992-86.245-102.758-108.735-22.873-13.272-44.907-19.979-64.707-19.979z"/><path d="m516.11 893.739-409.525-236.448c-4.179-2.413-6.756-6.87-6.761-11.695l-.045-37.807c-.004-3.58 3.869-5.821 6.97-4.033l407.633 234.917c5.556 3.202 8.945 9.161 8.855 15.573l-.499 35.729c-.047 3.373-3.705 5.451-6.628 3.764z" fill="#dbf301"/><path d="m518.32 895.339c-.931 0-1.862-.245-2.709-.734l-409.526-236.448c-4.473-2.583-7.255-7.396-7.261-12.56l-.045-37.807c-.002-2.043 1.052-3.873 2.82-4.896s3.88-1.025 5.65-.005l407.633 234.917c5.865 3.38 9.45 9.685 9.356 16.454l-.499 35.729c-.027 1.943-1.052 3.676-2.741 4.636-.84.476-1.76.714-2.678.714zm-1.709-2.466c1.062.613 2.332.618 3.398.012 1.066-.605 1.713-1.699 1.73-2.925l.498-35.729c.084-6.044-3.117-11.675-8.354-14.693l-407.633-234.916c-1.143-.659-2.507-.658-3.65.003-1.142.661-1.823 1.843-1.821 3.163l.045 37.807c.005 4.454 2.405 8.604 6.261 10.831z"/><path d="m514.637 1077.944-406.419-234.188c-5.217-3.006-8.418-8.582-8.384-14.603l.773-136.582c.016-2.87 3.122-4.655 5.61-3.225l408.106 234.526c5.506 3.164 8.871 9.057 8.797 15.407l-1.558 134.717c-.041 3.53-3.866 5.711-6.925 3.948z" fill="#fff"/><path d="m516.943 1079.57c-.964 0-1.928-.253-2.805-.759l-406.419-234.188c-5.516-3.179-8.921-9.108-8.885-15.475l.773-136.582c.01-1.708.899-3.235 2.38-4.086 1.48-.851 3.248-.851 4.728 0l408.106 234.526c5.813 3.341 9.376 9.581 9.299 16.285l-1.558 134.717c-.023 2.017-1.083 3.817-2.835 4.816-.873.497-1.829.746-2.784.746zm-412.592-389.725c-.47 0-.939.123-1.368.369-.856.492-1.371 1.376-1.376 2.364l-.773 136.582c-.032 5.649 2.989 10.91 7.883 13.731l406.419 234.188c1.125.649 2.471.652 3.6.008s1.811-1.803 1.826-3.102l1.558-134.717c.069-5.981-3.109-11.548-8.295-14.528l-408.107-234.526c-.428-.246-.898-.369-1.367-.369z"/></svg>