<svg xmlns="http://www.w3.org/2000/svg" viewBox="0 0 3000 3000" width="3000" height="3000"><g transform="translate(2720.0 1082.0) rotate(0.0 -1316.0 900.0) scale(-1.4784855634198404 1.4745637748832636)"><svg width="1780.2" height="1220.7" viewBox="0 0 1780.2 1220.7"><clipPath id="a"><path d="M698.5 240c-8.7 14-8.8 33.2 2 49.8 28.3 43.1 99.1 58.8 99.1 58.8S786.1 427 772.7 491c0 0 89.6 66.6 222.8 9.8 0 0-19.7-88.5-37.9-153.8 30.1 10.8 77.2.4 90.5-39 8-23.6-6.6-53.6-32.6-58.8-25.2-5-40.3 3.8-68 13.8-25.7 9.4-25.3-3.1-25-30.4.2-24.2-5.9-48.7-12.1-63.6-14-33.8-59.5-58-91.4-70.5-11.9 23-25.3 45.1-40.1 66.4-25.7 37.4-60 42.4-80.4 75.1z" fill="#232323"/></clipPath><clipPath id="b"><path d="M819.1 98.6c34.8 32.3 88.9 186.6 88.9 186.6s60.8-30.5 93.7-35.3c2.9-.5 5.8-.7 8.7-.6 2.2-11.3 7.4-22.2 13.8-32.2 11.5-17.7 26.9-32.3 36.7-40.5 41.9-34.9 8.7-119.1-58.6-105.6 10.2-45.3-52.8-92.6-98.4-48.4C891.2 5.1 871.1 2.5 855.7 3c-40.6 1.3-80.1 55.3-36.6 95.6z" fill="#232323"/></clipPath><clipPath id="c"><path d="M1383.4 1034.9c-1.3-.7-79.7-32.8-128.9-81.9 0 0 14.3 51.2 34.2 125.2 8.7 32.5 18.6 69.3 28.8 108.2-97.7 20.8-253.4 34.2-428.8 34.2-103.3 0-199.7-4.7-281.5-12.7-1-.1-2.1-.2-3.1-.3-39.5-3.9-75.4-8.7-107.1-14.1 0 0 7.1-55.7 14.2-119 3.8-34.3 7.7-70.7 10.4-101.8 0 0-44.8 42.6-77.5 60.1 30.6-24-62.3-277.4-181.3-403.1 0 0 287.3-315.7 510.1-138.7 0 0 89.6 66.6 222.8 9.8 47-36 174.8-167.1 491.5 125.6-95.1 90.7-159.5 366-103.8 408.5z" fill="#232323"/></clipPath><clipPath id="d"><path d="M1383.4 1034.9c-1.3-.7-79.7-32.8-128.9-81.9 0 0 14.3 51.2 34.2 125.2 8.7 32.5 18.6 69.3 28.8 108.2-97.7 20.8-253.4 34.2-428.8 34.2-103.3 0-199.7-4.7-281.5-12.7-1-.1-2.1-.2-3.1-.3-39.5-3.9-75.4-8.7-107.1-14.1 0 0 7.1-55.7 14.2-119 3.8-34.3 7.7-70.7 10.4-101.8 0 0-44.8 42.6-77.5 60.1 30.6-24-62.3-277.4-181.3-403.1 0 0 287.3-315.7 510.1-138.7 0 0 89.6 66.6 222.8 9.8 47-36 174.8-167.1 491.5 125.6-95.1 90.7-159.5 366-103.8 408.5z" fill="#232323"/></clipPath><clipPath id="e"><path d="M1383.4 1034.9c-1.3-.7-79.7-32.8-128.9-81.9 0 0 6.1 22.3 16.1 58.3 8.7 32.5-408.2-453.7-275-510.5 47-36 174.8-167.1 491.5 125.6-95 90.7-159.4 366-103.7 408.5z" fill="#232323"/></clipPath><clipPath id="f"><path d="M1254.5 953s14.3 51.2 34.2 125.2c8.8 32.5 18.6 69.3 28.8 108.2-97.7 20.8-253.4 34.2-428.8 34.2-103.3 0-199.7-4.7-281.5-12.7-1-.1-2.1-.2-3.1-.3-39.5-4-75.5-8.7-107.1-14.1 0 0 7.1-55.7 14.2-119 3.8-34.2 7.7-70.7 10.4-101.8 0 0 82.1-362.4 251.2-481.7 0 0 46.8 30.3 108.8 32.3 67.1 2.2 114-22.5 114-22.5 67 57.5 224 334.5 258.9 452.2z" fill="#232323"/></clipPath><path d="M819.1 98.6c34.8 32.3 88.9 186.6 88.9 186.6s60.8-30.5 93.7-35.3c2.9-.5 5.8-.7 8.7-.6 2.2-11.3 7.4-22.2 13.8-32.2 11.5-17.7 26.9-32.3 36.7-40.5 41.9-34.9 8.7-119.1-58.6-105.6 10.2-45.3-56-89.3-98.6-43.9C891 9.6 871.1 2.5 855.7 3c-40.6 1.3-80.1 55.3-36.6 95.6z" fill="#232323"/><path d="M908 288.2c-.4 0-.8-.1-1.1-.2-.8-.3-1.4-1-1.7-1.8-.5-1.5-54.2-154-88.1-185.4-18.4-17-24.4-38.9-16.5-60 8.6-22.9 31.7-40.1 55-40.8 13.7-.4 34.2 5.2 48.5 22.4 23.2-22.6 51.2-20.2 70.1-10.2 21.9 11.6 34.5 33.7 31.9 55 35.4-5.2 59 15.5 69.4 37.3 6 12.5 8.3 26.5 6.5 39.4-2 14.1-8.5 26.2-19 34.9-8.4 7-24.2 21.4-36 39.6 0 .1-.1.1-.1.2-6.9 10.7-11.5 21.2-13.4 31.1-.3 1.4-1.6 2.4-3 2.4-2.7 0-5.5.2-8.2.6-32.1 4.6-92.2 34.7-92.8 35-.6.4-1.1.5-1.5.5zM821.1 96.4c32.6 30.2 80.4 161.7 88.5 184.6 12.9-6.3 62.4-29.8 91.6-34.1 2.2-.3 4.5-.6 6.7-.6 2.3-9.9 6.9-20.2 13.6-30.6 0-.1.1-.1.1-.2 12.3-19 28.7-34 37.3-41.2 9.3-7.8 15.2-18.5 16.9-31.1 1.6-11.8-.5-24.6-5.9-36-9.9-20.6-32.7-40.2-67.1-33.3-1 .2-2-.1-2.7-.8s-1-1.8-.8-2.8c4.5-19.9-7.1-41.6-28.1-52.7-17.6-9.3-44-11.2-65.4 11.5-.6.6-1.5 1-2.4.9s-1.7-.5-2.2-1.2C888.5 11.3 868.8 5.6 855.8 6c-21 .7-41.9 16.2-49.6 36.9-4.1 11-7.7 32.6 14.9 53.5z" fill="#232323"/><path d="M698.5 240c-8.7 14-8.8 33.2 2 49.8 28.3 43.1 99.1 58.8 99.1 58.8s-16.7 87.7-30.1 151.8c0 0 92.7 65.8 226 9 0 0-19.7-97-37.9-162.3 30.1 10.8 77.2.4 90.5-39 8-23.6-6.6-53.6-32.6-58.8-25.2-5-40.3 3.8-68 13.8-25.7 9.4-25.3-3.1-25-30.4.2-24.2-5.9-48.7-12.1-63.6-14-33.8-59.5-58-91.4-70.5-11.9 23-25.3 45.1-40.1 66.4-25.7 37.3-60 42.3-80.4 75z" fill="#fff"/><g fill="#232323"><path d="M821.9 106.2c13 5.4 30.3 13.6 46.2 24.6 18.6 12.9 31 26.5 36.9 40.6 5.5 13.2 11.9 37.2 11.7 61.3v1c-.1 16.8-.2 27.9 6 34.2 2.9 2.9 6.7 4.4 11.5 4.4 4.2 0 9.1-1.1 15.6-3.4 4.7-1.7 8.9-3.3 13-4.9 15.1-5.8 26-10 38.8-10 4.2 0 8.4.4 12.9 1.3 10 2 18.6 8.4 24.1 18.1 5.9 10.3 7.4 22.6 3.9 32.9-4.2 12.4-12.6 22.6-24.2 29.5-10.4 6.1-23.3 9.5-36.3 9.5-7.9 0-15.7-1.3-22.3-3.7-.7-.2-1.3-.4-2-.4-1.5 0-3 .6-4.1 1.6a6.05 6.05 0 0 0-1.7 6c15.7 56.1 32.6 136.6 36.8 157-33.7 13.8-67.8 20.7-101.2 20.7-36.4 0-65.6-8.4-83.6-15.5-13.5-5.3-23-10.6-27.6-13.4 13.1-63 29.1-147 29.2-147.8.6-3.2-1.4-6.3-4.6-7-.7-.2-68.7-15.7-95.4-56.2-9.2-14-9.9-30.5-2-43.3 9.4-15.1 22.4-24.1 36-33.7 15.1-10.5 30.6-21.4 44.3-41.1 14-20 26.7-40.9 38.1-62.3m-2.8-8c-11.9 23-25.3 45.6-40.1 66.8-25.8 37.4-60.1 42.4-80.5 75-8.7 14-8.8 33.2 2 49.8 28.3 43.1 99.1 58.8 99.1 58.8s-16.7 87.7-30.1 151.8c0 0 45.3 32.1 118 32.1 31.4 0 67.9-6 108-23.1 0 0-19.7-97-37.9-162.3 7.4 2.6 15.7 4 24.4 4 26.7 0 56.1-13.2 66.2-43 8-23.6-6.6-53.6-32.6-58.8-5-1-9.8-2.8-14.2-2.8-17.7 0-31.7 7.3-53.8 15.4-5.7 2.1-9.4 2.7-12.8 2.7-12 0-11.4-10.8-11.2-32 .2-24.2-5.5-49.7-11.7-64.7-14-33.8-60.9-57.2-92.8-69.7z"/><path d="M903.7 192.3c9.4-17.8 2.1-42.6-15.6-52.2-7.7-4.7-27.4-7.2-25.4 6.7 4.2 8.3 10.4 14.8 15 22.6 5.4 6.5 14.5 36.7 26 22.9zm-22 13.8c-5.9-4.8-20.3-16-31.1-31-1.5-2.1-4.4-2.6-6.5-1.1-5.4 4-13.1 11.9-4.3 21.3 10.7 11.5 34.1 18.2 41.6 14.9 1.2-.6 1.7-2 1.2-3.2l-.9-.9zm-83.4-59.6c6.2 4.3 11.5 6.3 24.5 11.2 2.5.9 3.7 3.6 2.9 6-2.3 6.3-8.3 10.8-18.4 6.9-11.2-4.3-13.8-15.6-12.7-22.5.2-1.3 1.5-2.2 2.8-2 .3.1.6.2.9.4z"/><g clip-path="url(#a)"><path d="M786.4 108.9c12.2-13.5 35.5-15 49.2-2.9 6.4 5.1 14.5 21.1 2.2 23.7-8.4-1-15.8-4.3-23.8-5.7-7.4-2.7-35.5-.8-27.6-15.1zm12.2 236.4s42.2 9.9 68.5.6c5.2 7.5-16 54.3-79.9 45.1-49.1-7.1 11.4-45.7 11.4-45.7z"/><path d="M803.3 395.2c-5.1 0-10.7-.4-16.6-1.2-13-1.9-20-6.1-21.5-12.8-3.3-15.4 28.2-36.1 31.8-38.4.7-.4 1.5-.6 2.3-.4.4.1 41.7 9.6 66.8.7 1.3-.5 2.7 0 3.5 1.1 2.7 3.9 1 12.1-4.2 20.4-4.9 7.8-22.4 30.6-62.1 30.6zm-4.1-46.7c-12.2 8-29.9 23-28.1 31.4 1.1 4.9 9.5 7.1 16.5 8.1 11.9 1.7 52.2 4.9 72.1-25.6 3.6-5.5 4.9-10 5.1-12.6-24.4 7-58.6.3-65.6-1.3z"/></g><path d="M793.4 204.5c-.9 0-1.7-.5-2.1-1.2-4.3-8-5.5-13.4-3.8-17.5 2.1-5.3 8.2-7.4 15.3-9.9 15.7-5.5 17.4-13.7 17.5-13.8.2-1.3 1.4-2.1 2.7-1.9s2.1 1.4 1.9 2.7c-.1.4-1.9 11-20.6 17.5-6.9 2.4-11.3 4.1-12.4 7.1-1 2.7.1 7.1 3.6 13.6.6 1.1.2 2.6-1 3.2-.3.1-.7.2-1.1.2zm5.3 59.5c6.4-10.8 3.1-28-9-33.3-17.7-5.2-4 49 9 33.3zm152.9 41.3c-.7 0-1.4-.2-1.9-.7-1.3-1.1-1.5-2.9-.4-4.2.3-.4 7.8-9.3 20.4-15.3 11.7-5.6 30.3-9.7 51.9 2.7 1.4.8 1.9 2.7 1.1 4.1s-2.7 1.9-4.1 1.1c-36.9-21.3-63.5 9.9-64.6 11.2-.7.7-1.5 1.1-2.4 1.1zm7 42c-.3 0-.6 0-.8-.1-14.4-4.1-22.6-10.2-23-10.5-1.3-1-1.6-2.9-.6-4.2s2.9-1.6 4.2-.6c.1.1 7.9 5.8 21 9.5 1.6.5 2.5 2.1 2.1 3.7-.4 1.4-1.6 2.2-2.9 2.2z"/></g><path clip-path="url(#b)" d="M919.1 66.6c-1.6 0-3-1.3-3-3-.4-36.3-24.1-55.8-24.3-56-1.3-1-1.5-2.9-.5-4.2s2.9-1.5 4.2-.5c1.1.9 26.1 21.3 26.6 60.6 0 1.7-1.3 3.1-3 3.1z" fill="#fff"/><path d="M1254.5 953s14.3 51.2 34.2 125.2c8.8 32.5 18.6 69.3 28.8 108.2-97.7 20.8-253.4 34.2-428.8 34.2-103.3 0-199.7-4.7-281.5-12.7-1-.1-2.1-.2-3.1-.3-39.5-4-75.5-8.7-107.1-14.1 0 0 7.1-55.7 14.2-119 3.8-34.2 7.7-70.7 10.4-101.8 0 0 82.1-362.4 251.2-481.7 0 0 46.8 30.3 108.8 32.3 67.1 2.2 114-22.5 114-22.5 67 57.5 224 334.5 258.9 452.2z" fill="#00676c"/><path clip-path="url(#c)" d="M943.1 650.3c-8.7 0-16.7-3.2-23.9-9.4-14.2-12.4-25.2-36.6-32.7-72.1-2.8-13.1-4.5-25.4-5.6-34.4-3.4 10.1-8.5 24.5-15.1 39.6-16.5 37.8-33.7 61.5-51.1 70.3-8.8 4.5-17.6 5.1-26.3 1.9-53-19.7-17.4-152.9-15.8-158.6.4-1.6 2.1-2.5 3.7-2.1s2.5 2.1 2.1 3.7c-.1.3-9.2 34.2-12 69.9-2.5 32.1-.4 72.3 24.2 81.5 7.1 2.6 14.1 2.1 21.4-1.6 38.8-19.7 67.3-119.4 67.6-120.4.4-1.4 1.7-2.3 3.2-2.2 1.5.2 2.6 1.3 2.7 2.8.1.9 5.9 89.6 37.6 117.2 6.8 5.9 14.1 8.5 22.2 7.9 10.8-.8 20-6.2 27.3-15.8 12.5-16.6 16.9-42.1 18.5-60.6 1.8-21.9.5-46.6-3.5-65.9-.3-1.6.7-3.2 2.3-3.5s3.2.7 3.5 2.3c7.4 35.7 7.4 100.1-16 131.3-8.4 11.1-19 17.3-31.6 18.2h-2.7z" fill="#fff"/><path clip-path="url(#d)" d="M894.6 785.3c-.3 0-.5 0-.8-.1-30.6-8.2-47.7-22-44.6-68.3 1.9-27.6 12.3-85.9 20.6-132.7 6.1-34 11.3-63.4 11.7-72 .1-1.7 1.5-2.9 3.1-2.9 1.7.1 2.9 1.5 2.9 3.1-.4 9-5.7 38.6-11.8 72.8-8.3 46.7-18.7 104.8-20.6 132.1-2.9 42.7 11.3 54.4 40.2 62.1 1.6.4 2.6 2.1 2.1 3.7-.3 1.3-1.5 2.2-2.8 2.2z" fill="#fff"/><circle cx="884.2" cy="640.6" fill="#fff" r="6.6"/><circle cx="877.6" cy="723.7" fill="#fff" r="6.6"/><path d="M1487.1 626.4c-101.6 93.9-163.6 380.9-103.8 408.5 56.9 26.3 120.2-203.1 103.8-408.5z" fill="#232323"/><path d="M1392.4 1040c-3.5 0-6.9-.8-10.3-2.4-11.7-5.4-19.5-19.5-23-41.9-7-44 3.2-116.9 26.4-190.3 25.4-80.1 61.7-146.2 99.6-181.2.8-.8 2.1-1 3.1-.6 1.1.4 1.8 1.4 1.9 2.6 6.5 82 .6 175.7-16.3 256.9-16.1 77.5-40.4 134-64.8 151.1-5.5 3.9-11.1 5.8-16.6 5.8zm92.2-407c-35.5 35.3-69.3 98.3-93.4 174.3-23 72.6-33 144.4-26.2 187.6 3.2 20 9.9 32.9 19.6 37.4 6.8 3.1 13.6 2.2 21-2.9 46.6-32.6 91.6-220.7 79-396.4z" fill="#232323"/><path d="M1774.9 761.3c-19.6 229.5-223 234.5-350.1 188.3-2.5-.9-5-1.9-7.5-2.8-22.1-8.6-41.6-18.7-57-29.3-14.2-198 124.7-289.6 126.8-291l50.9 50.8c-13.7-156.7 9.2-316.2-40-489.9-16.5-52 19.2-47.2 47.5-5-6-15 139.5 33 123.2 68.8.6 1.4 1.1 2.9 1.5 4.4.5.9 1 1.9 1.4 2.9 37.6 78.1 120.3 304.6 103.3 502.8z" fill="#fff"/><path d="M1552.7 975.7c-46 0-91.6-9.6-128.9-23.2-2.5-.9-4.9-1.8-7.6-2.8-21.9-8.5-41.8-18.8-57.6-29.7-.7-.5-1.2-1.3-1.3-2.3-3.3-45.6 1.3-89.3 13.7-129.9 9.9-32.6 24.7-63.3 44.2-91.3 33.3-48 68.8-71.6 70.3-72.6.1-.1.2-.1.3-.2 1.2-.6 2.6-.3 3.5.6l45.1 45c-4-50.3-4.4-99.9-4.9-152.3-.9-105.3-1.8-214.3-34.3-328.9-9.2-29-1.5-37.8 3.9-40.3 11.4-5.5 30.3 6.5 46.7 29.4 9.1-3.2 37.8 6.6 46.8 9.9 12.7 4.6 44.3 16.9 64.4 33.3 13.6 11 18.7 21.4 15.2 30.8.4 1.1.8 2.1 1.1 3.2.4.9.9 1.8 1.3 2.7 20.1 42 49.6 118.4 72.2 207.1 28.2 110.6 38.7 210.6 31.3 297.5-7.2 83.8-39 144.3-94.5 179.8-39 24.6-85.1 34.2-130.9 34.2zm-189.5-59.9c15.2 10.3 34.3 20.1 55.2 28.2 2.6 1 5 1.9 7.4 2.8 73.2 26.7 178.5 37.9 254.3-10.5 53.9-34.4 84.8-93.4 91.8-175.2l3 .3-3-.3c7.3-84.9-3.5-187.1-31.1-295.5-22.5-88.2-51.8-164.2-71.8-206-.5-1-.9-1.9-1.4-2.8-.1-.2-.1-.3-.2-.5-.4-1.4-.9-2.7-1.4-4.1-.3-.8-.3-1.6 0-2.4 2.7-5.9-.1-12.9-8.4-20.8-12-11.5-34.8-24.1-62.6-34.6-24.1-9.1-41.8-12.6-46.5-11.9-.1 1-.7 1.9-1.6 2.4-1.4.7-3 .3-3.9-1-17.8-26.5-34.9-33.9-41.5-30.8-6.1 2.9-6.4 15.4-.7 33.2 32.7 115.5 33.6 224.8 34.5 330.6.5 55.1.9 107.1 5.6 160 .1 1.3-.6 2.4-1.7 3-1.1.5-2.5.3-3.4-.6l-49.1-49c-8 5.6-38 28.4-66.7 69.6-19.1 27.5-33.6 57.6-43.4 89.6-11.8 39.5-16.4 82-13.4 126.3z" fill="#232323"/><path d="M1562.9 211.8s3.7 9.5 13.7 34.5" fill="#fff"/><path d="M1576.6 249.3c-1.2 0-2.3-.7-2.8-1.9-9.9-24.7-13.7-34.4-13.7-34.5-.6-1.5.2-3.3 1.7-3.9s3.3.2 3.9 1.7c0 .1 3.8 9.8 13.7 34.5.6 1.5-.1 3.3-1.7 3.9-.3.1-.7.2-1.1.2z" fill="#232323"/><path d="M1655.9 261c8.7 1.6 23.4-23 24.4-54.9.9-28.2-27.5-42.3-29.6-16.7-2.6 30.7-7.6 69.3 5.2 71.6z" fill="#fff"/><path d="M1656.6 264c-.5 0-.9 0-1.3-.1-14.1-2.5-11.4-32.6-8.6-64.4.3-3.5.6-7 .9-10.4 1-12.4 7.8-16.5 13.9-16.2 10.8.6 22.3 14.4 21.8 33.2-.6 19.5-7.7 45.3-19.5 54.9-2.9 2.4-5.4 3-7.2 3zm-.2-6c.8.2 2.1-.4 3.5-1.6 6.7-5.4 16.5-24.7 17.3-50.5.3-10.6-5.8-26.4-16.1-27h-.4c-5.7 0-6.9 7.4-7.2 10.7-.3 3.4-.6 6.9-.9 10.4-1.9 22.5-4.9 56.5 3.8 58z" fill="#232323"/><path d="M1631.1 248.5c5.5.7 20.3-14.2 22.4-69.2 1.2-30.3-36.9-43.1-36.5-12.7.6 36.4-1.1 79.9 14.1 81.9z" fill="#fff"/><path d="M1631.5 251.6c-.3 0-.6 0-.8-.1-16.1-2.2-16.3-36.3-16.5-72.5 0-4.2-.1-8.3-.1-12.3-.1-8.8 2.8-15.3 8.3-18.5 5.4-3.1 12.5-2.5 19.1 1.5 7.7 4.6 15.6 14.9 15 29.8-1.9 50-13.8 65.2-18.9 69.4-2.4 2.1-4.6 2.7-6.1 2.7zm0-6c.2 0 1.2-.2 2.6-1.6 3.4-3.1 14.6-16.8 16.4-64.8.5-12.3-6-20.6-12.2-24.4-4.7-2.9-9.6-3.4-13-1.4-3.6 2-5.4 6.6-5.3 13.2.1 4.1.1 8.2.1 12.4.3 29 .5 65.1 11.4 66.6z" fill="#232323"/><path d="M1600.7 237.2c4.4-1.5 16.1-17.1 16.3-70.5.2-46.7-45.6-54.3-44.1-19 1.5 36.3 13.3 94.3 27.8 89.5z" fill="#fff"/><path d="M1599 240.4c-1.5 0-3.3-.4-5.3-1.8-6.2-4.3-11.8-16.8-16.5-37.3-3.9-16.8-6.6-36.9-7.3-53.7-.4-10.5 3-18.5 9.6-22.5 6-3.7 14-3.5 21.2.6 12.2 6.8 19.4 22.1 19.3 40.8-.2 53.1-11.7 71.1-18.4 73.4-.7.4-1.6.5-2.6.5zm-9.8-111.8c-2.3 0-4.6.6-6.5 1.7-4.7 2.9-7.1 9-6.8 17.2 1.7 41.5 12.8 80.5 21.2 86.3 1.3.9 2.1.8 2.6.6 1-.3 4.5-3.6 7.9-14 2.9-8.8 6.3-25.3 6.4-53.7.1-16.5-6-29.8-16.2-35.6-2.8-1.7-5.8-2.5-8.6-2.5z" fill="#232323"/><path d="M1571.8 214.5c6.3-2.9 11.1-20.8 7.9-68.1-3.2-47.5-55.8-35-46.5 1.8 9 35.2 27.3 71.5 38.6 66.3z" fill="#fff"/><path d="M1569.5 218c-1.3 0-2.8-.3-4.5-1.1-12.9-6.2-27.5-39.7-34.7-68-3.1-12.2-.2-23.2 8-30.2 7.2-6.2 17.4-7.9 25.9-4.3 10.7 4.4 17.4 16.1 18.5 31.9 2.9 42.9-.3 66.8-9.6 71.1-1 .2-2.1.6-3.6.6zm-14.7-99.6c-4.5 0-9.1 1.6-12.7 4.7-6.4 5.5-8.6 14.3-6.1 24.2 7.8 30.8 22 59.5 31.5 64.1 1.6.7 2.4.5 2.9.3 1.7-.8 10-7.6 6.1-65.2-.9-13.7-6.2-23.2-14.8-26.7-2.1-.9-4.5-1.4-6.9-1.4z" fill="#232323"/><path d="M1385.6 1039.3c-1.3-.7-82-37.1-131.1-86.3 0 0-142.9-157.7-203.9-267.7-44.5-80.2-55-184.5-55-184.5 47-36 179.2-167.2 496 125.5-95 90.7-161.7 370.4-106 413z" fill="#00676c"/><path clip-path="url(#e)" d="M1259.4 965.3c-.8 0-1.6-.3-2.2-.9-50.9-53-112.8-132.9-113.4-133.7-1-1.3-.8-3.2.5-4.2s3.2-.8 4.2.5c.6.8 62.4 80.5 113 133.3 1.1 1.2 1.1 3.1-.1 4.2-.5.5-1.3.8-2 .8z" fill="#fff"/><path d="M1550.6 740.5c-1.3 0-2.5-.9-2.9-2.2-7.9-28-12.9-61.7-13-62-.2-1.6.9-3.2 2.5-3.4s3.2.9 3.4 2.5c0 .3 5 33.6 12.8 61.2.5 1.6-.5 3.3-2.1 3.7-.2.1-.5.2-.7.2zM262.7 629.7c60.1 14.2 280.9 336.7 181.3 403.1-36.1 24-215.2-88.5-181.3-403.1z" fill="#232323"/><path d="M431.8 1038.9c-11.3 0-25.8-4.9-41.2-14.2-39.2-23.8-75.3-69.4-99.2-125.2-14.9-34.8-25.3-73.8-30.9-115.7-6.4-47.6-6.6-99.5-.7-154.3.1-.9.5-1.6 1.2-2.1s1.6-.7 2.4-.5c26.5 6.3 75.7 64.2 112.7 118.8 49.7 73.4 83.8 146.3 93.4 200.2 7.8 43.6-.2 73.7-23.9 89.5-3.6 2.3-8.3 3.5-13.8 3.5zM265.3 633.7c-5.4 52.9-5.1 103.1 1.1 149.2 5.5 41.4 15.8 79.8 30.5 114.2 11.1 25.9 42.7 89.6 96.8 122.5 20.6 12.5 39.7 16.7 48.7 10.8 21.5-14.3 28.7-42.4 21.3-83.4-9.4-52.3-44-126.2-92.5-197.9-41-60.5-83.6-106.7-105.9-115.4z" fill="#232323"/><path d="M426.3 872.4c.1 12-.6 24-2 35.9-.2.1-.4.3-.7.4-14 8.9-32 17.1-52.5 23.8-2.5.8-5 1.6-7.6 2.4-.3.1-.7.2-1 .3C234 973.6 17.5 955.3 4 720.2c-14.4-250 128-503.6 128.7-505C118 178.7 245.6 63.3 249.6 89.3c5 8 8 47 11.4 77.2 30.2-40.9 60.2-53 45.1-7.4-56.8 171.3-41 331.7-61.6 487.6l18.2-17s33.2 14.4 69.6 46c44.3 38.4 93.3 102.2 94 196.7z" fill="#fff"/><path d="M254 953.9c-8.4 0-16.8-.3-25-.9-52.1-3.6-98.7-18.9-134.7-44.1-57-40-88.4-103.4-93.3-188.5-3.2-55.9 1.2-116.4 13.1-180.1 9.6-51.3 24.1-104.8 43-159 30.3-86.5 62.7-148.6 72.3-166.4-2.9-9.4-.5-30.9 39.2-74.3 23.6-25.8 65-61.9 79-57.7 2.5.8 4.2 2.6 4.8 5.3 3.9 7.1 6.3 28.2 9.5 59.2.4 3.7.8 7.5 1.2 11.3 15.8-19.8 34.6-36 44.7-30.8 6.7 3.4 7 14.2 1.1 32C271.4 273 265.6 381.8 260.1 487c-2.8 52.3-5.4 101.8-11.6 151.8l12.2-11.3c.9-.8 2.1-1 3.2-.6.3.1 34 14.9 70.4 46.5 43 37.3 94.3 102 95 198.9.1 12.1-.6 24.3-2 36.2-.1.9-.6 1.7-1.4 2.2l-.6.4c-14.3 9.1-32.7 17.4-53.2 24.2-2.5.8-5.1 1.6-7.7 2.4-.4.1-.7.2-1.1.3-34.5 10.4-72.6 15.9-109.3 15.9zm-9.2-865.4c-9.5 0-42.1 23.8-71.7 56.2-28.1 30.7-42.4 57.3-37.6 69.4.3.8.3 1.6-.1 2.4 0 0-.2.3-.5.9-9.3 17-41.8 79.1-72.2 166-18.8 53.8-33.2 107-42.7 158C8.2 604.6 3.8 664.7 7 720c4.8 83.2 35.3 145.1 90.7 183.9 35.1 24.6 80.6 39.5 131.6 43.1 43.5 3 90.4-2.2 132.3-14.7l.9-.3h.1c2.5-.8 5.1-1.5 7.5-2.4 19.8-6.5 37.5-14.5 51.3-23.2 1.3-11.3 1.9-22.7 1.8-34.1-.7-94.6-50.9-158-93-194.4-30.9-26.8-59.8-41.3-67.1-44.7l-16.8 15.6c-.9.9-2.3 1.1-3.4.5s-1.8-1.8-1.6-3.1c7-52.6 9.7-104.5 12.6-159.6C259.5 381 265.3 271.8 303 158c5.4-16.2 4.3-23.5 1.8-24.8-4.6-2.4-21 7.1-41.7 35-.7 1-2 1.4-3.2 1.1s-2.1-1.3-2.2-2.6c-.7-6-1.3-12.5-2-18.8-2.5-24.1-5.3-51.3-8.9-57.2-.2-.3-.4-.7-.4-1.1-.1-1-.4-1-.7-1.1-.1.1-.5 0-.9 0z" fill="#232323"/><path d="M521.5 972.7s-46.2 47.1-78.9 64.6c30.6-24-64.9-282.4-184-408 0 0 291.3-315.3 514.2-138.3 0 0-22.2 75.3-102.2 226.3-67.6 127.6-76 167-149.1 255.4z" fill="#00676c"/><path clip-path="url(#f)" d="M517.6 985.3c-.7 0-1.4-.2-2-.8-1.2-1.1-1.4-3-.3-4.2.6-.7 62.1-70.6 95.3-146.3.7-1.5 2.4-2.2 4-1.5 1.5.7 2.2 2.4 1.5 4-33.6 76.6-95.7 147.1-96.3 147.8-.5.7-1.4 1-2.2 1z" fill="#fff"/><path d="M261 166.5s-19.4 23.8-38.7 59.8" fill="#fff"/><path d="M222.3 229.3c-.5 0-1-.1-1.4-.4-1.5-.8-2-2.6-1.2-4.1 19.2-35.8 38.8-60.1 39-60.3 1-1.3 2.9-1.5 4.2-.4 1.3 1 1.5 2.9.4 4.2-.2.2-19.4 24.1-38.4 59.4-.5 1-1.5 1.6-2.6 1.6zm7.3 482.8c-.3 0-.6 0-.9-.1-1.6-.5-2.5-2.1-2-3.7 10.8-36.2 14.8-63.1 14.9-63.4.2-1.6 1.8-2.8 3.4-2.5 1.6.2 2.8 1.8 2.5 3.4 0 .3-4.2 27.6-15.1 64.2-.3 1.3-1.5 2.1-2.8 2.1z" fill="#232323"/><path d="M148.3 233.4c-8.4 2.9-26.7-19.1-32.6-50.4-5.2-27.7 20.7-46 26.7-21 7.2 29.9 18.1 67.2 5.9 71.4z" fill="#fff"/><path d="M146.7 236.7c-1.6 0-3.7-.5-6.1-1.9-13.2-7.7-24.2-32.1-27.8-51.3-3.5-18.5 5.8-33.9 16.4-36.1 5.9-1.3 13.3 1.7 16.2 13.8.8 3.3 1.6 6.7 2.5 10.1 7.7 31 14.9 60.2 1.4 64.9-.7.3-1.6.5-2.6.5zm-15-83.6c-.4 0-.8 0-1.3.1-10.1 2.2-13.7 18.7-11.7 29.1 2.9 15.3 12.5 40 24.9 47.2 1.6.9 2.9 1.3 3.7 1 8.3-2.9.1-35.9-5.3-57.8-.9-3.4-1.7-6.8-2.5-10.1-.7-2.9-2.9-9.5-7.8-9.5z" fill="#232323"/><path d="M170.8 217.3c-5.3 1.6-22.2-10.9-32.9-64.9-5.8-29.8 29.8-48.3 34.1-18.2 5.1 36.1 13.5 78.8-1.2 83.1z" fill="#fff"/><path d="M169.8 220.5c-1.4 0-3.2-.4-5.5-1.8-5.6-3.4-19.7-16.6-29.4-65.7-2.9-14.6 3.4-26 10.3-31.7 5.9-5 12.9-6.6 18.6-4.4 5.9 2.3 9.8 8.3 11.1 17 .6 4 1.2 8.1 1.8 12.2 5.4 35.8 10.4 69.6-5.1 74.2-.5.1-1.1.2-1.8.2zm-11.2-98.6c-3 0-6.4 1.4-9.5 4-5.5 4.7-10.6 13.9-8.2 26 9.3 47.2 22.4 59 26.2 61.5 1.6 1.1 2.6 1.2 2.8 1.1 10.6-3.2 5.2-38.9.9-67.5-.6-4.1-1.2-8.2-1.8-12.2-.9-6.5-3.5-10.8-7.3-12.2-1-.5-2-.7-3.1-.7z" fill="#232323"/><path d="M199 201.4c-4.6-.8-18.6-14.4-27.1-67.2-7.4-46.2 36.7-60.6 40.7-25.6 4.2 36.2 1.6 95.3-13.6 92.8z" fill="#fff"/><path d="M199.9 204.5c-.5 0-1 0-1.4-.1-7-1.2-21.1-17.2-29.5-69.6-3-18.5 1.8-34.7 12.7-43.3 6.5-5.1 14.3-6.6 20.9-3.9 7.2 3 11.8 10.4 13 20.8 1.9 16.7 2.3 37 1.1 54.2-1.5 20.9-5 34.2-10.5 39.4-2.2 1.9-4.5 2.5-6.3 2.5zm-.4-6.1c.6.1 1.4.1 2.5-1 7.4-7 12.4-47.2 7.6-88.5-.9-8.1-4.3-13.8-9.4-15.9-4.5-1.9-10-.7-14.8 3-9.2 7.3-13.2 21.4-10.5 37.7 4.5 28 10.5 43.8 14.7 52.1 4.9 9.7 8.9 12.4 9.9 12.6z" fill="#232323"/><path d="M224.1 174.5c-6.7-1.9-14.1-18.8-18.3-66.1-4.1-47.4 49.8-43.2 46.2-5.4-3.4 36.2-15.9 74.9-27.9 71.5z" fill="#fff"/><path d="M225.6 177.7c-.9 0-1.6-.1-2.3-.3-9.8-2.7-16.7-25.9-20.5-68.7-1.4-15.8 3.5-28.3 13.3-34.4 7.9-4.9 18.2-4.8 26.3.3 9.1 5.7 13.7 16.1 12.5 28.6-2.8 29.1-12 64.5-23.8 72.6-2 1.5-3.9 1.9-5.5 1.9zM229 76.8c-3.4 0-6.8.9-9.7 2.7-8 4.9-11.7 15.1-10.5 28.7 5 57.5 14.3 63 16.1 63.5.5.2 1.4.2 2.9-.7 8.7-6 18.2-36.6 21.2-68.2 1-10.2-2.6-18.5-9.7-23-3.2-2-6.7-3-10.3-3z" fill="#232323"/></svg></g><g transform="translate(2944.0 150.0) rotate(0.0 -710.0 669.0) scale(-0.6816334818366278 0.6824152603965047)"><svg width="2083.231" height="1960.683" viewBox="0 0 2083.231 1960.683"><path d="m2044.137 1203.5-1348.25 743.97a65.928 65.928 0 0 1-89.58-25.88L51.567 916.257l-38.35-69.49a65.936 65.936 0 0 1 25.87-89.58l1348.26-743.97a65.93 65.93 0 0 1 89.58 25.88l38.55 69.87 554.54 1004.95a65.937 65.937 0 0 1-25.88 89.583z" fill="#fff"/><path d="M664.135 1960.7a71.244 71.244 0 0 1-19.785-2.819A70.467 70.467 0 0 1 601.928 1924L47.189 918.671 8.838 849.182a71.025 71.025 0 0 1 27.831-96.373L1384.93 8.838a71.02 71.02 0 0 1 96.37 27.842l38.551 69.87L2074.4 1111.5a70.936 70.936 0 0 1-27.844 96.374L698.3 1951.844a70.56 70.56 0 0 1-34.165 8.856zM1419.089 10.024a60.542 60.542 0 0 0-29.328 7.57L41.5 761.564a61.011 61.011 0 0 0-23.908 82.787l38.353 69.489 554.739 1005.33a60.927 60.927 0 0 0 82.787 23.918l1348.25-743.969a60.937 60.937 0 0 0 23.918-82.787L1511.1 111.382l-38.551-69.871a61 61 0 0 0-53.46-31.487z" fill="#232323"/><path d="M1518.477 108.967 54.567 916.257l-38.35-69.49a65.936 65.936 0 0 1 25.87-89.58l1348.26-743.97a65.93 65.93 0 0 1 89.58 25.88z" fill="#232323"/><g fill="#fff"><circle cx="1415.48" cy="79.377" r="20.42"/><circle cx="1354.674" cy="112.957" r="20.42"/><circle cx="1293.867" cy="146.536" r="20.42"/></g></svg></g><g transform="translate(528.0 796.0) rotate(52.5559491057036 74.0 447.0) scale(4.824618594340853 4.96054865665679)"><svg width="30.676" height="180.222" viewBox="0 0 30.676 180.222"><rect fill="#232323" height="123.057" rx="5.977" width="11.954" x="9.022" y="18.895"/><rect fill="#D9C6F4" height="20.071" rx="10.036" transform="matrix(0 1 -1 0 160.511 129.933)" width="70" x="-19.711" y="135.186"/><path d="M10.667 37.162h9.244c3.179 0 5.673-3.6 5.392-7.788L23.77 6.523C23.522 2.831 21.182 0 18.378 0H12.2C9.4 0 7.056 2.831 6.808 6.523L5.274 29.374c-.28 4.185 2.214 7.788 5.393 7.788z" fill="#232323"/><rect fill="#D9C6F4" height="16.575" rx="8.287" width="30.676" y="105.889"/></svg></g><g transform="translate(626.0 672.0) rotate(0.0 150.0 140.0) scale(2.5763235862424323 2.5677237129284887)"><svg width="116.445" height="109.046" viewBox="0 0 116.445 109.046"><g fill="#232323"><path d="M113.943 85.243a2.5 2.5 0 0 1-2.5-2.434l-2.091-80.243a2.5 2.5 0 1 1 5-.131l2.094 80.243a2.5 2.5 0 0 1-2.434 2.564zm-50.116 23.803a2.483 2.483 0 0 1-1.611-.59L.887 56.667a2.5 2.5 0 0 1 3.226-3.82l61.328 51.789a2.5 2.5 0 0 1-1.614 4.41z"/></g></svg></g><g transform="translate(2046.0 886.0) rotate(0.0 150.0 147.0) scale(2.0134228187919465 2.013712422687827)"><svg width="149" height="145.999" viewBox="0 0 149 145.999"><path d="M146.1 91.3a20.557 20.557 0 0 1-.59-38.336 4.428 4.428 0 0 0 2.533-5.583 75.7 75.7 0 0 0-4.024-9.183 4.5 4.5 0 0 0-5.607-2.132 21.252 21.252 0 0 1-22.783-4.528 20.427 20.427 0 0 1-4.749-22.025 4.373 4.373 0 0 0-2.265-5.488A77.781 77.781 0 0 0 99.166.231a4.5 4.5 0 0 0-5.5 2.3A21.005 21.005 0 0 1 74.5 14.768 21.005 21.005 0 0 1 55.336 2.531a4.5 4.5 0 0 0-5.5-2.3 78.4 78.4 0 0 0-9.453 3.794 4.373 4.373 0 0 0-2.265 5.488 20.427 20.427 0 0 1-4.749 22.025 21.252 21.252 0 0 1-22.783 4.528A4.493 4.493 0 0 0 4.978 38.2a76.079 76.079 0 0 0-4.024 9.181 4.429 4.429 0 0 0 2.534 5.583 20.685 20.685 0 0 1 12.839 19.062A20.678 20.678 0 0 1 2.9 91.3a4.429 4.429 0 0 0-2.68 5.513 75.8 75.8 0 0 0 3.792 9.349 4.5 4.5 0 0 0 5.841 2.148 21.238 21.238 0 0 1 23.515 4.2 20.425 20.425 0 0 1 4.132 23.436 4.41 4.41 0 0 0 2.029 5.878A78.363 78.363 0 0 0 49 145.757a4.54 4.54 0 0 0 5.722-2.747 21.1 21.1 0 0 1 39.545 0 4.541 4.541 0 0 0 5.722 2.747 78.136 78.136 0 0 0 9.473-3.933 4.407 4.407 0 0 0 2.029-5.878 20.425 20.425 0 0 1 4.136-23.434 21.238 21.238 0 0 1 23.515-4.2 4.5 4.5 0 0 0 5.841-2.148 75.184 75.184 0 0 0 3.792-9.349A4.417 4.417 0 0 0 146.1 91.3Zm-71.6 2.521a20.689 20.689 0 1 1 21.02-20.687 20.853 20.853 0 0 1-21.015 20.687Z" fill="#D9C6F4"/></svg></g><g transform="translate(494.0 1274.0) rotate(-30.2062368232606 -147.0 86.0) scale(-1.318959367976205 1.350438892640108)"><svg width="222.903" height="127.366" viewBox="0 0 222.903 127.366"><path d="M48.467 105.388C32.109 91.69 9.995 68.515 5.568 55.375c-10.493-31.03 12.95-48.299 38.145-34.562a48.832 48.832 0 0 1 1.624-3.09c16.103-28.203 44.888-9.064 54.932 1.328a29.654 29.654 0 0 1 2.083-2.354c20.488-21.276 51.007 3.66 51.007 3.66a25.041 25.041 0 0 1 2.167-1.826c25.131-19.514 58.063 19.741 62.61 67.081 1.956 22.43-14.044 41.32-37.187-9.7 7.503 39.009-7.415 62.359-53.567-17.589 22.566 48.403 24.801 95.145-33.853 36.595 10.621 24.262 5.517 30.082-6.22 28.062-23.463-4.039-38.842-17.592-38.842-17.592z" fill="#fff"/><g fill="#232323"><path d="M91.241 126.352c-1.355 0-2.833-.139-4.441-.416-23.726-4.084-39.273-17.387-40.285-18.271C32.232 95.701 7.736 71.207 2.725 56.333-2.514 40.841-.042 26.883 9.339 19c8.425-7.08 20.886-7.845 33.072-2.2.11-.198.22-.391.329-.579C48.161 6.726 55.445 1.335 64.382.214c13.851-1.737 27.999 7.444 35.716 14.496l.123-.125c9.221-9.576 21.788-11.961 36.31-6.867 7.533 2.642 13.675 6.624 16.7 8.789.172-.135.342-.264.513-.39 8.067-6.265 17.411-7.422 26.96-3.3 20.222 8.727 37.22 39.221 40.417 72.509 1.151 13.203-3.297 23.783-10.816 25.754-5.546 1.455-13.931-1.22-24.516-19.152.229 12.041-2.768 20.012-8.692 22.22a9.721 9.721 0 0 1-3.416.606c-8.269.001-19.166-9.678-32.558-28.895 4.924 16.924 6.096 32.157-1.511 37.489-7.443 5.217-20.181-.451-38.786-17.314 2.196 7.842 1.937 13.24-.72 16.633-1.929 2.465-4.851 3.685-8.865 3.685zM50.45 103.136c.236.206 15.152 13.063 37.367 16.887 2.709.466 6.22.661 7.566-1.056 1.041-1.33 2.676-6.217-4.604-22.845a3 3 0 0 1 4.867-3.326c29.512 29.459 38.478 27.071 40.522 25.638 5.9-4.135 3.209-27.276-11.507-58.843a3 3 0 0 1 5.317-2.768c30.965 53.639 42.937 52.479 45.023 51.702 4.249-1.584 6.644-13.1 3-32.047a3 3 0 0 1 5.678-1.806c11.114 24.501 20.251 31.875 25.104 30.602 4.416-1.158 7.21-9.68 6.362-19.403-2.95-30.712-18.78-59.762-36.819-67.547-7.525-3.248-14.579-2.381-20.962 2.575a21.92 21.92 0 0 0-1.961 1.651 3 3 0 0 1-3.943.128c-.071-.058-7.45-6.012-17.054-9.349-12.254-4.257-22.313-2.425-29.894 5.447a26.665 26.665 0 0 0-1.9 2.146 2.997 2.997 0 0 1-4.5.211C92.415 15.242 78.19 4.529 65.129 6.167c-6.962.874-12.744 5.262-17.187 13.044a45.675 45.675 0 0 0-1.532 2.915 3.002 3.002 0 0 1-4.134 1.321c-10.812-5.895-21.954-5.839-29.077.146-7.417 6.233-9.208 17.755-4.79 30.821 3.973 11.789 24.466 34.005 41.984 48.673l.057.049z"/><path d="M133.591 125.473c-9.203 0-23.11-9.392-42.183-28.431a3 3 0 0 1 4.24-4.247c29.715 29.663 38.617 27.344 40.64 25.928 2.996-2.1 3.635-9.433 1.709-19.618-2.032-10.75-6.768-24.428-13.335-38.515-6.939-14.888-15.993-26.958-24.672-38.045a75.287 75.287 0 0 0-2.033-2.573 3 3 0 0 1 4.651-3.791c.77.944 1.462 1.8 2.149 2.721 8.851 11.305 18.137 23.691 25.344 39.153 6.771 14.525 11.67 28.708 13.792 39.935 2.518 13.317 1.118 21.946-4.162 25.646-1.744 1.223-3.79 1.837-6.14 1.837z"/><path d="M173.682 114.754c-11.411 0-27.831-18.434-48.899-54.93l-.09-.156a3 3 0 1 1 5.201-2.993l.086.15c30.963 53.638 42.939 52.478 45.022 51.701 4.25-1.584 6.645-13.1 3-32.047-3.499-18.166-12.081-36.172-24.818-52.073a74.004 74.004 0 0 0-2.689-3.21 3 3 0 0 1 4.509-3.959 79.333 79.333 0 0 1 2.882 3.442c13.326 16.634 22.326 35.546 26.008 54.666 4.076 21.192 1.535 35.697-6.796 38.803a9.703 9.703 0 0 1-3.416.606z"/><path d="M207.685 111.417c-6.864 0-16.965-6.701-29.468-34.265a2.999 2.999 0 1 1 5.464-2.478c11.075 24.417 20.211 31.824 25.056 30.615 1.044-.26 3.484-1.951 5.242-6.485 2.739-7.067 6.206-27.869-20.689-68.308a3 3 0 1 1 4.996-3.322c11.249 16.913 18.563 32.419 21.742 46.088 3.188 13.71 1.513 22.637-.454 27.711-2.095 5.406-5.604 9.196-9.384 10.139-.78.192-1.616.305-2.505.305zM89.148 127.37c-1.317 0-2.778-.135-4.397-.442-5.007-.947-18.622-5.568-34.308-16.278C31.498 97.715 15.537 79.994 4.286 59.404a3 3 0 0 1 5.265-2.877c25.334 46.364 66.64 62.675 76.315 64.505 2.841.538 6.613.695 8.449-1.61 1.293-1.624 3.538-7.144-3.536-23.299-11.542-26.369-23.208-41.835-37.976-61.416a1490.597 1490.597 0 0 1-9.88-13.203 3 3 0 1 1 4.828-3.562c3.441 4.664 6.695 8.979 9.842 13.151 15.006 19.895 26.858 35.609 38.683 62.622 6.163 14.076 7.083 23.983 2.732 29.444-1.632 2.051-4.602 4.211-9.86 4.211z"/></g><path d="M5.568 55.375c-10.726-30.95 12.95-48.298 38.144-34.562a48.832 48.832 0 0 1 1.624-3.09c16.103-28.203 44.888-9.064 54.933 1.328a29.654 29.654 0 0 1 2.083-2.354c20.488-21.276 51.007 3.659 51.007 3.659a24.892 24.892 0 0 1 2.167-1.826c13.143-10.205 27.305-3.969 40.753 10.481 12.266 13.179 24.339 33.086 26.508 55.668 1.956 22.429-21.117 52.736-41.838-8.767 7.503 39.009-.904 75.935-53.567-17.589 26.204 46.535 24.422 105.99-33.853 36.595 17.032 20.281 5.389 33.721-6.348 31.701-23.463-4.038-67.931-31.762-81.613-71.244z" fill="none"/></svg></g><g transform="translate(1840.0 454.0) rotate(0.0 205.0 201.0) scale(2.751677852348993 2.753443516736416)"><svg width="149" height="145.999" viewBox="0 0 149 145.999"><path d="M146.1 91.3a20.557 20.557 0 0 1-.59-38.336 4.428 4.428 0 0 0 2.533-5.583 75.7 75.7 0 0 0-4.024-9.183 4.5 4.5 0 0 0-5.607-2.132 21.252 21.252 0 0 1-22.783-4.528 20.427 20.427 0 0 1-4.749-22.025 4.373 4.373 0 0 0-2.265-5.488A77.781 77.781 0 0 0 99.166.231a4.5 4.5 0 0 0-5.5 2.3A21.005 21.005 0 0 1 74.5 14.768 21.005 21.005 0 0 1 55.336 2.531a4.5 4.5 0 0 0-5.5-2.3 78.4 78.4 0 0 0-9.453 3.794 4.373 4.373 0 0 0-2.265 5.488 20.427 20.427 0 0 1-4.749 22.025 21.252 21.252 0 0 1-22.783 4.528A4.493 4.493 0 0 0 4.978 38.2a76.079 76.079 0 0 0-4.024 9.181 4.429 4.429 0 0 0 2.534 5.583 20.685 20.685 0 0 1 12.839 19.062A20.678 20.678 0 0 1 2.9 91.3a4.429 4.429 0 0 0-2.68 5.513 75.8 75.8 0 0 0 3.792 9.349 4.5 4.5 0 0 0 5.841 2.148 21.238 21.238 0 0 1 23.515 4.2 20.425 20.425 0 0 1 4.132 23.436 4.41 4.41 0 0 0 2.029 5.878A78.363 78.363 0 0 0 49 145.757a4.54 4.54 0 0 0 5.722-2.747 21.1 21.1 0 0 1 39.545 0 4.541 4.541 0 0 0 5.722 2.747 78.136 78.136 0 0 0 9.473-3.933 4.407 4.407 0 0 0 2.029-5.878 20.425 20.425 0 0 1 4.136-23.434 21.238 21.238 0 0 1 23.515-4.2 4.5 4.5 0 0 0 5.841-2.148 75.184 75.184 0 0 0 3.792-9.349A4.417 4.417 0 0 0 146.1 91.3Zm-71.6 2.521a20.689 20.689 0 1 1 21.02-20.687 20.853 20.853 0 0 1-21.015 20.687Z" fill="#D9C6F4"/></svg></g><g transform="translate(2450.0 818.0) rotate(0.0 119.0 117.0) scale(1.5973154362416107 1.6027507037719437)"><svg width="149" height="145.999" viewBox="0 0 149 145.999"><path d="M146.1 91.3a20.557 20.557 0 0 1-.59-38.336 4.428 4.428 0 0 0 2.533-5.583 75.7 75.7 0 0 0-4.024-9.183 4.5 4.5 0 0 0-5.607-2.132 21.252 21.252 0 0 1-22.783-4.528 20.427 20.427 0 0 1-4.749-22.025 4.373 4.373 0 0 0-2.265-5.488A77.781 77.781 0 0 0 99.166.231a4.5 4.5 0 0 0-5.5 2.3A21.005 21.005 0 0 1 74.5 14.768 21.005 21.005 0 0 1 55.336 2.531a4.5 4.5 0 0 0-5.5-2.3 78.4 78.4 0 0 0-9.453 3.794 4.373 4.373 0 0 0-2.265 5.488 20.427 20.427 0 0 1-4.749 22.025 21.252 21.252 0 0 1-22.783 4.528A4.493 4.493 0 0 0 4.978 38.2a76.079 76.079 0 0 0-4.024 9.181 4.429 4.429 0 0 0 2.534 5.583 20.685 20.685 0 0 1 12.839 19.062A20.678 20.678 0 0 1 2.9 91.3a4.429 4.429 0 0 0-2.68 5.513 75.8 75.8 0 0 0 3.792 9.349 4.5 4.5 0 0 0 5.841 2.148 21.238 21.238 0 0 1 23.515 4.2 20.425 20.425 0 0 1 4.132 23.436 4.41 4.41 0 0 0 2.029 5.878A78.363 78.363 0 0 0 49 145.757a4.54 4.54 0 0 0 5.722-2.747 21.1 21.1 0 0 1 39.545 0 4.541 4.541 0 0 0 5.722 2.747 78.136 78.136 0 0 0 9.473-3.933 4.407 4.407 0 0 0 2.029-5.878 20.425 20.425 0 0 1 4.136-23.434 21.238 21.238 0 0 1 23.515-4.2 4.5 4.5 0 0 0 5.841-2.148 75.184 75.184 0 0 0 3.792-9.349A4.417 4.417 0 0 0 146.1 91.3Zm-71.6 2.521a20.689 20.689 0 1 1 21.02-20.687 20.853 20.853 0 0 1-21.015 20.687Z" fill="#232323"/></svg></g><g transform="translate(2464.0 1310.0) rotate(-105.99281167921245 -112.0 72.0) scale(-1.499160068800739 1.5245677744486676)"><svg width="149.417" height="94.453" viewBox="0 0 149.417 94.453"><path d="M111.727 3.007C45.041 3.558-40.529 34.676 28.6 49.22c27.554 5.802 69.748 7.008 117.817 42.233" fill="#fff"/><path d="M146.416 94.453a2.99 2.99 0 0 1-1.771-.58c-39.064-28.626-74.712-34.539-100.74-38.857-5.671-.941-11.027-1.829-15.922-2.86C8.366 48.029-.772 42.201.047 34.339 1.229 22.975 25.388 14.456 39.685 10.39 62.556 3.884 90.155 0 113.512 0a3 3 0 1 1 0 6C90.679 6 63.694 9.798 41.326 16.161 17.582 22.915 6.481 30.469 6.014 34.96c-.317 3.048 5.611 7.624 23.203 11.325 4.769 1.004 10.063 1.882 15.669 2.812 26.623 4.416 63.086 10.464 103.305 39.936a3 3 0 0 1-1.776 5.42z" fill="#232323"/></svg></g></svg>