<svg width="350" height="350" viewBox="0 0 350 350" fill="none" xmlns="http://www.w3.org/2000/svg">
<g clip-path="url(#clip0_2214_313)">
<mask id="mask0_2214_313" style="mask-type:luminance" maskUnits="userSpaceOnUse" x="20" y="22" width="311" height="294">
<path d="M330.4 315.933H20.3905V22.6482H330.4V315.933Z" fill="white"/>
</mask>
<g mask="url(#mask0_2214_313)">
<path d="M313.788 259.68C357.641 187.299 307.347 109.945 248.013 97.9124C207.462 89.6839 202.553 69.7809 153.733 37.5925C105.496 5.78589 28.7393 24.9777 21.6357 92.9581C14.532 160.939 38.0757 222.433 90.6973 271.197C157.569 333.164 269.94 332.066 313.788 259.68Z" fill="#FF8707"/>
</g>
</g>
<g clip-path="url(#clip1_2214_313)">
<mask id="mask1_2214_313" style="mask-type:luminance" maskUnits="userSpaceOnUse" x="143" y="33" width="156" height="298">
<path d="M143.733 33.1334H298.566V330.167H143.733V33.1334Z" fill="white"/>
</mask>
<g mask="url(#mask1_2214_313)">
<path d="M180.73 34.0227H261.57C281.491 34.0227 297.677 50.2084 297.677 70.1291V293.171C297.677 313.092 281.491 329.277 261.57 329.277H180.73C160.809 329.277 144.623 313.092 144.623 293.171V70.1291C144.623 50.2084 160.809 34.0227 180.73 34.0227Z" fill="#1A1A1A"/>
<path d="M261.57 330.167H180.73C160.275 330.167 143.733 313.625 143.733 293.171V70.1291C143.733 49.6747 160.275 33.1334 180.73 33.1334H261.57C282.025 33.1334 298.566 49.6747 298.566 70.1291V293.171C298.566 313.625 281.936 330.167 261.57 330.167ZM180.73 34.912C161.253 34.912 145.512 50.653 145.512 70.1291V293.171C145.512 312.558 161.253 328.388 180.73 328.388H261.57C281.046 328.388 296.788 312.647 296.788 293.171V70.1291C296.699 50.653 280.958 34.912 261.57 34.912H180.73Z" fill="#1A1A1A"/>
<path d="M288.339 60.7023H153.872V286.234H288.339V60.7023Z" fill="#FF8707"/>
<path d="M153.872 286.234H168.012L271.531 60.7023H237.558L153.872 242.835V286.234ZM217.637 60.7023H206.254L153.872 174.802V199.525L217.637 60.7023Z" fill="white"/>
<path d="M203.763 46.2953H238.536C239.87 46.2953 240.938 47.3625 240.938 48.6965C240.938 50.0304 239.87 51.0976 238.536 51.0976H203.763C202.429 51.0976 201.362 50.0304 201.362 48.6965C201.362 47.3625 202.429 46.2953 203.763 46.2953Z" fill="#FF8707"/>
<path d="M238.536 51.8981H203.763C201.985 51.8981 200.473 50.4751 200.473 48.6076C200.473 46.74 201.896 45.3171 203.763 45.3171H238.536C240.315 45.3171 241.827 46.74 241.827 48.6076C241.827 50.4751 240.315 51.8981 238.536 51.8981ZM203.763 47.1847C202.963 47.1847 202.252 47.8961 202.252 48.6965C202.252 49.4969 202.963 50.2083 203.763 50.2083H238.536C239.337 50.2083 240.048 49.4969 240.048 48.6965C240.048 47.8961 239.337 47.1847 238.536 47.1847H203.763ZM184.821 109.793H179.396C173.348 109.793 168.546 104.902 168.546 98.9432V93.5183C168.546 87.4709 173.437 82.6686 179.396 82.6686H184.821C190.779 82.6686 195.67 87.5598 195.67 93.5183V98.9432C195.67 104.902 190.868 109.704 184.821 109.793ZM179.396 84.3583C174.415 84.3583 170.324 88.4492 170.324 93.4294V98.8542C170.324 103.834 174.415 107.925 179.396 107.925H184.821C189.801 107.925 193.892 103.834 193.892 98.8542V93.4294C193.892 88.4492 189.801 84.3583 184.821 84.3583H179.396ZM224.93 109.793H219.505C213.457 109.793 208.655 104.902 208.655 98.9432V93.5183C208.655 87.4709 213.546 82.6686 219.505 82.6686H224.93C230.888 82.6686 235.779 87.5598 235.779 93.5183V98.9432C235.779 104.902 230.888 109.704 224.93 109.793ZM219.416 84.3583C214.346 84.3583 210.344 88.4492 210.344 93.4294V98.8542C210.344 103.923 214.435 107.925 219.416 107.925H224.841C229.821 107.925 233.912 103.834 233.912 98.8542V93.4294C233.912 88.4492 229.821 84.3583 224.841 84.3583H219.416ZM264.95 109.793H259.525C253.566 109.793 248.675 104.902 248.675 98.9432V93.5183C248.675 87.5598 253.566 82.6686 259.525 82.6686H264.95C270.997 82.6686 275.799 87.5598 275.799 93.5183V98.9432C275.799 104.902 270.908 109.793 264.95 109.793ZM259.525 84.3583C254.544 84.3583 250.453 88.4492 250.453 93.4294V98.8542C250.453 103.834 254.544 107.925 259.525 107.925H264.95C270.019 107.925 274.021 103.834 274.021 98.8542V93.4294C274.021 88.3602 269.93 84.3583 264.95 84.3583H259.525ZM184.821 147.588H179.396C173.348 147.588 168.546 142.697 168.546 136.738V131.314C168.546 125.266 173.437 120.464 179.396 120.464H184.821C190.868 120.464 195.67 125.355 195.67 131.314V136.738C195.759 142.697 190.868 147.588 184.821 147.588ZM179.396 122.154C174.415 122.154 170.324 126.244 170.324 131.225V136.649C170.324 141.63 174.415 145.721 179.396 145.721H184.821C189.801 145.721 193.892 141.63 193.892 136.649V131.225C193.892 126.244 189.801 122.154 184.821 122.154H179.396ZM224.93 147.588H219.505C213.457 147.588 208.655 142.697 208.655 136.738V131.314C208.655 125.266 213.546 120.464 219.505 120.464H224.93C230.977 120.464 235.779 125.355 235.779 131.314V136.738C235.779 142.697 230.888 147.588 224.93 147.588ZM219.416 122.154C214.346 122.154 210.344 126.244 210.344 131.225V136.649C210.344 141.719 214.435 145.721 219.416 145.721H224.841C229.821 145.721 233.912 141.63 233.912 136.649V131.225C233.912 126.244 229.821 122.154 224.841 122.154H219.416ZM264.95 147.588H259.525C253.477 147.588 248.675 142.697 248.675 136.738V131.314C248.675 125.266 253.566 120.464 259.525 120.464H264.95C270.997 120.464 275.799 125.355 275.799 131.314V136.738C275.799 142.697 270.908 147.588 264.95 147.588ZM259.525 122.154C254.544 122.154 250.453 126.244 250.453 131.225V136.649C250.453 141.63 254.544 145.721 259.525 145.721H264.95C270.019 145.721 274.021 141.63 274.021 136.649V131.225C274.021 126.156 269.93 122.154 264.95 122.154H259.525ZM184.821 185.384H179.396C173.437 185.384 168.546 180.493 168.546 174.535V169.11C168.546 163.062 173.437 158.26 179.396 158.26H184.821C190.868 158.26 195.67 163.151 195.67 169.11V174.535C195.67 180.493 190.868 185.384 184.821 185.384ZM179.396 159.95C174.326 159.95 170.324 164.041 170.324 169.021V174.446C170.324 179.426 174.415 183.517 179.396 183.517H184.821C189.801 183.517 193.892 179.426 193.892 174.446V169.021C193.892 163.952 189.801 159.95 184.821 159.95H179.396ZM224.93 185.384H219.505C213.546 185.384 208.655 180.493 208.655 174.535V169.11C208.655 163.062 213.546 158.26 219.505 158.26H224.93C230.977 158.26 235.779 163.151 235.779 169.11V174.535C235.779 180.493 230.888 185.384 224.93 185.384ZM219.416 159.95C214.346 159.95 210.344 164.041 210.344 169.021V174.446C210.344 179.515 214.435 183.517 219.416 183.517H224.841C229.821 183.517 233.912 179.426 233.912 174.446V169.021C233.912 163.952 229.821 159.95 224.841 159.95H219.416ZM264.95 185.384H259.525C253.566 185.384 248.675 180.493 248.675 174.535V169.11C248.675 163.062 253.566 158.26 259.525 158.26H264.95C270.997 158.26 275.799 163.151 275.799 169.11V174.535C275.799 180.493 270.908 185.384 264.95 185.384ZM259.525 159.95C254.455 159.95 250.453 164.041 250.453 169.021V174.446C250.453 179.426 254.544 183.517 259.525 183.517H264.95C270.019 183.517 274.021 179.426 274.021 174.446V169.021C274.021 163.952 269.93 159.95 264.95 159.95H259.525ZM184.821 221.846H179.396C173.348 221.846 168.546 216.955 168.546 210.997V205.572C168.546 199.525 173.437 194.722 179.396 194.722H184.821C190.779 194.722 195.67 199.613 195.67 205.572V210.997C195.759 217.044 190.868 221.846 184.821 221.846ZM179.396 196.501C174.415 196.501 170.324 200.592 170.324 205.572V210.997C170.324 216.066 174.415 220.068 179.396 220.068H184.821C189.89 220.068 193.892 215.977 193.892 210.997V205.572C193.892 200.592 189.801 196.501 184.821 196.501H179.396ZM224.93 221.846H219.505C213.457 221.846 208.655 216.955 208.655 210.997V205.572C208.655 199.525 213.546 194.722 219.505 194.722H224.93C230.888 194.722 235.779 199.613 235.779 205.572V210.997C235.779 217.044 230.888 221.846 224.93 221.846ZM219.416 196.501C214.346 196.501 210.344 200.592 210.344 205.572V210.997C210.344 216.066 214.435 220.068 219.416 220.068H224.841C229.91 220.068 233.912 215.977 233.912 210.997V205.572C233.912 200.592 229.821 196.501 224.841 196.501H219.416ZM264.95 221.846H259.525C253.477 221.846 248.675 216.955 248.675 210.997V205.572C248.675 199.613 253.566 194.722 259.525 194.722H264.95C270.997 194.722 275.799 199.613 275.799 205.572V210.997C275.799 217.044 270.908 221.846 264.95 221.846ZM259.525 196.501C254.544 196.501 250.453 200.592 250.453 205.572V210.997C250.453 216.066 254.544 220.068 259.525 220.068H264.95C270.019 220.068 274.021 215.977 274.021 210.997V205.572C274.021 200.503 269.93 196.501 264.95 196.501H259.525Z" fill="#1A1A1A"/>
<path d="M221.105 316.292C215.503 316.292 211.056 311.757 211.056 306.154C211.056 300.551 215.592 296.105 221.194 296.105C226.797 296.105 231.244 300.64 231.244 306.243C231.244 311.846 226.708 316.292 221.105 316.292ZM221.105 297.883C216.481 297.883 212.746 301.619 212.746 306.243C212.746 310.868 216.481 314.603 221.105 314.603C225.73 314.603 229.465 310.868 229.465 306.243C229.465 301.619 225.73 297.883 221.105 297.883Z" fill="#FF8707"/>
<path d="M288.339 287.124H153.872C153.338 287.124 152.982 286.768 152.982 286.234V60.7023C152.982 60.1687 153.338 59.813 153.872 59.813H288.339C288.873 59.813 289.228 60.1687 289.228 60.7023V286.234C289.228 286.679 288.873 287.124 288.339 287.124ZM154.761 285.345H287.45V61.5916H154.761V285.345Z" fill="#1A1A1A"/>
</g>
</g>
<g clip-path="url(#clip2_2214_313)">
<mask id="mask2_2214_313" style="mask-type:luminance" maskUnits="userSpaceOnUse" x="154" y="61" width="130" height="225">
<path d="M283.15 61.7167L283.15 285.549L154.749 285.549L154.749 61.7167L283.15 61.7167Z" fill="white"/>
</mask>
<g mask="url(#mask2_2214_313)">
<path d="M283.15 285.549L283.15 61.7167L154.749 61.7167L154.749 285.549L283.15 285.549Z" fill="#FF8707"/>
</g>
</g>
<g clip-path="url(#clip3_2214_313)">
<path d="M195.366 118.615C195.604 118.685 195.852 118.716 196.1 118.707C196.449 118.716 196.795 118.647 197.112 118.503C197.43 118.36 197.711 118.146 197.935 117.878C200.681 114.627 204.317 112.257 208.393 111.063C209.068 110.817 209.626 110.323 209.952 109.681C210.164 109.184 210.266 108.646 210.25 108.106C210.234 107.565 210.101 107.034 209.861 106.55C209.629 105.938 209.26 105.387 208.783 104.94C208.306 104.493 207.733 104.161 207.109 103.971C206.637 103.787 206.113 103.787 205.641 103.971C200.711 105.446 196.313 108.325 192.981 112.26C191.88 113.549 192.064 115.668 193.44 117.233C193.954 117.852 194.617 118.327 195.366 118.615ZM205.182 120.088C204.887 121.14 205.019 122.265 205.549 123.219C206.069 124.222 206.958 124.982 208.026 125.338C208.264 125.408 208.512 125.439 208.76 125.43C209.143 125.426 209.52 125.331 209.861 125.153C211.791 124.227 213.874 123.665 216.007 123.496C216.353 123.461 216.687 123.353 216.988 123.179C217.288 123.004 217.548 122.767 217.75 122.483C218.014 122.045 218.184 121.556 218.247 121.048C218.31 120.541 218.266 120.025 218.117 119.536C217.937 118.829 217.582 118.18 217.085 117.649C216.587 117.117 215.964 116.721 215.273 116.496C214.943 116.416 214.603 116.385 214.264 116.404C211.523 116.597 208.845 117.316 206.375 118.523C205.858 118.941 205.449 119.478 205.182 120.088ZM252.61 125.89L251.509 124.509C250.678 123.359 249.79 122.253 248.848 121.193C243.221 114.383 235.96 109.122 227.749 105.905C226.697 105.513 225.625 105.175 224.538 104.892C222.968 104.467 221.376 104.129 219.768 103.879C219.362 103.825 218.948 103.873 218.564 104.017C218.18 104.162 217.838 104.399 217.566 104.708C217.284 105.068 217.081 105.484 216.97 105.929C216.86 106.373 216.844 106.836 216.924 107.287C217.015 108.141 217.349 108.952 217.885 109.621C218.422 110.291 219.139 110.791 219.952 111.063C220.043 111.063 220.227 111.155 220.319 111.155C221.681 111.343 223.029 111.619 224.355 111.984C225.181 112.26 226.098 112.536 227.015 112.813C233.712 115.299 239.583 119.536 244.904 125.706C245.638 126.535 246.28 127.456 247.105 128.469C247.472 129.021 247.931 129.482 248.298 130.035C248.823 130.703 249.521 131.212 250.316 131.508C250.554 131.579 250.802 131.61 251.05 131.6C251.705 131.592 252.33 131.328 252.793 130.863C253.986 129.666 253.894 127.548 252.61 125.89ZM250.591 157.111V156.098C250.493 151.229 249.498 146.42 247.656 141.915C245.851 137.345 243.344 133.088 240.225 129.298C237.217 125.691 233.58 122.664 229.492 120.364C229.083 120.113 228.654 119.897 228.208 119.72C228.04 119.618 227.852 119.555 227.657 119.536C227.421 119.46 227.172 119.429 226.924 119.444C226.285 119.451 225.672 119.703 225.212 120.148C224.752 120.593 224.478 121.197 224.447 121.838C224.364 122.752 224.556 123.671 224.998 124.475C225.439 125.279 226.11 125.932 226.924 126.351C227.199 126.535 227.474 126.627 227.749 126.811C230.952 128.588 233.81 130.927 236.189 133.718C238.682 136.718 240.666 140.109 242.06 143.757C243.471 147.307 244.248 151.079 244.353 154.9V155.545L244.445 158.86C244.428 159.476 244.458 160.092 244.537 160.702C244.573 161.606 244.882 162.477 245.423 163.201C245.964 163.924 246.71 164.466 247.564 164.754C247.801 164.83 248.05 164.862 248.298 164.847C248.953 164.839 249.578 164.575 250.041 164.11C250.313 163.815 250.519 163.465 250.645 163.084C250.772 162.703 250.816 162.299 250.775 161.9C250.79 161.315 250.759 160.73 250.683 160.15L250.591 157.111ZM224.905 154.164C224.921 153.456 224.89 152.749 224.814 152.045L224.722 150.019C224.706 149.158 224.424 148.323 223.915 147.63C223.405 146.937 222.693 146.42 221.878 146.151C221.467 146.032 221.031 146.02 220.614 146.117C220.197 146.214 219.811 146.416 219.493 146.704C219.224 146.962 219.018 147.28 218.891 147.631C218.764 147.982 218.719 148.358 218.759 148.73V150.756C218.744 151.433 218.774 152.11 218.851 152.782C218.851 154.071 218.943 155.821 218.851 157.111C218.667 162.268 217.475 166.32 215.09 169.451C213.835 171.092 212.455 172.631 210.962 174.056C210.319 174.701 209.585 175.438 208.943 176.174L208.485 176.635C208.126 176.949 207.788 177.287 207.476 177.648C206.992 178.344 206.773 179.191 206.857 180.035C206.941 180.88 207.323 181.666 207.934 182.253C208.388 182.812 208.994 183.228 209.677 183.45C209.914 183.526 210.163 183.557 210.411 183.542C210.745 183.541 211.074 183.467 211.375 183.324C211.676 183.18 211.942 182.972 212.154 182.713C212.32 182.455 212.539 182.235 212.796 182.068C213.033 181.843 213.248 181.597 213.438 181.332L215.365 179.398C217.014 177.79 218.547 176.067 219.952 174.24C222.979 170.28 224.538 165.031 224.722 158.584C224.926 157.12 224.987 155.64 224.905 154.164ZM201.696 147.625V147.441C201.696 146.704 201.604 146.059 201.604 145.322L201.513 142.283C201.421 137.863 202.155 134.179 203.898 131.324C204.282 130.503 204.382 129.578 204.182 128.694C203.983 127.809 203.495 127.017 202.797 126.443C202.347 126.03 201.815 125.717 201.238 125.522C200.71 125.341 200.135 125.352 199.615 125.554C199.095 125.756 198.662 126.136 198.394 126.627C196.192 130.495 195.183 135.284 195.275 140.994C195.275 142.007 195.275 142.928 195.366 143.941C195.349 144.648 195.38 145.356 195.458 146.059V146.151C195.488 146.589 195.425 147.028 195.275 147.441C195.18 147.767 194.988 148.056 194.724 148.269L194.174 148.822L193.623 149.375C192.339 150.388 192.247 152.506 193.44 154.256C193.952 155.056 194.733 155.644 195.642 155.913C195.879 155.989 196.127 156.02 196.376 156.005C196.943 156.005 197.493 155.81 197.935 155.453C198.325 155.108 198.692 154.739 199.036 154.348L199.311 154.071C200.141 153.245 200.769 152.236 201.146 151.124C201.624 150.024 201.814 148.819 201.696 147.625Z" fill="white"/>
<path d="M237.473 152.045C237.357 149.738 236.861 147.467 236.005 145.322C234.78 142.089 232.907 139.143 230.501 136.665C228.284 134.269 225.463 132.519 222.337 131.6L221.695 131.416C217.658 130.495 213.897 131.324 211.237 133.81C208.576 136.297 207.2 140.165 207.2 144.678V146.98C207.2 148.546 207.292 150.111 207.2 151.493C207.18 152.905 206.932 154.304 206.466 155.637C206.025 156.82 205.372 157.913 204.54 158.86C203.623 159.873 202.705 160.794 201.696 161.9L200.962 162.636C199.861 163.741 199.953 165.86 201.146 167.333C201.641 167.971 202.31 168.451 203.072 168.715C203.484 168.834 203.919 168.845 204.336 168.749C204.753 168.652 205.139 168.45 205.457 168.162L206.1 167.517C207.109 166.504 208.209 165.399 209.219 164.294C210.485 162.86 211.48 161.206 212.154 159.413C212.882 157.438 213.254 155.349 213.255 153.243C213.347 151.585 213.255 149.927 213.255 148.362V146.151C213.255 143.296 214.081 140.994 215.64 139.612C217.2 138.139 219.218 137.678 221.786 138.323L222.153 138.415C224.714 139.251 226.936 140.899 228.483 143.112C229.309 144.297 230.016 145.562 230.593 146.888C231.125 148.177 231.435 149.547 231.51 150.94C231.602 152.23 231.602 153.427 231.602 154.716V158.492C231.602 165.675 230.226 171.846 227.199 177.28C225.705 179.944 223.819 182.366 221.603 184.463C221.06 185.129 220.77 185.968 220.787 186.828C220.804 187.689 221.126 188.516 221.695 189.16C222.181 189.848 222.897 190.339 223.713 190.541C223.95 190.617 224.198 190.648 224.447 190.633C224.751 190.646 225.055 190.595 225.339 190.484C225.624 190.373 225.882 190.205 226.098 189.989C228.669 187.533 230.864 184.709 232.611 181.608C236.097 175.345 237.748 167.978 237.748 159.781C237.748 158.492 237.748 157.203 237.657 155.821C237.565 154.716 237.565 153.427 237.473 152.045Z" fill="white"/>
</g>
<g clip-path="url(#clip4_2214_313)">
<mask id="mask3_2214_313" style="mask-type:luminance" maskUnits="userSpaceOnUse" x="48" y="69" width="114" height="262">
<path d="M161.233 69.7667H48.9924V330.262H161.233V69.7667Z" fill="white"/>
</mask>
<g mask="url(#mask3_2214_313)">
<path d="M113.324 114.981L111.02 96.632L100.798 96.8993L98.808 115.073L106.375 118.652L113.324 114.981Z" fill="#FF8707"/>
<path d="M106.375 119.053C106.444 119.052 106.512 119.035 106.572 119.003L113.521 115.335C113.595 115.296 113.655 115.235 113.694 115.16C113.733 115.086 113.748 115.001 113.738 114.918L111.438 96.5689C111.426 96.467 111.377 96.3732 111.3 96.3054C111.223 96.2376 111.123 96.2006 111.02 96.2013L100.794 96.4686C100.691 96.4681 100.591 96.5058 100.513 96.5744C100.436 96.643 100.387 96.7378 100.376 96.8404L98.3815 115.014C98.3735 115.099 98.3922 115.185 98.4348 115.26C98.4774 115.335 98.542 115.395 98.6198 115.431L106.187 119.011C106.246 119.04 106.31 119.055 106.375 119.053ZM112.873 114.73L106.363 118.167L99.2553 114.826L101.174 97.3082L110.644 97.0576L112.873 114.73Z" fill="#1A1A1A"/>
<path d="M99.8699 106.005C99.8699 106.005 107.17 108.791 110.18 103.574C108.366 104.722 100.267 101.903 100.267 101.903L99.8699 106.005Z" fill="#1A1A1A"/>
<path d="M104.105 107.149C106.38 107.149 108.997 106.464 110.544 103.783C110.59 103.702 110.607 103.608 110.594 103.516C110.58 103.424 110.536 103.34 110.469 103.276C110.402 103.212 110.315 103.172 110.223 103.162C110.13 103.153 110.037 103.174 109.958 103.223C108.758 103.983 103.461 102.567 100.405 101.498C100.345 101.477 100.281 101.469 100.218 101.477C100.155 101.484 100.094 101.505 100.04 101.54C99.9865 101.574 99.9414 101.62 99.9083 101.674C99.8751 101.728 99.8548 101.79 99.849 101.853L99.4309 105.967C99.4247 106.056 99.4474 106.145 99.4956 106.22C99.5437 106.295 99.6149 106.353 99.6985 106.385C101.117 106.874 102.605 107.132 104.105 107.149ZM109.206 104.225C106.522 107.396 101.58 106.101 100.317 105.7L100.631 102.442C102.232 102.993 106.747 104.409 109.206 104.242V104.225Z" fill="#1A1A1A"/>
<path d="M107.538 70.4725C110.333 72.2795 113.459 73.5146 116.736 74.1064C117.038 74.158 117.321 74.2888 117.556 74.4855C117.791 74.6821 117.97 74.9376 118.074 75.2257C118.644 76.832 119.385 78.3723 120.285 79.8202C120.495 80.163 120.578 80.5682 120.52 80.9656C120.462 81.3631 120.266 81.7277 119.968 81.9964C118.416 83.3434 116.582 84.3241 114.599 84.8658C114.435 84.9126 114.264 84.9364 114.093 84.9368H98.2059C97.9611 84.937 97.7189 84.8858 97.4951 84.7865C95.9008 84.0737 94.3917 83.184 92.9965 82.1342C92.6424 81.8688 92.4038 81.4778 92.3299 81.0418C92.256 80.6058 92.3524 80.158 92.5993 79.791C93.5604 78.396 94.3824 76.9103 95.0535 75.3552C95.1647 75.0985 95.3372 74.8729 95.5558 74.6982C95.7745 74.5234 96.0327 74.4048 96.3078 74.3528C99.8783 73.7304 102.608 72.4816 105.627 70.4767C105.91 70.2899 106.242 70.19 106.582 70.1893C106.921 70.1885 107.254 70.287 107.538 70.4725Z" fill="#FF8707"/>
<path d="M119.366 81.3114C119.366 81.3114 119.035 80.476 118.529 79.4318C118.023 78.3876 117.38 76.8673 114.148 75.6727C110.916 74.4781 108.838 73.7722 106.58 73.8182C104.323 73.8641 97.5955 75.4889 96.128 77.1596C94.6605 78.8304 93.7407 81.1401 93.7825 81.5369C93.8243 81.9337 92.2774 80.7016 92.2774 80.7016L95.3336 74.7329C95.3336 74.7329 98.9167 74.2442 100.953 73.0622C102.989 71.8801 105.911 70.2762 106.53 70.1384C107.149 70.0006 111.443 72.5693 112.383 72.8784C113.324 73.1875 117.605 74.2484 117.605 74.2484L120.616 80.4844C120.616 80.4844 120.678 81.3782 119.366 81.3114Z" fill="white"/>
<path d="M98.2017 85.3545H114.089C114.302 85.3559 114.513 85.3249 114.716 85.2626C116.764 84.7031 118.659 83.6894 120.26 82.2971C120.631 81.9619 120.872 81.508 120.943 81.0138C121.014 80.5197 120.91 80.0163 120.649 79.5905C119.764 78.1695 119.035 76.6571 118.475 75.0796C118.346 74.7196 118.123 74.4007 117.829 74.1561C117.535 73.9115 117.18 73.7501 116.803 73.6887C113.587 73.1025 110.517 71.892 107.768 70.1259C107.415 69.889 106.999 69.7625 106.574 69.7625C106.149 69.7625 105.733 69.889 105.38 70.1259C102.19 72.256 99.5271 73.3587 96.2451 73.9351C95.899 73.9972 95.5738 74.1442 95.2987 74.3629C95.0236 74.5817 94.8071 74.8652 94.6688 75.1882C94.0041 76.7187 93.1934 78.1817 92.2481 79.5571C91.9359 80.0132 91.8125 80.5723 91.9037 81.1173C91.9948 81.6623 92.2936 82.151 92.7373 82.4809C94.1639 83.5512 95.7066 84.4577 97.3363 85.1833C97.6095 85.3005 97.9044 85.3588 98.2017 85.3545ZM107.299 70.8192C110.145 72.6641 113.33 73.9223 116.669 74.5199C116.897 74.5576 117.111 74.6548 117.289 74.8014C117.467 74.9481 117.604 75.1391 117.685 75.3552C118.264 76.9941 119.02 78.5654 119.938 80.0416C120.096 80.302 120.158 80.609 120.113 80.91C120.069 81.211 119.921 81.4872 119.696 81.6915C118.188 82.9919 116.408 83.9394 114.486 84.4649C114.362 84.502 114.232 84.52 114.102 84.5192H98.2143C98.0298 84.5205 97.8473 84.4821 97.6791 84.4064C96.111 83.7071 94.6271 82.8327 93.2557 81.8001C92.9869 81.6005 92.8053 81.3053 92.7485 80.9756C92.6917 80.6459 92.764 80.307 92.9505 80.0291C93.9316 78.6121 94.7718 77.1026 95.459 75.5223C95.5425 75.3322 95.671 75.1652 95.8334 75.0357C95.9958 74.9061 96.1873 74.818 96.3914 74.7788C99.7654 74.1899 102.596 73.012 105.844 70.8443C106.06 70.7002 106.314 70.6233 106.574 70.6233C106.834 70.6233 107.088 70.7002 107.304 70.8443L107.299 70.8192Z" fill="#1A1A1A"/>
<path d="M55.0965 138.793C60.3165 143.105 64.9456 148.084 68.8643 153.604C63.5545 160.6 73.2626 162.567 78.7396 165.044C78.9319 168.803 78.9068 171.414 79.6636 173.815C69.8719 173.581 55.2136 175.068 51.1832 161.498C48.2022 151.444 51.317 145.104 55.0965 138.793Z" fill="#FF8707"/>
<path d="M78.8148 168.035C73.7977 167.805 63.0068 163.954 67.4804 155.479C67.3926 160.521 69.8719 163.645 78.8148 164.957C78.9169 165.98 78.9169 167.011 78.8148 168.035Z" fill="white"/>
<path d="M79.3541 174.308C79.465 174.308 79.5714 174.264 79.6498 174.185C79.7282 174.107 79.7722 174.001 79.7722 173.89L79.7304 172.336C79.6719 170.123 79.6175 168.214 79.6175 165.194C79.6191 165.095 79.5856 164.999 79.5228 164.922C79.46 164.846 79.3721 164.794 79.2747 164.776C76.9961 164.379 69.4495 162.784 67.9402 158.929C67.3507 157.429 67.773 155.717 69.1945 153.837C69.2461 153.766 69.2739 153.681 69.2739 153.593C69.2739 153.505 69.2461 153.42 69.1945 153.349C65.255 147.798 60.6006 142.79 55.3515 138.454C55.3051 138.416 55.2513 138.389 55.1935 138.373C55.1357 138.358 55.0752 138.355 55.0162 138.364C54.9571 138.374 54.9009 138.397 54.8513 138.43C54.8017 138.464 54.7598 138.507 54.7285 138.558L54.3564 139.172C50.6898 145.279 46.5297 152.204 50.7859 161.652C55.7654 172.696 72.4096 174.182 79.3374 174.291L79.3541 174.308ZM78.7855 165.536C78.7855 168.368 78.8399 170.219 78.8942 172.349L78.9277 173.464C71.9205 173.293 56.242 171.71 51.5636 161.326C47.483 152.275 51.3503 145.843 55.0881 139.607L55.2051 139.415C60.1653 143.567 64.5817 148.327 68.3499 153.582C66.8866 155.617 66.4853 157.517 67.1626 159.238C68.7304 163.231 75.5537 164.939 78.7855 165.536Z" fill="#1A1A1A"/>
<path d="M132.485 165.031C141.044 162.642 146.55 161.022 142.398 154.335C144.518 150.505 151.061 144.857 156.613 140.489C159.682 146.52 162.069 154.498 158.014 163.16C152.395 175.119 138.267 174.663 131.867 174.663L132.485 165.031Z" fill="#FF8707"/>
<path d="M149.217 171.501C154.615 166.188 159.858 159.568 155.99 144.431C156.433 143.721 157.763 142 157.763 142C157.763 142 167.337 163.106 149.217 171.501Z" fill="white"/>
<path d="M132.126 175.26C145.822 175.26 154.941 171.179 158.624 163.335C161.969 156.235 161.492 148.716 157.207 140.3C157.179 140.245 157.139 140.196 157.09 140.158C157.041 140.119 156.984 140.092 156.923 140.079C156.863 140.066 156.8 140.066 156.74 140.08C156.68 140.094 156.624 140.12 156.576 140.158C151.253 144.335 144.451 150.182 142.264 154.134C142.228 154.197 142.208 154.269 142.208 154.343C142.208 154.416 142.228 154.488 142.264 154.551C143.56 156.64 143.907 158.21 143.356 159.493C142.156 162.262 136.666 163.866 127.606 165.695C127.515 165.714 127.432 165.763 127.371 165.834C127.311 165.905 127.276 165.995 127.272 166.088L126.95 174.671C126.95 174.777 126.99 174.879 127.062 174.957C127.134 175.034 127.233 175.081 127.339 175.089C128.994 175.206 130.587 175.26 132.126 175.26ZM156.689 141.136C160.64 149.126 161.024 156.26 157.868 162.98C152.951 173.443 138.895 174.93 127.786 174.295L128.091 166.455C137.469 164.551 142.8 162.909 144.133 159.827C144.785 158.319 144.464 156.569 143.117 154.326C145.3 150.6 151.588 145.174 156.689 141.136ZM51.5343 146.774C51.5343 146.774 60.4355 153.8 68.8642 153.603C77.293 153.407 54.323 140.538 54.323 140.538C54.323 140.538 51.8019 143.988 51.5343 146.774ZM74.7426 317.498L80.8467 183.573L107.508 185.106L131.072 183.702L136.415 317.498H119.253L106.158 234.133L91.9011 317.498H74.7426Z" fill="#1A1A1A"/>
<path d="M77.5605 259.131C77.5605 259.131 88.711 238.74 82.7407 242.19C76.7703 245.64 81.8 232.165 85.0987 224.622C88.3975 217.079 84.1873 219.447 82.5902 221.172C78.6267 225.437 78.4929 233.661 78.4929 233.661L77.5605 259.131ZM76.854 274.163C76.854 274.163 80.5708 260.38 81.6328 270.271C82.6947 280.161 77.3849 283.185 75.9676 299.454C76.323 283.361 76.854 274.163 76.854 274.163ZM117.927 308.652C117.927 308.652 116.155 296.272 118.634 283.536C121.113 270.801 119.165 268.149 116.686 272.397C114.206 276.645 113.855 267.443 115.624 256.479C117.392 245.515 113.679 239.496 109.958 255.063C113.324 277.877 117.927 308.652 117.927 308.652ZM102.525 253.129C102.525 253.129 96.1489 273.115 91.3701 281.076C86.5913 289.037 91.7255 286.556 92.963 289.563C94.2006 292.571 91.2405 301.087 90.1326 303.004C87.4735 307.599 90.4294 315.71 91.9011 315.739L102.525 253.129Z" fill="#FF8707"/>
<path d="M126.423 329.398H133.53L134.27 326.742C134.27 326.742 138.493 329.845 142.632 329.845H154.176C154.176 329.845 153.31 325.355 150.062 325.25C146.617 325.146 137.047 321.8 136.382 317.356L126.093 316.429L126.423 329.398Z" fill="#1A1A1A"/>
<path d="M142.624 330.258H154.176C154.237 330.258 154.298 330.244 154.353 330.218C154.409 330.192 154.458 330.155 154.498 330.108C154.537 330.06 154.565 330.005 154.58 329.946C154.595 329.887 154.597 329.825 154.586 329.765C154.548 329.565 153.616 324.945 150.074 324.841C146.533 324.736 137.406 321.37 136.796 317.302C136.782 317.209 136.737 317.123 136.669 317.059C136.601 316.994 136.513 316.955 136.419 316.946L126.113 316.019C126.055 316.014 125.996 316.022 125.94 316.041C125.885 316.061 125.834 316.091 125.792 316.132C125.748 316.172 125.714 316.22 125.691 316.274C125.668 316.328 125.657 316.387 125.658 316.445L125.988 329.393C125.988 329.504 126.032 329.61 126.111 329.689C126.189 329.767 126.295 329.811 126.406 329.811H133.514C133.608 329.815 133.7 329.786 133.776 329.731C133.852 329.676 133.907 329.597 133.932 329.506L134.513 327.418C135.759 328.241 139.183 330.258 142.624 330.258ZM153.636 329.423H142.624C138.669 329.423 134.551 326.436 134.509 326.403C134.426 326.342 134.324 326.313 134.222 326.323C134.12 326.332 134.025 326.378 133.954 326.453C133.908 326.503 133.875 326.563 133.857 326.628L133.221 328.98H126.833L126.532 316.892L136.043 317.753C137.126 322.309 146.42 325.563 150.053 325.689C152.315 325.743 153.315 328.312 153.636 329.423Z" fill="#1A1A1A"/>
<path d="M132.443 317.319L126.247 201.12L131.603 200.631L136.382 317.231L132.443 317.319Z" fill="#FF8707"/>
<path d="M84.6221 329.398H77.5146L76.7787 326.742C76.7787 326.742 72.5518 329.845 68.4169 329.845H56.865C56.865 329.845 57.7305 325.355 60.9832 325.25C64.4241 325.146 73.9942 321.8 74.659 317.356L84.9482 316.429L84.6221 329.398Z" fill="#1A1A1A"/>
<path d="M56.8692 330.258H68.4169C71.8578 330.258 75.282 328.241 76.5362 327.418L77.1174 329.506C77.1425 329.597 77.1974 329.676 77.2733 329.731C77.3492 329.787 77.4416 329.815 77.5355 329.811H84.643C84.7538 329.811 84.8601 329.767 84.9384 329.688C85.0168 329.61 85.0609 329.504 85.0611 329.393L85.3914 316.445C85.3929 316.357 85.3664 316.27 85.3157 316.198C85.2649 316.125 85.1925 316.07 85.1088 316.041C85.0533 316.022 84.9943 316.014 84.9357 316.019L74.6465 316.946C74.5529 316.955 74.4648 316.994 74.3966 317.059C74.3283 317.123 74.2837 317.209 74.2702 317.301C73.6639 321.37 64.5328 324.732 60.9958 324.841C57.4587 324.949 56.518 329.565 56.4804 329.765C56.4692 329.825 56.4712 329.887 56.4864 329.946C56.5015 330.005 56.5295 330.06 56.5682 330.108C56.6052 330.152 56.6511 330.188 56.7029 330.214C56.7547 330.24 56.8113 330.255 56.8692 330.258ZM76.7787 326.323C76.6893 326.325 76.6019 326.352 76.5279 326.403C76.4902 326.436 72.347 329.423 68.4127 329.423H57.4002C57.7221 328.316 58.7213 325.743 60.9916 325.663C64.6248 325.551 73.919 322.297 75.006 317.728L84.5134 316.867L84.204 328.955H77.8323L77.1968 326.641C77.1789 326.575 77.1451 326.515 77.0985 326.465C77.0518 326.416 76.9937 326.379 76.9292 326.357C76.8812 326.338 76.8304 326.326 76.7787 326.323Z" fill="#1A1A1A"/>
<path d="M74.7427 317.916H91.8844C91.9846 317.917 92.082 317.882 92.1587 317.818C92.2354 317.754 92.2865 317.664 92.3025 317.565L106.141 236.714L118.843 317.561C118.858 317.661 118.909 317.751 118.985 317.817C119.062 317.882 119.16 317.917 119.261 317.916H136.403C136.459 317.916 136.515 317.904 136.567 317.882C136.618 317.86 136.665 317.827 136.704 317.786C136.743 317.746 136.773 317.698 136.793 317.646C136.814 317.593 136.823 317.538 136.821 317.482L131.49 183.686C131.487 183.602 131.458 183.522 131.408 183.455C131.358 183.388 131.289 183.338 131.21 183.311C131.158 183.292 131.102 183.285 131.047 183.289L107.508 184.688L80.8719 183.155C80.8165 183.151 80.761 183.159 80.7085 183.177C80.6561 183.195 80.6077 183.223 80.5664 183.26C80.5251 183.297 80.4916 183.342 80.468 183.392C80.4443 183.442 80.431 183.497 80.4287 183.552L74.3246 317.477C74.3212 317.591 74.3614 317.702 74.4374 317.786C74.4767 317.828 74.5241 317.861 74.5766 317.883C74.6291 317.905 74.6856 317.916 74.7427 317.916ZM91.5499 317.081H75.1775L81.244 184.011L107.483 185.523H107.534L130.671 184.145L135.981 317.081H119.612L106.572 234.071C106.557 233.971 106.507 233.88 106.43 233.814C106.353 233.749 106.255 233.714 106.154 233.715C106.054 233.714 105.957 233.748 105.881 233.811C105.804 233.875 105.752 233.964 105.736 234.062L91.5499 317.081ZM115.578 84.3855C115.737 86.925 115.77 90.0744 112.785 92.0333C109.637 94.0966 101.53 93.7458 99.5062 91.9122C96.935 89.5857 96.9475 86.687 97.0562 84.1433C97.0562 84.1558 109.754 82.2136 115.578 84.3855Z" fill="#1A1A1A"/>
<path d="M106.242 93.8669C108.83 93.8669 111.464 93.4116 113.015 92.3966C116.104 90.3667 116.171 87.1923 115.996 84.373C115.991 84.2932 115.963 84.2166 115.915 84.1522C115.868 84.0878 115.803 84.0383 115.728 84.0096C109.875 81.8084 97.5161 83.6629 96.9935 83.7423C96.898 83.7576 96.8109 83.8056 96.7469 83.8779C96.6828 83.9503 96.6459 84.0426 96.6423 84.1391C96.5419 86.3444 96.3998 89.6733 99.2219 92.2337C100.363 93.2696 103.273 93.8669 106.242 93.8669ZM115.18 84.6779C115.323 87.2926 115.18 89.9532 112.555 91.6782C109.595 93.6163 101.651 93.2821 99.7863 91.5947C97.5454 89.5647 97.3698 87.0879 97.4617 84.4941C99.4811 84.2393 109.954 82.9069 115.18 84.6988V84.6779Z" fill="#1A1A1A"/>
<path d="M89.5264 117.453C97.7001 115.022 113.006 115.131 121.661 117.453C128.622 118.815 148.803 125.197 160.815 136.429C158.859 143.888 146.96 154.247 140.442 156.314C137.787 154.563 134.962 153.085 132.009 151.904C132.686 162.078 132.719 173.423 131.076 183.648C125.181 191.838 82.8913 191.07 80.8426 184.671C79.534 180.586 78.2254 166.084 79.3793 149.535C76.9669 150.789 72.347 153.341 71.0175 154.99C61.8654 150.308 54.369 143.817 51.0034 135.501C51.0034 135.497 71.8829 120.632 89.5264 117.453Z" fill="white"/>
<path d="M115.093 116.222C115.093 116.222 141.207 119.58 160.815 136.429C160.367 137.722 159.819 138.979 159.176 140.188C159.176 140.188 139.35 123.205 115.185 117.283C114.119 116.928 115.093 116.222 115.093 116.222ZM79.6845 147.874C79.6845 147.874 80.2824 144.95 78.5347 142.565C76.5864 139.913 72.071 145.489 71.3645 154.594C73.756 152.468 79.3793 149.544 79.3793 149.544L79.6845 147.874ZM129.345 131.253C129.345 131.253 134.475 159.568 131.469 180.335C128.463 201.102 126.603 183.605 126.603 183.605C126.603 183.605 130.32 165.478 127.397 131.52C126.95 128.513 128.902 128.956 129.345 131.253Z" fill="#FF8707"/>
<path d="M111.154 116.53L108.102 122.102L113.546 170.917L104.515 176.355L95.8855 169.459L104.515 121.835L100.798 116.133L111.154 116.53ZM115.565 145.3C115.565 145.3 125.796 145.049 131.871 146.528L131.967 152.104C131.967 152.104 127.502 148.796 123.893 152.747C121.243 150.788 120.369 149.648 115.9 150.462C115.642 148.754 115.53 147.027 115.565 145.3Z" fill="#1A1A1A"/>
<path d="M123.889 153.165C123.947 153.165 124.005 153.153 124.058 153.13C124.111 153.107 124.159 153.074 124.199 153.031C127.502 149.41 131.545 152.313 131.724 152.438C131.787 152.484 131.861 152.512 131.939 152.518C132.016 152.524 132.094 152.508 132.163 152.472C132.232 152.437 132.29 152.382 132.33 152.316C132.369 152.249 132.39 152.173 132.389 152.095L132.301 146.519C132.304 146.424 132.274 146.331 132.216 146.255C132.158 146.179 132.076 146.125 131.984 146.102C125.921 144.632 115.678 144.849 115.565 144.849C115.454 144.849 115.348 144.893 115.27 144.971C115.192 145.05 115.147 145.156 115.147 145.266C115.109 147.023 115.221 148.779 115.481 150.517C115.492 150.571 115.512 150.622 115.542 150.669C115.603 150.761 115.699 150.826 115.807 150.85C115.861 150.861 115.917 150.861 115.971 150.851C119.8 150.153 120.829 150.93 122.873 152.48L123.643 153.06C123.711 153.121 123.798 153.158 123.889 153.165ZM127.999 150.4C127.221 150.402 126.452 150.562 125.737 150.87C125.023 151.178 124.379 151.627 123.843 152.192L123.375 151.841C121.285 150.249 120.097 149.335 116.234 149.982C116.051 148.567 115.965 147.141 115.979 145.713C117.89 145.684 126.164 145.655 131.448 146.858L131.549 151.352C130.459 150.754 129.242 150.428 127.999 150.4ZM95.7099 145.037C95.7099 145.037 85.4792 144.786 79.4044 146.261L79.3166 151.837C79.3166 151.837 83.7818 148.533 87.3899 152.484C90.0448 150.525 90.9144 149.385 95.3838 150.2C95.6393 148.491 95.7484 146.764 95.7099 145.037Z" fill="#1A1A1A"/>
<path d="M87.3856 152.885C87.4761 152.885 87.5641 152.856 87.6365 152.801C87.9154 152.601 88.1704 152.409 88.4016 152.225C90.4461 150.675 91.4746 149.894 95.3043 150.592C95.413 150.613 95.5255 150.59 95.6172 150.528C95.7089 150.466 95.7723 150.37 95.7935 150.262C96.0561 148.523 96.168 146.765 96.1279 145.007C96.1279 144.897 96.0839 144.79 96.0055 144.712C95.9271 144.634 95.8207 144.59 95.7098 144.59C95.6095 144.59 85.3579 144.356 79.2914 145.843C79.1988 145.866 79.1168 145.92 79.0591 145.996C79.0013 146.072 78.9712 146.165 78.9736 146.26L78.8858 151.841C78.8851 151.899 78.8964 151.956 78.9191 152.009C78.9419 152.063 78.9754 152.111 79.0178 152.151C79.0601 152.19 79.1102 152.221 79.1649 152.24C79.2197 152.259 79.2778 152.267 79.3357 152.263C79.4133 152.257 79.4877 152.229 79.5506 152.184C79.722 152.058 83.765 149.155 87.0763 152.772C87.1174 152.811 87.1661 152.841 87.2193 152.86C87.2725 152.88 87.3291 152.888 87.3856 152.885ZM92.8501 149.497C90.6133 149.497 89.5346 150.333 87.8957 151.561L87.4316 151.912C84.5259 149.017 81.1603 150.312 79.7429 151.076L79.814 146.582C85.1112 145.375 93.3811 145.408 95.2834 145.433C95.2997 146.861 95.2145 148.287 95.0284 149.702C94.3084 149.582 93.58 149.519 92.8501 149.514V149.497ZM138.376 123.029C137.624 124.218 136.958 125.459 136.382 126.742C134.124 125.815 127.221 122.766 121.912 121.571C116.602 120.377 120.068 117.039 122.974 117.724C127.489 118.785 138.376 123.029 138.376 123.029Z" fill="#1A1A1A"/>
<path d="M136.382 127.16C136.464 127.161 136.544 127.138 136.612 127.093C136.68 127.048 136.734 126.985 136.766 126.91C137.333 125.647 137.988 124.425 138.727 123.255C138.778 123.177 138.801 123.084 138.792 122.991C138.783 122.898 138.743 122.811 138.679 122.743C138.636 122.699 138.584 122.664 138.527 122.641C138.083 122.466 127.56 118.372 123.057 117.316C122.388 117.165 121.692 117.182 121.031 117.366C120.37 117.55 119.765 117.894 119.269 118.368C119.042 118.58 118.876 118.85 118.79 119.148C118.703 119.447 118.7 119.763 118.78 120.064C118.968 120.67 119.646 121.492 121.807 121.977C126.406 123.017 132.326 125.498 135.165 126.692L136.21 127.131C136.265 127.152 136.323 127.162 136.382 127.16ZM137.753 123.23C137.171 124.188 136.64 125.176 136.164 126.191L135.5 125.916C132.64 124.713 126.69 122.207 122.004 121.154C120.068 120.736 119.675 120.068 119.595 119.809C119.563 119.649 119.573 119.483 119.625 119.329C119.677 119.174 119.769 119.036 119.892 118.928C120.287 118.561 120.765 118.297 121.285 118.156C121.805 118.016 122.352 118.004 122.877 118.122C126.782 119.053 135.621 122.415 137.753 123.23ZM74.5335 122.365C75.2837 123.556 75.9487 124.798 76.5236 126.083C78.7813 125.151 85.684 122.102 90.998 120.908C96.3119 119.713 92.4153 116.906 89.5096 117.591C84.9984 118.635 74.5335 122.365 74.5335 122.365Z" fill="#1A1A1A"/>
<path d="M76.5237 126.5C76.5783 126.499 76.6323 126.488 76.6826 126.467L77.732 126.028C80.5666 124.833 86.4743 122.352 91.09 121.312C92.7624 120.932 93.7574 120.352 94.0166 119.583C94.0808 119.342 94.0781 119.088 94.0089 118.848C93.9397 118.608 93.8065 118.392 93.6236 118.221C92.8627 117.386 91.0858 116.797 89.4427 117.186C84.9608 118.238 74.5252 121.935 74.4207 121.972C74.3615 121.994 74.3079 122.028 74.2638 122.073C74.2197 122.118 74.1861 122.172 74.1656 122.231C74.1453 122.29 74.1385 122.353 74.1457 122.416C74.1529 122.478 74.174 122.537 74.2075 122.59C74.947 123.761 75.6022 124.982 76.1683 126.245C76.1985 126.316 76.2476 126.377 76.3103 126.422C76.3729 126.467 76.4468 126.494 76.5237 126.5ZM90.4629 117.904C91.3869 117.875 92.2886 118.191 92.9923 118.79C93.0722 118.854 93.1332 118.939 93.1693 119.035C93.2053 119.131 93.2149 119.236 93.1972 119.337C93.1428 119.5 92.8292 120.068 90.906 120.498C86.2192 121.555 80.2656 124.056 77.4059 125.259L76.7411 125.539C76.2711 124.526 75.7435 123.54 75.1607 122.586C77.2804 121.843 85.7217 118.911 89.6058 117.992C89.8874 117.931 90.1748 117.902 90.4629 117.904Z" fill="#1A1A1A"/>
<path d="M69.0649 124.989C70.3903 127.169 69.9011 132.089 65.8038 134.516C63.7134 135.769 59.5993 136.546 55.6191 132.649" fill="#FF8707"/>
<path d="M62.0075 135.965C63.4176 135.966 64.8023 135.59 66.017 134.874C66.9758 134.314 67.8125 133.567 68.4781 132.678C69.1437 131.789 69.6247 130.777 69.8927 129.699C70.3484 127.887 70.1687 125.999 69.4203 124.771C69.3629 124.676 69.2705 124.608 69.1632 124.582C69.0559 124.555 68.9424 124.572 68.8475 124.629C68.753 124.686 68.6851 124.778 68.6584 124.886C68.6318 124.993 68.6487 125.106 68.7053 125.201C69.3408 126.245 69.483 127.891 69.0816 129.495C68.8393 130.465 68.4057 131.376 67.8063 132.177C67.2068 132.977 66.4535 133.65 65.5906 134.156C64.7544 134.641 60.4773 136.821 55.9117 132.347C55.8325 132.27 55.7256 132.227 55.6146 132.228C55.5037 132.229 55.3978 132.275 55.3201 132.354C55.2425 132.433 55.1996 132.54 55.2008 132.651C55.2019 132.761 55.2471 132.867 55.3264 132.945C57.5716 135.142 59.9212 135.965 62.0075 135.965Z" fill="#1A1A1A"/>
<path d="M155.196 131.959C155.196 131.959 151.475 135.409 144.217 131.078C145.103 129.219 144.748 126.654 144.217 125.681" fill="#FF8707"/>
<path d="M151.04 133.693C153.892 133.693 155.38 132.36 155.48 132.269C155.52 132.23 155.551 132.183 155.572 132.133C155.593 132.082 155.604 132.027 155.604 131.972C155.604 131.917 155.593 131.862 155.572 131.811C155.551 131.76 155.52 131.714 155.48 131.675C155.405 131.595 155.3 131.548 155.19 131.544C155.079 131.54 154.972 131.58 154.891 131.655C154.749 131.784 151.387 134.729 144.727 130.903C145.475 128.969 145.145 126.521 144.564 125.473C144.537 125.424 144.5 125.382 144.456 125.348C144.412 125.314 144.362 125.289 144.309 125.274C144.228 125.251 144.142 125.254 144.063 125.28C143.983 125.306 143.913 125.356 143.862 125.422C143.811 125.488 143.78 125.568 143.774 125.651C143.768 125.734 143.787 125.818 143.828 125.891C144.479 127.498 144.479 129.295 143.828 130.903C143.783 130.997 143.775 131.104 143.805 131.204C143.835 131.303 143.902 131.388 143.991 131.442C146.889 133.158 149.238 133.693 151.04 133.693Z" fill="#1A1A1A"/>
<path d="M118.901 140.605L131.712 141.867V139.081L118.901 137.82V140.605Z" fill="#FF8707"/>
<path d="M131.712 142.284C131.767 142.285 131.821 142.274 131.872 142.254C131.923 142.233 131.97 142.202 132.009 142.163C132.048 142.124 132.078 142.078 132.099 142.027C132.12 141.976 132.13 141.921 132.13 141.866V139.101C132.13 138.998 132.092 138.897 132.022 138.82C131.953 138.743 131.857 138.694 131.754 138.684L118.943 137.431C118.856 137.422 118.768 137.441 118.692 137.485C118.616 137.529 118.556 137.595 118.52 137.675C118.496 137.729 118.483 137.786 118.483 137.844V140.63C118.483 140.734 118.521 140.835 118.59 140.912C118.66 140.989 118.756 141.038 118.86 141.048L131.674 142.301L131.712 142.284ZM131.294 139.461V141.403L119.32 140.229V138.266L131.294 139.461Z" fill="#1A1A1A"/>
<path d="M84.4089 133.53C83.893 133.66 83.3896 133.835 82.9038 134.052C82.9038 134.052 82.9038 133.409 83.0209 131.546C85.7432 130.395 88.7776 130.207 91.621 131.016C91.621 131.016 91.6586 132.344 91.7339 133.4C91.3158 133.317 90.9353 133.25 90.5507 133.2C90.9933 134.428 91.3564 135.684 91.6377 136.959C92.0767 139.081 87.2979 141.424 87.2979 141.424C86.0437 141.157 82.7825 138.993 83.1379 137.577C83.4139 136.483 84.1079 134.415 84.4089 133.53Z" fill="#FF8707"/>
<path d="M87.2979 141.841C87.3616 141.842 87.4245 141.828 87.4818 141.8C88.0003 141.545 92.5407 139.243 92.0432 136.871C91.8125 135.807 91.5222 134.757 91.1736 133.726L91.6502 133.818C91.7116 133.83 91.7751 133.829 91.8359 133.814C91.8967 133.799 91.9533 133.77 92.0014 133.73C92.0495 133.689 92.0881 133.639 92.1141 133.582C92.1401 133.525 92.1531 133.463 92.1519 133.4C92.0766 132.364 92.039 131.048 92.039 131.032C92.036 130.948 92.0076 130.866 91.9576 130.799C91.9077 130.731 91.8384 130.68 91.7589 130.652C88.817 129.801 85.6712 129.991 82.8535 131.191C82.7825 131.221 82.7213 131.271 82.677 131.334C82.6327 131.398 82.607 131.472 82.6027 131.55C82.4898 133.396 82.4856 134.056 82.4856 134.056C82.4861 134.127 82.5048 134.197 82.5399 134.259C82.575 134.321 82.6254 134.374 82.6863 134.411C82.748 134.451 82.8191 134.474 82.8925 134.478C82.966 134.481 83.0391 134.465 83.1044 134.432C83.3199 134.334 83.5404 134.247 83.765 134.173C83.4263 135.179 82.9581 136.62 82.7448 137.481C82.6999 137.719 82.7041 137.965 82.7573 138.202C82.8105 138.439 82.9115 138.662 83.0542 138.859C83.9113 140.233 86.1732 141.612 87.2351 141.837L87.2979 141.841ZM90.5506 132.79C90.4503 132.791 90.3536 132.828 90.2779 132.894C90.2023 132.96 90.1527 133.051 90.138 133.15C90.1287 133.216 90.1355 133.283 90.1576 133.346C90.5916 134.554 90.949 135.789 91.2279 137.042C91.5206 138.462 88.5145 140.334 87.2519 140.981C86.3153 140.701 84.4172 139.481 83.7524 138.412C83.5936 138.202 83.5191 137.94 83.5434 137.677C83.8152 136.591 84.5175 134.511 84.7977 133.667C84.8212 133.596 84.8251 133.519 84.8089 133.446C84.7927 133.372 84.7571 133.305 84.7057 133.25C84.6532 133.194 84.5866 133.154 84.5129 133.133C84.4392 133.113 84.3614 133.112 84.2876 133.133C83.903 133.237 83.5768 133.342 83.3302 133.429C83.3302 133.078 83.3678 132.56 83.4096 131.846C85.8918 130.873 88.6162 130.698 91.2028 131.345C91.2028 131.696 91.2363 132.302 91.2697 132.903C91.0523 132.865 90.8266 132.828 90.5966 132.799L90.5506 132.79Z" fill="#1A1A1A"/>
<path d="M106.906 122.236C107.968 138.814 109.607 159.995 110.402 172.287C113.458 170.762 113.328 170.529 113.328 170.52C112.638 162.91 108.19 122.395 108.19 122.395L109.695 119.471L107.107 117.303C106.75 118.923 106.682 120.593 106.906 122.236Z" fill="#FF8707"/>
<path d="M118.103 184.817C118.103 184.817 117.396 202.664 118.814 204.92C120.231 207.175 126.757 207.977 126.954 202.505C127.15 197.034 127.84 187.394 127.84 184.015C127.84 180.636 118.458 179.023 118.103 184.817Z" fill="#1A1A1A"/>
<path d="M122.748 207.059C123.239 207.061 123.728 206.999 124.203 206.875C125.344 206.566 127.276 205.588 127.372 202.518C127.456 200.033 127.644 196.671 127.828 193.446C128.049 189.549 128.246 185.865 128.246 184.015C128.246 181.977 125.532 180.632 123.02 180.557C120.674 180.469 117.873 181.551 117.672 184.792C117.601 186.634 117.003 202.836 118.446 205.133C119.19 206.311 120.988 207.059 122.748 207.059ZM122.819 181.388H123.007C125.139 181.451 127.422 182.52 127.422 184.011C127.422 185.84 127.213 189.508 127.004 193.396C126.82 196.637 126.632 199.991 126.553 202.489C126.473 204.895 125.119 205.76 123.994 206.065C122.096 206.574 119.842 205.751 119.177 204.695C118.191 203.12 118.253 191.959 118.534 184.834C118.718 181.705 121.648 181.388 122.819 181.388Z" fill="#1A1A1A"/>
<path d="M127.447 182.988C127.447 182.988 126.465 200.823 127.865 203.095C129.266 205.367 135.809 206.261 136.039 200.789C136.269 195.318 137.164 185.694 137.21 182.311C137.256 178.928 127.882 177.199 127.447 182.988Z" fill="#1A1A1A"/>
<path d="M131.846 205.288C132.306 205.289 132.766 205.233 133.213 205.121C134.358 204.828 136.302 203.868 136.445 200.81C136.562 198.304 136.808 194.9 137.047 191.621C137.327 187.778 137.59 184.153 137.615 182.319C137.64 180.281 134.948 178.899 132.435 178.79C130.09 178.69 127.272 179.717 127.033 182.967C126.933 184.805 126.088 200.998 127.497 203.316C128.204 204.507 130.056 205.288 131.846 205.288ZM132.121 179.617H132.385C134.517 179.709 136.783 180.812 136.766 182.298C136.741 184.107 136.478 187.728 136.198 191.55C135.96 194.837 135.713 198.233 135.596 200.764C135.487 203.17 134.12 204.018 132.995 204.306C131.085 204.795 128.844 203.934 128.196 202.869C127.23 201.282 127.46 190.122 127.853 183.004C128.095 179.955 130.896 179.617 132.121 179.617ZM97.2108 187.324C97.2108 187.324 96.8805 199.173 96.8805 201.825C96.8805 204.478 94.7566 205.894 91.5707 205.008C88.3849 204.123 80.4161 201.115 77.9368 198.818C75.4575 196.521 75.5536 182.905 76.4985 180.779C78.6224 176 97.746 182.194 97.2108 187.324Z" fill="#1A1A1A"/>
<path d="M93.3561 205.688C94.27 205.717 95.168 205.444 95.9106 204.911C96.3675 204.541 96.7311 204.069 96.9722 203.533C97.2132 202.997 97.3251 202.412 97.2987 201.825C97.2987 199.252 97.6164 187.832 97.629 187.348C97.9342 184.211 92.2481 181.037 86.4785 179.495C82.2139 178.359 77.2512 178.054 76.1182 180.606C75.1566 182.766 75.0019 196.662 77.6526 199.122C80.3033 201.582 88.6024 204.619 91.4496 205.408C92.0692 205.589 92.7107 205.683 93.3561 205.688ZM80.8133 179.483C82.66 179.529 84.4934 179.809 86.2694 180.318C91.5374 181.722 97.0646 184.787 96.8053 187.289C96.8074 187.3 96.8074 187.312 96.8053 187.323C96.8053 187.44 96.4751 199.21 96.4751 201.837C96.5013 202.296 96.4192 202.754 96.2354 203.175C96.0517 203.595 95.7714 203.967 95.4173 204.26C94.5518 204.915 93.2307 205.045 91.6921 204.619C88.3474 203.692 80.5834 200.701 78.2337 198.525C76.0053 196.457 75.93 183.125 76.8916 180.957C77.3097 179.98 78.7438 179.483 80.805 179.483H80.8133Z" fill="#1A1A1A"/>
<path d="M104.214 190.059C115.971 190.059 128.338 188.175 131.415 183.898C131.453 183.844 131.478 183.783 131.49 183.718C132.895 174.947 133.225 164.476 132.469 152.555C135.169 153.674 137.758 155.043 140.203 156.644C140.256 156.68 140.316 156.704 140.379 156.713C140.442 156.723 140.506 156.718 140.567 156.698C146.876 154.71 159.143 144.452 161.233 136.533C161.253 136.459 161.253 136.38 161.231 136.307C161.21 136.233 161.169 136.167 161.112 136.115C149.46 125.218 129.563 118.572 121.753 117.048C112.914 114.675 97.5788 114.667 89.518 117.048H89.4636C71.9288 120.205 50.9992 135.008 50.7734 135.163C50.6975 135.218 50.6422 135.297 50.6165 135.387C50.5907 135.477 50.5959 135.573 50.6313 135.66C53.7544 143.387 60.7449 150.199 70.8418 155.362C70.9271 155.405 71.0246 155.418 71.1181 155.398C71.2116 155.378 71.2956 155.327 71.3561 155.253C72.2341 154.163 74.9726 152.354 78.9277 150.241C77.8699 166.368 79.12 180.615 80.4579 184.783C81.2147 187.143 86.3112 188.421 90.4461 189.073C95.0039 189.748 99.6063 190.078 104.214 190.059ZM130.679 183.488C126.398 189.161 103.461 190.305 90.5674 188.271C85.1322 187.41 81.7206 186.053 81.2397 184.549C79.906 180.372 78.6601 165.9 79.7973 149.573C79.8058 149.497 79.7937 149.421 79.7622 149.352C79.7306 149.283 79.681 149.223 79.6184 149.18C79.5555 149.137 79.4821 149.112 79.4061 149.108C79.3301 149.103 79.2544 149.12 79.1869 149.155C76.7285 150.441 72.4975 152.78 70.9212 154.46C61.3051 149.477 54.6157 142.982 51.5176 135.643C54.0262 133.91 73.2584 120.845 89.5054 117.879C89.5526 117.885 89.6004 117.885 89.6476 117.879C97.562 115.523 112.768 115.527 121.552 117.879C129.274 119.378 148.803 125.898 160.347 136.57C158.227 143.909 146.629 153.791 140.504 155.859C137.864 154.148 135.064 152.697 132.142 151.527C132.074 151.498 132 151.487 131.927 151.496C131.853 151.505 131.783 151.533 131.724 151.578C131.668 151.619 131.622 151.674 131.592 151.737C131.562 151.801 131.549 151.871 131.553 151.941C132.385 164.02 132.088 174.634 130.679 183.476V183.488Z" fill="#1A1A1A"/>
<path d="M104.515 176.772C104.591 176.772 104.666 176.752 104.732 176.714L113.759 171.284C113.83 171.242 113.887 171.18 113.922 171.105C113.958 171.031 113.971 170.948 113.96 170.866L108.524 122.182L111.514 116.727C111.55 116.663 111.57 116.591 111.57 116.518C111.57 116.444 111.55 116.372 111.514 116.309C111.479 116.247 111.429 116.194 111.368 116.157C111.307 116.12 111.238 116.099 111.167 116.096L100.811 115.699C100.734 115.696 100.658 115.714 100.591 115.751C100.524 115.788 100.468 115.842 100.43 115.909C100.392 115.975 100.374 116.051 100.376 116.127C100.378 116.204 100.401 116.278 100.443 116.342L104.072 121.906L95.4715 169.383C95.4546 169.46 95.4597 169.54 95.4864 169.614C95.513 169.688 95.5601 169.753 95.6221 169.801L104.256 176.693C104.331 176.747 104.422 176.775 104.515 176.772ZM113.098 170.699L104.548 175.857L96.3412 169.296L104.929 121.91C104.947 121.805 104.924 121.698 104.866 121.609L101.588 116.597L110.464 116.94L107.717 121.902C107.676 121.977 107.658 122.063 107.667 122.148L113.098 170.699Z" fill="#1A1A1A"/>
<path d="M106.045 115.875L112.617 122.767L116.64 116.56L114.077 112.287L106.045 115.875Z" fill="white"/>
<path d="M112.618 123.184H112.655C112.718 123.178 112.779 123.158 112.834 123.126C112.888 123.093 112.934 123.049 112.969 122.996L116.991 116.789C117.032 116.722 117.054 116.646 117.054 116.567C117.054 116.489 117.032 116.413 116.991 116.346L114.428 112.073C114.375 111.985 114.292 111.92 114.194 111.889C114.096 111.858 113.991 111.864 113.897 111.906L105.865 115.498C105.774 115.54 105.701 115.613 105.659 115.705C105.617 115.796 105.609 115.899 105.637 115.996C105.656 116.06 105.69 116.118 105.736 116.166L112.317 123.054C112.355 123.095 112.402 123.127 112.454 123.15C112.506 123.172 112.561 123.183 112.618 123.184ZM116.146 116.547L112.551 122.089L106.756 116.012L113.909 112.812L116.146 116.547Z" fill="#1A1A1A"/>
<path d="M105.874 115.874L99.4685 123.163L95.2792 116.559L97.746 112.019L105.874 115.874Z" fill="white"/>
<path d="M99.4686 123.58C99.5284 123.579 99.5874 123.566 99.642 123.542C99.6966 123.517 99.7457 123.482 99.7863 123.438L106.187 116.15C106.252 116.077 106.289 115.984 106.292 115.886C106.295 115.789 106.263 115.694 106.202 115.618C106.163 115.567 106.112 115.526 106.054 115.498L97.9216 111.643C97.8257 111.598 97.7162 111.591 97.6153 111.624C97.5144 111.656 97.4296 111.726 97.3781 111.818L94.9114 116.359C94.8747 116.422 94.8554 116.494 94.8554 116.567C94.8554 116.641 94.8747 116.713 94.9114 116.776L99.0923 123.38C99.1274 123.435 99.1748 123.48 99.2306 123.514C99.2865 123.547 99.3493 123.567 99.4142 123.572L99.4686 123.58ZM105.209 116.016L99.5355 122.465L95.7726 116.542L97.93 112.566L105.209 116.016Z" fill="#1A1A1A"/>
<path d="M95.5928 90.9431C95.8562 89.1262 97.8171 89.594 98.3439 90.4252L98.5404 90.7551C98.7578 87.6893 99.2302 84.3855 99.2302 84.3855L112.902 84.1474C112.902 84.1474 113.395 87.3719 113.633 90.375C114.19 89.5689 116.096 89.1429 116.355 90.9305C116.485 92.3841 115.636 94.9319 113.934 94.1008C113.868 94.0673 113.813 94.0297 113.755 93.9963C113.667 99.4805 112.179 104.559 106.099 104.927C99.7486 105.311 98.3857 99.681 98.3982 93.8543C98.2674 93.9504 98.1273 94.0327 97.9801 94.1008C96.2994 94.9445 95.4465 92.3966 95.5928 90.9431Z" fill="#FF8707"/>
<path d="M105.502 105.374H106.125C111.271 105.061 113.905 101.552 114.156 94.6563C114.381 94.716 114.616 94.726 114.845 94.6856C115.074 94.6452 115.291 94.5554 115.482 94.4224C116.414 93.7792 116.878 92.1043 116.769 90.9222C116.661 89.7402 115.895 89.4353 115.486 89.3392C114.973 89.2336 114.439 89.3151 113.981 89.569C113.73 86.8373 113.32 84.1391 113.316 84.114C113.301 84.0144 113.25 83.9235 113.173 83.8582C113.097 83.7929 112.999 83.7577 112.898 83.759L99.2219 83.9971C99.1205 83.9961 99.0221 84.032 98.9452 84.0981C98.8683 84.1642 98.818 84.2559 98.8038 84.3563C98.8038 84.3855 98.4234 87.0002 98.1809 89.7193C97.9358 89.5446 97.6585 89.4203 97.3649 89.3536C97.0714 89.2869 96.7675 89.2792 96.4709 89.3309C96.119 89.4214 95.8045 89.6201 95.572 89.8989C95.3394 90.1777 95.2004 90.5226 95.1748 90.8847C95.0661 92.0667 95.5302 93.7416 96.4625 94.3848C96.6833 94.54 96.9398 94.6368 97.2081 94.666C97.4765 94.6952 97.7479 94.656 97.9969 94.5519C98.0763 98.9584 99.0087 101.945 100.836 103.666C102.015 104.81 103.583 105.374 105.502 105.374ZM113.755 93.5745C113.683 93.5758 113.613 93.5942 113.55 93.6288C113.486 93.6646 113.432 93.7167 113.395 93.7798C113.357 93.8428 113.337 93.9147 113.337 93.988C113.228 100.867 110.92 104.213 106.074 104.505C104.109 104.626 102.542 104.142 101.396 103.064C99.6484 101.419 98.8038 98.4029 98.8164 93.8502C98.8163 93.773 98.7948 93.6974 98.7542 93.6317C98.7136 93.5661 98.6555 93.513 98.5864 93.4785C98.5196 93.4474 98.4457 93.4345 98.3723 93.4411C98.2989 93.4477 98.2285 93.4736 98.1683 93.5161C98.0642 93.5954 97.9522 93.6643 97.8339 93.7207C97.7022 93.8071 97.5482 93.8532 97.3907 93.8532C97.2332 93.8532 97.0791 93.8071 96.9475 93.7207C96.3162 93.303 95.9357 91.9289 96.0152 90.9974C96.0862 90.5046 96.312 90.2122 96.6799 90.137C96.9215 90.101 97.1683 90.1295 97.3952 90.2198C97.6222 90.31 97.8211 90.4587 97.9718 90.6508C98.0304 90.7426 98.0931 90.8512 98.16 90.9682C98.2038 91.0468 98.2719 91.109 98.3542 91.1457C98.4364 91.1824 98.5283 91.1915 98.6161 91.1716C98.704 91.1519 98.7832 91.1044 98.8419 91.0362C98.9006 90.9679 98.9356 90.8825 98.9418 90.7928C99.1258 88.3535 99.4686 85.743 99.594 84.8116L112.555 84.5902C112.689 85.5133 113.04 88.0528 113.228 90.4377C113.234 90.524 113.267 90.6062 113.322 90.673C113.378 90.7397 113.452 90.7876 113.536 90.8101C113.619 90.8326 113.708 90.8285 113.789 90.7985C113.87 90.7684 113.94 90.7139 113.989 90.6424C114.146 90.452 114.35 90.3065 114.581 90.2207C114.813 90.1348 115.063 90.1117 115.306 90.1537C115.665 90.2373 115.883 90.5296 115.954 91.0225C116.033 91.9289 115.653 93.2947 115.017 93.7332C114.885 93.8162 114.731 93.8602 114.574 93.8602C114.418 93.8602 114.264 93.8162 114.131 93.7332L114.039 93.6789L113.981 93.6455C113.914 93.6008 113.835 93.5758 113.755 93.5745Z" fill="#1A1A1A"/>
<path d="M116.28 83.5501C116.146 84.1558 115.736 85.8349 115.736 85.8349L96.9223 85.956L96.4541 83.6128C94.8946 77.2306 117.681 77.2849 116.28 83.5501Z" fill="#FF8707"/>
<path d="M96.9433 86.3653L115.757 86.2442C115.853 86.247 115.947 86.2171 116.023 86.1593C116.099 86.1016 116.153 86.0195 116.176 85.9267C116.176 85.9267 116.594 84.256 116.723 83.6337C116.92 82.7524 116.803 81.4701 115.134 80.3549C111.28 77.7778 101.258 77.807 97.5746 80.4008C96.3203 81.2905 95.8019 82.4308 96.1155 83.7047L96.5795 86.0312C96.5968 86.1183 96.6413 86.1976 96.7067 86.2577C96.7721 86.3178 96.855 86.3555 96.9433 86.3653ZM115.406 85.413L97.2861 85.53L96.868 83.5209C96.6339 82.5686 97.0018 81.7792 97.9927 81.0816C101.446 78.6842 111.062 78.6633 114.637 81.0441C115.661 81.729 116.075 82.5352 115.891 83.4457C115.774 83.8926 115.532 84.8993 115.406 85.413Z" fill="#1A1A1A"/>
<path d="M115.532 85.8265C115.532 85.8265 112.785 88.98 105.978 88.98C99.1717 88.98 97.1439 85.9059 97.1439 85.9059C103.142 84.1411 109.518 84.1136 115.532 85.8265Z" fill="#FF8707"/>
<path d="M109.862 92.618C108.689 92.618 107.738 92.136 107.738 91.5404C107.738 90.9448 108.689 90.4628 109.862 90.4628C111.035 90.4628 111.986 90.9456 111.986 91.5404C111.986 92.1352 111.035 92.618 109.862 92.618Z" fill="white"/>
<path d="M109.862 93.0357C111.309 93.0357 112.404 92.3925 112.404 91.5404C112.404 90.6883 111.309 90.0451 109.862 90.0451C108.416 90.0451 107.299 90.6883 107.299 91.5404C107.299 92.3925 108.412 93.0357 109.862 93.0357ZM109.862 90.8805C110.92 90.8805 111.568 91.2982 111.568 91.5404C111.568 91.7827 110.92 92.2003 109.862 92.2003C108.805 92.2003 108.152 91.7827 108.152 91.5404C108.152 91.2982 108.8 90.8805 109.862 90.8805Z" fill="#1A1A1A"/>
<path d="M101.827 92.618C100.654 92.618 99.7026 92.136 99.7026 91.5404C99.7026 90.9448 100.654 90.4628 101.827 90.4628C103 90.4628 103.95 90.9456 103.95 91.5404C103.95 92.1352 103 92.618 101.827 92.618Z" fill="white"/>
<path d="M101.827 93.0357C103.277 93.0357 104.369 92.3925 104.369 91.5404C104.369 90.6883 103.277 90.0451 101.827 90.0451C100.376 90.0451 99.2845 90.6883 99.2845 91.5404C99.2845 92.3925 100.376 93.0357 101.827 93.0357ZM101.827 90.8805C102.884 90.8805 103.532 91.2982 103.532 91.5404C103.532 91.7827 102.884 92.2003 101.827 92.2003C100.769 92.2003 100.121 91.7827 100.121 91.5404C100.121 91.2982 100.769 90.8805 101.827 90.8805ZM109.862 91.8871C109.643 91.8871 109.432 91.7999 109.277 91.6449C109.122 91.4898 109.034 91.2794 109.034 91.0601C109.034 90.8407 109.122 90.6304 109.277 90.4753C109.432 90.3202 109.643 90.2331 109.862 90.2331C110.082 90.2331 110.292 90.3202 110.448 90.4753C110.603 90.6304 110.69 90.8407 110.69 91.0601C110.69 91.2794 110.603 91.4898 110.448 91.6449C110.292 91.7999 110.082 91.8871 109.862 91.8871Z" fill="#1A1A1A"/>
<path d="M101.86 91.8871C101.64 91.8871 101.43 91.7999 101.275 91.6448C101.119 91.4897 101.032 91.2794 101.032 91.06C101.032 90.8407 101.119 90.6304 101.275 90.4753C101.43 90.3202 101.64 90.233 101.86 90.233C102.08 90.233 102.29 90.3202 102.445 90.4753C102.601 90.6304 102.688 90.8407 102.688 91.06C102.688 91.2794 102.601 91.4897 102.445 91.6448C102.29 91.7999 102.08 91.8871 101.86 91.8871Z" fill="#1A1A1A"/>
<path d="M108.177 99.4889C107.422 99.8996 106.571 100.104 105.711 100.082C104.85 100.06 104.011 99.8124 103.277 99.3636" fill="#FF8707"/>
<path d="M105.794 100.516C106.704 100.516 107.598 100.286 108.395 99.8481C108.479 99.7872 108.537 99.6976 108.558 99.5964C108.579 99.4952 108.562 99.3897 108.51 99.3003C108.458 99.2109 108.375 99.144 108.276 99.1125C108.178 99.0809 108.071 99.0871 107.977 99.1296C107.286 99.5076 106.508 99.6951 105.721 99.6731C104.934 99.6511 104.167 99.4203 103.499 99.0043C103.405 98.9456 103.291 98.9267 103.183 98.9518C103.075 98.9769 102.981 99.0438 102.922 99.138C102.863 99.2322 102.844 99.3458 102.869 99.4539C102.895 99.562 102.962 99.6557 103.056 99.7144C103.874 100.236 104.824 100.514 105.794 100.516Z" fill="#1A1A1A"/>
<path d="M105.38 93.2487C105.326 94.1697 105.127 95.0761 104.791 95.9344C104.293 96.9619 105.92 97.0956 105.92 97.0956" fill="#FF8707"/>
<path d="M105.911 97.5132C106.021 97.5154 106.127 97.4746 106.207 97.3996C106.286 97.3245 106.333 97.2213 106.338 97.1119C106.342 97.0026 106.304 96.8959 106.23 96.8147C106.157 96.7336 106.054 96.6844 105.945 96.6779C105.66 96.657 105.217 96.5317 105.109 96.3604C105.079 96.3103 105.109 96.2268 105.146 96.1182C105.509 95.2102 105.724 94.2498 105.782 93.2738C105.788 93.1637 105.751 93.0555 105.678 92.9726C105.606 92.8897 105.503 92.8388 105.393 92.831C105.31 92.8261 105.228 92.8458 105.156 92.8876C105.085 92.9294 105.027 92.9914 104.991 93.0658C104.967 93.1153 104.953 93.1691 104.95 93.2241C104.897 94.0915 104.71 94.9455 104.394 95.7552C104.307 95.9111 104.262 96.0865 104.262 96.2648C104.262 96.4431 104.307 96.6184 104.394 96.7743C104.745 97.3925 105.69 97.4969 105.878 97.5136L105.911 97.5132ZM114.344 80.689C114.423 80.6893 114.499 80.6676 114.566 80.6264C117.856 78.5588 118.028 74.7788 118.036 74.6284C118.036 74.5457 118.012 74.4647 117.966 74.3959C117.92 74.327 117.855 74.2734 117.778 74.2417C117.702 74.2101 117.617 74.202 117.536 74.2183C117.455 74.2347 117.381 74.2748 117.322 74.3336C117.244 74.4119 117.2 74.5181 117.2 74.6289C117.2 74.6665 117.028 78.1249 114.118 79.9501C114.025 80.0095 113.959 80.1033 113.934 80.2112C113.91 80.3194 113.93 80.4328 113.989 80.5265C114.03 80.5805 114.084 80.6236 114.146 80.652C114.208 80.6804 114.276 80.6928 114.344 80.689ZM116.234 82.3931C117.733 82.3661 119.215 82.0734 120.611 81.5285C120.709 81.4826 120.785 81.4006 120.824 81.2997C120.863 81.1989 120.861 81.087 120.818 80.9876C120.776 80.8882 120.697 80.8089 120.598 80.7665C120.498 80.7241 120.386 80.7218 120.285 80.76C118.991 81.2577 117.62 81.5276 116.234 81.5578C116.126 81.5626 116.025 81.6087 115.95 81.6865C115.876 81.7643 115.834 81.8678 115.834 81.9755C115.834 82.0831 115.876 82.1866 115.95 82.2644C116.025 82.3422 116.126 82.3883 116.234 82.3931ZM98.5195 80.689C98.5859 80.6887 98.6512 80.6726 98.7102 80.6421C98.7692 80.6116 98.82 80.5675 98.8586 80.5135C98.8971 80.4595 98.9222 80.3971 98.9319 80.3314C98.9416 80.2658 98.9355 80.1988 98.9142 80.136C98.8853 80.052 98.8305 79.9794 98.7578 79.9284C96.1991 78.1741 96.0486 74.841 96.0486 74.8076C96.0466 74.7528 96.0339 74.6988 96.0111 74.6489C95.9883 74.599 95.9559 74.554 95.9157 74.5166C95.8756 74.4791 95.8284 74.45 95.7769 74.4308C95.7255 74.4116 95.6707 74.4027 95.6158 74.4046C95.5609 74.4065 95.5069 74.4192 95.4569 74.442C95.407 74.4647 95.3619 74.4971 95.3245 74.5372C95.287 74.5774 95.2578 74.6245 95.2386 74.6759C95.2194 74.7273 95.2104 74.782 95.2124 74.8369C95.2124 74.9872 95.3712 78.6211 98.2853 80.6176C98.3545 80.6641 98.4361 80.6893 98.5195 80.689ZM96.6464 82.3931C96.7573 82.3931 96.8637 82.3491 96.9421 82.2708C97.0205 82.1925 97.0645 82.0862 97.0645 81.9755C97.0645 81.8647 97.0205 81.7585 96.9421 81.6801C96.8637 81.6018 96.7573 81.5578 96.6464 81.5578C95.2586 81.528 93.8865 81.2581 92.5909 80.76C92.54 80.7361 92.4848 80.7227 92.4286 80.7206C92.3723 80.7185 92.3163 80.7277 92.2637 80.7478C92.2111 80.7679 92.1632 80.7983 92.1227 80.8374C92.0822 80.8764 92.05 80.9232 92.028 80.9749C92.0061 81.0267 91.9948 81.0824 91.9949 81.1386C91.995 81.1948 92.0064 81.2504 92.0285 81.3021C92.0506 81.3538 92.0829 81.4005 92.1236 81.4394C92.1642 81.4783 92.2122 81.5086 92.2648 81.5285C93.6627 82.0733 95.1462 82.366 96.6464 82.3931ZM97.0562 86.2776C107.287 82.744 115.594 86.1565 115.678 86.1941L116.326 84.6528C115.966 84.5024 107.341 80.9605 96.5085 84.6988L97.0562 86.2776Z" fill="#1A1A1A"/>
<path d="M103.758 76.767L104.256 73.9435L106.463 72.9703H106.484L108.733 73.9435L109.231 76.7628C109.461 77.9825 108.708 78.4837 106.513 79.8537V79.8787H106.492V79.8537C104.281 78.4878 103.537 77.9866 103.758 76.767Z" fill="white"/>
<path d="M106.492 80.2964H106.555C106.65 80.2859 106.739 80.2431 106.806 80.1753C108.951 78.8304 109.925 78.1997 109.641 76.696L109.143 73.8808C109.131 73.8135 109.102 73.7501 109.06 73.6963C109.018 73.6424 108.963 73.5997 108.901 73.5718L106.756 72.6236C106.683 72.5772 106.598 72.5525 106.511 72.5525C106.425 72.5525 106.34 72.5772 106.267 72.6236L104.113 73.5759C104.051 73.6035 103.996 73.6461 103.953 73.7C103.911 73.7539 103.883 73.8175 103.871 73.885L103.373 76.7002C103.089 78.208 104.068 78.8387 106.208 80.1795C106.236 80.2055 106.267 80.228 106.3 80.2463C106.36 80.2773 106.425 80.2944 106.492 80.2964ZM108.357 74.24L108.817 76.8422C108.98 77.7026 108.583 78.066 106.492 79.3775C104.402 78.066 104.009 77.7068 104.172 76.8464L104.628 74.2442L106.492 73.4089L108.357 74.24Z" fill="#1A1A1A"/>
<path d="M94.3176 205.12C94.8138 205.119 95.2991 204.974 95.714 204.702C97.5996 203.479 97.3864 200.73 97.3864 200.4L97.562 190.961C97.562 190.85 97.518 190.744 97.4396 190.665C97.3611 190.587 97.2548 190.543 97.1439 190.543C97.033 190.543 96.9267 190.587 96.8483 190.665C96.7699 190.744 96.7258 190.85 96.7258 190.961L96.5502 200.421C96.5481 200.439 96.5481 200.457 96.5502 200.475C96.5502 200.501 96.8053 203.023 95.275 204.013C95.0134 204.192 94.7063 204.293 94.3894 204.304C94.0726 204.315 93.7591 204.236 93.4856 204.076C92.5951 203.579 92.039 202.426 92.0725 201.152V199.156C92.0725 196.992 92.039 193.726 92.1644 190.28C92.2188 188.705 92.6411 187.598 93.4187 186.997C93.7119 186.785 94.0444 186.633 94.3969 186.551C94.7493 186.468 95.1146 186.457 95.4716 186.517C95.5265 186.529 95.5832 186.53 95.6385 186.52C95.6938 186.509 95.7466 186.489 95.7938 186.458C95.841 186.428 95.8817 186.388 95.9136 186.342C95.9455 186.296 95.9679 186.244 95.9795 186.189C96.0032 186.078 95.982 185.962 95.9205 185.867C95.8589 185.772 95.7621 185.705 95.6513 185.681C95.1766 185.596 94.6895 185.608 94.2195 185.717C93.7495 185.825 93.3064 186.028 92.917 186.312C91.9345 187.076 91.4035 188.4 91.3366 190.234C91.2112 193.692 91.2321 196.975 91.2446 199.143V201.115C91.2028 202.702 91.9261 204.143 93.0884 204.79C93.4637 205.002 93.8866 205.115 94.3176 205.12Z" fill="#FF8707"/>
<path d="M88.9661 197.699C89.6754 197.736 90.3762 197.53 90.952 197.114C91.6377 196.571 91.9889 195.656 91.9889 194.395C91.9889 194.284 91.9448 194.178 91.8664 194.1C91.788 194.021 91.6817 193.977 91.5708 193.977C91.4599 193.977 91.3535 194.021 91.2751 194.1C91.1967 194.178 91.1527 194.284 91.1527 194.395C91.1527 195.385 90.9102 196.066 90.4294 196.462C89.635 197.093 88.226 196.88 86.9509 196.575C85.0235 196.128 77.1466 192.59 77.0672 192.557C76.9911 192.517 76.9046 192.502 76.8193 192.512C76.7341 192.523 76.6542 192.56 76.5905 192.618C76.5379 192.666 76.4984 192.727 76.4759 192.795C76.4534 192.862 76.4487 192.935 76.4621 193.005C76.4755 193.075 76.5066 193.14 76.5525 193.195C76.5984 193.25 76.6576 193.292 76.7243 193.317C77.0504 193.463 84.7517 196.922 86.7585 197.39C87.4806 197.574 88.221 197.678 88.9661 197.699ZM93.6403 205.27C93.9568 205.279 94.2723 205.232 94.5727 205.133C94.6761 205.093 94.7597 205.014 94.8055 204.913C94.8395 204.838 94.8502 204.754 94.8365 204.673C94.8228 204.591 94.7853 204.516 94.7286 204.456C94.6719 204.396 94.5986 204.354 94.518 204.335C94.4374 204.316 94.3531 204.322 94.2758 204.352C92.6035 204.991 85.6882 202.326 81.4529 200.384C81.3649 200.344 81.2659 200.336 81.1726 200.361C81.0793 200.386 80.9975 200.442 80.941 200.52C80.8846 200.598 80.8569 200.694 80.8629 200.79C80.8688 200.886 80.9078 200.978 80.9734 201.049C81.0108 201.089 81.0559 201.121 81.1059 201.144C82.1052 201.603 90.1994 205.27 93.6403 205.27ZM122.597 205.688C124.604 205.688 126.36 205.095 127.573 203.98C128.029 203.591 128.401 203.112 128.663 202.573C128.926 202.034 129.074 201.446 129.099 200.847C129.099 200.275 129.22 195.998 129.32 192.56C129.366 190.89 129.412 189.39 129.433 188.572C129.457 186.919 129.201 185.273 128.676 183.706C128.638 183.602 128.56 183.517 128.459 183.471C128.358 183.424 128.243 183.419 128.139 183.457C128.035 183.495 127.95 183.573 127.904 183.674C127.857 183.775 127.852 183.89 127.89 183.994C128.376 185.462 128.615 187 128.597 188.547C128.597 189.382 128.53 190.86 128.484 192.535C128.384 195.977 128.262 200.262 128.262 200.847C128.237 201.329 128.112 201.8 127.896 202.231C127.681 202.662 127.378 203.044 127.008 203.353C125.754 204.489 123.868 205.003 121.682 204.803C118.55 204.514 118.797 200.317 118.809 200.141L118.588 190.476C118.588 190.365 118.544 190.259 118.465 190.181C118.387 190.103 118.281 190.059 118.17 190.059C118.059 190.059 117.953 190.103 117.874 190.181C117.796 190.259 117.752 190.365 117.752 190.476L117.952 200.112C117.827 201.866 118.429 205.333 121.586 205.626C121.933 205.676 122.271 205.688 122.597 205.688Z" fill="#FF8707"/>
<path d="M124.684 192.565C125.061 192.56 125.437 192.525 125.808 192.461L126.038 192.428C127.648 192.256 129.383 190.932 129.454 187.712C129.454 187.601 129.41 187.495 129.332 187.417C129.253 187.338 129.147 187.294 129.036 187.294C128.925 187.294 128.819 187.338 128.74 187.417C128.662 187.495 128.618 187.601 128.618 187.712C128.547 191.078 126.561 191.55 125.95 191.613L125.683 191.651C125.064 191.747 123.914 191.922 123.124 191.262C122.539 190.778 122.221 189.892 122.183 188.635C122.045 184.02 119.495 183.113 119.386 183.076C119.321 183.053 119.251 183.048 119.183 183.059C119.115 183.07 119.051 183.098 118.996 183.14C118.942 183.182 118.898 183.237 118.87 183.3C118.842 183.363 118.83 183.432 118.835 183.501C118.84 183.583 118.87 183.662 118.921 183.728C118.972 183.793 119.04 183.843 119.119 183.869C119.215 183.903 121.209 184.675 121.347 188.66C121.393 190.168 121.811 191.258 122.602 191.905C123.197 192.363 123.934 192.596 124.684 192.565ZM134.254 190.059C134.62 190.056 134.985 190.021 135.345 189.955L135.567 189.926C135.677 189.914 135.779 189.858 135.849 189.771C135.918 189.684 135.951 189.573 135.939 189.462C135.926 189.351 135.871 189.25 135.784 189.18C135.697 189.11 135.585 189.078 135.475 189.09L135.215 189.128C134.63 189.22 133.543 189.391 132.79 188.769C132.205 188.284 131.892 187.39 131.854 186.108C131.72 181.514 129.258 180.591 129.153 180.553C129.048 180.516 128.932 180.523 128.831 180.571C128.781 180.595 128.737 180.628 128.7 180.67C128.663 180.711 128.635 180.759 128.618 180.812C128.582 180.916 128.588 181.03 128.636 181.13C128.684 181.229 128.769 181.305 128.873 181.342C128.961 181.376 130.905 182.148 131.018 186.133C131.064 187.666 131.482 188.769 132.272 189.412C132.837 189.852 133.538 190.082 134.254 190.059Z" fill="#FF8707"/>
<path d="M125.892 190.017C125.416 190.017 125.031 189.527 125.031 188.923C125.031 188.318 125.416 187.829 125.892 187.829C126.368 187.829 126.753 188.318 126.753 188.923C126.753 189.527 126.368 190.017 125.892 190.017ZM88.1382 194.971C87.6624 194.971 87.2769 194.481 87.2769 193.877C87.2769 193.272 87.6624 192.782 88.1382 192.782C88.614 192.782 88.9995 193.272 88.9995 193.877C88.9995 194.481 88.614 194.971 88.1382 194.971ZM78.2712 190.949C77.7955 190.949 77.41 190.459 77.41 189.855C77.41 189.25 77.7955 188.76 78.2712 188.76C78.747 188.76 79.1325 189.25 79.1325 189.855C79.1325 190.459 78.747 190.949 78.2712 190.949ZM135.003 187.722C134.54 187.683 134.206 187.164 134.256 186.561C134.306 185.959 134.722 185.502 135.185 185.54C135.647 185.579 135.982 186.099 135.931 186.701C135.881 187.303 135.465 187.76 135.003 187.722ZM106.237 197.535C110.316 197.562 114.385 197.12 118.362 196.216C118.469 196.186 118.561 196.116 118.617 196.02C118.672 195.924 118.687 195.809 118.659 195.702C118.645 195.649 118.62 195.599 118.586 195.555C118.553 195.511 118.511 195.475 118.463 195.447C118.416 195.42 118.363 195.402 118.308 195.395C118.253 195.387 118.198 195.391 118.145 195.405C111.286 196.942 104.193 197.121 97.2651 195.932C97.2102 195.922 97.154 195.923 97.0996 195.935C97.0452 195.947 96.9937 195.97 96.9481 196.002C96.9025 196.034 96.8636 196.075 96.8337 196.122C96.8038 196.169 96.7835 196.221 96.7739 196.276C96.7643 196.331 96.7656 196.387 96.7777 196.442C96.7898 196.496 96.8126 196.547 96.8446 196.593C96.8766 196.638 96.9173 196.677 96.9644 196.707C97.0114 196.737 97.0639 196.757 97.1188 196.767C100.13 197.292 103.181 197.549 106.237 197.535Z" fill="#FF8707"/>
<path d="M111.397 197.068C111.507 197.068 111.614 197.024 111.692 196.945C111.771 196.867 111.815 196.761 111.815 196.65L111.685 190.723C111.685 190.641 111.66 190.56 111.614 190.492C111.568 190.423 111.503 190.37 111.426 190.338C111.35 190.307 111.266 190.299 111.185 190.314C111.104 190.33 111.03 190.37 110.971 190.428C110.933 190.466 110.902 190.513 110.881 190.563C110.86 190.614 110.849 190.668 110.849 190.723L110.979 196.65C110.979 196.761 111.023 196.867 111.101 196.945C111.179 197.024 111.286 197.068 111.397 197.068ZM102.989 197.068C103.044 197.068 103.098 197.057 103.149 197.036C103.2 197.015 103.246 196.984 103.285 196.946C103.324 196.907 103.354 196.861 103.375 196.81C103.396 196.759 103.407 196.705 103.407 196.65L103.273 190.723C103.273 190.668 103.263 190.614 103.242 190.563C103.221 190.512 103.19 190.466 103.151 190.427C103.112 190.389 103.066 190.358 103.015 190.337C102.964 190.316 102.91 190.305 102.855 190.305C102.8 190.305 102.746 190.316 102.695 190.337C102.644 190.358 102.598 190.389 102.559 190.427C102.52 190.466 102.489 190.512 102.468 190.563C102.447 190.614 102.437 190.668 102.437 190.723L102.571 196.65C102.571 196.761 102.615 196.867 102.693 196.945C102.772 197.024 102.878 197.068 102.989 197.068ZM106.329 232.22C106.44 232.22 106.546 232.176 106.625 232.098C106.703 232.019 106.747 231.913 106.747 231.802V216.152C106.748 216.069 106.724 215.988 106.678 215.919C106.632 215.85 106.567 215.796 106.49 215.764C106.413 215.733 106.329 215.724 106.248 215.741C106.167 215.757 106.092 215.798 106.034 215.857C105.955 215.935 105.911 216.041 105.911 216.152V231.802C105.912 231.913 105.956 232.019 106.034 232.097C106.112 232.176 106.219 232.22 106.329 232.22Z" fill="#FF8707"/>
<path d="M155.99 144.431C155.99 144.431 154.397 155.396 143.866 159.468C143.866 157.797 143.866 156.285 142.984 155.049C144.748 154.335 151.918 149.473 155.99 144.431Z" fill="#1A1A1A"/>
<path d="M107.437 121.935L104.716 121.768C104.716 121.768 106.409 120.707 107.04 117.758C107.497 119.101 107.633 120.531 107.437 121.935Z" fill="#FF8707"/>
<path d="M79.6384 181.263C79.6384 181.263 78.7061 178.017 82.1136 172.449C85.521 166.882 84.1246 163.945 82.4229 165.349C80.7213 166.752 80.1025 164.096 81.9589 160.09C83.8152 156.085 80.1025 152.668 79.3291 157.618C78.5556 162.567 79.6384 181.263 79.6384 181.263ZM55.1425 166.727C55.1425 166.727 59.5701 170.574 63.9224 171.351C68.998 172.253 66.3891 166.188 58.6753 164.184C54.2059 163.022 51.4382 160.901 50.025 157.622C51.4842 162.454 52.2116 163.799 55.1425 166.727Z" fill="#1A1A1A"/>
<path d="M108.608 84.3855L110.824 88.2741L107.793 88.8923L105.046 84.4273L108.608 84.3855ZM103.566 84.5818L105.978 88.9842L104.628 88.8923L102.236 84.6946L103.566 84.5818Z" fill="white"/>
<path d="M105.982 89.3977C112.898 89.3977 115.732 86.2316 115.849 86.098C115.896 86.0445 115.928 85.9803 115.942 85.9112C115.957 85.8422 115.954 85.7705 115.934 85.7028C115.913 85.6353 115.876 85.5741 115.825 85.5249C115.775 85.4756 115.713 85.44 115.644 85.4213C109.556 83.684 103.099 83.7129 97.0268 85.5049C96.9639 85.523 96.9062 85.5558 96.8584 85.6004C96.8105 85.6451 96.7739 85.7004 96.7515 85.7619C96.7291 85.8233 96.7215 85.8892 96.7294 85.9541C96.7373 86.0191 96.7604 86.0812 96.7969 86.1356C96.8847 86.2734 99.0295 89.3977 105.982 89.3977ZM114.683 86.027C113.613 86.8623 110.87 88.5623 105.982 88.5623C101.095 88.5623 98.7745 86.9417 97.909 86.1272C103.395 84.6278 109.18 84.5946 114.683 86.0311V86.027ZM106.773 193.087C106.883 193.087 106.99 193.043 107.068 192.964C107.147 192.886 107.191 192.78 107.191 192.669L106.927 171.447C106.927 171.336 106.883 171.23 106.805 171.151C106.726 171.073 106.62 171.029 106.509 171.029C106.398 171.029 106.292 171.073 106.214 171.151C106.135 171.23 106.091 171.336 106.091 171.447L106.354 192.673C106.355 192.783 106.4 192.889 106.478 192.966C106.556 193.044 106.662 193.087 106.773 193.087ZM114.963 91.2772C114.963 91.2772 114.465 91.3524 114.21 92.2713L114.963 91.2772Z" fill="#1A1A1A"/>
<path d="M114.21 92.689C114.304 92.6924 114.396 92.6642 114.472 92.6089C114.548 92.5536 114.603 92.4744 114.629 92.3841C114.796 91.7743 115.047 91.6866 115.068 91.6866C115.177 91.6666 115.274 91.6042 115.337 91.5129C115.4 91.4217 115.424 91.3091 115.404 91.2C115.384 91.0909 115.322 90.9941 115.23 90.9311C115.139 90.868 115.026 90.8438 114.917 90.8637C114.838 90.8637 114.139 91.0141 113.822 92.1627C113.8 92.2425 113.802 92.327 113.828 92.4054C113.854 92.4839 113.903 92.5529 113.968 92.6038C114.012 92.6374 114.061 92.6621 114.114 92.6765L114.21 92.689ZM96.9683 91.2773C96.9683 91.2773 97.4658 91.3524 97.7209 92.2713L96.9683 91.2773Z" fill="#1A1A1A"/>
<path d="M97.7209 92.689H97.8338C97.8869 92.6746 97.9365 92.6498 97.98 92.6161C98.0234 92.5825 98.0597 92.5406 98.0869 92.4928C98.1141 92.4451 98.1316 92.3925 98.1384 92.338C98.1452 92.2835 98.1411 92.2282 98.1265 92.1753C97.8046 91.0266 97.1105 90.8888 97.0311 90.8763C96.9202 90.8572 96.8062 90.8828 96.7142 90.9475C96.6221 91.0121 96.5594 91.1106 96.5398 91.2213C96.53 91.2762 96.5311 91.3324 96.5432 91.3869C96.5552 91.4413 96.5779 91.4928 96.61 91.5385C96.642 91.5841 96.6828 91.6229 96.73 91.6527C96.7772 91.6825 96.8298 91.7027 96.8848 91.7121C96.9099 91.7121 97.1607 91.8332 97.3029 92.4096C97.3324 92.4954 97.3892 92.5693 97.4647 92.6198C97.5402 92.6704 97.6302 92.6944 97.7209 92.689Z" fill="#1A1A1A"/>
<path d="M149.727 325.805C149.727 325.805 141.165 325.191 137.047 319.958C138.238 323.93 142.026 327.38 149.727 325.805Z" fill="#FF8707"/>
<path d="M113.989 87.0795C110.958 90.4878 105.585 92.0917 98.185 89.9782L98.5195 87.3093C98.5195 87.3093 100.556 88.8589 105.627 89.122C110.699 89.3851 111.953 87.9232 113.989 87.0795Z" fill="#1A1A1A"/>
<path d="M69.9471 322.84C69.9471 322.84 66.3223 325.15 62.0828 325.346C64.5872 326.457 69.2531 325.15 69.9471 322.84Z" fill="#FF8707"/>
</g>
</g>
<g clip-path="url(#clip5_2214_313)">
<path d="M218.267 251.855C217.295 251.855 216.324 251.466 215.741 250.689L210.69 244.084C209.718 242.724 209.913 240.781 211.273 239.615C212.633 238.644 214.575 238.838 215.741 240.198L218.267 243.501L227.398 231.456C228.369 230.096 230.506 229.901 231.866 230.873C233.226 231.844 233.42 233.981 232.449 235.341L220.792 250.689C220.209 251.466 219.238 251.855 218.267 251.855Z" fill="white"/>
<path d="M241.192 229.124C241.192 227.182 240.414 225.239 238.86 223.685C237.5 222.325 235.557 221.353 233.42 221.353H209.524C207.582 221.353 205.639 222.13 204.085 223.685C202.725 225.044 201.753 226.987 201.753 229.124V253.02C201.753 254.963 202.53 256.906 204.085 258.46C205.444 259.82 207.387 260.792 209.524 260.792H233.615C235.557 260.792 237.5 260.014 239.054 258.46C240.609 256.906 241.386 255.158 241.386 253.02V229.124H241.192Z" fill="white"/>
<path d="M233.615 263.9H209.719C206.804 263.9 204.085 262.734 202.142 260.792C200.199 258.849 199.033 256.129 199.033 253.215V229.319C199.033 226.404 200.199 223.685 202.142 221.742C204.085 219.799 206.804 218.633 209.719 218.633H233.615C236.529 218.633 239.249 219.799 241.192 221.742C243.134 223.685 244.3 226.404 244.3 229.319V253.215C244.3 256.129 243.134 258.849 241.192 260.792C239.249 262.734 236.529 263.9 233.615 263.9ZM209.719 224.656C208.553 224.656 207.387 225.044 206.61 226.016C205.833 226.793 205.25 227.959 205.25 229.124V253.02C205.25 254.186 205.639 255.352 206.61 256.129C207.387 256.906 208.553 257.489 209.719 257.489H233.615C234.78 257.489 235.946 257.1 236.723 256.129C237.5 255.352 238.083 254.186 238.083 253.02V229.124C238.083 227.959 237.695 226.793 236.723 226.016C235.946 225.239 234.78 224.656 233.615 224.656H209.719Z" fill="white"/>
<path d="M218.655 252.243C217.684 252.243 216.907 251.855 216.13 251.078L209.136 242.529C207.97 241.169 208.164 239.227 209.524 238.061C210.884 236.895 212.827 237.09 213.993 238.45L218.461 244.084L228.952 231.261C230.118 229.901 232.061 229.707 233.42 230.873C234.78 232.038 234.975 233.981 233.809 235.341L220.987 251.272C220.404 251.855 219.627 252.243 218.655 252.243Z" fill="#FF8707"/>
</g>
<g clip-path="url(#clip6_2214_313)">
<path d="M272.594 108.704C272.3 108.704 272.019 108.587 271.812 108.379C271.604 108.171 271.488 107.889 271.488 107.595V93.2176H257.144C256.85 93.2176 256.569 93.1008 256.362 92.8929C256.154 92.6849 256.038 92.4029 256.038 92.1088C256.038 91.8147 256.154 91.5327 256.362 91.3248C256.569 91.1168 256.85 91 257.144 91H272.594C272.887 91 273.169 91.1168 273.376 91.3248C273.583 91.5327 273.7 91.8147 273.7 92.1088V107.595C273.7 107.889 273.583 108.171 273.376 108.379C273.169 108.587 272.887 108.704 272.594 108.704ZM170.506 108.704C170.213 108.704 169.931 108.587 169.724 108.379C169.517 108.171 169.4 107.889 169.4 107.595V92.1088C169.4 91.8147 169.517 91.5327 169.724 91.3248C169.931 91.1168 170.213 91 170.506 91H185.956C186.25 91 186.531 91.1168 186.738 91.3248C186.946 91.5327 187.062 91.8147 187.062 92.1088C187.062 92.4029 186.946 92.6849 186.738 92.8929C186.531 93.1008 186.25 93.2176 185.956 93.2176H171.612V107.595C171.612 107.889 171.496 108.171 171.288 108.379C171.081 108.587 170.8 108.704 170.506 108.704ZM272.594 203.467H257.144C256.85 203.467 256.569 203.35 256.362 203.142C256.154 202.934 256.038 202.652 256.038 202.358C256.038 202.064 256.154 201.782 256.362 201.574C256.569 201.366 256.85 201.249 257.144 201.249H271.488V186.871C271.488 186.577 271.604 186.295 271.812 186.087C272.019 185.879 272.3 185.763 272.594 185.763C272.887 185.763 273.169 185.879 273.376 186.087C273.583 186.295 273.7 186.577 273.7 186.871V202.358C273.7 202.652 273.583 202.934 273.376 203.142C273.169 203.35 272.887 203.467 272.594 203.467ZM185.956 203.467H170.506C170.213 203.467 169.931 203.35 169.724 203.142C169.517 202.934 169.4 202.652 169.4 202.358V186.871C169.4 186.577 169.517 186.295 169.724 186.087C169.931 185.879 170.213 185.763 170.506 185.763C170.8 185.763 171.081 185.879 171.288 186.087C171.496 186.295 171.612 186.577 171.612 186.871V201.249H185.956C186.25 201.249 186.531 201.366 186.738 201.574C186.946 201.782 187.062 202.064 187.062 202.358C187.062 202.652 186.946 202.934 186.738 203.142C186.531 203.35 186.25 203.467 185.956 203.467Z" fill="#1A1A1A"/>
</g>
<defs>
<clipPath id="clip0_2214_313">
<rect width="310.1" height="293.533" fill="white" transform="matrix(-1 0 0 -1 330.4 315.933)"/>
</clipPath>
<clipPath id="clip1_2214_313">
<rect width="155.633" height="297.033" fill="white" transform="translate(143.733 33.1334)"/>
</clipPath>
<clipPath id="clip2_2214_313">
<rect width="224.233" height="129.033" fill="white" transform="matrix(0 1 -1 0 283.15 61.7167)"/>
</clipPath>
<clipPath id="clip3_2214_313">
<rect width="61.3667" height="86.8" fill="white" transform="translate(192.267 103.833)"/>
</clipPath>
<clipPath id="clip4_2214_313">
<rect width="112.467" height="260.633" fill="white" transform="matrix(-1 0 0 1 161.233 69.7667)"/>
</clipPath>
<clipPath id="clip5_2214_313">
<rect width="45.2667" height="45.2667" fill="white" transform="translate(199.033 218.633)"/>
</clipPath>
<clipPath id="clip6_2214_313">
<rect width="104.3" height="112.467" fill="white" transform="translate(169.4 91)"/>
</clipPath>
</defs>
</svg>
