<svg width="350" height="350" viewBox="0 0 350 350" fill="none" xmlns="http://www.w3.org/2000/svg">
<g clip-path="url(#clip0_2224_618)">
<path d="M176.047 143.196C170.044 148.752 160.712 175.297 160.712 175.297C160.712 175.297 150.225 170.05 144.55 169.224C144.05 169.138 143.55 169.104 143.049 169.121C142.67 167.177 141.773 165.302 140.669 163.582C138.685 160.537 136.029 158.025 134.339 156.614C127.111 150.61 132.838 136.125 144.447 138.448C142.687 130.655 154.106 123.085 161.454 130.895C163.645 127.885 167.077 126.663 169.734 126.749C176.737 126.973 183.55 136.263 176.047 143.196Z" fill="#232323"/>
<path d="M160.712 175.813C160.781 175.813 160.85 175.796 160.902 175.779C161.04 175.727 161.144 175.607 161.195 175.469C161.282 175.211 170.544 148.976 176.392 143.574C179.566 140.65 180.601 136.882 179.238 133.252C177.754 129.313 173.77 126.354 169.751 126.233C167.388 126.165 163.852 127.128 161.385 130.087C157.383 126.199 152.554 126.612 149.294 128.332C145.516 130.328 143.343 134.13 143.791 137.794C137.685 136.899 133.614 140.46 131.82 144.211C130.785 146.361 130.389 148.77 130.699 150.989C131.044 153.414 132.165 155.496 133.977 156.993C135.425 158.197 138.151 160.674 140.186 163.805C140.186 163.822 140.203 163.822 140.203 163.84C141.394 165.68 142.187 167.487 142.515 169.19C142.567 169.431 142.791 169.603 143.032 169.603C143.498 169.603 143.981 169.637 144.447 169.706C149.984 170.497 160.35 175.675 160.454 175.727C160.557 175.796 160.643 175.813 160.712 175.813ZM175.702 142.817C170.079 148.013 161.834 170.635 160.436 174.574C158.211 173.491 149.673 169.448 144.636 168.708C144.257 168.657 143.86 168.605 143.481 168.605C143.084 166.902 142.291 165.13 141.135 163.341C141.135 163.324 141.118 163.324 141.118 163.306C138.996 160.038 136.167 157.457 134.684 156.219C133.08 154.877 132.062 153.036 131.769 150.868C131.493 148.838 131.855 146.636 132.786 144.675C134.494 141.131 138.427 137.759 144.36 138.947C144.533 138.981 144.705 138.929 144.826 138.809C144.947 138.688 144.999 138.499 144.964 138.327C144.188 134.904 146.189 131.171 149.811 129.261C152.847 127.661 157.401 127.334 161.092 131.239C161.195 131.343 161.351 131.412 161.506 131.394C161.661 131.377 161.799 131.308 161.885 131.188C164.076 128.177 167.474 127.197 169.716 127.266C173.339 127.386 176.944 130.052 178.272 133.614C178.979 135.506 179.6 139.222 175.702 142.817Z" fill="#232323"/>
<path d="M196.849 167.521C198.35 169.93 198.367 173.233 196.504 176.088C191.623 183.503 179.41 186.204 179.41 186.204C179.41 186.204 182.291 201.291 184.602 212.318C184.602 212.318 168.612 223.638 145.62 213.867C145.62 213.867 149.018 197.18 152.157 185.946C146.965 187.804 138.841 186.015 136.547 179.237C135.167 175.177 137.685 170.016 142.17 169.121C146.516 168.261 149.121 169.775 153.899 171.495C158.332 173.112 158.263 170.962 158.211 166.265C158.177 162.102 159.229 157.887 160.298 155.324C162.713 149.509 170.562 145.346 176.064 143.196C178.117 147.152 180.428 150.954 182.981 154.619C187.414 161.036 193.33 161.896 196.849 167.521Z" fill="white"/>
<path d="M175.564 144.503C173.321 145.432 170.337 146.843 167.595 148.735C164.386 150.954 162.248 153.294 161.23 155.72C160.281 157.99 159.177 162.119 159.212 166.265V166.437C159.229 169.327 159.246 171.237 158.177 172.321C157.677 172.82 157.021 173.078 156.193 173.078C155.469 173.078 154.624 172.889 153.502 172.493C152.692 172.2 151.967 171.925 151.26 171.65C148.655 170.652 146.775 169.93 144.567 169.93C143.843 169.93 143.118 169.998 142.342 170.153C140.617 170.497 139.134 171.598 138.185 173.267C137.168 175.039 136.909 177.155 137.513 178.927C138.237 181.06 139.686 182.815 141.687 184.002C143.481 185.051 145.706 185.636 147.948 185.636C149.311 185.636 150.656 185.412 151.795 185C151.915 184.965 152.019 184.931 152.14 184.931C152.398 184.931 152.657 185.034 152.847 185.206C152.985 185.335 153.085 185.5 153.137 185.682C153.189 185.863 153.19 186.056 153.14 186.238C150.432 195.889 147.517 209.738 146.792 213.247C152.605 215.621 158.487 216.808 164.248 216.808C170.527 216.808 175.564 215.363 178.669 214.142C180.997 213.23 182.636 212.318 183.429 211.837C181.17 200.999 178.41 186.548 178.393 186.41C178.289 185.86 178.634 185.326 179.186 185.206C179.307 185.172 191.036 182.505 195.642 175.538C197.229 173.129 197.349 170.291 195.987 168.089C194.365 165.491 192.123 163.943 189.777 162.291C187.172 160.485 184.499 158.61 182.136 155.221C179.721 151.78 177.53 148.185 175.564 144.503ZM176.047 143.127C178.099 147.084 180.411 150.972 182.964 154.619C187.414 161.053 193.33 161.913 196.849 167.521C198.35 169.93 198.367 173.233 196.504 176.088C191.623 183.503 179.41 186.204 179.41 186.204C179.41 186.204 182.291 201.291 184.602 212.318C184.602 212.318 176.788 217.841 164.248 217.841C158.832 217.841 152.536 216.808 145.62 213.867C145.62 213.867 149.018 197.179 152.157 185.946C150.88 186.393 149.449 186.634 147.948 186.634C143.343 186.634 138.271 184.363 136.529 179.236C135.149 175.177 137.668 170.016 142.153 169.121C143.015 168.949 143.843 168.639 144.602 168.639C147.655 168.639 150.07 169.895 153.882 171.289C154.865 171.65 155.503 171.753 156.09 171.753C158.16 171.753 158.056 169.895 158.022 166.248C157.987 162.085 158.97 157.698 160.04 155.118C162.455 149.303 170.544 145.277 176.047 143.127Z" fill="#232323"/>
<path d="M161.454 159.315C159.833 156.253 161.092 151.987 164.145 150.335C165.473 149.527 168.871 149.096 168.526 151.488C167.802 152.916 166.732 154.034 165.939 155.376C165.007 156.494 163.438 161.689 161.454 159.315ZM165.249 161.689C166.267 160.863 168.75 158.937 170.613 156.356C170.872 155.995 171.372 155.909 171.734 156.167C172.666 156.855 173.994 158.214 172.476 159.831C170.631 161.81 166.594 162.962 165.301 162.395C165.094 162.291 165.007 162.05 165.094 161.844L165.249 161.689ZM179.635 151.436C178.565 152.176 177.651 152.52 175.409 153.363C174.977 153.518 174.77 153.982 174.908 154.395C175.305 155.479 176.34 156.253 178.082 155.582C180.014 154.842 180.462 152.898 180.273 151.711C180.238 151.488 180.014 151.333 179.79 151.367C179.738 151.384 179.686 151.402 179.635 151.436Z" fill="#232323"/>
<mask id="mask0_2224_618" style="mask-type:luminance" maskUnits="userSpaceOnUse" x="136" y="143" width="62" height="74">
<path d="M196.849 167.521C198.35 169.93 198.367 173.233 196.504 176.088C191.623 183.503 179.41 186.204 179.41 186.204C179.41 186.204 181.739 199.691 184.05 210.701C184.05 210.701 168.595 222.159 145.62 212.387C145.62 212.387 149.018 197.162 152.157 185.929C146.965 187.787 138.841 185.997 136.547 179.219C135.167 175.159 137.685 169.998 142.17 169.104C146.516 168.244 149.121 169.758 153.899 171.478C158.332 173.095 158.263 170.945 158.211 166.248C158.177 162.085 159.229 157.87 160.298 155.307C162.713 149.492 170.562 145.329 176.064 143.179C178.117 147.135 180.428 150.937 182.981 154.601C187.414 161.035 193.33 161.896 196.849 167.521Z" fill="white"/>
</mask>
<g mask="url(#mask0_2224_618)">
<path d="M181.687 144.968C179.583 142.645 175.564 142.387 173.201 144.469C172.097 145.346 170.7 148.099 172.821 148.546C174.27 148.374 175.547 147.806 176.926 147.565C178.203 147.101 183.05 147.428 181.687 144.968ZM179.583 185.636C179.583 185.636 172.304 187.339 167.767 185.739C166.87 187.03 170.527 195.081 181.549 193.498C190.018 192.277 179.583 185.636 179.583 185.636Z" fill="#232323"/>
<path d="M178.772 194.221C179.652 194.221 180.618 194.152 181.635 194.014C183.878 193.687 185.085 192.965 185.344 191.812C185.913 189.163 180.48 185.602 179.859 185.206C179.738 185.137 179.6 185.103 179.462 185.137C179.393 185.154 172.269 186.789 167.94 185.258C167.716 185.172 167.474 185.258 167.336 185.447C166.87 186.118 167.164 187.528 168.061 188.956C168.906 190.298 171.924 194.221 178.772 194.221ZM179.479 186.187C181.584 187.563 184.637 190.143 184.326 191.588C184.137 192.431 182.688 192.81 181.48 192.982C179.428 193.274 172.476 193.825 169.044 188.578C168.423 187.632 168.199 186.858 168.164 186.41C172.373 187.614 178.272 186.462 179.479 186.187Z" fill="#232323"/>
</g>
<path d="M180.48 161.414C180.635 161.414 180.773 161.328 180.842 161.208C181.584 159.831 181.791 158.902 181.497 158.197C181.135 157.285 180.083 156.924 178.858 156.494C176.15 155.548 175.857 154.137 175.84 154.12C175.805 153.896 175.598 153.759 175.374 153.793C175.15 153.827 175.012 154.034 175.046 154.257C175.064 154.326 175.374 156.15 178.6 157.268C179.79 157.681 180.549 157.973 180.738 158.489C180.911 158.954 180.721 159.711 180.118 160.829C180.014 161.018 180.083 161.276 180.29 161.38C180.342 161.397 180.411 161.414 180.48 161.414ZM179.566 171.65C178.462 169.792 179.031 166.833 181.118 165.921C184.171 165.027 181.808 174.351 179.566 171.65ZM153.192 178.755C153.313 178.755 153.433 178.72 153.52 178.634C153.744 178.445 153.778 178.135 153.589 177.912C153.537 177.843 152.243 176.312 150.07 175.28C148.052 174.316 144.843 173.611 141.118 175.744C140.876 175.882 140.79 176.209 140.928 176.45C141.066 176.69 141.394 176.776 141.635 176.639C148 172.975 152.588 178.342 152.778 178.566C152.899 178.686 153.037 178.755 153.192 178.755ZM151.984 185.98C152.036 185.98 152.088 185.98 152.122 185.963C154.606 185.258 156.021 184.208 156.09 184.157C156.314 183.985 156.366 183.658 156.193 183.434C156.021 183.21 155.693 183.159 155.469 183.331C155.451 183.348 154.106 184.329 151.846 184.965C151.57 185.051 151.415 185.326 151.484 185.602C151.553 185.843 151.76 185.98 151.984 185.98Z" fill="#232323"/>
<mask id="mask1_2224_618" style="mask-type:luminance" maskUnits="userSpaceOnUse" x="131" y="126" width="49" height="50">
<path d="M176.047 143.196C170.044 148.752 160.712 175.297 160.712 175.297C160.712 175.297 150.225 170.05 144.55 169.224C144.05 169.138 143.55 169.104 143.049 169.121C142.67 167.177 141.773 165.302 140.669 163.582C138.685 160.537 136.029 158.025 134.339 156.614C127.111 150.61 132.838 136.125 144.447 138.448C142.687 130.655 153.554 122.517 161.42 130.121C163.61 127.111 167.077 126.663 169.734 126.749C176.737 126.973 183.55 136.263 176.047 143.196Z" fill="white"/>
</mask>
<g mask="url(#mask1_2224_618)">
<path d="M158.798 137.691C159.074 137.691 159.315 137.467 159.315 137.175C159.384 130.93 163.472 127.575 163.507 127.541C163.731 127.369 163.766 127.042 163.593 126.818C163.421 126.595 163.093 126.56 162.869 126.732C162.679 126.887 158.367 130.397 158.28 137.157C158.28 137.45 158.505 137.691 158.798 137.691Z" fill="white"/>
</g>
<path d="M100.945 290.18C100.945 290.18 98.4781 298.988 95.0455 311.719C93.5276 317.31 91.8372 323.641 90.0778 330.333C106.93 333.911 133.787 336.216 164.042 336.216C181.86 336.216 198.488 335.408 212.597 334.031C212.77 334.014 212.96 333.997 213.132 333.98C219.946 333.292 226.155 332.483 231.606 331.554C231.606 331.554 230.381 321.972 229.156 311.082C228.501 305.199 227.828 298.919 227.363 293.569C227.363 293.569 213.201 231.225 184.033 210.701C184.033 210.701 175.961 215.914 165.266 216.258C153.692 216.636 145.602 212.387 145.602 212.387C134.046 222.279 106.965 269.932 100.945 290.18Z" fill="#FF8707"/>
<mask id="mask2_2224_618" style="mask-type:luminance" maskUnits="userSpaceOnUse" x="60" y="201" width="213" height="136">
<path d="M78.7107 304.27C78.935 304.149 92.4582 298.627 100.945 290.18C100.945 290.18 98.4781 298.988 95.0456 311.719C93.5449 317.31 91.8372 323.641 90.0779 330.333C106.93 333.911 133.787 336.216 164.042 336.216C181.86 336.216 198.488 335.408 212.597 334.031C212.77 334.014 212.96 333.997 213.132 333.98C219.946 333.309 226.138 332.483 231.606 331.554C231.606 331.554 230.381 321.972 229.157 311.082C228.501 305.182 227.828 298.92 227.363 293.569C227.363 293.569 235.09 300.898 240.731 303.908C235.452 299.78 251.477 256.187 272.003 234.562C272.003 234.562 222.447 180.252 184.016 210.701C184.016 210.701 168.561 222.159 145.585 212.387C137.478 206.194 115.434 183.641 60.8063 233.994C77.2101 249.598 88.3184 296.958 78.7107 304.27Z" fill="white"/>
</mask>
<g mask="url(#mask2_2224_618)">
<path d="M154.658 238.106C156.159 238.106 157.539 237.556 158.781 236.489C161.23 234.356 163.127 230.193 164.421 224.085C164.904 221.832 165.197 219.716 165.387 218.167C165.973 219.905 166.853 222.382 167.992 224.98C170.838 231.483 173.805 235.56 176.806 237.074C178.324 237.848 179.842 237.951 181.342 237.401C190.484 234.012 184.344 211.097 184.068 210.116C183.999 209.841 183.705 209.686 183.429 209.755C183.153 209.824 182.998 210.116 183.067 210.392C183.084 210.443 184.654 216.275 185.137 222.417C185.568 227.939 185.206 234.855 180.963 236.437C179.738 236.885 178.531 236.799 177.272 236.162C170.579 232.773 165.663 215.621 165.611 215.449C165.542 215.209 165.318 215.054 165.059 215.071C164.801 215.105 164.611 215.295 164.594 215.553C164.576 215.707 163.576 230.967 158.108 235.715C156.935 236.73 155.676 237.177 154.279 237.074C152.416 236.936 150.829 236.007 149.57 234.356C147.414 231.5 146.655 227.113 146.379 223.931C146.068 220.163 146.292 215.914 146.982 212.594C147.034 212.318 146.862 212.043 146.586 211.992C146.31 211.94 146.034 212.112 145.982 212.387C144.705 218.529 144.705 229.608 148.742 234.975C150.191 236.885 152.019 237.951 154.192 238.106H154.658Z" fill="white"/>
</g>
<mask id="mask3_2224_618" style="mask-type:luminance" maskUnits="userSpaceOnUse" x="60" y="201" width="213" height="136">
<path d="M78.7107 304.27C78.935 304.149 92.4582 298.627 100.945 290.18C100.945 290.18 98.4781 298.988 95.0456 311.719C93.5449 317.31 91.8372 323.641 90.0779 330.333C106.93 333.911 133.787 336.216 164.042 336.216C181.86 336.216 198.488 335.408 212.597 334.031C212.77 334.014 212.96 333.997 213.132 333.98C219.946 333.309 226.138 332.483 231.606 331.554C231.606 331.554 230.381 321.972 229.157 311.082C228.501 305.182 227.828 298.92 227.363 293.569C227.363 293.569 235.09 300.898 240.731 303.908C235.452 299.78 251.477 256.187 272.003 234.562C272.003 234.562 222.447 180.252 184.016 210.701C184.016 210.701 168.561 222.159 145.585 212.387C137.478 206.194 115.434 183.641 60.8063 233.994C77.2101 249.598 88.3184 296.958 78.7107 304.27Z" fill="white"/>
</mask>
<g mask="url(#mask3_2224_618)">
<path d="M163.024 261.33C163.076 261.33 163.11 261.33 163.162 261.313C168.44 259.903 171.39 257.529 170.855 249.563C170.527 244.815 168.733 234.786 167.302 226.735C166.249 220.886 165.352 215.828 165.283 214.348C165.266 214.056 165.025 213.849 164.749 213.849C164.456 213.867 164.249 214.108 164.249 214.383C164.318 215.931 165.232 221.023 166.284 226.907C167.716 234.941 169.509 244.936 169.837 249.632C170.337 256.978 167.888 258.991 162.903 260.315C162.627 260.384 162.455 260.677 162.541 260.952C162.593 261.176 162.8 261.33 163.024 261.33Z" fill="white"/>
</g>
<path d="M164.818 237.573C164.189 237.573 163.679 237.064 163.679 236.437C163.679 235.81 164.189 235.302 164.818 235.302C165.446 235.302 165.956 235.81 165.956 236.437C165.956 237.064 165.446 237.573 164.818 237.573Z" fill="white"/>
<path d="M165.956 251.869C165.327 251.869 164.818 251.36 164.818 250.733C164.818 250.106 165.327 249.598 165.956 249.598C166.585 249.598 167.095 250.106 167.095 250.733C167.095 251.36 166.585 251.869 165.956 251.869Z" fill="white"/>
<path d="M60.8236 233.994C78.3486 250.148 89.0429 299.522 78.728 304.27C68.9134 308.794 57.9948 269.33 60.8236 233.994Z" fill="#232323"/>
<path d="M77.1583 305.147C77.762 305.147 78.3485 305.009 78.9349 304.734C80.9531 303.805 82.2985 301.38 82.9022 297.526C84.1096 289.957 82.3502 277.415 78.3485 264.788C73.9672 251.008 67.7058 239.637 61.1685 233.616C61.0305 233.478 60.8062 233.444 60.6338 233.513C60.444 233.582 60.3233 233.754 60.306 233.96C59.1848 248.067 60.2025 264.186 63.1176 278.155C65.8947 291.488 70.0862 301.207 74.295 304.149C75.2436 304.82 76.2096 305.147 77.1583 305.147ZM61.2547 235.13C67.3781 241.203 73.2083 252.041 77.3653 265.115C81.3326 277.605 83.0574 289.957 81.8845 297.388C81.3325 300.829 80.1769 303.048 78.5037 303.822C77.3308 304.356 76.1579 304.201 74.8814 303.324C66.8434 297.715 59.0813 265.356 61.2547 235.13Z" fill="#232323"/>
<path d="M11.1809 257.202C14.5617 296.683 49.6462 297.543 71.5696 289.595C72.0009 289.441 72.4321 289.268 72.8633 289.114C76.6753 287.634 80.0389 285.897 82.6952 284.073C85.1446 250.011 61.1858 234.253 60.8235 234.012L52.0438 242.751C54.4069 215.793 50.4569 188.354 58.9434 158.472C61.7895 149.527 55.6316 150.352 50.7501 157.612C51.785 155.032 26.6878 163.289 29.4993 169.448C29.3959 169.689 29.3096 169.947 29.2406 170.205C29.1544 170.36 29.0681 170.532 28.9991 170.704C22.5135 184.139 8.24857 223.105 11.1809 257.202Z" fill="white"/>
<path d="M49.5082 294.085C57.4428 294.085 65.3083 292.434 71.7422 290.094C72.1734 289.939 72.5874 289.785 73.0531 289.612C76.8306 288.15 80.2632 286.378 82.9885 284.503C83.1093 284.417 83.1955 284.279 83.2127 284.107C83.782 276.263 82.9885 268.745 80.8496 261.76C79.142 256.152 76.5891 250.871 73.2256 246.054C67.4817 237.796 61.3583 233.736 61.0995 233.564C61.0823 233.547 61.065 233.547 61.0478 233.53C60.8408 233.427 60.5993 233.478 60.4441 233.633L52.6648 241.375C53.3547 232.721 53.4237 224.189 53.51 215.174C53.6652 197.059 53.8205 178.308 59.4264 158.593C61.0133 153.604 59.6851 152.09 58.7537 151.66C56.7873 150.714 53.5272 152.778 50.6984 156.717C49.1287 156.167 44.1783 157.853 42.6259 158.421C40.4352 159.212 34.9846 161.328 31.5175 164.149C29.1716 166.042 28.2919 167.831 28.8957 169.448C28.8267 169.637 28.7577 169.809 28.7059 169.998C28.6369 170.153 28.5507 170.308 28.4817 170.463C25.0146 177.688 19.9262 190.831 16.0279 206.091C11.1637 225.118 9.35254 242.321 10.629 257.27C11.8709 271.687 17.3561 282.095 26.9293 288.202C33.6564 292.434 41.6082 294.085 49.5082 294.085ZM82.1951 283.781C79.5732 285.553 76.2787 287.238 72.6736 288.632C72.2251 288.804 71.8112 288.959 71.3972 289.114C58.7709 293.707 40.6077 295.634 27.533 287.307C18.2358 281.389 12.9058 271.239 11.6984 257.167C10.4392 242.562 12.3021 224.98 17.0628 206.332C20.9439 191.158 25.9978 178.084 29.4476 170.893C29.5339 170.721 29.6029 170.566 29.6891 170.411C29.7064 170.377 29.7064 170.36 29.7236 170.325C29.7926 170.084 29.8788 169.861 29.9651 169.62C30.0168 169.482 30.0168 169.345 29.9651 169.207C29.4994 168.192 29.9823 166.988 31.414 165.629C33.4839 163.65 37.4167 161.483 42.2119 159.676C46.3689 158.111 49.422 157.509 50.2327 157.629C50.2499 157.801 50.3534 157.956 50.5086 158.042C50.7501 158.163 51.0261 158.094 51.1814 157.87C54.2517 153.311 57.2013 152.038 58.3397 152.571C59.3919 153.07 59.4436 155.221 58.4604 158.283C52.82 178.153 52.6648 196.956 52.5095 215.157C52.4233 224.636 52.3543 233.582 51.5436 242.682C51.5263 242.906 51.6471 243.095 51.8368 243.198C52.0266 243.284 52.268 243.25 52.4233 243.095L60.8926 234.665C62.2725 235.629 67.4472 239.551 72.3976 246.639C75.6922 251.37 78.1933 256.548 79.8837 262.053C81.9191 268.848 82.7125 276.16 82.1951 283.781Z" fill="#232323"/>
<path d="M47.7488 162.67C47.7488 162.67 47.1106 164.304 45.3857 168.605L47.7488 162.67Z" fill="white"/>
<path d="M45.3857 169.121C45.5927 169.121 45.7824 169.001 45.8687 168.794C47.5763 164.545 48.2318 162.876 48.2318 162.859C48.3353 162.601 48.1973 162.291 47.9386 162.188C47.6798 162.085 47.3694 162.223 47.2659 162.481C47.2659 162.498 46.6104 164.166 44.9027 168.416C44.7992 168.674 44.92 168.983 45.196 169.087C45.2477 169.104 45.3167 169.121 45.3857 169.121Z" fill="#232323"/>
<path d="M31.7072 171.134C30.2065 171.409 27.6709 167.177 27.4984 161.689C27.3432 156.838 32.2419 154.412 32.6042 158.816C33.0526 164.098 33.9151 170.738 31.7072 171.134Z" fill="white"/>
<path d="M31.5865 171.65C31.6728 171.65 31.7418 171.65 31.8108 171.633C34.2429 171.203 33.7772 166.024 33.2942 160.554C33.2424 159.952 33.1907 159.35 33.1389 158.765C32.9664 156.631 31.7935 155.926 30.7413 155.978C28.8784 156.081 26.8948 158.455 26.981 161.689C27.0845 165.044 28.3092 169.482 30.3446 171.134C30.8448 171.547 31.276 171.65 31.5865 171.65ZM31.621 170.618C31.483 170.652 31.2588 170.549 31.0173 170.342C29.8616 169.414 28.1712 166.093 28.0332 161.655C27.9815 159.831 29.0337 157.113 30.8103 157.01H30.8793C31.8625 157.01 32.0695 158.283 32.1212 158.851C32.173 159.436 32.2247 160.038 32.2765 160.64C32.6042 164.511 33.1217 170.36 31.621 170.618Z" fill="#232323"/>
<path d="M35.985 168.983C35.0363 169.104 32.4834 166.541 32.1212 157.079C31.9142 151.866 38.4861 149.664 38.4171 154.894C38.3136 161.156 38.6068 168.639 35.985 168.983Z" fill="white"/>
<path d="M35.916 169.517C35.9677 169.517 36.0195 169.517 36.054 169.499C38.8311 169.121 38.8656 163.255 38.9 157.027C38.9 156.305 38.9173 155.599 38.9173 154.911C38.9345 153.397 38.4343 152.279 37.4856 151.729C36.5542 151.195 35.3295 151.298 34.1911 151.987C32.8629 152.778 31.5002 154.55 31.6037 157.113C31.9314 165.715 33.9841 168.33 34.8638 169.052C35.2778 169.413 35.6572 169.517 35.916 169.517ZM35.916 168.484C35.8815 168.484 35.709 168.45 35.4675 168.209C34.881 167.676 32.9491 165.319 32.6387 157.062C32.5524 154.946 33.6736 153.518 34.743 152.864C35.5537 152.365 36.3989 152.279 36.9854 152.623C37.6064 152.967 37.9168 153.759 37.8996 154.894C37.8823 155.599 37.8824 156.305 37.8824 157.027C37.8306 162.016 37.7961 168.226 35.916 168.484Z" fill="#232323"/>
<path d="M41.2286 167.039C40.4696 166.781 38.4515 164.098 38.417 154.911C38.3825 146.877 46.2825 145.57 46.0238 151.643C45.7651 157.887 43.7297 167.865 41.2286 167.039Z" fill="white"/>
<path d="M41.522 167.59C41.7807 167.59 42.0912 167.521 42.4362 167.28C43.5056 166.541 44.4715 164.39 45.2822 160.863C45.955 157.973 46.4207 154.515 46.5414 151.625C46.6104 149.819 46.0239 148.443 44.8855 147.755C43.8506 147.118 42.4707 147.152 41.2287 147.858C39.1244 149.028 37.8824 151.66 37.8997 154.877C37.9342 164.012 39.9178 167.108 41.0735 167.504C41.1942 167.573 41.3495 167.59 41.522 167.59ZM43.2124 148.357C43.6091 148.357 44.0058 148.46 44.3336 148.649C45.1443 149.148 45.5582 150.197 45.5065 151.608C45.2132 158.747 43.2986 165.457 41.8497 166.455C41.6255 166.609 41.4875 166.592 41.4012 166.558C41.2287 166.506 40.625 165.938 40.0385 164.149C39.5383 162.635 38.9519 159.797 38.9346 154.911C38.9174 152.073 39.9695 149.785 41.7289 148.787C42.2119 148.494 42.7294 148.357 43.2124 148.357Z" fill="#232323"/>
<path d="M46.2137 163.134C45.127 162.635 44.299 159.556 44.851 151.419C45.403 143.247 54.4759 145.398 52.8718 151.729C51.3194 157.784 48.1628 164.029 46.2137 163.134Z" fill="white"/>
<path d="M46.6104 163.736C46.8346 163.736 47.0933 163.685 47.3866 163.547C49.6117 162.481 52.13 156.717 53.372 151.849C53.9067 149.75 53.4065 147.858 51.992 146.654C50.7501 145.587 48.9907 145.295 47.5246 145.914C45.6789 146.671 44.5232 148.684 44.3335 151.402C43.8333 158.782 44.3852 162.893 45.9894 163.633C46.1619 163.668 46.3516 163.736 46.6104 163.736ZM49.146 146.602C49.9222 146.602 50.7156 146.877 51.3366 147.411C52.4405 148.357 52.82 149.871 52.3888 151.574C51.0434 156.872 48.594 161.81 46.9553 162.601C46.6794 162.721 46.5414 162.687 46.4551 162.653C46.1619 162.515 44.7302 161.345 45.4029 151.436C45.5582 149.079 46.4724 147.445 47.9558 146.843C48.318 146.688 48.732 146.602 49.146 146.602Z" fill="#232323"/>
<path d="M78.3312 305.027C78.5554 304.906 92.4754 298.644 100.945 290.18C100.945 290.18 125.593 263.051 136.115 244.127C143.791 230.33 145.602 212.387 145.602 212.387C137.495 206.194 114.692 183.623 60.0473 233.977C76.4338 249.581 87.9389 297.698 78.3312 305.027Z" fill="#FF8707"/>
<mask id="mask4_2224_618" style="mask-type:luminance" maskUnits="userSpaceOnUse" x="60" y="201" width="91" height="104">
<path d="M78.7107 304.27C78.9349 304.149 92.4582 298.627 100.945 290.18C100.945 290.18 99.8925 294.017 98.1676 300.21C96.6669 305.801 168.578 222.159 145.602 212.387C137.495 206.194 115.451 183.641 60.8235 233.994C77.2101 249.598 88.3184 296.958 78.7107 304.27Z" fill="white"/>
</mask>
<g mask="url(#mask4_2224_618)">
<path d="M100.1 292.296C100.238 292.296 100.376 292.245 100.479 292.141C109.259 283.024 119.936 269.278 120.039 269.141C120.212 268.917 120.177 268.59 119.953 268.418C119.729 268.246 119.401 268.28 119.229 268.504C119.125 268.642 108.465 282.353 99.7373 291.436C99.5475 291.642 99.5475 291.969 99.7545 292.159C99.8408 292.245 99.9788 292.296 100.1 292.296Z" fill="white"/>
</g>
<path d="M49.8704 253.623C50.0947 253.623 50.3017 253.468 50.3707 253.245C51.7333 248.428 52.5958 242.63 52.613 242.579C52.6475 242.304 52.4578 242.028 52.1818 241.994C51.9058 241.96 51.6298 242.149 51.5953 242.424C51.5953 242.476 50.7329 248.204 49.3875 252.952C49.3012 253.228 49.4737 253.52 49.7497 253.589C49.7842 253.606 49.8359 253.623 49.8704 253.623ZM272.02 234.562C261.654 237.005 223.568 292.485 240.748 303.908C246.975 308.037 277.868 288.684 272.02 234.562Z" fill="#232323"/>
<path d="M242.852 304.958C244.801 304.958 247.302 304.115 249.959 302.515C256.72 298.421 262.947 290.576 267.07 280.976C269.64 274.99 271.434 268.28 272.4 261.072C273.504 252.884 273.538 243.955 272.521 234.528C272.503 234.373 272.434 234.252 272.314 234.166C272.193 234.08 272.038 234.046 271.9 234.08C267.329 235.164 258.842 245.125 252.46 254.518C243.887 267.145 238.005 279.686 236.349 288.959C235.004 296.459 236.384 301.638 240.472 304.356C241.093 304.751 241.904 304.958 242.852 304.958ZM271.572 235.25C272.503 244.351 272.452 252.987 271.382 260.918C270.433 268.04 268.657 274.646 266.121 280.564C264.207 285.019 258.756 295.978 249.424 301.638C245.871 303.788 242.576 304.511 241.024 303.496C237.315 301.035 236.073 296.201 237.35 289.148C238.971 280.151 244.939 267.438 253.305 255.103C260.377 244.695 267.725 236.747 271.572 235.25Z" fill="#232323"/>
<path d="M243.801 276.314C243.784 278.379 243.904 280.443 244.146 282.49C244.18 282.508 244.215 282.542 244.267 282.559C246.681 284.09 249.786 285.501 253.322 286.654C253.754 286.791 254.185 286.929 254.633 287.066C254.685 287.084 254.754 287.101 254.806 287.118C276.971 293.724 314.315 290.576 316.643 250.131C319.127 207.123 294.565 163.496 294.444 163.255C296.98 156.976 274.97 137.123 274.28 141.596C273.417 142.972 272.9 149.681 272.313 154.877C267.104 147.841 261.93 145.759 264.534 153.604C274.332 183.073 271.606 210.667 275.16 237.487L272.02 234.562C272.02 234.562 266.294 237.039 260.015 242.476C252.374 249.082 243.922 260.057 243.801 276.314Z" fill="white"/>
<path d="M273.521 290.335C274.97 290.335 276.419 290.283 277.833 290.18C286.82 289.561 294.858 286.929 301.068 282.594C310.899 275.712 316.316 264.805 317.161 250.166C317.713 240.549 316.954 230.141 314.901 219.182C313.245 210.357 310.744 201.153 307.484 191.829C302.258 176.949 296.669 166.265 295.013 163.203C295.513 161.586 295.099 157.887 288.252 150.421C284.181 145.983 277.04 139.772 274.625 140.495C274.194 140.632 273.9 140.942 273.797 141.407C273.124 142.628 272.71 146.258 272.158 151.591C272.089 152.227 272.02 152.881 271.951 153.535C269.226 150.129 265.983 147.342 264.241 148.236C263.085 148.821 263.034 150.679 264.051 153.741C270.52 173.198 271.52 191.915 272.469 210.013C272.952 219.01 273.4 227.526 274.47 236.128L272.365 234.184C272.21 234.046 272.003 234.012 271.813 234.08C271.761 234.098 265.949 236.644 259.67 242.08C252.253 248.497 243.404 259.627 243.283 276.297C243.266 278.379 243.387 280.478 243.628 282.525C243.646 282.68 243.732 282.817 243.87 282.903L243.973 282.972C246.44 284.538 249.614 285.965 253.15 287.135C253.581 287.273 254.03 287.411 254.478 287.548C254.547 287.565 254.599 287.583 254.668 287.6C260.619 289.389 267.191 290.335 273.521 290.335ZM275.108 141.458C276.746 141.458 282.37 145.553 287.475 151.126C292.322 156.408 294.789 160.984 293.961 163.066C293.909 163.203 293.909 163.341 293.978 163.478C293.978 163.478 294.013 163.53 294.064 163.633C295.669 166.558 301.275 177.241 306.518 192.191C309.761 201.446 312.245 210.598 313.884 219.372C315.919 230.244 316.678 240.583 316.126 250.097C315.298 264.41 310.037 275.059 300.481 281.733C294.427 285.965 286.578 288.529 277.781 289.148C270.278 289.664 262.188 288.77 254.961 286.619L254.806 286.568H254.788C254.357 286.43 253.909 286.31 253.495 286.155C250.079 285.036 247.026 283.66 244.646 282.164C244.422 280.22 244.318 278.258 244.336 276.297C244.456 260.023 253.115 249.116 260.377 242.854C265.707 238.244 270.692 235.749 271.951 235.164L274.849 237.848C275.004 238.003 275.246 238.037 275.436 237.934C275.625 237.831 275.746 237.624 275.712 237.401C274.504 228.352 274.038 219.423 273.538 209.944C272.572 191.778 271.572 172.992 265.069 153.414C264.137 150.628 264.327 149.372 264.758 149.148C265.552 148.735 268.381 150.37 271.951 155.169C272.072 155.341 272.296 155.41 272.503 155.358C272.71 155.307 272.865 155.135 272.883 154.911C273.003 153.879 273.107 152.761 273.228 151.677C273.659 147.531 274.142 142.852 274.763 141.837C274.797 141.785 274.832 141.716 274.832 141.647C274.849 141.475 274.901 141.475 274.953 141.458C274.97 141.475 275.039 141.458 275.108 141.458Z" fill="#232323"/>
<path d="M227.38 293.569C227.38 293.569 235.349 301.672 240.989 304.683C235.711 300.554 252.184 256.101 272.727 234.493C272.727 234.493 222.481 180.252 184.033 210.701C184.033 210.701 187.862 223.655 201.662 249.632C213.322 271.584 214.771 278.362 227.38 293.569Z" fill="#FF8707"/>
<mask id="mask5_2224_618" style="mask-type:luminance" maskUnits="userSpaceOnUse" x="90" y="210" width="142" height="127">
<path d="M100.945 290.18C100.945 290.18 98.4781 298.988 95.0455 311.719C93.5276 317.31 91.8372 323.641 90.0778 330.333C106.93 333.911 133.787 336.216 164.042 336.216C181.86 336.216 198.488 335.408 212.597 334.031C212.77 334.014 212.96 333.997 213.132 333.98C219.946 333.292 226.155 332.483 231.606 331.554C231.606 331.554 230.381 321.972 229.156 311.082C228.501 305.199 227.828 298.919 227.363 293.569C227.363 293.569 213.201 231.225 184.033 210.701C184.033 210.701 175.961 215.914 165.266 216.258C153.692 216.636 145.602 212.387 145.602 212.387C134.046 222.279 106.965 269.932 100.945 290.18Z" fill="white"/>
</mask>
<g mask="url(#mask5_2224_618)">
<path d="M228.053 295.737C228.173 295.737 228.294 295.702 228.398 295.599C228.605 295.41 228.639 295.083 228.449 294.877C228.346 294.756 217.738 282.731 212.011 269.708C211.89 269.45 211.597 269.33 211.321 269.45C211.062 269.571 210.942 269.863 211.062 270.138C216.858 283.316 227.57 295.444 227.673 295.565C227.759 295.685 227.915 295.737 228.053 295.737Z" fill="white"/>
</g>
<path d="M272.314 154.877C272.314 154.877 275.66 158.971 278.989 165.164L272.314 154.877Z" fill="white"/>
<path d="M278.989 165.68C279.075 165.68 279.161 165.663 279.23 165.612C279.489 165.474 279.575 165.164 279.437 164.906C276.125 158.747 272.745 154.567 272.71 154.533C272.538 154.309 272.21 154.275 271.986 154.464C271.761 154.636 271.727 154.963 271.917 155.186C271.951 155.221 275.263 159.332 278.54 165.405C278.627 165.577 278.799 165.68 278.989 165.68ZM277.73 248.738C277.781 248.738 277.833 248.738 277.885 248.72C278.161 248.634 278.316 248.359 278.23 248.084C276.367 241.856 275.677 237.229 275.66 237.177C275.625 236.902 275.349 236.695 275.073 236.747C274.797 236.781 274.59 237.057 274.642 237.332C274.642 237.383 275.367 242.08 277.247 248.376C277.298 248.6 277.505 248.738 277.73 248.738Z" fill="#232323"/>
<path d="M291.753 166.386C293.202 166.885 296.359 163.1 297.376 157.715C298.273 152.95 293.806 149.802 292.771 154.103C291.529 159.246 289.649 165.663 291.753 166.386Z" fill="white"/>
<path d="M292.029 166.953C292.305 166.953 292.667 166.867 293.081 166.627C295.358 165.302 297.255 161.104 297.876 157.801C298.48 154.619 296.876 151.969 295.048 151.591C294.03 151.367 292.753 151.883 292.253 153.965C292.115 154.533 291.977 155.118 291.822 155.702C290.494 161.035 289.252 166.059 291.581 166.867C291.701 166.919 291.857 166.953 292.029 166.953ZM294.616 152.571C294.685 152.571 294.754 152.571 294.841 152.589C296.583 152.967 297.204 155.806 296.859 157.595C296.359 160.227 294.703 164.476 292.564 165.715C292.288 165.87 292.064 165.938 291.926 165.887C290.494 165.388 291.908 159.711 292.84 155.943C292.995 155.358 293.133 154.773 293.271 154.206C293.392 153.707 293.771 152.571 294.616 152.571Z" fill="#232323"/>
<path d="M287.872 163.616C288.786 163.891 291.701 161.741 293.547 152.451C294.547 147.325 288.407 144.142 287.665 149.32C286.785 155.53 285.336 162.876 287.872 163.616Z" fill="white"/>
<path d="M288.045 164.166C288.286 164.166 288.597 164.098 288.993 163.857C289.959 163.272 292.391 161.001 294.065 152.554C294.565 150.043 293.478 148.081 292.288 147.101C291.27 146.241 290.063 145.965 289.08 146.344C288.062 146.74 287.389 147.772 287.165 149.268C287.061 149.957 286.958 150.662 286.854 151.367C285.923 157.526 285.061 163.341 287.734 164.132C287.82 164.149 287.924 164.166 288.045 164.166ZM289.976 147.204C290.494 147.204 291.08 147.445 291.615 147.892C292.564 148.701 293.444 150.283 293.03 152.365C291.425 160.485 289.166 162.515 288.51 162.945C288.234 163.134 288.062 163.151 288.027 163.134C286.199 162.584 287.13 156.442 287.872 151.522C287.976 150.817 288.079 150.111 288.183 149.423C288.338 148.305 288.786 147.565 289.442 147.324C289.614 147.238 289.787 147.204 289.976 147.204Z" fill="#232323"/>
<path d="M283.008 160.881C283.801 160.743 286.216 158.403 287.682 149.32C288.959 141.372 281.352 138.895 280.662 144.916C279.938 151.144 280.386 161.311 283.008 160.881Z" fill="white"/>
<path d="M282.853 161.414C282.939 161.414 283.025 161.414 283.094 161.397C284.302 161.19 286.734 158.438 288.183 149.423C288.7 146.241 287.872 143.454 285.992 141.974C284.871 141.097 283.525 140.839 282.387 141.303C281.145 141.819 280.352 143.093 280.145 144.882C279.817 147.755 279.748 151.247 279.955 154.206C280.214 157.801 280.817 160.089 281.766 160.984C282.145 161.311 282.542 161.414 282.853 161.414ZM282.922 160.365C282.818 160.382 282.68 160.382 282.49 160.193C281.214 158.988 280.352 152.073 281.179 144.968C281.335 143.574 281.921 142.594 282.801 142.232C283.577 141.905 284.526 142.112 285.354 142.748C286.941 144.004 287.631 146.43 287.165 149.234C286.389 154.051 285.354 156.769 284.629 158.197C283.784 159.866 283.094 160.33 282.922 160.365Z" fill="#232323"/>
<path d="M278.678 156.253C279.834 155.926 281.111 153.019 281.835 144.882C282.542 136.727 273.245 137.45 273.866 143.953C274.452 150.18 276.609 156.838 278.678 156.253Z" fill="white"/>
<path d="M278.42 156.803C278.575 156.803 278.696 156.786 278.816 156.752C280.507 156.287 281.697 152.296 282.352 144.933C282.594 142.215 281.749 140.065 280.058 139.015C278.696 138.172 276.919 138.19 275.522 139.067C273.952 140.048 273.159 141.837 273.366 143.987C273.849 148.993 275.436 155.083 277.471 156.477C277.816 156.735 278.144 156.803 278.42 156.803ZM277.833 139.445C278.42 139.445 279.006 139.6 279.506 139.91C280.886 140.753 281.524 142.508 281.317 144.847C280.455 154.739 278.851 155.685 278.54 155.771C278.454 155.806 278.299 155.806 278.04 155.651C276.539 154.619 274.901 149.354 274.383 143.918C274.211 142.164 274.832 140.736 276.056 139.962C276.608 139.617 277.212 139.445 277.833 139.445Z" fill="#232323"/>
</g>
<g clip-path="url(#clip1_2224_618)">
<path d="M180.909 113.317L288.127 172.548C288.73 172.881 289.392 173.092 290.077 173.169C290.761 173.245 291.454 173.186 292.115 172.995C292.777 172.804 293.394 172.484 293.932 172.054C294.47 171.623 294.918 171.091 295.251 170.488L339.366 90.4479L342.416 84.9154C343.087 83.6965 343.248 82.2604 342.862 80.923C342.476 79.5855 341.576 78.4562 340.358 77.7835L233.139 18.5523C232.537 18.2192 231.874 18.0083 231.19 17.9317C230.506 17.855 229.813 17.914 229.151 18.1053C228.49 18.2966 227.872 18.6166 227.334 19.0468C226.796 19.477 226.348 20.0091 226.016 20.6127L222.95 26.1754L178.851 106.185C178.179 107.404 178.019 108.84 178.405 110.177C178.791 111.515 179.691 112.644 180.909 113.317Z" fill="white"/>
<path d="M290.652 173.602C291.184 173.601 291.714 173.526 292.225 173.377C292.938 173.173 293.603 172.83 294.182 172.367C294.761 171.904 295.243 171.33 295.599 170.68L339.714 90.6403L342.764 85.1079C343.484 83.7962 343.656 82.2519 343.241 80.8135C342.826 79.3752 341.859 78.1603 340.55 77.4352L233.332 18.2038C232.021 17.4823 230.479 17.3104 229.042 17.726C227.605 18.1415 226.392 19.1105 225.668 20.4205L222.602 25.9832L178.502 105.992C177.78 107.304 177.607 108.849 178.022 110.288C178.437 111.727 179.407 112.942 180.716 113.665L287.935 172.896C288.766 173.358 289.701 173.601 290.652 173.602ZM230.615 18.2983C231.431 18.2981 232.233 18.5055 232.947 18.901L340.166 78.1322C341.29 78.7551 342.122 79.7987 342.478 81.0343C342.834 82.2699 342.687 83.5965 342.068 84.7233L339.018 90.2557L294.903 170.295C294.595 170.853 294.181 171.345 293.684 171.742C293.187 172.14 292.616 172.436 292.005 172.613C291.393 172.789 290.753 172.844 290.121 172.773C289.488 172.702 288.876 172.507 288.319 172.199L181.101 112.968C179.976 112.347 179.143 111.303 178.787 110.067C178.43 108.831 178.578 107.504 179.199 106.377L223.298 26.3679L226.364 20.8051C226.784 20.0447 227.399 19.4111 228.147 18.9701C228.895 18.5292 229.747 18.2972 230.615 18.2983Z" fill="#232323"/>
<path d="M222.711 26.1754L339.127 90.4479L342.177 84.9154C342.849 83.6965 343.009 82.2604 342.624 80.923C342.238 79.5855 341.337 78.4562 340.12 77.7835L232.901 18.5523C232.298 18.2192 231.635 18.0083 230.951 17.9317C230.267 17.855 229.574 17.914 228.913 18.1053C228.251 18.2966 227.634 18.6166 227.096 19.0468C226.558 19.477 226.11 20.0091 225.777 20.6127L222.711 26.1754Z" fill="#232323"/>
<path d="M230.902 25.4453C230.005 25.4453 229.278 24.7175 229.278 23.8196C229.278 22.9217 230.005 22.1938 230.902 22.1938C231.799 22.1938 232.526 22.9217 232.526 23.8196C232.526 24.7175 231.799 25.4453 230.902 25.4453Z" fill="white"/>
<path d="M235.738 28.1188C234.841 28.1188 234.114 27.3909 234.114 26.4931C234.114 25.5952 234.841 24.8673 235.738 24.8673C236.635 24.8673 237.362 25.5952 237.362 26.4931C237.362 27.3909 236.635 28.1188 235.738 28.1188Z" fill="white"/>
<path d="M240.573 30.7922C239.677 30.7922 238.95 30.0643 238.95 29.1665C238.95 28.2686 239.677 27.5407 240.573 27.5407C241.47 27.5407 242.197 28.2686 242.197 29.1665C242.197 30.0643 241.47 30.7922 240.573 30.7922Z" fill="white"/>
</g>
<g clip-path="url(#clip2_2224_618)">
<path d="M102.139 124.581C103.656 123.42 103.97 121.282 102.84 119.807C101.71 118.332 99.5649 118.078 98.0481 119.239L46.9983 158.332C45.4816 159.493 45.1678 161.631 46.2974 163.106C47.4271 164.581 49.5724 164.835 51.0892 163.674L102.139 124.581Z" fill="#232323"/>
<path d="M36.8582 177.655L59.7992 160.087C62.3459 158.137 62.8729 154.548 60.9762 152.071C59.0795 149.594 55.4773 149.167 52.9305 151.118L29.9895 168.685C27.4427 170.636 26.9157 174.225 28.8125 176.701C30.7092 179.178 34.3114 179.605 36.8582 177.655Z" fill="#FF8707"/>
<path d="M92.964 124.299L96.1274 128.43C97.2153 129.85 99.723 129.698 101.551 128.099L111.526 119.374C113.138 117.964 113.638 115.922 112.678 114.669L110.564 111.908C109.606 110.657 107.503 110.605 105.721 111.793L94.6968 119.148C92.6781 120.496 91.876 122.878 92.964 124.299Z" fill="#232323"/>
<path d="M65.3967 153.719L60.5707 147.417C59.0044 145.372 56.03 145.019 53.927 146.63L53.9266 146.63C51.8236 148.24 51.3885 151.204 52.9548 153.249L57.7808 159.551C59.347 161.597 62.3215 161.949 64.4245 160.339L64.4249 160.339C66.5279 158.728 66.9629 155.765 65.3967 153.719Z" fill="#FF8707"/>
</g>
<g clip-path="url(#clip3_2224_618)">
<path d="M107.281 103.936C107.085 103.936 106.897 103.86 106.757 103.724C106.617 103.588 106.535 103.402 106.53 103.207L105.901 79.1687C105.896 78.9701 105.97 78.7775 106.108 78.6334C106.245 78.4893 106.434 78.4054 106.633 78.4002C106.832 78.395 107.026 78.4689 107.17 78.6056C107.315 78.7424 107.399 78.9308 107.404 79.1295L108.034 103.168C108.039 103.366 107.965 103.559 107.827 103.703C107.69 103.847 107.501 103.931 107.302 103.936L107.281 103.936ZM92.2179 111.067C92.0406 111.067 91.8689 111.004 91.7337 110.89L73.3 95.3756C73.1488 95.2472 73.0548 95.0642 73.0385 94.8669C73.0223 94.6695 73.0851 94.4737 73.2133 94.3224C73.3415 94.1711 73.5246 94.0766 73.7226 94.0595C73.9206 94.0424 74.1172 94.1042 74.2696 94.2313L92.7031 109.746C92.8207 109.845 92.905 109.977 92.9445 110.126C92.984 110.274 92.9768 110.431 92.9239 110.575C92.8709 110.719 92.7748 110.844 92.6486 110.932C92.5223 111.02 92.372 111.067 92.2179 111.067Z" fill="#232323"/>
</g>
<g clip-path="url(#clip4_2224_618)">
<path d="M273.019 124.816C272.105 124.478 271.315 123.872 270.752 123.076C270.189 122.281 269.88 121.334 269.865 120.36C269.85 119.386 270.13 118.43 270.668 117.618C271.206 116.805 271.977 116.175 272.88 115.809C273.13 115.71 273.331 115.518 273.442 115.273C273.552 115.029 273.565 114.751 273.475 114.498C273.208 113.759 272.893 113.038 272.53 112.34C272.411 112.11 272.21 111.931 271.967 111.838C271.724 111.746 271.456 111.746 271.213 111.839C270.314 112.201 269.329 112.292 268.379 112.104C267.429 111.915 266.554 111.453 265.861 110.776C265.189 110.118 264.724 109.276 264.526 108.356C264.327 107.436 264.404 106.478 264.746 105.601C264.836 105.359 264.831 105.091 264.732 104.853C264.633 104.614 264.448 104.421 264.214 104.312C263.494 103.967 262.753 103.669 261.994 103.421C261.75 103.338 261.484 103.347 261.246 103.446C261.008 103.546 260.815 103.729 260.702 103.961C260.307 104.822 259.672 105.551 258.874 106.06C258.075 106.57 257.147 106.839 256.2 106.836C255.253 106.839 254.325 106.57 253.527 106.06C252.729 105.551 252.094 104.822 251.699 103.961C251.586 103.729 251.393 103.546 251.155 103.446C250.917 103.347 250.651 103.338 250.407 103.421C249.648 103.669 248.906 103.967 248.186 104.312C247.951 104.421 247.766 104.614 247.668 104.853C247.569 105.091 247.564 105.359 247.654 105.601C247.996 106.478 248.072 107.436 247.874 108.356C247.676 109.276 247.211 110.118 246.539 110.776C245.846 111.453 244.971 111.915 244.021 112.104C243.071 112.292 242.086 112.201 241.187 111.839C240.944 111.746 240.675 111.745 240.432 111.838C240.189 111.931 239.989 112.11 239.869 112.341C239.507 113.038 239.192 113.759 238.924 114.498C238.835 114.751 238.847 115.029 238.958 115.273C239.069 115.518 239.27 115.71 239.519 115.809C240.409 116.174 241.17 116.794 241.707 117.591C242.243 118.388 242.532 119.327 242.535 120.288C242.531 121.273 242.227 122.234 241.664 123.043C241.1 123.852 240.304 124.47 239.381 124.816C239.13 124.909 238.924 125.095 238.806 125.337C238.689 125.578 238.67 125.856 238.752 126.111C239 126.862 239.297 127.596 239.643 128.307C239.762 128.552 239.972 128.741 240.227 128.835C240.483 128.929 240.765 128.921 241.015 128.812C241.928 128.403 242.943 128.279 243.928 128.455C244.913 128.631 245.823 129.099 246.538 129.799C247.255 130.5 247.734 131.408 247.908 132.396C248.082 133.383 247.943 134.401 247.509 135.305C247.39 135.551 247.373 135.835 247.462 136.093C247.552 136.352 247.74 136.565 247.985 136.686C248.706 137.042 249.449 137.35 250.21 137.61C250.474 137.699 250.763 137.681 251.014 137.561C251.265 137.44 251.459 137.226 251.554 136.964C251.907 136.017 252.541 135.2 253.371 134.623C254.201 134.047 255.188 133.738 256.199 133.738C257.21 133.738 258.196 134.047 259.026 134.623C259.857 135.2 260.491 136.017 260.843 136.964C260.939 137.226 261.133 137.44 261.384 137.561C261.635 137.681 261.924 137.699 262.188 137.61C262.949 137.351 263.692 137.042 264.413 136.686C264.659 136.565 264.847 136.352 264.936 136.093C265.025 135.835 265.009 135.551 264.889 135.305C264.456 134.4 264.316 133.383 264.491 132.396C264.665 131.408 265.144 130.5 265.861 129.799C266.576 129.1 267.486 128.631 268.471 128.456C269.456 128.28 270.471 128.404 271.385 128.812C271.634 128.921 271.916 128.93 272.172 128.836C272.427 128.742 272.637 128.553 272.757 128.308C273.102 127.596 273.4 126.863 273.647 126.111C273.731 125.856 273.712 125.578 273.594 125.337C273.477 125.095 273.271 124.908 273.019 124.816ZM256.2 125.408C255.242 125.393 254.311 125.095 253.522 124.551C252.733 124.008 252.122 123.244 251.766 122.354C251.41 121.465 251.325 120.49 251.521 119.552C251.717 118.615 252.186 117.756 252.869 117.084C253.552 116.412 254.418 115.957 255.358 115.775C256.299 115.594 257.272 115.695 258.156 116.065C259.039 116.435 259.793 117.058 260.324 117.856C260.855 118.653 261.138 119.59 261.138 120.548C261.127 121.847 260.602 123.089 259.676 124C258.75 124.912 257.5 125.418 256.201 125.408H256.2Z" fill="#FB6613" fill-opacity="0.31"/>
</g>
<g clip-path="url(#clip5_2224_618)">
<path d="M52.1652 159.469C53.2547 156.337 54.3586 151.47 53.9057 149.338C52.8415 144.301 48.3551 143.764 46.0934 147.585C45.9432 147.482 45.7895 147.383 45.6325 147.29C41.2555 144.697 38.9446 149.531 38.4327 151.724C38.2809 151.663 38.1261 151.609 37.9691 151.565C33.558 150.254 31.476 156.012 31.476 156.012C31.3332 155.977 31.1886 155.95 31.0431 155.931C26.1543 155.22 24.8864 163.114 28.0342 169.912C29.552 173.117 33.1771 174.451 32.2106 165.712C34.3049 171.604 38.1396 173.629 37.94 159.17C38.7758 167.508 42.1836 174.045 45.3427 161.532C45.8534 165.658 46.9935 166.055 48.3942 164.871C51.1943 162.505 52.1652 159.469 52.1652 159.469Z" fill="white"/>
<path d="M48.1384 165.635C48.3186 165.53 48.5041 165.397 48.696 165.235C51.5275 162.842 52.5405 159.827 52.605 159.628C53.5561 156.893 54.8722 151.662 54.3596 149.249C53.8283 146.734 52.3931 145.024 50.5207 144.677C48.8391 144.366 47.1214 145.226 45.9483 146.938C45.918 146.92 45.888 146.902 45.8586 146.885C44.3851 146.012 42.9891 145.842 41.7118 146.381C39.7321 147.217 38.5784 149.562 38.1111 151.12L38.0849 151.112C36.0995 150.522 34.2393 151.17 32.7118 152.988C31.9195 153.931 31.4183 154.949 31.1877 155.478C31.1541 155.473 31.1213 155.468 31.0885 155.464C29.5191 155.236 28.1848 155.802 27.2417 157.102C25.2442 159.856 25.4009 165.324 27.6143 170.104C28.5078 171.991 29.938 173.087 31.0941 172.773C31.947 172.542 32.85 171.529 32.8363 168.268C33.7603 169.925 34.7907 170.778 35.7535 170.62C35.931 170.591 36.1011 170.529 36.2558 170.438C37.3555 169.798 38.0374 167.637 38.2951 163.983C38.9818 166.669 40.0334 168.834 41.4677 168.971C42.871 169.105 44.1157 167.347 45.2532 163.611C45.5828 164.848 46.0451 165.563 46.6674 165.82C47.1193 166.006 47.6046 165.946 48.1384 165.635ZM51.7227 159.316C51.7077 159.362 50.7432 162.268 48.0921 164.508C47.7688 164.781 47.3173 165.08 47.0022 164.95C46.7583 164.85 46.1535 164.311 45.8036 161.483C45.7901 161.374 45.7395 161.273 45.6607 161.196C45.5818 161.12 45.4795 161.073 45.3716 161.064C45.2636 161.055 45.1567 161.084 45.0693 161.147C44.9819 161.21 44.9194 161.302 44.8927 161.407C43.3032 167.703 41.9216 168.072 41.5362 168.035C40.4238 167.929 38.9473 164.57 38.4022 159.132C38.3901 159.012 38.3325 158.899 38.2415 158.819C38.1504 158.738 38.0329 158.696 37.9134 158.7C37.7939 158.705 37.6816 158.756 37.6001 158.843C37.5186 158.93 37.474 159.046 37.4757 159.167C37.6096 168.868 35.9255 169.637 35.5865 169.692C34.8959 169.806 33.6646 168.423 32.6473 165.561C32.6086 165.452 32.532 165.361 32.432 165.304C32.332 165.247 32.2157 165.228 32.1049 165.252C31.9942 165.276 31.8968 165.341 31.8312 165.433C31.7656 165.526 31.7364 165.64 31.7491 165.755C32.2132 169.951 31.5826 171.663 30.8363 171.865C30.1573 172.049 29.1102 171.105 28.4523 169.716C26.4101 165.306 26.2126 160.125 27.9944 157.668C28.7377 156.643 29.7445 156.215 30.9862 156.396C31.1179 156.412 31.2486 156.437 31.3778 156.469C31.4876 156.495 31.6022 156.48 31.7005 156.427C31.7988 156.374 31.874 156.287 31.9123 156.181C31.9172 156.168 32.4265 154.786 33.4392 153.588C34.7314 152.059 36.2143 151.53 37.8464 152.015C37.9897 152.056 38.1308 152.104 38.2692 152.16C38.331 152.185 38.397 152.196 38.4629 152.193C38.5288 152.19 38.593 152.173 38.6512 152.143C38.7094 152.112 38.7603 152.07 38.8005 152.018C38.8408 151.966 38.8693 151.905 38.8844 151.84C39.175 150.597 40.2175 148.037 42.0843 147.249C43.0794 146.829 44.1962 146.979 45.4039 147.695C45.5519 147.782 45.697 147.875 45.8387 147.973C45.8912 148.009 45.9501 148.034 46.012 148.046C46.0738 148.059 46.1372 148.058 46.1984 148.045C46.2595 148.032 46.3172 148.006 46.3679 147.97C46.4185 147.933 46.4611 147.887 46.4931 147.833C47.4637 146.193 48.9498 145.338 50.3715 145.602C51.8519 145.876 53.0034 147.306 53.4516 149.427C53.8577 151.34 52.8934 155.952 51.7264 159.305L51.7227 159.316Z" fill="#232323"/>
<path d="M42.437 168.794C43.6609 168.081 44.7658 165.726 45.7931 161.657C45.8234 161.537 45.8051 161.408 45.7421 161.3C45.6791 161.192 45.5766 161.112 45.4572 161.079C45.3378 161.046 45.2112 161.062 45.1053 161.123C44.9994 161.185 44.9229 161.287 44.8926 161.407C43.2922 167.746 41.9246 168.12 41.5433 168.084C40.9784 168.03 40.3122 167.081 39.761 165.545C39.1791 163.924 38.7247 161.695 38.4814 159.268C38.2241 156.704 38.4714 154.36 38.7467 152.178C38.7652 152.008 38.7873 151.839 38.8131 151.67C38.8311 151.547 38.7999 151.421 38.7264 151.32C38.653 151.218 38.5432 151.15 38.4214 151.129C38.2995 151.108 38.1755 151.137 38.0766 151.209C37.9777 151.282 37.9121 151.391 37.8941 151.514C37.8665 151.702 37.8424 151.872 37.824 152.051C37.5431 154.276 37.29 156.681 37.5571 159.344C37.808 161.846 38.2808 164.157 38.8885 165.849C39.6092 167.858 40.4794 168.924 41.4749 169.019C41.8037 169.051 42.1245 168.976 42.437 168.794Z" fill="#232323"/>
<path d="M36.2558 170.438C37.7733 169.555 38.4957 165.774 38.4045 159.173L38.4041 159.145C38.4032 159.083 38.3903 159.022 38.3661 158.965C38.3419 158.908 38.3069 158.856 38.2631 158.812C38.2193 158.768 38.1676 158.733 38.1108 158.709C38.0541 158.686 37.9936 158.673 37.9326 158.673C37.8716 158.672 37.8114 158.684 37.7554 158.708C37.6994 158.731 37.6487 158.765 37.6062 158.809C37.5638 158.852 37.5303 158.904 37.5079 158.961C37.4854 159.017 37.4743 159.079 37.4752 159.14L37.4757 159.167C37.6098 168.868 35.9252 169.637 35.5866 169.692C34.8958 169.806 33.6645 168.423 32.6474 165.561C31.6728 162.817 31.3868 159.701 31.8202 156.55C31.8485 156.333 31.8829 156.118 31.9233 155.904C31.9458 155.782 31.9191 155.655 31.8493 155.551C31.7795 155.447 31.6723 155.374 31.5511 155.349C31.43 155.324 31.3049 155.348 31.2034 155.417C31.1019 155.485 31.0323 155.592 31.0099 155.714C30.9666 155.944 30.9298 156.174 30.8995 156.406C30.4458 159.703 30.748 162.975 31.774 165.863C32.9117 169.064 34.3994 170.842 35.7535 170.62C35.931 170.591 36.1011 170.529 36.2558 170.438Z" fill="#232323"/>
<path d="M31.4694 172.616C32.3822 172.085 33.1943 170.391 32.6721 165.669C32.6653 165.608 32.6467 165.548 32.6172 165.494C32.5877 165.439 32.548 165.391 32.5003 165.351C32.4527 165.312 32.398 165.282 32.3394 165.264C32.2808 165.245 32.2194 165.239 32.1588 165.244C32.0982 165.25 32.0395 165.268 31.9862 165.296C31.9328 165.325 31.8857 165.364 31.8477 165.412C31.8096 165.459 31.7813 165.514 31.7644 165.573C31.7475 165.632 31.7423 165.694 31.7491 165.755C32.2117 169.937 31.5839 171.653 30.8438 171.863C30.6843 171.909 30.2258 171.867 29.6326 171.386C28.7082 170.636 26.5982 168.072 26.9694 160.484C26.9731 160.422 26.9646 160.36 26.9444 160.3C26.9242 160.241 26.8927 160.187 26.8517 160.14C26.8107 160.092 26.7611 160.054 26.7056 160.026C26.6502 159.998 26.59 159.981 26.5287 159.977C26.4673 159.973 26.406 159.981 26.3482 160.001C26.2905 160.021 26.2374 160.052 26.1921 160.093C26.1468 160.134 26.1102 160.184 26.0844 160.24C26.0586 160.296 26.0441 160.356 26.0417 160.418C25.8864 163.592 26.1428 166.27 26.8036 168.377C27.4664 170.49 28.3967 171.576 29.0605 172.115C29.7676 172.689 30.5347 172.933 31.1121 172.769C31.231 172.735 31.3512 172.685 31.4694 172.616ZM48.4976 165.612C48.6727 165.51 48.8563 165.378 49.0473 165.211C49.6381 164.694 51.0824 163.011 52.3194 160.338C53.8135 157.111 54.5314 153.462 54.3955 149.787C54.3899 149.664 54.3362 149.546 54.246 149.46C54.1559 149.374 54.0366 149.328 53.9142 149.33C53.7918 149.332 53.6762 149.383 53.5925 149.471C53.5088 149.56 53.4638 149.679 53.4673 149.803C53.7734 158.078 49.5732 163.496 48.4316 164.494C48.0965 164.788 47.6073 165.101 47.1804 164.929C46.8798 164.808 46.1437 164.231 45.8038 161.483C45.2486 156.999 45.5741 153.99 45.9859 150.181C46.0797 149.327 46.1688 148.473 46.2532 147.618C46.2597 147.557 46.2541 147.494 46.2367 147.434C46.2192 147.375 46.1903 147.319 46.1516 147.27C46.1129 147.221 46.0652 147.18 46.0112 147.149C45.9571 147.119 45.8979 147.099 45.8369 147.092C45.7759 147.085 45.7142 147.09 45.6556 147.107C45.597 147.124 45.5424 147.152 45.4952 147.191C45.448 147.229 45.4089 147.277 45.3804 147.331C45.3518 147.386 45.3343 147.445 45.3288 147.507C45.2409 148.408 45.1502 149.248 45.0624 150.06C44.6438 153.93 44.3133 156.987 44.8819 161.581C45.1781 163.975 45.8411 165.395 46.8525 165.802C47.2322 165.954 47.7983 166.019 48.4976 165.612Z" fill="#232323"/>
</g>
<g clip-path="url(#clip6_2224_618)">
<path d="M261.569 82.2955C260.32 81.8336 259.24 81.0045 258.471 79.9172C257.701 78.8299 257.279 77.5351 257.258 76.2029C257.238 74.8708 257.62 73.5636 258.356 72.4531C259.091 71.3426 260.145 70.4807 261.38 69.9806C261.72 69.8444 261.995 69.5817 262.146 69.2475C262.298 68.9132 262.315 68.5333 262.193 68.1871C261.828 67.1763 261.396 66.1909 260.901 65.2372C260.738 64.9216 260.464 64.6772 260.132 64.5509C259.8 64.4246 259.433 64.4251 259.101 64.5524C257.872 65.0463 256.526 65.1717 255.228 64.9135C253.929 64.6552 252.733 64.0243 251.787 63.0978C250.867 62.198 250.233 61.0476 249.962 59.7896C249.691 58.5316 249.795 57.2216 250.262 56.0226C250.385 55.6911 250.378 55.3255 250.244 54.9987C250.109 54.672 249.856 54.4081 249.535 54.2597C248.552 53.7875 247.538 53.3804 246.502 53.0409C246.168 52.9273 245.804 52.9397 245.479 53.0758C245.154 53.2119 244.89 53.4622 244.736 53.7797C244.196 54.9568 243.328 55.9533 242.237 56.6504C241.146 57.3474 239.878 57.7155 238.583 57.7107C237.289 57.7154 236.021 57.3473 234.93 56.6502C233.839 55.9532 232.971 54.9567 232.431 53.7797C232.278 53.4622 232.013 53.2119 231.688 53.0758C231.363 52.9397 230.999 52.9273 230.665 53.0409C229.629 53.3809 228.615 53.788 227.631 54.2597C227.31 54.4081 227.057 54.672 226.922 54.9987C226.788 55.3255 226.781 55.6911 226.904 56.0226C227.371 57.2216 227.475 58.5316 227.204 59.7896C226.933 61.0476 226.299 62.198 225.379 63.0978C224.432 64.0243 223.237 64.6552 221.938 64.9135C220.639 65.1717 219.294 65.0463 218.065 64.5524C217.733 64.4245 217.366 64.4238 217.034 64.5503C216.701 64.6768 216.428 64.9217 216.265 65.2379C215.77 66.1915 215.338 67.1767 214.973 68.1871C214.851 68.5333 214.868 68.9133 215.019 69.2475C215.171 69.5817 215.446 69.8444 215.786 69.9806C217.002 70.479 218.042 71.3268 218.775 72.4168C219.509 73.5067 219.903 74.7899 219.908 76.104C219.902 77.4517 219.487 78.7658 218.717 79.8716C217.947 80.9775 216.859 81.8229 215.598 82.2955C215.254 82.4227 214.972 82.6779 214.812 83.0079C214.651 83.3379 214.625 83.7172 214.737 84.0664C215.076 85.0934 215.483 86.0967 215.955 87.0696C216.118 87.4042 216.404 87.6628 216.754 87.7913C217.103 87.9199 217.489 87.9085 217.83 87.7597C219.078 87.2011 220.466 87.031 221.812 87.2716C223.158 87.5122 224.401 88.1523 225.379 89.1088C226.358 90.0677 227.013 91.3095 227.251 92.6598C227.489 94.0101 227.298 95.4011 226.705 96.6373C226.542 96.9743 226.52 97.3621 226.642 97.7159C226.764 98.0696 227.021 98.3607 227.357 98.5255C228.341 99.0127 229.357 99.4347 230.397 99.789C230.758 99.9112 231.152 99.8872 231.495 99.7223C231.839 99.5574 232.104 99.2646 232.234 98.9065C232.716 97.6112 233.583 96.4944 234.717 95.7059C235.852 94.9173 237.2 94.4947 238.582 94.4947C239.963 94.4947 241.311 94.9173 242.446 95.7059C243.58 96.4944 244.447 97.6112 244.929 98.9065C245.059 99.2645 245.325 99.5573 245.668 99.7222C246.011 99.8871 246.405 99.9111 246.766 99.789C247.806 99.4349 248.822 99.0129 249.807 98.5255C250.143 98.3609 250.4 98.0699 250.522 97.716C250.644 97.3621 250.621 96.9743 250.458 96.6373C249.866 95.401 249.676 94.0101 249.914 92.6599C250.152 91.3097 250.807 90.0681 251.786 89.1095C252.764 88.153 254.007 87.5129 255.353 87.2723C256.699 87.0317 258.087 87.2017 259.335 87.7603C259.676 87.9092 260.062 87.9205 260.411 87.792C260.761 87.6634 261.047 87.4049 261.21 87.0703C261.683 86.0976 262.09 85.0943 262.428 84.0671C262.541 83.718 262.516 83.3383 262.355 83.0079C262.195 82.6776 261.913 82.4222 261.569 82.2955ZM238.583 83.1053C237.274 83.0843 236.001 82.6768 234.923 81.9339C233.844 81.1909 233.01 80.1458 232.523 78.9296C232.037 77.7135 231.92 76.3806 232.189 75.0985C232.457 73.8164 233.098 72.6421 234.031 71.7233C234.964 70.8044 236.147 70.182 237.433 69.9341C238.718 69.6863 240.048 69.824 241.256 70.3301C242.463 70.8362 243.494 71.6881 244.219 72.7787C244.944 73.8693 245.331 75.15 245.331 76.4599C245.317 78.2363 244.599 79.9344 243.333 81.1806C242.068 82.4268 240.36 83.1191 238.585 83.1053H238.583Z" fill="#FB6613" fill-opacity="0.31"/>
</g>
<g clip-path="url(#clip7_2224_618)">
<path d="M313.06 112.505C312.335 112.236 311.708 111.754 311.261 111.121C310.815 110.488 310.569 109.734 310.557 108.959C310.545 108.183 310.768 107.422 311.195 106.776C311.622 106.129 312.233 105.628 312.95 105.337C313.148 105.257 313.307 105.104 313.395 104.91C313.483 104.715 313.493 104.494 313.422 104.293C313.21 103.704 312.959 103.131 312.672 102.576C312.577 102.392 312.418 102.25 312.225 102.176C312.033 102.103 311.82 102.103 311.627 102.177C310.914 102.464 310.133 102.537 309.379 102.387C308.625 102.237 307.931 101.87 307.381 101.33C306.848 100.806 306.479 100.137 306.322 99.4046C306.164 98.6723 306.225 97.9098 306.496 97.2119C306.568 97.0189 306.564 96.8061 306.485 96.6159C306.407 96.4257 306.26 96.272 306.074 96.1857C305.503 95.9109 304.915 95.6739 304.313 95.4762C304.12 95.4101 303.909 95.4173 303.72 95.4965C303.531 95.5758 303.378 95.7215 303.288 95.9063C302.975 96.5915 302.471 97.1715 301.838 97.5773C301.205 97.983 300.468 98.1973 299.717 98.1945C298.965 98.1972 298.229 97.9829 297.596 97.5772C296.963 97.1714 296.459 96.5914 296.146 95.9063C296.056 95.7215 295.903 95.5758 295.714 95.4965C295.525 95.4173 295.314 95.4101 295.121 95.4762C294.519 95.6741 293.93 95.9111 293.359 96.1857C293.173 96.272 293.026 96.4257 292.948 96.6159C292.87 96.8061 292.866 97.0189 292.937 97.2119C293.208 97.9098 293.269 98.6723 293.112 99.4046C292.954 100.137 292.586 100.806 292.052 101.33C291.502 101.87 290.808 102.237 290.055 102.387C289.301 102.537 288.519 102.464 287.806 102.177C287.614 102.103 287.4 102.102 287.208 102.176C287.015 102.249 286.856 102.392 286.761 102.576C286.474 103.131 286.223 103.705 286.011 104.293C285.941 104.494 285.95 104.715 286.038 104.91C286.126 105.104 286.286 105.257 286.484 105.337C287.189 105.627 287.793 106.12 288.219 106.755C288.644 107.389 288.873 108.136 288.876 108.901C288.873 109.686 288.631 110.45 288.185 111.094C287.738 111.738 287.106 112.23 286.374 112.505C286.174 112.579 286.011 112.728 285.918 112.92C285.825 113.112 285.809 113.333 285.875 113.536C286.071 114.134 286.307 114.718 286.581 115.284C286.676 115.479 286.842 115.629 287.045 115.704C287.248 115.779 287.472 115.772 287.67 115.686C288.394 115.361 289.2 115.262 289.981 115.402C290.763 115.542 291.484 115.914 292.052 116.471C292.62 117.029 293 117.752 293.139 118.538C293.277 119.324 293.166 120.134 292.822 120.853C292.727 121.049 292.714 121.275 292.785 121.481C292.856 121.687 293.005 121.856 293.2 121.952C293.772 122.236 294.361 122.482 294.965 122.688C295.174 122.759 295.403 122.745 295.602 122.649C295.802 122.553 295.956 122.383 296.031 122.174C296.311 121.42 296.814 120.77 297.473 120.311C298.131 119.852 298.914 119.606 299.716 119.606C300.518 119.606 301.3 119.852 301.959 120.311C302.618 120.77 303.121 121.42 303.4 122.174C303.476 122.383 303.63 122.553 303.829 122.649C304.029 122.745 304.257 122.759 304.467 122.688C305.071 122.482 305.66 122.236 306.232 121.952C306.427 121.857 306.576 121.687 306.647 121.481C306.718 121.275 306.705 121.049 306.61 120.853C306.266 120.134 306.156 119.324 306.294 118.538C306.432 117.752 306.812 117.029 307.381 116.471C307.949 115.915 308.67 115.542 309.452 115.402C310.233 115.262 311.038 115.361 311.763 115.686C311.961 115.773 312.185 115.779 312.388 115.704C312.59 115.63 312.757 115.479 312.852 115.284C313.126 114.718 313.362 114.134 313.558 113.536C313.624 113.333 313.609 113.112 313.516 112.92C313.423 112.727 313.26 112.579 313.06 112.505ZM299.717 112.976C298.957 112.964 298.218 112.727 297.592 112.295C296.966 111.862 296.481 111.254 296.199 110.546C295.917 109.838 295.849 109.062 296.005 108.316C296.161 107.569 296.533 106.886 297.074 106.351C297.616 105.816 298.303 105.454 299.049 105.31C299.795 105.165 300.567 105.246 301.268 105.54C301.969 105.835 302.568 106.331 302.988 106.965C303.409 107.6 303.634 108.346 303.634 109.108C303.626 110.142 303.209 111.131 302.474 111.856C301.74 112.581 300.748 112.984 299.718 112.976H299.717Z" fill="#232323"/>
</g>
<g clip-path="url(#clip8_2224_618)">
<path d="M268.623 169.624C265.504 158.385 266.701 142.473 272.519 153.383C274.839 157.732 277.078 164.767 285.418 171.122" fill="white"/>
<path d="M285.93 170.975C285.9 170.868 285.835 170.774 285.746 170.706C278.969 165.541 276.24 159.837 274.247 155.672C273.813 154.765 273.403 153.908 272.991 153.135C271.34 150.039 269.903 148.789 268.599 149.312C266.713 150.067 266.42 154.547 266.414 157.15C266.404 161.314 267.069 166.145 268.195 170.072C268.233 170.205 268.324 170.318 268.447 170.385C268.571 170.452 268.716 170.468 268.852 170.429C268.989 170.39 269.104 170.299 269.173 170.177C269.242 170.055 269.259 169.911 269.221 169.778C268.121 165.939 267.47 161.215 267.48 157.143C267.49 152.82 268.247 150.583 268.992 150.284C269.498 150.082 270.566 150.854 272.047 153.631C272.448 154.383 272.854 155.23 273.283 156.127C275.321 160.387 278.112 166.221 285.089 171.539C285.178 171.607 285.286 171.645 285.398 171.648C285.511 171.651 285.621 171.619 285.715 171.556C285.808 171.493 285.879 171.404 285.918 171.299C285.957 171.195 285.961 171.081 285.93 170.975L285.93 170.975Z" fill="#232323"/>
</g>
<defs>
<clipPath id="clip0_2224_618">
<rect width="307.067" height="210" fill="white" transform="matrix(-1 0 0 1 317.333 126.233)"/>
</clipPath>
<clipPath id="clip1_2224_618">
<rect width="165.667" height="156.1" fill="white" transform="matrix(-1 0 0 1 343.467 17.5)"/>
</clipPath>
<clipPath id="clip2_2224_618">
<rect width="17.2667" height="104.3" fill="white" transform="translate(106.389 106.456) rotate(52.5559)"/>
</clipPath>
<clipPath id="clip3_2224_618">
<rect width="35" height="32.6667" fill="white" transform="translate(73.0333 78.4)"/>
</clipPath>
<clipPath id="clip4_2224_618">
<rect width="35" height="34.3" fill="white" transform="translate(238.7 103.367)"/>
</clipPath>
<clipPath id="clip5_2224_618">
<rect width="34.3" height="20.0667" fill="white" transform="matrix(-0.86422 0.503114 0.503114 0.86422 50.2568 141.367)"/>
</clipPath>
<clipPath id="clip6_2224_618">
<rect width="47.8333" height="46.9" fill="white" transform="translate(214.667 52.9667)"/>
</clipPath>
<clipPath id="clip7_2224_618">
<rect width="27.7667" height="27.3" fill="white" transform="translate(285.833 95.4333)"/>
</clipPath>
<clipPath id="clip8_2224_618">
<rect width="26.1333" height="16.8" fill="white" transform="matrix(0.275517 0.961296 0.961296 -0.275517 262.725 150.987)"/>
</clipPath>
</defs>
</svg>
