<svg width="487" height="399" viewBox="0 0 487 399" fill="none" xmlns="http://www.w3.org/2000/svg">
<g clip-path="url(#clip0_2432_747)">
<path d="M356.457 328.478C360.323 329.834 364.474 330.174 368.511 329.464C372.547 328.755 376.332 327.02 379.501 324.426C387.573 317.665 390.104 306.526 392.163 296.212L398.253 265.705L385.502 274.467C376.332 280.769 366.956 287.272 360.607 296.399C354.258 305.526 351.486 317.986 356.588 327.862" fill="#E6E6E6"/>
<path d="M357.546 365.413C356.256 356.031 354.929 346.529 355.834 337.046C356.638 328.625 359.212 320.4 364.454 313.655C367.236 310.082 370.621 307.021 374.457 304.609C375.457 303.979 376.378 305.561 375.382 306.188C368.744 310.375 363.61 316.557 360.72 323.843C357.528 331.946 357.016 340.778 357.566 349.386C357.898 354.591 358.603 359.762 359.314 364.927C359.37 365.16 359.335 365.406 359.216 365.615C359.097 365.824 358.903 365.98 358.674 366.052C358.439 366.115 358.19 366.083 357.979 365.963C357.768 365.844 357.612 365.646 357.546 365.413Z" fill="#F2F2F2"/>
<path d="M369.977 348.811C371.635 351.327 373.915 353.373 376.596 354.754C379.277 356.135 382.269 356.804 385.284 356.696C393.032 356.329 399.492 350.932 405.307 345.808L422.507 330.652L411.123 330.108C402.937 329.717 394.54 329.353 386.743 331.872C378.946 334.391 371.755 340.455 370.329 348.509" fill="#E6E6E6"/>
<path d="M353.899 370.806C360.111 359.837 367.316 347.645 380.19 343.749C383.77 342.669 387.524 342.282 391.249 342.609C392.423 342.71 392.13 344.517 390.958 344.416C384.713 343.898 378.481 345.544 373.31 349.075C368.334 352.456 364.46 357.155 361.181 362.138C359.172 365.191 357.373 368.373 355.573 371.551C354.998 372.566 353.317 371.833 353.899 370.806Z" fill="#F2F2F2"/>
<path d="M200.799 293.744C193.179 296.417 184.997 297.087 177.042 295.688C169.087 294.29 161.627 290.87 155.381 285.759C139.473 272.434 134.485 250.481 130.427 230.153C126.426 210.112 122.425 190.07 118.424 170.028L143.554 187.298C161.627 199.717 180.106 212.534 192.619 230.522C205.133 248.511 210.595 273.066 200.541 292.531" fill="#E6E6E6"/>
<path d="M198.651 366.538C201.194 348.048 203.81 329.32 202.026 310.632C200.441 294.034 195.367 277.823 185.038 264.531C179.555 257.49 172.883 251.456 165.323 246.702C163.351 245.46 161.537 248.578 163.5 249.815C176.582 258.066 186.7 270.25 192.396 284.61C198.687 300.579 199.697 317.987 198.613 334.951C197.957 345.21 196.568 355.401 195.168 365.58C195.057 366.04 195.126 366.525 195.36 366.936C195.595 367.348 195.977 367.656 196.429 367.797C196.891 367.921 197.383 367.859 197.799 367.623C198.215 367.387 198.521 366.997 198.651 366.538Z" fill="#F2F2F2"/>
<path d="M174.152 333.819C170.884 338.776 166.391 342.81 161.108 345.532C155.824 348.253 149.927 349.571 143.985 349.358C128.714 348.634 115.982 337.997 104.522 327.899L70.6238 298.029L93.0586 296.958C109.192 296.187 125.743 295.468 141.109 300.434C156.476 305.399 170.649 317.349 173.458 333.223" fill="#E6E6E6"/>
<path d="M205.839 377.167C193.597 355.548 179.396 331.521 154.023 323.842C146.968 321.714 139.57 320.951 132.228 321.596C129.914 321.795 130.492 325.355 132.802 325.156C145.109 324.136 157.392 327.379 167.583 334.339C177.39 341.001 185.025 350.263 191.488 360.085C195.447 366.101 198.993 372.372 202.54 378.635C203.673 380.637 206.986 379.192 205.839 377.167Z" fill="#F2F2F2"/>
<path d="M111.348 84.4805L5.94036 62.4407L4.57053 62.1549C3.87292 62.008 3.14791 62.0606 2.47891 62.3066C1.8099 62.5526 1.22406 62.9821 0.788758 63.5457C0.353452 64.1092 0.0863681 64.7839 0.0182054 65.4922C-0.0499573 66.2005 0.0835823 66.9136 0.403458 67.5495L42.7052 152.013C42.979 152.556 43.3794 153.025 43.8727 153.381C44.366 153.737 44.9378 153.97 45.5399 154.059C46.1439 154.149 46.7608 154.091 47.3374 153.89C47.9139 153.689 48.4327 153.351 48.8489 152.905L77.6989 122.182C77.904 121.958 78.1535 121.779 78.4315 121.656C78.7094 121.533 79.01 121.469 79.3141 121.467C79.7274 121.459 80.1352 121.563 80.4939 121.768C80.8525 121.973 81.1485 122.272 81.3501 122.632L87.3619 133.574C87.7459 134.304 88.3634 134.884 89.1162 135.223C89.869 135.562 90.7137 135.64 91.5159 135.444L91.5454 135.437C92.3575 135.261 93.0865 134.817 93.6152 134.177C94.1438 133.536 94.4414 132.738 94.4602 131.908L95.5007 106.562C95.513 106.246 95.5903 105.936 95.7277 105.65C95.8754 105.368 96.0766 105.117 96.3202 104.911L112.987 91.0911C113.535 90.6368 113.944 90.0377 114.166 89.3625C114.388 88.6872 114.416 87.963 114.244 87.273C114.073 86.583 113.711 85.955 113.199 85.4611C112.687 84.9672 112.045 84.6273 111.348 84.4805ZM112.024 89.9303L95.3569 103.751C95.1397 103.927 94.9431 104.128 94.7709 104.349L5.76349 64.6972C5.68498 64.6613 5.60312 64.6332 5.51911 64.6132C5.1762 64.5272 4.81394 64.5635 4.49499 64.7158C4.17604 64.8681 3.92047 65.1269 3.77244 65.4473C3.62441 65.7678 3.59323 66.1298 3.68433 66.4707C3.77542 66.8117 3.98304 67.1102 4.27129 67.3145L77.577 120.389C77.2078 120.583 76.8749 120.84 76.593 121.147L47.7434 151.869C47.4931 152.135 47.1821 152.337 46.8369 152.457C46.4917 152.578 46.1224 152.613 45.7605 152.561C45.3986 152.508 45.0548 152.369 44.7582 152.156C44.4616 151.942 44.221 151.661 44.0569 151.334L1.75522 66.8706C1.56609 66.489 1.48816 66.062 1.53033 65.6383C1.5725 65.2146 1.73307 64.8113 1.99374 64.4742C2.2544 64.1372 2.60466 63.88 3.00466 63.7319C3.40465 63.5838 3.83828 63.5509 4.25613 63.6368L5.65847 63.9305L111.034 85.9624C111.452 86.0502 111.837 86.2538 112.145 86.5499C112.453 86.846 112.671 87.2227 112.774 87.6368C112.878 88.0508 112.862 88.4855 112.729 88.8911C112.597 89.2967 112.352 89.6569 112.024 89.9303Z" fill="#CCCCCC"/>
<path d="M111.348 84.4805L5.94036 62.4407L4.57053 62.1549C3.87292 62.008 3.14791 62.0606 2.47891 62.3066C1.8099 62.5526 1.22406 62.9821 0.788758 63.5457C0.353452 64.1092 0.0863681 64.7839 0.0182054 65.4922C-0.0499573 66.2005 0.0835823 66.9136 0.403458 67.5495L42.7052 152.013C42.979 152.556 43.3794 153.025 43.8727 153.381C44.366 153.737 44.9378 153.97 45.5399 154.059C46.1439 154.149 46.7608 154.091 47.3374 153.89C47.9139 153.689 48.4327 153.351 48.8489 152.905L77.6989 122.182C77.904 121.958 78.1535 121.779 78.4315 121.656C78.7094 121.533 79.01 121.469 79.3141 121.467C79.7274 121.459 80.1352 121.563 80.4939 121.768C80.8525 121.973 81.1485 122.272 81.3501 122.632L87.3619 133.574C87.7459 134.304 88.3634 134.884 89.1162 135.223C89.869 135.562 90.7137 135.64 91.5159 135.444L91.5454 135.437C92.3575 135.261 93.0865 134.817 93.6152 134.177C94.1438 133.536 94.4414 132.738 94.4602 131.908L95.5007 106.562C95.513 106.246 95.5903 105.936 95.7277 105.65C95.8754 105.368 96.0766 105.117 96.3202 104.911L112.987 91.0911C113.535 90.6368 113.944 90.0377 114.166 89.3625C114.388 88.6872 114.416 87.963 114.244 87.273C114.073 86.583 113.711 85.955 113.199 85.4611C112.687 84.9672 112.045 84.6273 111.348 84.4805ZM112.024 89.9303L95.3568 103.751C95.1396 103.927 94.9431 104.128 94.7708 104.349C94.6155 104.545 94.4816 104.757 94.3714 104.982C94.256 105.212 94.1653 105.453 94.1011 105.702L94.1028 105.709C94.0349 105.969 93.9965 106.235 93.9883 106.503L92.9482 131.848C92.9411 132.347 92.7644 132.828 92.4471 133.213C92.1297 133.597 91.6906 133.863 91.202 133.965L91.1872 133.969C90.7058 134.091 90.1971 134.048 89.7437 133.845C89.2902 133.643 88.9184 133.294 88.6888 132.854L82.6752 121.905C82.3654 121.342 81.9165 120.867 81.3712 120.526C80.8259 120.184 80.2022 119.988 79.5593 119.954L79.5521 119.956C79.4656 119.952 79.3794 119.949 79.2949 119.952C78.6953 119.956 78.1056 120.106 77.5771 120.389C77.2079 120.583 76.875 120.84 76.5931 121.147L47.7434 151.869C47.4931 152.135 47.1821 152.337 46.8369 152.457C46.4917 152.578 46.1224 152.613 45.7605 152.561C45.3986 152.508 45.0548 152.369 44.7582 152.156C44.4616 151.942 44.221 151.661 44.0569 151.334L1.75522 66.8706C1.56609 66.489 1.48816 66.062 1.53033 65.6383C1.5725 65.2146 1.73307 64.8113 1.99374 64.4742C2.2544 64.1372 2.60466 63.88 3.00466 63.7319C3.40465 63.5838 3.83828 63.5509 4.25613 63.6368L5.65847 63.9305L111.034 85.9624C111.452 86.0502 111.837 86.2538 112.145 86.5499C112.453 86.846 112.671 87.2227 112.774 87.6368C112.878 88.0508 112.862 88.4855 112.729 88.8911C112.597 89.2967 112.352 89.6569 112.024 89.9303Z" fill="#3F3D56"/>
<path d="M95.1077 104.497L94.4903 105.877L94.1029 105.709L94.1012 105.702L5.16434 66.0889L79.5521 119.956L79.5594 119.954L79.7564 120.103L78.8706 121.327L77.5772 120.389L4.27136 67.3146C3.9831 67.1103 3.77547 66.8118 3.68437 66.4708C3.59328 66.1298 3.62442 65.7678 3.77246 65.4473C3.9205 65.1269 4.1761 64.8681 4.49507 64.7158C4.81403 64.5635 5.17631 64.5273 5.51923 64.6133C5.60324 64.6332 5.6851 64.6614 5.76361 64.6973L94.7709 104.349L95.1077 104.497Z" fill="#3F3D56"/>
<path d="M323.959 210.095L327.805 247.629L327.881 248.4L329.024 259.531L338.414 351.181V351.196L340.238 368.977C339.526 369.932 338.895 370.946 338.353 372.007C336.699 375.265 335.89 378.885 336.002 382.535C336.113 386.186 337.14 389.75 338.989 392.902C343.57 391.753 348.088 390.443 352.543 388.972C361.759 385.947 370.747 382.27 379.438 377.969C378.534 373.005 375.937 368.506 372.086 365.236L362.659 252.194L361.834 242.279L359.146 210.095H323.959Z" fill="#FFB8B8"/>
<path d="M350.919 107.864C370.361 88.4611 370.361 57.0028 350.919 37.5999C331.478 18.197 299.956 18.1971 280.515 37.5999C261.073 57.0028 261.073 88.4611 280.515 107.864C299.956 127.267 331.478 127.267 350.919 107.864Z" fill="#FFB8B8"/>
<path d="M222.926 277.796C222.934 277.894 222.941 277.993 222.949 278.083C223.114 280.022 223.896 281.856 225.181 283.319C226.466 284.782 228.186 285.797 230.089 286.215L304.385 302.409C305.029 302.549 305.687 302.62 306.346 302.62C308.339 302.62 310.277 301.966 311.862 300.761C313.447 299.556 314.592 297.865 315.122 295.948C315.281 295.358 315.455 294.754 315.645 294.126V294.119C318.151 285.625 322.626 274.063 329.024 259.531C330.471 256.244 332.018 252.801 333.666 249.201C333.969 248.536 334.279 247.864 334.582 247.191C337.982 239.823 341.775 231.848 345.963 223.266C348.012 219.071 349.559 214.65 350.574 210.095C353.271 198.068 352.206 185.505 347.523 174.102C346.569 171.78 345.469 169.521 344.229 167.338C339.339 158.735 332.41 151.459 324.048 146.148C315.687 140.838 306.148 137.654 296.268 136.877C294.7 136.748 293.141 136.688 291.573 136.688C275.896 136.757 260.848 142.851 249.557 153.706C242.894 160.153 237.834 168.067 234.784 176.814C234.587 177.366 234.405 177.925 234.223 178.485C231.426 187.335 229.18 196.35 227.499 205.477C226.492 210.896 225.675 216.238 225.016 221.445C222.707 240.135 222.007 258.987 222.926 277.796Z" fill="#FF6D00"/>
<path d="M190.207 372.74C235.345 398.344 288.645 405.567 338.989 392.902C343.57 391.753 348.088 390.443 352.543 388.972C348.59 376.111 343.872 363.496 338.414 351.196V351.181C329.312 330.815 320.953 318.354 316.879 312.852C316.209 311.941 315.768 310.883 315.593 309.767C315.418 308.65 315.513 307.508 315.872 306.437L317.136 302.651C317.618 301.218 317.733 299.688 317.473 298.2C317.212 296.712 316.584 295.311 315.645 294.127V294.119C315.561 294.013 315.47 293.907 315.38 293.802C282.282 256.169 224.584 276.701 224.001 276.912L223.713 277.018L223.532 277.267C223.335 277.539 223.138 277.804 222.949 278.083C207.305 299.96 196.909 333.588 190.207 372.74Z" fill="#2F2E41"/>
<path d="M122.177 130.445C122.426 131.537 122.588 132.646 122.662 133.763L209.734 183.894L230.898 171.735L253.46 201.213L218.089 226.373C215.232 228.405 211.791 229.458 208.283 229.373C204.775 229.287 201.389 228.069 198.634 225.9L108.848 155.208C104.796 156.705 100.383 156.935 96.1971 155.868C92.0107 154.801 88.2491 152.488 85.4125 149.235C82.5758 145.982 80.7987 141.945 80.3174 137.66C79.8361 133.374 80.6734 129.044 82.7181 125.246C84.7628 121.447 87.9178 118.36 91.7636 116.394C95.6094 114.429 99.9636 113.678 104.247 114.243C108.531 114.807 112.541 116.66 115.743 119.554C118.946 122.448 121.19 126.247 122.177 130.445Z" fill="#FFB8B8"/>
<path d="M211.068 183.124V183.132C211.384 184.27 211.919 185.335 212.643 186.268L227.499 205.477L234.579 214.644L240.788 222.669C241.589 223.705 242.603 224.556 243.763 225.165C244.923 225.774 246.201 226.126 247.509 226.198C248.818 226.27 250.126 226.059 251.346 225.581C252.566 225.102 253.668 224.367 254.577 223.425L277.126 200.059L286.432 190.409C291.719 186.292 295.155 180.249 295.985 173.608C296.816 166.966 294.973 160.266 290.861 154.979C286.75 149.691 280.705 146.246 274.052 145.4C267.399 144.553 260.681 146.374 255.372 150.464L249.557 153.706L215.415 172.764C213.636 173.759 212.242 175.32 211.454 177.197C210.667 179.075 210.531 181.161 211.068 183.124Z" fill="#FF6D00"/>
<path d="M309.549 195.17L310.973 240.549L310.98 240.836C311.02 242.144 311.343 243.428 311.926 244.6C312.508 245.773 313.338 246.806 314.357 247.629C315.376 248.453 316.561 249.047 317.831 249.372C319.102 249.696 320.427 249.744 321.717 249.511L327.881 248.4L329.456 248.113H329.463L334.582 247.191L361.834 242.279L367.051 241.342C368.34 241.108 369.564 240.6 370.639 239.852C371.713 239.104 372.614 238.134 373.28 237.008C373.946 235.882 374.361 234.626 374.498 233.325C374.634 232.024 374.488 230.71 374.07 229.47L359.373 186.041C358.144 179.463 354.351 173.639 348.826 169.847C343.301 166.055 336.495 164.604 329.9 165.812C323.305 167.02 317.459 170.79 313.644 176.293C309.829 181.796 308.357 188.585 309.549 195.17Z" fill="#6C63FF"/>
<path d="M307.838 61.3039C295.042 70.0438 278.241 79.0279 265.173 69.7207C256.592 63.6093 253.888 52.2926 257.368 42.3614C263.625 24.5022 280.818 16.6398 297.259 10.6131C318.632 2.77831 341.904 -3.45458 363.968 2.15628C386.032 7.76713 405.531 29.0868 401.548 51.4599C398.345 69.4519 381.34 84.4227 383.754 102.537C386.184 120.767 406.727 130.364 424.863 133.622C443 136.88 463.295 137.927 476.329 150.928C492.956 167.513 488.804 197.157 473.158 214.668C457.513 232.179 433.903 240.116 411.025 245.512C380.713 252.662 347.928 256.419 319.14 244.554C290.351 232.689 267.948 200.75 276.288 170.8C279.81 158.149 288.109 147.458 296.128 137.049C304.148 126.64 312.269 115.756 315.328 102.986C317.878 92.3441 315.991 79.9884 308.919 72.0058C307.633 70.6086 306.824 68.8405 306.607 66.9556C306.391 65.0706 306.779 63.1656 307.715 61.5142L307.838 61.3039Z" fill="#2F2E41"/>
</g>
<defs>
<clipPath id="clip0_2432_747">
<rect width="487" height="399" fill="white"/>
</clipPath>
</defs>
</svg>
