<svg width="20" height="24" viewBox="0 0 20 24" fill="none" xmlns="http://www.w3.org/2000/svg">
<g clip-path="url(#clip0_2343_641)">
<path d="M15.25 0.375H4.75C2.33369 0.375 0.375 2.33369 0.375 4.75V15.25C0.375 17.6663 2.33369 19.625 4.75 19.625H15.25C17.6663 19.625 19.625 17.6663 19.625 15.25V4.75C19.625 2.33369 17.6663 0.375 15.25 0.375Z" fill="#FD3C4F"/>
<path opacity="0.3" d="M10 24C14.8325 24 18.75 23.4124 18.75 22.6875C18.75 21.9626 14.8325 21.375 10 21.375C5.16751 21.375 1.25 21.9626 1.25 22.6875C1.25 23.4124 5.16751 24 10 24Z" fill="#FD3C4F"/>
<path opacity="0.3" d="M9.5625 2.5625C10.7704 2.5625 11.75 1.58337 11.75 0.375H4.75C2.33369 0.375 0.375 2.33369 0.375 4.75V14.375C1.58294 14.375 2.5625 13.3959 2.5625 12.1875V4.75C2.5625 3.54381 3.54381 2.5625 4.75 2.5625H9.5625Z" fill="white"/>
<path opacity="0.15" d="M19.625 15.25V5.625C18.4171 5.625 17.4375 6.60412 17.4375 7.8125V15.25C17.4375 16.4562 16.4562 17.4375 15.25 17.4375H10.4375C9.22956 17.4375 8.25 18.4166 8.25 19.625H15.25C17.6663 19.625 19.625 17.6663 19.625 15.25Z" fill="#FD3C4F"/>
<path d="M2.125 5.40625C1.76231 5.40625 1.46875 5.11269 1.46875 4.75C1.46875 2.9405 2.9405 1.46875 4.75 1.46875C5.11269 1.46875 5.40625 1.76231 5.40625 2.125C5.40625 2.48769 5.11269 2.78125 4.75 2.78125C3.66456 2.78125 2.78125 3.66456 2.78125 4.75C2.78125 5.11269 2.48769 5.40625 2.125 5.40625Z" fill="white"/>
<path d="M10.3916 13.6029L7.46994 15.139C6.77431 15.5047 5.961 14.9137 6.09356 14.1389L6.65138 10.8852L4.28756 8.5813C3.7245 8.03267 4.03513 7.0763 4.813 6.96342L8.07938 6.48873L9.54019 3.52861C9.888 2.8238 10.8934 2.8238 11.2416 3.52861L12.7024 6.48873L15.9688 6.96342C16.7467 7.0763 17.0573 8.03267 16.4943 8.5813L14.1304 10.8856L14.6883 14.1393C14.8212 14.9141 14.0079 15.5052 13.3119 15.1394L10.3916 13.6029Z" fill="#FFCE29"/>
</g>
<defs>
<clipPath id="clip0_2343_641">
<rect width="20" height="24" fill="white"/>
</clipPath>
</defs>
</svg>
